<?xml version="1.0" encoding="UTF-8"?>
<svg version="1.1" xmlns="http://www.w3.org/2000/svg" width="1024" height="1024">
<path d="M0 0 C13.16829264 -0.61247873 24.54445297 5.08675102 34.55078125 13.140625 C45.43039225 23.11673889 52.51368937 36.55721541 59.85745239 49.17462158 C61.34552323 51.73113429 62.83849025 54.28477668 64.33113098 56.83862305 C65.08737255 58.13259696 65.84338586 59.4267043 66.59916687 60.72094727 C69.8396444 66.26924509 73.0997696 71.80576815 76.37109375 77.3359375 C76.88800781 78.20984131 77.40492188 79.08374512 77.9375 79.98413086 C79.56055366 82.72678173 81.18447968 85.46891445 82.80859375 88.2109375 C83.40430176 89.21705078 84.00000977 90.22316406 84.61376953 91.25976562 C88.25941436 97.41668689 91.9073033 103.57227329 95.55731201 109.72660828 C97.79704844 113.50350869 100.03450032 117.28175351 102.27070618 121.06074524 C104.26126174 124.42404459 106.25331311 127.78645612 108.24609375 131.1484375 C108.84241104 132.15455582 108.84241104 132.15455582 109.45077515 133.18099976 C115.5018054 143.38453246 121.63963173 153.53225067 127.81997681 163.65783691 C132.81086285 171.84161086 137.65172867 180.0929198 142.36865234 188.43701172 C146.70222251 196.08267813 151.21375151 203.61490051 155.75048828 211.14135742 C160.97419388 219.80912704 166.14836715 228.50527102 171.30859375 237.2109375 C176.95026035 246.72610026 182.60825235 256.23075267 188.30859375 265.7109375 C196.36756423 279.11676685 204.34676269 292.56959243 212.32519531 306.0234375 C216.1207896 312.42383669 219.91802794 318.82325969 223.71618652 325.22213745 C224.88695824 327.19485785 226.05727131 329.16784975 227.22753906 331.14086914 C230.89288509 337.31802983 234.57019078 343.48766186 238.26953125 349.64453125 C243.3820637 358.15359599 248.44433475 366.69226496 253.50634766 375.23144531 C256.27032177 379.89332576 259.03730755 384.55339977 261.80859375 389.2109375 C262.21352051 389.89172363 262.61844727 390.57250977 263.03564453 391.27392578 C264.23935084 393.29571276 265.44545848 395.31604688 266.65234375 397.3359375 C267.01138794 397.93929932 267.37043213 398.54266113 267.74035645 399.16430664 C269.99191015 402.92524206 272.3520796 406.58268539 274.80859375 410.2109375 C274.94322021 409.13501343 274.94322021 409.13501343 275.08056641 408.03735352 C282.51522684 349.77757673 298.62172084 283.04999541 339.80859375 239.2109375 C340.34484375 238.61023438 340.88109375 238.00953125 341.43359375 237.390625 C354.70185537 223.12724375 374.50150183 212.60340361 394.04101562 211.81054688 C407.96907144 211.5761509 420.63291762 215.43110417 430.90625 225.20703125 C438.59946484 234.10894651 440.43008614 244.79180879 439.80859375 256.2109375 C439.33225038 260.94175005 438.64231172 265.63549744 437.93359375 270.3359375 C437.71754984 271.81145503 437.50199651 273.28704445 437.28686523 274.76269531 C435.74036479 285.28880431 434.09946335 295.80040402 432.4609375 306.3125 C423.25860753 364.70086525 423.25860753 364.70086525 416.99609375 423.4609375 C416.90945969 424.51985199 416.90945969 424.51985199 416.82107544 425.60015869 C414.01486818 460.79924942 414.70673267 496.24894532 414.80859375 531.5234375 C415.01862452 604.45476972 415.01862452 604.45476972 412.49609375 633.8359375 C412.43201324 634.60122772 412.36793274 635.36651794 412.3019104 636.15499878 C407.02924453 698.5603483 391.22106881 761.85315791 350.80859375 811.2109375 C350.37724121 811.73848633 349.94588867 812.26603516 349.50146484 812.80957031 C334.6365817 830.90359017 318.52670102 847.10028513 299.80859375 861.2109375 C299.22529297 861.65646973 298.64199219 862.10200195 298.04101562 862.56103516 C278.09704063 877.77077898 256.39972776 890.37652477 233.80859375 901.2109375 C233.15826172 901.52885254 232.50792969 901.84676758 231.83789062 902.17431641 C207.74709055 913.86962846 181.30732311 921.60866879 154.93359375 925.9609375 C154.23339111 926.07687256 153.53318848 926.19280762 152.81176758 926.31225586 C138.11630572 928.53391866 123.19633435 928.45209091 108.37109375 928.4609375 C107.35046844 928.46161224 106.32984314 928.46228699 105.27828979 928.46298218 C90.24212683 928.44720756 75.61535553 928.06891616 60.80859375 925.2109375 C59.86161621 925.03401367 58.91463867 924.85708984 57.93896484 924.67480469 C11.37816144 915.78780776 -32.86085334 896.54790856 -67.95703125 864.26171875 C-70.04307511 862.34708059 -72.16822671 860.49270792 -74.31640625 858.6484375 C-77.77882524 855.63794067 -80.99208392 852.43117824 -84.20703125 849.16015625 C-86.05372661 847.34617793 -87.95714301 845.68382306 -89.94140625 844.0234375 C-94.15301483 840.40524539 -97.82028873 836.36537027 -101.54663086 832.26220703 C-104.93941275 828.53564761 -108.41796903 824.94004307 -112.00390625 821.3984375 C-115.60161583 817.83665369 -119.02946371 814.21902889 -122.31640625 810.37109375 C-124.72075765 807.60108058 -127.20542388 804.90739108 -129.69140625 802.2109375 C-137.54221277 793.67527619 -145.06783095 784.87244988 -152.60644531 776.06201172 C-154.1515214 774.25751898 -155.69843604 772.45462254 -157.24609375 770.65234375 C-159.74519503 767.7419877 -162.24098962 764.82882856 -164.734375 761.91357422 C-165.69186319 760.79468637 -166.65017226 759.67650037 -167.609375 758.55908203 C-173.2592718 751.97347053 -178.74186743 745.29282235 -184.06665039 738.44140625 C-187.18276623 734.4481738 -190.39696402 730.55796189 -193.69140625 726.7109375 C-197.90187188 721.79028183 -201.94635695 716.76505238 -205.92358398 711.65454102 C-209.4727321 707.10156809 -213.10006641 702.61768077 -216.75390625 698.1484375 C-221.89343995 691.85129038 -226.88657017 685.4644727 -231.81787109 679.00244141 C-234.50703054 675.49496682 -237.2261154 672.01069359 -239.94140625 668.5234375 C-240.53501953 667.7603125 -241.12863281 666.9971875 -241.74023438 666.2109375 C-244.71258837 662.39071073 -247.68888402 658.57364594 -250.671875 654.76171875 C-257.41095266 646.13977555 -264.04015003 637.44602149 -270.58349609 628.67456055 C-274.74091572 623.11249086 -278.97042115 617.61384275 -283.25390625 612.1484375 C-289.81849143 603.76107354 -296.14738951 595.21311702 -302.43261719 586.61523438 C-305.38555798 582.5785102 -308.35051255 578.5506499 -311.31640625 574.5234375 C-312.18930298 573.33741943 -312.18930298 573.33741943 -313.07983398 572.12744141 C-316.77559853 567.1123164 -320.5043762 562.12344185 -324.25390625 557.1484375 C-328.98176012 550.87126372 -333.60203942 544.52205642 -338.18896484 538.14135742 C-342.21161742 532.55074509 -346.28424312 526.9989791 -350.37890625 521.4609375 C-354.78360982 515.49990133 -359.15117814 509.51684427 -363.44311523 503.47412109 C-366.20799945 499.58188992 -368.9994708 495.70996154 -371.80297852 491.84545898 C-378.82483198 482.16176746 -385.71946555 472.39394228 -392.54541016 462.57128906 C-394.08856605 460.35840992 -395.64383825 458.15465366 -397.203125 455.953125 C-410.63446938 436.88831475 -424.21617557 415.47603019 -422.19140625 391.2109375 C-420.3176189 380.45634288 -414.72182443 372.65443612 -406.11328125 366.1328125 C-391.96403535 356.82608926 -377.73976541 352.67763484 -360.890625 355.828125 C-346.56960009 360.51199132 -335.71188867 372.77389892 -326.19921875 383.91796875 C-323.43103275 387.07930179 -320.55942287 390.14027832 -317.69140625 393.2109375 C-310.91983924 400.46693272 -310.91983924 400.46693272 -307.75390625 404.1484375 C-303.78490036 408.75407592 -299.5974487 413.15832732 -295.42797852 417.58178711 C-292.467973 420.73155257 -289.56013365 423.91149134 -286.7265625 427.17578125 C-283.13238903 431.31043194 -279.39837024 435.29881672 -275.62890625 439.2734375 C-274.21842193 440.76531489 -272.80827221 442.2575087 -271.3984375 443.75 C-270.69541504 444.49411133 -269.99239258 445.23822266 -269.26806641 446.00488281 C-266.69276459 448.740649 -264.13617067 451.49340725 -261.58056641 454.24755859 C-256.35496577 459.87813243 -251.08162814 465.41596346 -245.5703125 470.76953125 C-243.63611868 472.75454133 -241.83167024 474.76744961 -240.02734375 476.8671875 C-235.66243788 481.89594846 -230.97119685 486.57738002 -226.25390625 491.2734375 C-225.39861328 492.13259766 -224.54332031 492.99175781 -223.66210938 493.87695312 C-219.22687879 498.30541753 -214.72745737 502.58418425 -209.97192383 506.66674805 C-208.35463959 508.06937012 -206.79060613 509.50659444 -205.2421875 510.984375 C-193.55973019 522.08354271 -181.38250076 531.30189924 -165.19140625 534.2109375 C-163.92468989 523.23272906 -170.62850444 514.81625112 -176.7421875 506.32421875 C-182.21257035 498.64803889 -187.49295321 490.86391231 -192.69412231 483.00360107 C-195.26770753 479.11544287 -197.85081873 475.23361991 -200.43359375 471.3515625 C-200.97768387 470.53356171 -201.52177399 469.71556091 -202.08235168 468.87277222 C-208.59922348 459.08336054 -215.17451761 449.33339702 -221.75390625 439.5859375 C-222.67258987 438.22477814 -222.67258987 438.22477814 -223.60983276 436.83612061 C-227.80160094 430.62631359 -231.9959742 424.41826957 -236.19140625 418.2109375 C-236.72610535 417.41973511 -237.26080444 416.62853271 -237.81170654 415.81335449 C-244.93320769 405.27578557 -252.06019035 394.74193419 -259.19140625 384.2109375 C-259.85662292 383.22858124 -259.85662292 383.22858124 -260.53527832 382.22637939 C-265.77852599 374.48372144 -271.02330783 366.74210397 -276.26885986 359.00100708 C-279.41895543 354.35190205 -282.56717206 349.70152761 -285.71484375 345.05078125 C-302.89339016 319.6507871 -302.89339016 319.6507871 -320.32714844 294.42578125 C-353.97186496 246.25089847 -353.97186496 246.25089847 -349.6953125 220.1875 C-346.48415248 206.07290963 -339.88446027 195.80763363 -327.81640625 187.75 C-316.69007852 181.22652809 -304.36030739 179.412106 -291.70703125 181.89453125 C-270.48427211 188.01257545 -255.85977918 203.14683077 -242.95849609 220.28637695 C-240.0148613 224.18822921 -236.93701013 227.93996696 -233.75390625 231.6484375 C-229.96779164 236.06213271 -226.3168639 240.55278483 -222.75390625 245.1484375 C-218.48148627 250.65305039 -214.02804997 255.96769584 -209.46777344 261.23535156 C-205.90925896 265.35169979 -202.47045445 269.54500849 -199.09375 273.8125 C-192.63786177 281.95195661 -185.96239452 289.92063206 -179.35620117 297.93823242 C-173.93321385 304.5209262 -168.53189829 311.12105751 -163.13671875 317.7265625 C-156.1779079 326.24027247 -149.18423962 334.72516922 -142.19140625 343.2109375 C-128.64400403 359.65064225 -128.64400403 359.65064225 -123.69140625 365.7109375 C-115.18294583 376.11719578 -106.66639886 386.51331541 -97.95361328 396.74951172 C-94.65151971 400.63929714 -91.46250427 404.60768012 -88.29296875 408.60546875 C-84.84680275 412.87794593 -81.28917766 417.05441712 -77.72265625 421.2265625 C-76.28193054 422.9251959 -74.85485123 424.63622066 -73.47265625 426.3828125 C-68.69043769 432.38715358 -62.47383878 436.72566291 -55.19140625 439.2109375 C-52.85932605 439.28739915 -50.52294747 439.30237049 -48.19140625 439.2109375 C-48.53542045 431.63498035 -50.60977178 426.66195439 -54.37890625 420.1484375 C-54.91209473 419.1994458 -55.4452832 418.2504541 -55.99462891 417.27270508 C-57.70719636 414.24035404 -59.44461067 411.22368823 -61.19140625 408.2109375 C-61.75649902 407.23576172 -62.3215918 406.26058594 -62.90380859 405.25585938 C-65.20565593 401.29401965 -67.51494661 397.33670223 -69.83666992 393.38647461 C-74.04938145 386.21235771 -78.14711032 378.98116882 -82.19140625 371.7109375 C-86.74399483 363.52896819 -91.38400468 355.40786966 -96.12890625 347.3359375 C-101.81285769 337.66012412 -107.29931233 327.88537182 -112.72851562 318.06469727 C-118.4492093 307.72155836 -124.3033423 297.45941834 -130.19140625 287.2109375 C-138.81354052 272.19462846 -147.37410609 257.15133272 -155.75927734 242.00097656 C-159.67761051 234.92382912 -163.63536484 227.87088507 -167.62890625 220.8359375 C-179.5443214 199.81652697 -191.1655212 178.62813118 -202.53759766 157.31005859 C-203.63880374 155.24647578 -204.74264031 153.18429451 -205.84912109 151.12353516 C-233.97996647 98.66694234 -233.97996647 98.66694234 -226.56640625 72.2734375 C-221.36022202 57.43490546 -208.7011343 48.9892288 -195.19140625 42.2109375 C-181.80622099 36.64177864 -168.64592558 36.84936213 -155.19140625 42.2109375 C-134.61230207 50.8667724 -121.80849317 71.14450695 -110.19140625 89.2109375 C-109.59666504 90.13374512 -109.00192383 91.05655273 -108.38916016 92.00732422 C-91.69634579 117.93463844 -75.30812483 144.05569914 -59.09912109 170.2878418 C-55.04841607 176.83900481 -50.9672385 183.37070534 -46.87890625 189.8984375 C-41.61075363 198.31224323 -36.38610423 206.7515949 -31.19140625 215.2109375 C-24.20634029 226.5840794 -17.15053136 237.91138648 -10.06347656 249.22119141 C-8.15305711 252.27218209 -6.24593564 255.32521028 -4.33984375 258.37890625 C2.83984731 269.88098999 10.03765168 281.3709826 17.29736328 292.82275391 C18.85643856 295.28654621 20.40887744 297.75443975 21.9609375 300.22265625 C28.45269214 310.5188632 35.07630778 320.72373538 41.81054688 330.86264038 C42.66889966 332.15506655 43.52619924 333.44819297 44.38232422 334.74209595 C57.11504486 355.32153731 57.11504486 355.32153731 76.80859375 368.2109375 C77.79859375 368.2109375 78.78859375 368.2109375 79.80859375 368.2109375 C82.45116465 363.62228726 81.84997433 360.26581403 80.80859375 355.2109375 C79.66755943 351.13750409 78.26195405 347.18243024 76.80859375 343.2109375 C76.37417969 342.01235107 75.93976563 340.81376465 75.4921875 339.57885742 C58.47271145 293.16503184 37.28540368 248.16910613 16.80859375 203.2109375 C16.108235 201.67236359 15.40787691 200.13378938 14.70751953 198.59521484 C7.48439623 182.73275029 0.2074113 166.89554235 -7.10449219 151.07382202 C-9.74306004 145.36269291 -12.37757577 139.64969445 -15.01171875 133.93652344 C-16.43951652 130.83994334 -17.86931511 127.74429996 -19.30078125 124.64941406 C-52.73325974 52.32302411 -52.73325974 52.32302411 -44.10546875 28.25390625 C-38.1919602 15.03696193 -24.94120711 7.65871036 -12.19140625 2.2109375 C-8.13084264 0.92895149 -4.22034628 0.40623654 0 0 Z " fill="#DFBA94" transform="translate(540.19140625,50.7890625)"/>
<path d="M0 0 C13.60337107 9.82074112 21.54471574 25.26982182 29.81057739 39.47149658 C31.29864823 42.02800929 32.79161525 44.58165168 34.28425598 47.13549805 C35.04049755 48.42947196 35.79651086 49.7235793 36.55229187 51.01782227 C39.7927694 56.56612009 43.0528946 62.10264315 46.32421875 67.6328125 C46.84113281 68.50671631 47.35804688 69.38062012 47.890625 70.28100586 C49.51367866 73.02365673 51.13760468 75.76578945 52.76171875 78.5078125 C53.35742676 79.51392578 53.95313477 80.52003906 54.56689453 81.55664062 C58.21253936 87.71356189 61.8604283 93.86914829 65.51043701 100.02348328 C67.75017344 103.80038369 69.98762532 107.57862851 72.22383118 111.35762024 C74.21438674 114.72091959 76.20643811 118.08333112 78.19921875 121.4453125 C78.79553604 122.45143082 78.79553604 122.45143082 79.40390015 123.47787476 C85.4549304 133.68140746 91.59275673 143.82912567 97.77310181 153.95471191 C102.76398785 162.13848586 107.60485367 170.3897948 112.32177734 178.73388672 C116.65534751 186.37955313 121.16687651 193.91177551 125.70361328 201.43823242 C130.92731888 210.10600204 136.10149215 218.80214602 141.26171875 227.5078125 C146.90338535 237.02297526 152.56137735 246.52762767 158.26171875 256.0078125 C166.32068923 269.41364185 174.29988769 282.86646743 182.27832031 296.3203125 C186.0739146 302.72071169 189.87115294 309.12013469 193.66931152 315.51901245 C194.84008324 317.49173285 196.01039631 319.46472475 197.18066406 321.43774414 C200.84601009 327.61490483 204.52331578 333.78453686 208.22265625 339.94140625 C213.3351887 348.45047099 218.39745975 356.98913996 223.45947266 365.52832031 C224.65365826 367.54250362 225.84819006 369.55648094 227.04296875 371.5703125 C227.43210449 372.22628418 227.82124023 372.88225586 228.22216797 373.55810547 C231.35952003 378.84172412 234.51861655 384.11212705 237.69348145 389.37329102 C238.72185228 391.08142424 239.74184958 392.79458965 240.76171875 394.5078125 C241.3084877 395.42114098 241.3084877 395.42114098 241.86630249 396.35292053 C249.92755839 410.06704631 248.91074668 431.29989123 245.6328125 446.43676758 C244.8215851 449.51679681 243.82322211 452.50574832 242.76171875 455.5078125 C242.34415044 456.80049034 241.92750959 458.09346809 241.51171875 459.38671875 C236.33245182 474.81484538 228.05507469 488.94991826 217.76171875 501.5078125 C217.33246094 502.03181641 216.90320313 502.55582031 216.4609375 503.09570312 C211.7619991 508.80349142 206.93206941 514.35266373 201.88671875 519.7578125 C166.31289763 558.65260742 142.3245541 608.70292639 142.38671875 661.9453125 C142.38626556 662.63948273 142.38581238 663.33365295 142.38534546 664.04885864 C142.41610115 680.38938055 144.40341332 696.36301806 146.76171875 712.5078125 C146.99254008 714.23806132 147.22196302 715.96849801 147.44921875 717.69921875 C149.5838682 732.9715892 154.04235399 748.07532848 159.19189453 762.58642578 C160.40118169 766.66401358 160.41400766 770.09451986 158.63671875 773.9453125 C156.76171875 775.5078125 156.76171875 775.5078125 154.01171875 776.0703125 C148.36854704 775.0936097 145.35569815 772.50777413 141.890625 768.16015625 C131.497432 752.62264639 125.35822175 733.52557184 120.76171875 715.5078125 C120.58447266 714.83411621 120.40722656 714.16041992 120.22460938 713.46630859 C104.92384744 654.87322835 109.98076856 588.53211249 140.46484375 535.66748047 C148.41715329 522.42460958 157.80126679 510.28205046 167.76171875 498.5078125 C168.27089844 497.90098633 168.78007813 497.29416016 169.3046875 496.66894531 C175.69519665 489.05865389 182.30724496 481.68601096 189.0703125 474.40625 C201.51621538 461.00296998 209.85645252 448.7631774 209.94921875 429.8203125 C209.96339844 428.51707031 209.97757813 427.21382813 209.9921875 425.87109375 C209.67654075 416.39283111 207.54633946 409.05300798 202.57421875 401.0078125 C201.4810508 399.16786657 200.39000784 397.32665691 199.30078125 395.484375 C198.72360352 394.51661133 198.14642578 393.54884766 197.55175781 392.55175781 C194.41574991 387.2190046 191.43923347 381.79833466 188.44921875 376.3828125 C187.17206623 374.07801902 185.89472074 371.77333247 184.6171875 369.46875 C183.97958496 368.31729492 183.34198242 367.16583984 182.68505859 365.97949219 C179.54926869 360.31930782 176.40514355 354.66375913 173.26171875 349.0078125 C172.01167727 346.75783554 170.76167731 344.50783552 169.51171875 342.2578125 C168.89296875 341.1440625 168.27421875 340.0303125 167.63671875 338.8828125 C132.01171875 274.7578125 132.01171875 274.7578125 130.13623047 271.38183594 C128.88796866 269.13502971 127.63959651 266.88828477 126.39111328 264.64160156 C123.23860496 258.96823803 120.08810559 253.29377528 116.94140625 247.6171875 C111.10878652 237.09949561 105.25920089 226.59313822 99.32421875 216.1328125 C94.07782703 206.88457852 88.92616723 197.58605802 83.79962158 188.27111816 C78.567235 178.76466441 73.29161306 169.28369465 67.98071289 159.82080078 C63.72057296 152.2277669 59.48585223 144.62093092 55.26171875 137.0078125 C49.87528002 127.30097936 44.46375614 117.60861994 39.03344727 107.92626953 C34.73447 100.2566475 30.46342143 92.57181219 26.19921875 84.8828125 C20.00599217 73.72435408 13.77376283 62.58959992 7.45800781 51.5 C5.62700482 48.27018239 3.81567063 45.0297069 2.00390625 41.7890625 C-13.01129254 14.07176439 -13.01129254 14.07176439 -38.23828125 -3.4921875 C-41.29573845 -4.10367894 -44.1106308 -4.34084958 -47.23828125 -4.4921875 C-32.34785816 -14.41913623 -13.66295973 -9.10863982 0 0 Z " fill="#BA8F63" transform="translate(570.23828125,60.4921875)"/>
<path d="M0 0 C0.66 0 1.32 0 2 0 C2.1034192 5.37392583 1.7914703 10.4523738 0.91772461 15.76220703 C0.80204195 16.49703151 0.68635929 17.23185598 0.5671711 17.98894787 C0.31603827 19.57920248 0.06209757 21.16901574 -0.19437981 22.75841713 C-0.60696122 25.31548213 -1.01210163 27.87363329 -1.41542053 30.43217468 C-1.99337409 34.09506097 -2.57414867 37.75748303 -3.15704346 41.41958618 C-4.67851369 50.99096362 -6.16824409 60.5672971 -7.65234375 70.14453125 C-7.87312843 71.5692188 -7.87312843 71.5692188 -8.09837341 73.02268791 C-12.91068344 104.12717743 -17.3872165 135.29886619 -19.875 166.6875 C-19.93125549 167.38275787 -19.98751099 168.07801575 -20.04547119 168.79434204 C-22.7914656 203.85902668 -22.10146259 239.17600495 -22 274.3125 C-21.78996923 347.24383222 -21.78996923 347.24383222 -24.3125 376.625 C-24.37658051 377.39029022 -24.44066101 378.15558044 -24.50668335 378.94406128 C-29.77934922 441.3494108 -45.58752494 504.64222041 -86 554 C-86.43135254 554.52754883 -86.86270508 555.05509766 -87.30712891 555.59863281 C-102.17201205 573.69265267 -118.28189273 589.88934763 -137 604 C-137.87495117 604.66829834 -137.87495117 604.66829834 -138.76757812 605.35009766 C-158.71155312 620.55984148 -180.40886599 633.16558727 -203 644 C-203.65033203 644.31791504 -204.30066406 644.63583008 -204.97070312 644.96337891 C-229.1893419 656.72075256 -255.74061843 664.43640604 -282.25 668.8125 C-283.37571411 668.99897095 -283.37571411 668.99897095 -284.52416992 669.18920898 C-298.24793889 671.26968623 -298.24793889 671.26968623 -304 668 C-304 666.68 -304 665.36 -304 664 C-299.2552316 661.34292969 -294.77397213 659.56451105 -289.51953125 658.140625 C-226.7040357 640.55032632 -165.98569456 605.6666334 -124 555 C-123.53480957 554.44328613 -123.06961914 553.88657227 -122.59033203 553.31298828 C-95.91183601 521.31357338 -78.38466939 486.64965943 -66 447 C-65.73558105 446.16033691 -65.47116211 445.32067383 -65.19873047 444.45556641 C-53.58196011 406.76362702 -51.93259512 364.784036 -51.77020454 325.67847061 C-51.7534909 321.78608197 -51.73024156 317.89377855 -51.70530701 314.00143433 C-51.63947419 303.63312214 -51.58150111 293.26477212 -51.53289622 282.89636451 C-51.34805588 243.54273337 -50.90251463 204.55970266 -46.1875 165.4375 C-46.05683136 164.32865448 -45.92616272 163.21980896 -45.79153442 162.07736206 C-43.87801698 145.89100317 -41.6665857 129.89544868 -38 114 C-37.59608525 112.16802802 -37.19244063 110.33599646 -36.7890625 108.50390625 C-34.46861169 98.19728362 -31.63788162 88.09104092 -28.51953125 78 C-27.50360575 74.70065487 -26.54377185 71.39340419 -25.63671875 68.0625 C-11.97025621 17.95538431 -11.97025621 17.95538431 0 0 Z " fill="#BA8F63" transform="translate(977,308)"/>
<path d="M0 0 C14.27429637 11.13395117 24.31161878 25.93301568 34 41 C34.89211182 42.38421143 34.89211182 42.38421143 35.80224609 43.79638672 C52.49506046 69.72370094 68.88328142 95.84476164 85.09228516 122.0769043 C89.14299018 128.62806731 93.22416775 135.15976784 97.3125 141.6875 C102.58065262 150.10130573 107.80530202 158.5406574 113 167 C119.98506596 178.3731419 127.04087489 189.70044898 134.12792969 201.01025391 C136.03834914 204.06124459 137.94547061 207.11427278 139.8515625 210.16796875 C147.03125356 221.67005249 154.22905793 233.1600451 161.48876953 244.61181641 C163.04784481 247.07560871 164.60028369 249.54350225 166.15234375 252.01171875 C172.64409839 262.3079257 179.26771403 272.51279788 186.00195312 282.65170288 C186.86030591 283.94412905 187.71760549 285.23725547 188.57373047 286.53115845 C202.41296998 308.14002931 202.41296998 308.14002931 224 321 C222.22918442 326.31244673 216.7402903 328.42600411 212 331 C205.08001868 333.94227354 197.87428213 335.54912979 190.56640625 333.2265625 C163.0225628 321.10899018 143.37455872 276.48492698 128 252 C127.39591309 251.04029297 126.79182617 250.08058594 126.16943359 249.09179688 C117.56373215 235.41403877 109.09648442 221.65648105 100.72070312 207.83691406 C98.45379957 204.09948227 96.17997143 200.36628989 93.90576172 196.63330078 C92.16270082 193.77178819 90.42104408 190.90942502 88.6796875 188.046875 C86.12497328 183.84738255 83.56702008 179.64988042 81.0078125 175.453125 C73.42960579 163.0128221 65.92141827 150.53453267 58.5 138 C50.80427803 125.0024904 43.01139945 112.06773124 35.14976501 99.16999817 C31.5558605 93.27381343 27.97409944 87.37028099 24.39230347 81.46673584 C22.61670786 78.54101516 20.83946064 75.61629798 19.0625 72.69140625 C16.47464356 68.43110479 13.89132078 64.16811991 11.3125 59.90234375 C7.89554159 54.25553924 4.45616905 48.62288353 1 43 C0.40026367 42.0217627 -0.19947266 41.04352539 -0.81738281 40.03564453 C-12.82757668 20.52146122 -23.5083408 5.17655789 -46.984375 -0.75390625 C-49.31863031 -1.22537307 -51.64466225 -1.65086808 -54 -2 C-53.67 -2.99 -53.34 -3.98 -53 -5 C-50.671875 -6.1328125 -50.671875 -6.1328125 -47.75 -7.125 C-46.79609375 -7.45757812 -45.8421875 -7.79015625 -44.859375 -8.1328125 C-29.23056118 -12.87269866 -13.29607412 -9.15951773 0 0 Z " fill="#BA8F63" transform="translate(396,99)"/>
<path d="M0 0 C12.46476422 8.12208397 22.04680289 19.04319319 30.91259766 30.8215332 C33.85623245 34.72338546 36.93408362 38.47512321 40.1171875 42.18359375 C43.90330211 46.59728896 47.55422985 51.08794108 51.1171875 55.68359375 C55.38960748 61.18820664 59.84304378 66.50285209 64.40332031 71.77050781 C67.96183479 75.88685604 71.4006393 80.08016474 74.77734375 84.34765625 C81.23323198 92.48711286 87.90869923 100.45578831 94.51489258 108.47338867 C99.9378799 115.05608245 105.33919546 121.65621376 110.734375 128.26171875 C117.69318585 136.77542872 124.68685413 145.26032547 131.6796875 153.74609375 C145.22708972 170.1857985 145.22708972 170.1857985 150.1796875 176.24609375 C158.68814792 186.65235203 167.20469489 197.04847166 175.91748047 207.28466797 C179.21957404 211.17445339 182.40858948 215.14283637 185.578125 219.140625 C189.024291 223.41310218 192.58191609 227.58957337 196.1484375 231.76171875 C197.58916321 233.46035215 199.01624252 235.17137691 200.3984375 236.91796875 C205.18065606 242.92230983 211.39725497 247.26081916 218.6796875 249.74609375 C221.0117677 249.8225554 223.34814628 249.83752674 225.6796875 249.74609375 C225.30351782 255.01246921 223.52045478 258.2364271 219.6796875 261.74609375 C212.31740485 267.24508265 204.9312128 270.03254845 195.6796875 268.74609375 C183.46714647 264.83959771 175.16348958 254.59976649 167.6796875 244.74609375 C165.9583271 242.53162078 164.22524857 240.32641551 162.4921875 238.12109375 C161.80310303 237.24106689 161.80310303 237.24106689 161.10009766 236.34326172 C157.49218251 231.74609941 153.81445663 227.20904682 150.1171875 222.68359375 C145.35215564 216.84686608 140.70522696 210.93760673 136.1328125 204.94921875 C129.27981101 195.97741487 122.22463685 187.16188524 115.1628418 178.35424805 C109.49782555 171.28282078 103.91185398 164.14996313 98.32519531 157.01660156 C93.14199187 150.40046067 87.93731056 143.80331594 82.6796875 137.24609375 C77.42334107 130.69046375 72.2202669 124.09470879 67.03857422 117.47998047 C64.75515455 114.56642558 62.46723305 111.65640959 60.1796875 108.74609375 C57.43920542 105.25953218 54.69959128 101.77231229 51.96484375 98.28125 C47.23355994 92.24478445 42.47750542 86.22985443 37.6796875 80.24609375 C31.05759615 71.98712883 24.51979428 63.66321842 18.00390625 55.3203125 C11.51427227 47.02074068 4.93006121 38.80339585 -1.7578125 30.66259766 C-3.23315016 28.85300381 -4.68511529 27.02704019 -6.1328125 25.1953125 C-17.66647614 10.79958387 -31.08491243 1.59996696 -49.3203125 -2.25390625 C-49.3203125 -2.91390625 -49.3203125 -3.57390625 -49.3203125 -4.25390625 C-31.89803637 -10.83500212 -16.08041217 -9.34528302 0 0 Z " fill="#BA8F63" transform="translate(266.3203125,240.25390625)"/>
<path d="M0 0 C0.83144531 -0.0721875 1.66289063 -0.144375 2.51953125 -0.21875 C6.87892932 0.95567056 8.83414973 3.75994526 11.1875 7.5 C13.11445216 11.63752817 14.64247361 15.89523373 16.1875 20.1875 C29.84672187 56.36604369 49.66986771 89.45210881 75.1875 118.5 C75.68258057 119.08048096 76.17766113 119.66096191 76.68774414 120.2590332 C81.78546074 126.19547186 87.22328453 131.77671585 92.75 137.3125 C93.23482849 137.79866791 93.71965698 138.28483582 94.21917725 138.78573608 C101.77476674 146.33681803 109.53588568 153.22592855 118.1875 159.5 C119.13882813 160.23476563 120.09015625 160.96953125 121.0703125 161.7265625 C125.54322981 165.17570582 130.04214689 168.4347733 134.796875 171.48046875 C135.60415039 172.00133057 136.41142578 172.52219238 137.24316406 173.05883789 C138.83502813 174.07879474 140.43563872 175.08526795 142.04589844 176.07592773 C147.5937555 179.62968283 151.18965636 183.02934622 152.68359375 189.72265625 C152.53556977 194.37060914 151.85589714 197.67529743 149.1875 201.5 C144.7602018 204.51861241 141.46160139 204.8873334 136.1875 204.5 C132.95945149 203.59183847 129.90351962 202.35620568 126.8125 201.0625 C125.9361792 200.70124023 125.0598584 200.33998047 124.15698242 199.96777344 C91.45596145 186.21199538 62.42512472 162.84376299 41.4453125 134.2109375 C40.14945601 132.44825072 38.82724349 130.70789664 37.5 128.96875 C14.62093814 98.73352191 -16.05211288 50.14591317 -13.8125 10.5 C-12.36079301 6.90529697 -10.88247933 3.9304003 -7.8125 1.5 C-5.03881167 0.57543722 -2.89696067 0.17800066 0 0 Z " fill="#B0BDC5" transform="translate(57.8125,610.5)"/>
<path d="M0 0 C5.37437313 3.42005563 6.92385187 9.18991026 9.15136719 14.88378906 C14.76330629 28.87811821 20.93893412 42.67623777 28 56 C28.4242627 56.80066895 28.84852539 57.60133789 29.28564453 58.42626953 C34.72659316 68.62973945 40.30852037 78.55700461 47 88 C47.79980613 89.14951216 48.599268 90.2992639 49.3984375 91.44921875 C54.61836719 98.90915317 60.12219062 106.04121418 66 113 C66.86641213 114.05295223 67.7322743 115.10635719 68.59765625 116.16015625 C79.29769742 129.05690705 91.04011038 141.64219486 104.32617188 151.90820312 C106.93800856 153.95150268 109.47037146 156.06852146 112.0078125 158.203125 C118.54846791 163.57014035 125.52695507 168.18166771 132.62133789 172.77856445 C134.26335306 173.84607744 135.8954826 174.92874738 137.52734375 176.01171875 C138.48374756 176.63522217 139.44015137 177.25872559 140.42553711 177.90112305 C144.18299486 180.96445773 146.4912863 184.29217545 147.875 188.9375 C148.07459573 193.82759536 147.17814451 197.55582286 144.0625 201.375 C140.11397461 204.4859594 135.82754518 204.5316634 131 204 C127.69606738 203.09500669 124.58930284 201.83430408 121.4375 200.5 C120.56416016 200.1390625 119.69082031 199.778125 118.79101562 199.40625 C95.7158539 189.683285 75.98069585 175.2556678 58 158 C57.175 157.21625 56.35 156.4325 55.5 155.625 C49.84564025 150.1277058 44.86156976 144.1996832 40 138 C39.50983398 137.38092773 39.01966797 136.76185547 38.51464844 136.12402344 C12.65203649 103.37746302 -19.48038332 53.63032701 -18.50390625 10.33984375 C-17.60548169 6.16808941 -15.86283569 3.5957675 -12.375 1.1875 C-8.08937265 -0.32040592 -4.48894181 -0.83282779 0 0 Z " fill="#B0BDC5" transform="translate(114,565)"/>
<path d="M0 0 C13.09888096 6.01190541 25.28830223 13.57056657 36.5 22.625 C37.00950195 23.03298828 37.51900391 23.44097656 38.04394531 23.86132812 C50.79381839 34.12705261 62.60444495 45.55821842 72.5 58.625 C73.21639648 59.56738525 73.21639648 59.56738525 73.94726562 60.52880859 C82.65929185 72.06437756 90.39173951 84.04129601 97.5 96.625 C97.97711426 97.46933594 98.45422852 98.31367188 98.94580078 99.18359375 C114.25583701 126.60081706 133.56557689 168.40752213 130.5 200.625 C129.21704664 204.62479578 127.7238662 206.75955146 124.25 209 C120.5550206 210.85137915 117.64102045 211.22733025 113.5 210.625 C110.01774402 209.19112989 108.08764235 207.92573155 106.51074219 204.43530273 C106.06456543 203.13508179 106.06456543 203.13508179 105.609375 201.80859375 C105.26753174 200.82383057 104.92568848 199.83906738 104.57348633 198.82446289 C104.21923584 197.76864014 103.86498535 196.71281738 103.5 195.625 C102.96572388 194.03449829 102.96572388 194.03449829 102.4206543 192.41186523 C101.66349011 190.1473542 100.90751445 187.88244549 100.15258789 185.6171875 C84.16125234 138.01268127 59.42819139 94.84603006 24.5 58.625 C23.65453613 57.74666504 23.65453613 57.74666504 22.79199219 56.85058594 C14.05192664 47.82095444 4.93592818 39.79309056 -5.04296875 32.140625 C-5.84895508 31.51994141 -6.65494141 30.89925781 -7.48535156 30.25976562 C-9.087842 29.0280625 -10.69508875 27.80251637 -12.30761719 26.58398438 C-21.63076606 19.44095578 -21.63076606 19.44095578 -23.25 14.1953125 C-23.88734298 7.96130149 -23.3655995 4.63983178 -19.5 -0.375 C-12.95654967 -4.35212792 -6.67528836 -2.71615182 0 0 Z " fill="#B0BDC5" transform="translate(667.5,89.375)"/>
<path d="M0 0 C0.95664551 0.51675293 0.95664551 0.51675293 1.93261719 1.04394531 C12.57319307 6.8776674 21.83700122 14.07668678 31 22 C31.55316895 22.47727539 32.10633789 22.95455078 32.67626953 23.44628906 C73.80432306 59.26626511 99.99521522 110.68792034 113 163 C113.22445801 163.89928223 113.44891602 164.79856445 113.68017578 165.72509766 C119.40585023 189.18586195 119.40585023 189.18586195 115.5 198.625 C111.42589422 202.49540049 107.43180272 204.04768241 101.8125 203.9375 C98.3759164 202.79197213 96.61138627 201.53030469 94 199 C92.8143084 196.34998474 91.89654644 193.92868102 91.0546875 191.17578125 C90.80324478 190.40566711 90.55180206 189.63555298 90.29273987 188.84210205 C89.75433301 187.19247725 89.2225258 185.54068637 88.69674683 183.88699341 C87.30929259 179.5401658 85.8583245 175.21490228 84.40234375 170.890625 C84.11365921 170.03251724 83.82497467 169.17440948 83.52754211 168.29029846 C68.20139055 123.1926353 41.59303522 83.35950153 9 49 C8.21753906 48.175 7.43507813 47.35 6.62890625 46.5 C1.99100768 41.73809345 -2.91998438 37.47985867 -8.10546875 33.32421875 C-11.14703586 30.88193477 -14.13873955 28.38414309 -17.125 25.875 C-21.39603533 22.3037702 -25.723317 18.83540034 -30.16015625 15.47265625 C-33.14456047 13.08386561 -34.76951702 11.69144893 -36 8 C-36.40813605 3.36922562 -36.56808336 -0.70152375 -34.6875 -5 C-25.29391563 -16.13313703 -9.88930496 -5.37248766 0 0 Z " fill="#B0BDC5" transform="translate(735,54)"/>
<path d="M0 0 C9.28754095 6.35257366 16.9971124 14.52267772 24.2734375 23.046875 C27.0416235 26.20820804 29.91323338 29.26918457 32.78125 32.33984375 C39.55281701 39.59583897 39.55281701 39.59583897 42.71875 43.27734375 C46.68775589 47.88298217 50.87520755 52.28723357 55.04467773 56.71069336 C58.00468325 59.86045882 60.9125226 63.04039759 63.74609375 66.3046875 C67.34026722 70.43933819 71.07428601 74.42772297 74.84375 78.40234375 C76.25423432 79.89422114 77.66438404 81.38641495 79.07421875 82.87890625 C79.77724121 83.62301758 80.48026367 84.36712891 81.20458984 85.13378906 C83.77989166 87.86955525 86.33648558 90.6223135 88.89208984 93.37646484 C94.11769048 99.00703868 99.39102811 104.54486971 104.90234375 109.8984375 C106.83653757 111.88344758 108.64098601 113.89635586 110.4453125 115.99609375 C114.81021837 121.02485471 119.5014594 125.70628627 124.21875 130.40234375 C125.07404297 131.26150391 125.92933594 132.12066406 126.81054688 133.00585938 C131.24577746 137.43432378 135.74519888 141.7130905 140.50073242 145.7956543 C142.11801666 147.19827637 143.68205012 148.63550069 145.23046875 150.11328125 C156.91292606 161.21244896 169.09015549 170.43080549 185.28125 173.33984375 C184.28237038 179.11817268 179.79396536 182.52536877 175.21484375 185.83203125 C166.61477418 191.3478254 158.93987301 192.63991864 148.75 190.91015625 C133.83428436 186.65602609 120.20697612 170.00413354 110.359375 158.671875 C108.0513749 156.08188241 105.62571138 153.65103395 103.15625 151.21484375 C99.67130436 147.76737064 96.37183721 144.24821141 93.18359375 140.52734375 C90.80688334 137.79437079 88.359166 135.12916018 85.90625 132.46484375 C78.4165621 124.31459993 71.04326215 116.09003524 63.87011719 107.65942383 C60.5252967 103.74492201 57.09857913 99.92383124 53.59375 96.15234375 C49.39090233 91.62791794 45.46435404 86.93170163 41.59375 82.12109375 C39.0815399 79.09965187 36.45724173 76.21542602 33.78125 73.33984375 C29.51206848 68.75224262 25.52366483 64.00541647 21.59375 59.12109375 C18.63816854 55.56640794 15.5094924 52.1963901 12.3605957 48.8137207 C9.42975201 45.64632953 6.66097354 42.39886674 3.96875 39.02734375 C-6.81761367 25.71322759 -17.82275397 13.46563507 -33.71875 6.33984375 C-34.87310547 5.81390625 -34.87310547 5.81390625 -36.05078125 5.27734375 C-39.10133932 4.20540533 -41.80929407 3.9272804 -45.03125 3.71484375 C-46.09988281 3.64007813 -47.16851562 3.5653125 -48.26953125 3.48828125 C-49.07777344 3.43929688 -49.88601562 3.3903125 -50.71875 3.33984375 C-36.67017463 -8.61421675 -15.57540689 -9.51084472 0 0 Z " fill="#BA8F63" transform="translate(189.71875,411.66015625)"/>
<path d="M0 0 C20.08464526 -1.00006532 35.03935367 5.60066723 50 19 C51.67941086 20.65382427 53.34967932 22.31714611 55 24 C54.67 24.66 54.34 25.32 54 26 C53.33355469 25.35933594 52.66710937 24.71867187 51.98046875 24.05859375 C36.59080104 9.61598251 21.00944392 2.51779253 0 1 C0 0.67 0 0.34 0 0 Z " fill="#DDB892" transform="translate(230,232)"/>
</svg>
