<svg xmlns="http://www.w3.org/2000/svg" width="512" height="512" viewBox="0 0 512 512" version="1.1"><path d="" stroke="none" fill="#080404" fill-rule="evenodd"/><path d="M 235.500 1.454 C 231.650 2.154, 224.557 4.087, 219.739 5.748 C 197.303 13.485, 184.596 27.169, 181.898 46.500 C 180.564 56.055, 181.293 69.372, 183.430 74.487 C 185.889 80.373, 190.441 85.377, 196.176 88.503 C 200.607 90.916, 202.968 91.474, 210.250 91.824 L 219 92.245 219 104.103 L 219 115.962 216.250 116.562 C 178.750 124.750, 144.689 142.523, 119.250 167.178 C 112.300 173.913, 111.459 176.771, 115.073 181.365 C 118.570 185.811, 122.886 185.038, 129.759 178.734 C 150.444 159.761, 172.682 146.460, 197.666 138.115 C 216.365 131.870, 228.561 129.818, 250.387 129.247 C 270.281 128.727, 280.829 129.617, 296 133.094 C 343.310 143.938, 382.502 171.104, 410.143 212.212 C 413.555 217.287, 417.145 221.485, 418.520 222.007 C 423.475 223.891, 429 219.703, 429 214.062 C 429 212.029, 419.923 197.877, 412.605 188.500 C 406.356 180.493, 391.160 165.136, 382.500 158.079 C 359.531 139.358, 334.701 126.754, 306.500 119.500 L 293.500 116.156 293.220 104.202 L 292.940 92.247 301.720 91.825 C 309.034 91.474, 311.389 90.919, 315.824 88.503 C 325.408 83.280, 329.619 75.957, 330.598 62.806 C 331.436 51.551, 329.694 39.949, 326.045 32.483 C 318.530 17.107, 300.139 5.650, 276.295 1.492 C 266.012 -0.301, 245.254 -0.321, 235.500 1.454 M 245.058 16.122 C 223.032 18.674, 205.653 27.792, 199.937 39.796 C 198.226 43.389, 197.584 46.916, 197.218 54.729 C 196.678 66.268, 197.567 69.617, 202.206 73.520 C 204.722 75.637, 206.166 76, 212.077 76 L 219 76 219 68.111 C 219 61.833, 219.390 59.739, 220.912 57.861 L 222.823 55.500 256 55.500 L 289.177 55.500 291.088 57.861 C 292.610 59.739, 293 61.833, 293 68.111 L 293 76 299.923 76 C 305.834 76, 307.278 75.637, 309.794 73.520 C 314.428 69.621, 315.320 66.266, 314.791 54.729 C 314.404 46.292, 313.870 43.613, 311.739 39.437 C 305.374 26.962, 289.026 18.688, 265.500 16.032 C 255.523 14.906, 255.551 14.906, 245.058 16.122 M 235 92.250 L 235.001 113.500 256.001 113.500 L 277 113.500 277 92.250 L 277 71 256 71 L 235 71 235 92.250 M 237.675 146.056 C 179.587 152.807, 128.370 189.629, 104.150 242.054 C 83.133 287.545, 83.613 340.900, 105.440 385.500 C 128.874 433.383, 172.255 466.617, 225.074 477.151 C 241.671 480.461, 270.543 480.471, 286.926 477.173 C 332.206 468.056, 371.662 441.675, 396.182 404.122 C 401.584 395.849, 402.367 391.367, 399 388 C 396.977 385.977, 391.627 385.314, 389.293 386.798 C 388.630 387.219, 385.538 391.375, 382.423 396.032 C 379.307 400.690, 374.945 406.668, 372.729 409.318 L 368.700 414.136 363.366 408.868 C 358.893 404.450, 357.444 403.600, 354.387 403.600 C 349.977 403.600, 347 406.715, 347 411.329 C 347 413.732, 348.191 415.651, 352.250 419.790 L 357.500 425.142 353.500 428.613 C 346.388 434.785, 330.657 444.817, 320.957 449.365 C 305.240 456.735, 287.114 461.852, 270.750 463.538 L 264 464.233 264 457.567 C 264 449.819, 262.186 445.514, 258.535 444.598 C 251.522 442.838, 248 447.134, 248 457.450 C 248 465.140, 249.039 464.784, 233.362 462.457 C 206.961 458.536, 177.431 445.192, 158.444 428.601 L 154.500 425.155 159.750 419.796 C 163.808 415.654, 165 413.731, 165 411.329 C 165 406.715, 162.023 403.600, 157.613 403.600 C 154.552 403.600, 153.106 404.451, 148.587 408.914 L 143.206 414.229 137.218 406.693 C 125.319 391.720, 115.646 373.073, 110.502 355.194 C 107.417 344.471, 105.003 331.111, 105.001 324.750 L 105 320 112.500 320 C 121.364 320, 124 318.281, 124 312.500 C 124 306.690, 121.376 305, 112.352 305 L 104.705 305 105.367 296.750 C 107.584 269.136, 120.596 238.012, 139.243 215.715 L 143.245 210.930 149.048 216.465 C 155.636 222.748, 158.654 223.437, 162.545 219.545 C 166.596 215.495, 165.871 211.801, 159.755 205.334 L 154.510 199.789 158.505 196.352 C 170.780 185.793, 191.884 174.049, 208.396 168.589 C 217.029 165.735, 231.999 162.540, 241.640 161.495 L 247.780 160.829 248.152 169.013 C 248.476 176.150, 248.824 177.439, 250.873 179.098 C 254.148 181.750, 258.569 181.522, 261.545 178.545 C 263.723 176.368, 264 175.229, 264 168.447 L 264 160.804 270.250 161.482 C 287.869 163.395, 305.126 168.211, 320.957 175.635 C 330.581 180.148, 346.270 190.137, 353.495 196.352 L 357.490 199.789 352.245 205.334 C 346.129 211.801, 345.404 215.495, 349.455 219.545 C 353.346 223.437, 356.364 222.748, 362.952 216.465 L 368.755 210.930 372.757 215.715 C 391.285 237.869, 404.430 269.313, 406.633 296.750 L 407.295 305 399.648 305 C 390.624 305, 388 306.690, 388 312.500 C 388 318.281, 390.636 320, 399.500 320 L 407 320 407 324.816 C 407 330.930, 405.674 338.674, 402.302 352.264 L 399.630 363.028 401.665 365.764 C 404.305 369.314, 410.702 370.092, 413.333 367.184 C 415.619 364.658, 418.599 354.172, 421.057 340 C 423.561 325.564, 423.766 301.465, 421.504 287.276 C 409.438 211.570, 349.933 154.803, 273.459 146.043 C 263.292 144.878, 247.762 144.884, 237.675 146.056 M 95.248 196.032 C 92.445 197.158, 83.842 210.284, 77.245 223.500 C 57.136 263.781, 51.362 308.471, 60.490 353.187 C 72.646 412.741, 113.471 465.220, 168.419 491.923 C 197.127 505.875, 224.038 512.018, 256.284 511.982 C 288.313 511.945, 315.216 505.769, 343.581 491.941 C 403.195 462.880, 444.752 405.374, 454.105 339 C 455.783 327.098, 455.811 298.397, 454.158 286.500 C 451.517 267.505, 445.009 244.297, 441.362 240.870 C 438.702 238.372, 433.941 237.974, 431.449 240.042 C 427.932 242.962, 427.829 245.758, 430.889 255.352 C 446.519 304.358, 441.506 357.270, 417.065 401.262 C 357.945 507.675, 215.218 528.805, 127.671 444.107 C 71.060 389.337, 55.942 303.291, 90.492 232.500 C 93.445 226.450, 98.142 217.918, 100.931 213.541 C 107.370 203.431, 107.605 199.399, 101.928 196.463 C 98.721 194.805, 98.360 194.781, 95.248 196.032 M 302.500 200.969 C 299.629 202.151, 298.133 203.927, 268.646 241.164 C 245.739 270.091, 241.348 275.137, 237.444 277.027 C 222.270 284.373, 212.731 304.959, 216.875 321.417 C 217.917 325.556, 217.244 329.580, 208.414 371.996 C 199.250 416.019, 198.895 418.191, 200.464 420.585 C 202.976 424.419, 206.439 425.641, 209.914 423.921 C 211.642 423.065, 224.145 408.168, 241.343 386.473 C 265.162 356.425, 270.615 350.097, 274.201 348.342 C 286.244 342.447, 294.896 329.296, 295.779 315.545 C 296.042 311.440, 295.748 306.058, 295.126 303.586 C 294.084 299.448, 294.753 295.451, 303.523 253.415 C 308.764 228.294, 312.804 206.958, 312.501 206.002 C 311.274 202.138, 306.048 199.508, 302.500 200.969 M 278.500 254.169 C 272.450 261.844, 266.703 269.182, 265.730 270.475 L 263.960 272.826 268.757 274.419 C 271.396 275.296, 275.265 277.175, 277.355 278.595 C 279.445 280.016, 281.292 281.025, 281.459 280.839 C 281.925 280.319, 290.068 240.732, 289.766 240.457 C 289.620 240.324, 284.550 246.494, 278.500 254.169 M 249.994 288.876 C 242.577 291.304, 236.199 296.867, 233.551 303.218 C 231.437 308.285, 231.603 317.529, 233.897 322.581 C 239.055 333.938, 252.259 339.642, 263.890 335.539 C 273.857 332.022, 280 323.341, 280 312.772 C 280 303.031, 275.279 295.287, 266.622 290.827 C 262.313 288.607, 253.849 287.614, 249.994 288.876 M 226.165 364.157 C 223.864 375.244, 222.098 384.431, 222.240 384.573 C 222.479 384.811, 243.823 358.296, 246.806 354.055 C 248 352.358, 247.679 352.054, 243.098 350.532 C 240.339 349.616, 236.469 347.772, 234.497 346.433 C 232.525 345.095, 230.784 344, 230.630 344 C 230.475 344, 228.466 353.071, 226.165 364.157" stroke="none" fill="#040404" fill-rule="evenodd"/></svg>