<svg xmlns="http://www.w3.org/2000/svg" width="512" height="512" viewBox="0 0 512 512" version="1.1"><path d="" stroke="none" fill="#080404" fill-rule="evenodd"/><path d="M 200 1.886 C 191.023 4.788, 185.890 7.920, 179.510 14.388 C 163.973 30.141, 160.647 51.451, 170.563 71.718 C 173.759 78.251, 182.604 87.549, 189.377 91.497 C 203.529 99.745, 222.787 100.037, 237.425 92.226 C 244.103 88.663, 254.104 78.702, 257.259 72.472 C 265.500 56.198, 264.953 37.088, 255.836 22.778 C 249.381 12.646, 236.908 3.601, 225.888 1.061 C 219.004 -0.527, 206.199 -0.118, 200 1.886 M 346.335 45.423 C 331.015 49.138, 318.816 60.097, 313.189 75.199 C 301.978 105.293, 324.780 138, 356.971 138 C 370.094 138, 381.224 133.458, 390.116 124.474 C 399.770 114.721, 404 104.518, 404 90.984 C 404 60.660, 375.701 38.301, 346.335 45.423 M 160.335 101.363 C 141.114 106.246, 128.253 120.647, 120.030 146.495 C 111.363 173.741, 108 194.394, 108 220.378 C 108 253.085, 111.069 270.185, 118.904 281.126 C 123.128 287.025, 131.115 293.068, 137.196 294.966 C 140.551 296.013, 141.045 296.644, 142.540 301.786 C 148.354 321.786, 151.952 346.507, 152.694 371.561 C 153.751 407.231, 149.493 436.510, 138.531 468.946 C 132.919 485.549, 134.139 495.235, 142.952 504.048 C 153.869 514.964, 171.398 514.648, 182.238 503.340 C 189.732 495.522, 199.693 462.395, 205.042 427.500 C 207.772 409.695, 208.841 368.291, 207.063 349.255 C 204.742 324.397, 199.030 296.236, 191.946 274.726 C 187.769 262.042, 186.710 249.658, 188.065 229.364 L 189.143 213.228 182.796 205.364 C 169.710 189.149, 158.828 172.658, 150.972 157.136 C 146.654 148.604, 146 146.524, 146 141.314 C 146 133.721, 149.032 127.642, 154.870 123.530 C 158.316 121.103, 160.327 120.490, 165.880 120.177 C 176.551 119.574, 182.929 123.751, 188.517 135 C 190.020 138.025, 193.066 143.575, 195.288 147.333 C 198.835 153.334, 199.459 153.943, 200.414 152.333 C 201.042 151.273, 201.479 145.439, 201.450 138.500 C 201.395 124.966, 199.781 119.317, 193.553 110.857 C 187.061 102.036, 173.238 98.086, 160.335 101.363 M 162.675 124.504 C 154.399 126.605, 150 132.609, 150 141.803 C 150 145.683, 151.029 148.680, 155.073 156.585 C 174.977 195.487, 212.403 236.714, 252.500 263.909 C 265.512 272.734, 278.575 280.374, 283.337 281.946 C 294.526 285.639, 307.084 275.312, 305.754 263.513 C 304.885 255.800, 302.077 252.776, 287.906 244.292 C 266.857 231.689, 251.359 219.503, 232.940 201.071 C 211.504 179.619, 198.476 162.332, 185.564 138.204 C 178.704 125.384, 172.897 121.908, 162.675 124.504 M 319.909 141.832 C 313.107 144.087, 306.834 148.286, 301.298 154.292 C 294.260 161.928, 292.590 166.469, 289.488 186.401 C 288.641 191.847, 286.809 199.722, 285.416 203.901 C 282.851 211.600, 276.401 223.592, 273.555 225.954 C 270.257 228.691, 270.800 229.180, 290 240.774 C 295.775 244.261, 301.981 248.544, 303.791 250.292 C 307.442 253.820, 310.472 262.331, 309.772 267.097 C 309.538 268.694, 309.606 269.983, 309.923 269.963 C 310.240 269.942, 312 267.354, 313.834 264.213 L 317.167 258.500 315.116 252 C 309.076 232.866, 307.590 220.880, 308.299 197.013 C 309.123 169.284, 312.053 159.564, 320.961 155.020 C 325.593 152.657, 333.512 152.352, 338.298 154.351 C 342.575 156.138, 347.624 162.012, 349.090 166.907 C 350.052 170.117, 349.944 172.837, 348.508 181.591 C 347.128 190.007, 346.865 195.713, 347.296 207.918 C 347.760 221.032, 349.783 235.117, 351.443 236.776 C 352.318 237.651, 357.942 233.807, 361.422 229.954 C 369.260 221.279, 372.507 210.152, 371.767 194.511 C 371.021 178.743, 364.192 161.313, 354.920 151.509 C 345.494 141.543, 332.018 137.818, 319.909 141.832 M 322.241 158.995 C 314.542 163.689, 312.500 173.123, 312.500 204 C 312.500 222.877, 312.785 226.771, 314.832 235.919 C 320.669 261.990, 331.594 282.535, 348.629 299.476 C 362.902 313.670, 368.775 316.268, 377.181 312.108 C 382.597 309.428, 385.136 305.976, 385.760 300.441 C 386.579 293.169, 385.468 291.229, 374.482 280.751 C 360.528 267.441, 353.265 256.001, 347.656 238.500 C 342.934 223.767, 341.651 199.105, 344.645 180.608 C 346.257 170.650, 346.248 170.350, 344.213 165.749 C 342.918 162.821, 340.887 160.292, 338.818 159.030 C 334.399 156.336, 326.629 156.319, 322.241 158.995 M 231.321 262.250 C 209.665 280.072, 208.688 302.719, 228.783 321.084 C 231.857 323.894, 236.701 327.507, 239.548 329.114 L 244.723 332.034 246.111 346.267 C 247.797 363.545, 247.828 403.192, 246.168 419 C 244.340 436.405, 241.243 453.814, 236.919 471 C 234.774 479.525, 233.025 488.525, 233.032 491 C 233.088 511.623, 260.989 519.963, 272.587 502.824 C 277.647 495.346, 284.817 465.198, 289.198 432.982 C 292.209 410.832, 292.494 357.600, 289.720 335.385 L 287.958 321.270 292.110 309.885 C 294.394 303.623, 298.197 294.337, 300.563 289.250 C 302.928 284.163, 304.639 280, 304.365 280 C 304.091 280, 302.434 281.084, 300.683 282.408 C 296.565 285.523, 289.635 287.340, 285.091 286.496 C 279.757 285.506, 269.344 279.751, 252.099 268.261 C 243.628 262.617, 236.650 258, 236.592 258 C 236.533 258, 234.162 259.913, 231.321 262.250" stroke="none" fill="#040404" fill-rule="evenodd"/></svg>