<svg xmlns="http://www.w3.org/2000/svg" width="512" height="512" viewBox="0 0 512 512" version="1.1"><path d="" stroke="none" fill="#080404" fill-rule="evenodd"/><path d="M 182.673 33.961 C 133.965 47.091, 109.669 108.525, 133.419 158.500 C 157.240 208.624, 215.612 218.894, 251.930 179.351 C 263.285 166.988, 271.290 149.856, 274.083 131.937 C 275.651 121.882, 274.705 103.522, 272.103 93.500 C 269.402 83.095, 261.438 67.131, 255.028 59.275 C 244.949 46.921, 229.421 36.943, 215 33.556 C 206.129 31.473, 191.210 31.659, 182.673 33.961 M 193.650 63.040 C 181.092 65.171, 168.050 75.778, 161.731 89 C 153.143 106.967, 152.967 128.232, 161.259 145.820 C 165.345 154.486, 176.108 165.488, 184.500 169.577 C 189.778 172.148, 191.585 172.500, 199.521 172.500 C 207.643 172.500, 209.188 172.182, 215.021 169.310 C 223.586 165.094, 228.790 160.496, 233.930 152.608 C 240.497 142.528, 243.292 133.507, 243.796 120.760 C 244.284 108.413, 242.573 99.483, 237.743 89.168 C 232.085 77.086, 218.129 65.249, 207.500 63.517 C 199.840 62.269, 198.470 62.222, 193.650 63.040 M 349.500 72.649 C 333.301 76.022, 321.982 81.989, 310.161 93.388 C 299.418 103.746, 292.125 115.991, 287.339 131.703 C 284.986 139.427, 284.650 142.268, 284.580 155 C 284.485 172.152, 285.734 177.882, 292.621 191.904 C 300.667 208.285, 314.945 220.357, 332.500 225.619 C 336.704 226.879, 341.793 227.417, 349.500 227.415 C 359.233 227.412, 361.509 227.056, 369.261 224.321 C 374.080 222.621, 380.529 219.716, 383.592 217.865 C 411.274 201.140, 428.023 166.990, 424.120 135.233 C 420.260 103.824, 401.696 80.956, 374.391 73.972 C 367.299 72.158, 354.995 71.504, 349.500 72.649 M 348.214 104.831 C 336.638 108.961, 326.587 118.448, 320.777 130.732 C 316.535 139.698, 315.024 146.334, 315.023 156 C 315.021 169.102, 319.040 179.884, 326.765 187.500 C 333.812 194.448, 338.882 196.500, 349 196.500 C 356.506 196.500, 358.298 196.122, 364.325 193.267 C 382.559 184.631, 395.401 161.459, 393.570 140.500 C 392.098 123.651, 385.289 112.303, 372.795 105.878 C 366.753 102.770, 355.352 102.285, 348.214 104.831 M 45.124 132.527 C 23.904 138.434, 6.214 157.885, 1.495 180.500 C -6.818 220.341, 16.955 261.887, 54.245 272.688 C 87.705 282.380, 120.472 262.532, 129.673 227 C 131.719 219.097, 131.953 200.902, 130.109 193 C 123.524 164.773, 104.537 142.375, 80 133.887 C 71.598 130.980, 53.251 130.265, 45.124 132.527 M 54.734 162.088 C 48.801 163.486, 43.677 166.508, 39.612 171.008 C 27.940 183.927, 27.623 207.276, 38.881 224.695 C 54.795 249.316, 84.733 250.970, 96.540 227.879 C 108.684 204.128, 93.189 169.233, 67.530 162.550 C 60.950 160.836, 60.169 160.808, 54.734 162.088 M 436.500 204.612 C 427.441 206.794, 413.336 214.112, 405.571 220.658 C 387.253 236.103, 376.914 257.761, 376.765 281 C 376.685 293.422, 378.467 301.426, 383.587 311.643 C 390.531 325.502, 402.156 335.413, 417.500 340.555 C 427.501 343.906, 441.604 344.306, 452.500 341.547 C 467.357 337.784, 482.946 328.008, 492.739 316.312 C 512.743 292.419, 517.741 259.866, 505.262 234.746 C 500.991 226.150, 489.353 213.976, 481.325 209.708 C 469.579 203.463, 450.346 201.277, 436.500 204.612 M 214 215.923 C 188.664 220.982, 167.852 232.106, 149.393 250.454 C 138.081 261.699, 138.238 261.474, 100.566 320.344 C 72.957 363.488, 69.552 369.583, 66.401 381.500 C 63.961 390.730, 63.937 409.623, 66.355 419.500 C 68.665 428.941, 75.760 443.133, 81.963 450.725 C 100.654 473.596, 132.896 484.700, 160.760 477.860 C 163.367 477.220, 170.900 474.684, 177.500 472.224 C 201.133 463.416, 215.084 460.696, 237 460.623 C 258.624 460.550, 274.487 463.555, 296.054 471.806 C 301.858 474.026, 309.405 476.569, 312.825 477.455 C 332.923 482.663, 356.623 478.607, 374.576 466.887 C 407.979 445.081, 420.284 400.750, 402.621 365.849 C 399.084 358.859, 344.202 272.790, 337.678 264 C 319.231 239.149, 291.663 221.980, 260.502 215.939 C 247.764 213.469, 226.325 213.462, 214 215.923 M 445 234.363 C 436.178 236.279, 430.002 239.861, 422.463 247.432 C 404.022 265.954, 401.907 292.065, 417.719 305.984 C 436.287 322.328, 469.296 307.743, 479.044 278.887 C 480.522 274.513, 481.215 269.961, 481.245 264.444 C 481.281 257.449, 480.879 255.532, 478.190 249.899 C 472.102 237.143, 459.455 231.223, 445 234.363 M 231.500 244.680 C 206.083 246.472, 181.887 258.495, 166.366 277.045 C 158.444 286.512, 100.604 376.787, 97.924 383.866 C 94.987 391.624, 94.303 403.748, 96.352 411.735 C 101.140 430.404, 116.102 444.655, 134.537 448.105 C 144.209 449.916, 152.053 448.719, 167.153 443.129 C 193.397 433.412, 212.263 429.852, 237.500 429.852 C 262.830 429.852, 283.328 433.792, 308.392 443.479 C 326.719 450.563, 338.985 450.660, 353 443.834 C 360.621 440.121, 370.160 430.931, 374.223 423.385 C 379.650 413.306, 381.270 400.390, 378.477 389.460 C 376.257 380.770, 374.918 378.464, 344.469 330.897 C 315.413 285.505, 313.447 282.618, 306.055 274.500 C 287.683 254.323, 258.768 242.758, 231.500 244.680" stroke="none" fill="#040404" fill-rule="evenodd"/></svg>