<svg xmlns="http://www.w3.org/2000/svg" width="512" height="512" viewBox="0 0 512 512" version="1.1"><path d="" stroke="none" fill="#080404" fill-rule="evenodd"/><path d="M 382.372 1.452 C 381.231 2.251, 377.116 8.213, 373.225 14.702 C 357.615 40.739, 345.813 64.341, 341.431 78.283 C 340.024 82.761, 339.263 83.922, 338.057 83.429 C 329.556 79.950, 304.662 72.542, 294.833 70.565 C 276.168 66.812, 266.187 65.828, 247 65.851 C 212.231 65.892, 182.361 72.822, 151.500 88.009 C 95.753 115.441, 53.645 165.433, 36.526 224.506 C 33.291 235.669, 33.266 239.916, 36.415 243.314 C 39.580 246.729, 43.245 247.565, 47.618 245.869 C 51.988 244.174, 52.895 242.495, 57.529 227.500 C 67.074 196.621, 82.545 170.665, 105.427 147.146 C 120.289 131.868, 132.124 122.557, 149.226 112.684 C 202.842 81.733, 266.491 78.009, 328.242 102.209 C 338.342 106.167, 339.050 106.630, 340.112 109.959 C 342.442 117.266, 347.420 125.085, 353.362 130.773 C 356.738 134.004, 360.286 137.081, 361.246 137.611 C 362.888 138.518, 362.844 139.222, 360.492 149.537 C 354.863 174.233, 350.841 210.581, 348.812 255.110 L 347.596 281.792 339.650 287.047 C 320.540 299.686, 303.945 320.971, 295.305 343.922 C 289.535 359.252, 288.810 364.480, 288.091 396 L 287.418 425.500 284.374 434.118 C 277.737 452.904, 261.349 470.649, 243.241 478.657 C 223.867 487.225, 199.300 487.147, 176.731 478.444 C 110.382 452.860, 63.109 394.617, 50.999 323.534 C 49.288 313.494, 48.531 311.120, 46.293 308.784 C 44.273 306.676, 42.684 306, 39.747 306 C 31.709 306, 28.368 310.685, 29.465 320.414 C 31.273 336.439, 36.686 357.009, 43.697 374.500 C 66.849 432.259, 115.784 479.207, 173.908 499.423 C 213.635 513.240, 253.152 505, 281.076 477.076 C 293.490 464.662, 301.759 450.549, 306.199 434.198 C 307.989 427.604, 308.395 422.269, 309.028 397 C 309.647 372.294, 310.086 366.362, 311.730 360.500 C 316.784 342.469, 325.855 327.256, 339.157 314.500 L 347.500 306.500 348.154 335.500 C 350.136 423.462, 360.462 488.789, 375 505.347 C 379.203 510.135, 382.848 512, 388 512 C 401.174 512, 409.596 497.215, 416.453 462.049 C 423.641 425.184, 427.981 369.789, 427.994 314.750 L 428 286 436.395 286 C 466.116 286, 485.045 264.264, 485.161 230 C 485.226 210.849, 478.679 192.105, 464.826 171.781 C 458.780 162.910, 437.396 140.137, 428.609 133.211 L 424.718 130.143 427.866 126.169 C 432.713 120.049, 436.832 110.272, 438.048 102 C 439.397 92.817, 437.934 84.642, 432.456 70.768 C 424.789 51.347, 399.844 6.382, 394.331 2.046 C 391.268 -0.363, 385.381 -0.656, 382.372 1.452 M 382.210 40.643 C 374.185 54.941, 363.629 76.936, 361.056 84.718 C 357.247 96.239, 358.954 106.258, 366.111 114.388 C 377.530 127.361, 397.050 127.950, 409.309 115.691 C 417.283 107.717, 419.499 96.636, 415.545 84.500 C 413.570 78.434, 397.950 46.436, 391.696 35.643 L 388.303 29.786 382.210 40.643 M 246.500 117.346 C 235.127 121.112, 226.509 128.601, 221.582 138.997 C 218.748 144.977, 218.500 146.345, 218.500 156 C 218.500 165.662, 218.746 167.019, 221.587 173 C 225.509 181.259, 232.644 188.385, 241 192.387 C 247 195.261, 248.307 195.500, 258 195.500 C 267.662 195.500, 269.019 195.254, 275 192.413 C 283.259 188.491, 290.385 181.356, 294.387 173 C 297.261 167, 297.500 165.693, 297.500 156 C 297.500 146.345, 297.252 144.977, 294.418 138.997 C 290.451 130.627, 283.328 123.517, 275.003 119.619 C 269.519 117.051, 267.089 116.530, 259.500 116.297 C 253.970 116.128, 248.958 116.532, 246.500 117.346 M 252.115 137.501 C 245.977 139.415, 241.251 144.330, 239.389 150.735 C 238.010 155.479, 238.013 156.533, 239.421 161.376 C 240.532 165.199, 242.100 167.761, 244.846 170.242 C 255.695 180.043, 272.536 175.284, 276.611 161.265 C 277.985 156.538, 277.985 155.462, 276.611 150.735 C 274.704 144.174, 269.994 139.404, 263.488 137.446 C 257.818 135.740, 257.762 135.740, 252.115 137.501 M 382.669 145.726 C 380.694 148.922, 374.035 192.092, 372.523 211.500 C 372.180 215.900, 371.706 220.446, 371.468 221.602 C 371.063 223.576, 371.572 223.741, 379.880 224.331 C 384.745 224.676, 392.286 224.684, 396.639 224.348 L 404.553 223.738 403.757 214.119 C 402.368 197.328, 399.036 172.953, 396.222 159 L 393.500 145.500 388.339 145.201 C 385.501 145.036, 382.950 145.273, 382.669 145.726 M 416 150.857 C 416 151.414, 416.646 154.940, 417.435 158.693 C 420.959 175.445, 425.331 215.425, 426.489 241.500 C 426.807 248.650, 427.309 256.863, 427.606 259.750 L 428.144 265 435.206 265 C 445.118 265, 449.669 263.383, 455.171 257.905 C 458.800 254.291, 460.325 251.721, 462.013 246.377 C 464.477 238.577, 464.967 224.810, 463.072 216.647 C 459.525 201.366, 448.505 182.246, 434.733 167.480 C 426.368 158.510, 416 149.310, 416 150.857 M 136.500 167.346 C 125.127 171.112, 116.509 178.601, 111.582 188.997 C 108.748 194.977, 108.500 196.345, 108.500 206 C 108.500 215.662, 108.746 217.019, 111.587 223 C 115.509 231.259, 122.644 238.385, 131 242.387 C 137 245.261, 138.307 245.500, 148 245.500 C 157.662 245.500, 159.019 245.254, 165 242.413 C 173.259 238.491, 180.385 231.356, 184.387 223 C 187.261 217, 187.500 215.693, 187.500 206 C 187.500 196.345, 187.252 194.977, 184.418 188.997 C 180.451 180.627, 173.328 173.517, 165.003 169.619 C 159.519 167.051, 157.089 166.530, 149.500 166.297 C 143.970 166.128, 138.958 166.532, 136.500 167.346 M 142.115 187.501 C 135.977 189.415, 131.251 194.330, 129.389 200.735 C 128.010 205.479, 128.013 206.533, 129.421 211.376 C 130.532 215.199, 132.100 217.761, 134.846 220.242 C 145.695 230.043, 162.536 225.284, 166.611 211.265 C 167.985 206.538, 167.985 205.462, 166.611 200.735 C 164.704 194.174, 159.994 189.404, 153.488 187.446 C 147.818 185.740, 147.762 185.740, 142.115 187.501 M 369.445 256.500 C 368.328 274.476, 368.614 338.481, 369.924 363.500 C 372.081 404.724, 376.253 442.713, 380.915 463.600 C 383.601 475.634, 386.880 486, 388 486 C 389.919 486, 395.448 464.450, 398.390 445.500 C 405.087 402.361, 408.819 327.973, 406.995 274 C 406.483 258.875, 406.050 246.050, 406.033 245.500 C 406.012 244.872, 399.343 244.500, 388.095 244.500 L 370.191 244.500 369.445 256.500 M 30.923 268.923 C 24.482 275.365, 28.889 286, 38 286 C 47.111 286, 51.518 275.365, 45.077 268.923 C 42.784 266.631, 41.258 266, 38 266 C 34.742 266, 33.216 266.631, 30.923 268.923 M 106.500 287.346 C 95.259 291.068, 86.476 298.702, 81.587 309 C 78.746 314.981, 78.500 316.338, 78.500 326 C 78.500 335.655, 78.748 337.023, 81.582 343.003 C 85.530 351.333, 92.667 358.470, 100.997 362.418 C 106.977 365.252, 108.345 365.500, 118 365.500 C 127.655 365.500, 129.023 365.252, 135.003 362.418 C 143.333 358.470, 150.470 351.333, 154.418 343.003 C 157.252 337.023, 157.500 335.655, 157.500 326 C 157.500 316.345, 157.252 314.977, 154.418 308.997 C 150.451 300.627, 143.328 293.517, 135.003 289.619 C 129.519 287.051, 127.089 286.530, 119.500 286.297 C 113.970 286.128, 108.958 286.532, 106.500 287.346 M 112.115 307.501 C 105.977 309.415, 101.251 314.330, 99.389 320.735 C 98.010 325.479, 98.013 326.533, 99.421 331.376 C 100.532 335.199, 102.100 337.761, 104.846 340.242 C 115.695 350.043, 132.536 345.284, 136.611 331.265 C 137.985 326.538, 137.985 325.462, 136.611 320.735 C 134.704 314.174, 129.994 309.404, 123.488 307.446 C 117.818 305.740, 117.762 305.740, 112.115 307.501 M 196.500 367.346 C 185.259 371.068, 176.476 378.702, 171.587 389 C 168.746 394.981, 168.500 396.338, 168.500 406 C 168.500 415.655, 168.748 417.023, 171.582 423.003 C 175.530 431.333, 182.667 438.470, 190.997 442.418 C 196.977 445.252, 198.345 445.500, 208 445.500 C 217.655 445.500, 219.023 445.252, 225.003 442.418 C 233.333 438.470, 240.470 431.333, 244.418 423.003 C 247.252 417.023, 247.500 415.655, 247.500 406 C 247.500 396.345, 247.252 394.977, 244.418 388.997 C 240.451 380.627, 233.328 373.517, 225.003 369.619 C 219.519 367.051, 217.089 366.530, 209.500 366.297 C 203.970 366.128, 198.958 366.532, 196.500 367.346 M 202.115 387.501 C 195.977 389.415, 191.251 394.330, 189.389 400.735 C 188.010 405.479, 188.013 406.533, 189.421 411.376 C 190.532 415.199, 192.100 417.761, 194.846 420.242 C 205.695 430.043, 222.536 425.284, 226.611 411.265 C 227.985 406.538, 227.985 405.462, 226.611 400.735 C 224.704 394.174, 219.994 389.404, 213.488 387.446 C 207.818 385.740, 207.762 385.740, 202.115 387.501" stroke="none" fill="#040404" fill-rule="evenodd"/></svg>