<svg xmlns="http://www.w3.org/2000/svg" width="512" height="512" viewBox="0 0 512 512" version="1.1"><path d="" stroke="none" fill="#080404" fill-rule="evenodd"/><path d="M 218.500 2.017 C 161.924 10.690, 111.821 36.541, 71.952 77.630 C 56.623 93.428, 37.185 119.430, 35.407 126.516 C 34.619 129.653, 37.151 133.727, 40.736 135.090 C 45.308 136.828, 48.004 134.686, 55.679 123.223 C 78.390 89.298, 108.392 62.098, 144 43.147 C 158.824 35.258, 179.129 27.326, 194.500 23.419 C 197.800 22.581, 201.310 21.656, 202.300 21.364 C 203.290 21.072, 198.746 26.158, 192.203 32.667 C 179.164 45.635, 171.984 54.316, 163.714 67.112 C 141.329 101.748, 130.917 137.089, 130.898 178.500 C 130.880 217.147, 141.450 254.223, 161.578 286.123 C 169.815 299.178, 174.307 301.784, 179.545 296.545 C 183.265 292.826, 182.709 289.343, 177.002 280.600 C 157.066 250.062, 146.889 215.521, 146.902 178.440 C 146.915 141.844, 156.215 108.973, 175.070 78.888 C 189.220 56.311, 210.688 34.467, 231.587 21.384 C 245.891 12.429, 248.845 7.754, 243.545 2.455 C 240.517 -0.574, 235.923 -0.654, 218.500 2.017 M 405.001 1.123 C 401.790 2.404, 398.184 5.782, 396.431 9.150 C 395.673 10.608, 393.490 19.048, 391.581 27.907 C 387.519 46.752, 384.382 53.586, 375.873 62.114 C 367.832 70.174, 360.640 73.363, 341.338 77.430 C 324.013 81.081, 322.642 81.563, 319.367 85.158 C 314.029 91.019, 312.682 97.910, 315.538 104.746 C 318.870 112.720, 321.469 114.092, 340.696 118.021 C 374.167 124.862, 385.051 135.751, 391.957 169.304 C 395.917 188.543, 397.286 191.132, 405.254 194.462 C 412.124 197.332, 419.115 196.132, 424.336 191.186 C 428.507 187.235, 428.857 186.283, 432.518 168.916 C 436.476 150.139, 439.898 142.356, 447.669 134.460 C 456.897 125.083, 463.438 122.156, 484.500 117.977 C 496.857 115.525, 501.382 113.909, 504.865 110.702 C 513.314 102.925, 511.030 87.035, 500.764 82.172 C 498.419 81.061, 491.550 79.184, 485.500 78.001 C 463.835 73.764, 458.110 71.223, 448.443 61.557 C 438.777 51.890, 436.236 46.165, 431.999 24.500 C 429.230 10.341, 427.023 5.684, 421.566 2.486 C 417.018 -0.180, 409.764 -0.776, 405.001 1.123 M 410.540 16.936 C 410.222 17.451, 408.809 23.560, 407.401 30.512 C 404.229 46.167, 402.028 52.658, 397.065 60.990 C 389.014 74.508, 375.645 84.788, 359.865 89.597 C 356.180 90.720, 331.851 96, 330.362 96 C 329.579 96, 330.054 98.916, 330.925 99.454 C 331.434 99.768, 337.336 101.143, 344.040 102.508 C 350.745 103.874, 358.349 105.620, 360.938 106.389 C 372.474 109.815, 385.402 118.769, 392.560 128.292 C 401.021 139.547, 403.451 145.979, 408.642 170.855 C 410.164 178.148, 411.940 181.393, 413.536 179.798 C 413.783 179.550, 415.111 173.818, 416.488 167.059 C 421.568 142.117, 425.816 133.166, 438.134 121.442 C 448.953 111.146, 458.337 106.912, 480.205 102.458 C 486.775 101.120, 492.566 99.768, 493.075 99.454 C 494.022 98.868, 494.389 96, 493.516 96 C 492.156 96, 467.851 90.685, 463.747 89.490 C 448.258 84.980, 432.553 71.852, 425.291 57.341 C 421.515 49.797, 419.963 44.485, 415.476 23.750 C 413.908 16.503, 412.235 14.193, 410.540 16.936 M 236.073 105.635 C 234.231 107.976, 234 109.640, 234 120.579 C 234 132.046, 234.160 133.075, 236.342 135.611 C 239.555 139.346, 244.445 139.346, 247.658 135.611 C 249.840 133.075, 250 132.046, 250 120.579 C 250 109.640, 249.769 107.976, 247.927 105.635 C 246.329 103.602, 244.973 103, 242 103 C 239.027 103, 237.671 103.602, 236.073 105.635 M 199.073 142.635 C 194.941 147.887, 197.581 154.268, 204.416 155.550 C 206.299 155.903, 212.415 156.037, 218.008 155.846 C 227.715 155.516, 228.286 155.373, 230.588 152.694 C 233.668 149.111, 233.654 145.563, 230.545 142.455 C 228.182 140.091, 227.589 140, 214.618 140 C 201.254 140, 201.128 140.021, 199.073 142.635 M 254.114 141.750 C 250.699 144.585, 250.365 149.149, 253.319 152.587 C 255.733 155.395, 256.190 155.512, 265.992 155.846 C 278.003 156.255, 282.417 155.583, 285.056 152.944 C 287.786 150.214, 287.604 144.916, 284.686 142.174 C 282.553 140.171, 281.344 140, 269.296 140 C 258.314 140, 255.884 140.280, 254.114 141.750 M 23.695 150.250 C 20.222 152.823, 11.187 177.673, 6.599 197.272 C 1.494 219.078, 0.570 227.906, 0.553 255 C 0.536 282.832, 1.602 292.831, 7.003 315.500 C 29.192 408.640, 102.283 482.225, 195.113 504.881 C 217.740 510.403, 227.858 511.493, 256.500 511.493 C 285.699 511.493, 295.736 510.372, 319.166 504.494 C 368.081 492.222, 410.189 466.937, 446.095 428.275 C 489.501 381.539, 514.186 315.916, 512.780 251 L 512.444 235.500 512.222 253.473 C 512.022 269.644, 511.852 271.234, 510.523 269.337 C 508.690 266.720, 504.923 265.698, 501.668 266.936 C 500.113 267.527, 496.357 272.177, 491.535 279.479 C 475.050 304.444, 455.280 323.617, 429.855 339.297 C 425.650 341.890, 421.937 344.721, 421.605 345.588 C 419.597 350.820, 423.447 357.005, 428.705 356.994 C 432.180 356.987, 448.918 346.635, 460.883 337.093 C 465.681 333.267, 474.420 325.154, 480.303 319.065 C 486.187 312.975, 491 308.267, 491 308.602 C 491 312.138, 484.065 334.219, 479.254 346 C 445.614 428.380, 369.688 485.660, 281.789 494.971 C 259.166 497.368, 227.270 495.688, 205.522 490.954 C 113.081 470.832, 39.964 397.295, 21.127 305.500 C 17.113 285.942, 16.545 279.753, 16.536 255.500 C 16.529 236.949, 16.940 229.003, 18.348 220.500 C 21.722 200.115, 26.327 183.079, 32.883 166.724 C 34.597 162.447, 36 157.688, 36 156.148 C 36 150.615, 28.230 146.890, 23.695 150.250 M 236.861 158.909 C 234.653 160.695, 234.478 161.607, 234.164 172.995 C 233.786 186.728, 234.673 190.208, 239.012 192.005 C 242.363 193.393, 245.318 192.649, 248.034 189.733 C 249.777 187.862, 250 186.167, 250 174.766 C 250 162.449, 249.897 161.806, 247.545 159.455 C 244.567 156.476, 240.149 156.250, 236.861 158.909 M 445.455 212.455 C 443.091 214.818, 443 215.411, 443 228.382 C 443 241.746, 443.021 241.872, 445.635 243.927 C 450.887 248.059, 457.268 245.419, 458.550 238.584 C 458.903 236.701, 459.037 230.585, 458.846 224.992 C 458.516 215.285, 458.373 214.714, 455.694 212.412 C 452.111 209.332, 448.563 209.346, 445.455 212.455 M 0.417 255.500 C 0.418 265.950, 0.566 270.089, 0.746 264.698 C 0.926 259.307, 0.925 250.757, 0.744 245.698 C 0.563 240.639, 0.416 245.050, 0.417 255.500 M 410.465 247.911 C 405.250 250.129, 404.035 257.091, 408.189 260.961 C 410.161 262.798, 411.676 263, 423.500 263 C 435.324 263, 436.839 262.798, 438.811 260.961 C 442.037 257.956, 442.075 252.767, 438.896 249.500 C 437.188 247.744, 435.458 247.472, 424.725 247.273 C 418.001 247.148, 411.584 247.435, 410.465 247.911 M 464.500 248.155 C 459.231 251.036, 458.286 257.507, 462.635 260.927 C 464.990 262.780, 466.634 263, 478.135 263 C 489.611 263, 491.213 262.787, 492.975 261.025 C 497.351 256.649, 496.055 250.112, 490.383 247.955 C 486.946 246.649, 466.972 246.802, 464.500 248.155 M 237.942 248.904 C 230.319 251.348, 227.714 255.215, 224.973 268.157 C 220.725 288.220, 217.700 295.257, 210.450 301.940 C 203.974 307.909, 197.096 310.866, 182.307 314.041 C 166.860 317.358, 162.570 319.534, 159.904 325.405 C 157.557 330.572, 157.551 334.426, 159.881 339.500 C 163.114 346.541, 165.418 347.696, 183.942 351.560 C 197.562 354.401, 201.173 355.898, 208.569 361.772 C 216.221 367.849, 220.169 375.548, 223.406 390.700 C 227.471 409.730, 228.388 411.624, 235.210 415.106 C 242.495 418.825, 252.252 416.157, 256.221 409.361 C 257.229 407.635, 259.358 400.150, 260.951 392.728 C 264.277 377.235, 267.248 370.637, 273.833 364.119 C 280.763 357.260, 286.765 354.516, 301.500 351.472 C 317.374 348.193, 321.714 346.058, 324.750 340.038 C 327.471 334.642, 327.561 330.832, 325.096 325.405 C 322.457 319.595, 318.315 317.493, 302.836 314.109 C 287.177 310.687, 281.793 308.418, 275.143 302.438 C 268.020 296.034, 264.411 288.388, 260.989 272.448 C 257.886 257.996, 255.546 252.851, 251.008 250.504 C 247.375 248.626, 241.179 247.867, 237.942 248.904 M 241.541 266.250 C 241.268 267.488, 239.918 273.675, 238.541 280 C 232.265 308.831, 217.207 323.310, 187.043 329.517 C 180.192 330.927, 174.401 332.266, 174.175 332.492 C 173.949 332.718, 174.830 333.140, 176.132 333.429 C 177.434 333.719, 183.556 335.065, 189.735 336.420 C 205.478 339.872, 212.786 343.595, 222.095 352.905 C 231.512 362.322, 235.196 369.641, 238.653 385.800 C 242.152 402.162, 242.476 402.755, 243.945 395.500 C 248.177 374.607, 251.688 365.421, 258.677 356.963 C 267.759 345.971, 278.043 340.197, 295.265 336.420 C 301.444 335.065, 307.566 333.719, 308.868 333.429 C 310.170 333.140, 311.051 332.718, 310.825 332.492 C 310.599 332.266, 304.808 330.924, 297.957 329.510 C 281.466 326.106, 271.377 321.266, 262.714 312.603 C 252.770 302.659, 248.580 293.069, 243.990 269.750 C 242.756 263.479, 242.298 262.825, 241.541 266.250 M 447.400 265.436 C 445.694 266.174, 444.007 267.539, 443.650 268.471 C 443.292 269.402, 443 275.898, 443 282.907 C 443 294.936, 443.130 295.774, 445.314 297.826 C 448.231 300.566, 453.324 300.676, 455.944 298.056 C 458.579 295.421, 459.256 291.001, 458.846 279.106 C 458.555 270.637, 458.185 268.749, 456.500 267.130 C 453.652 264.395, 450.963 263.894, 447.400 265.436 M 389.500 357.169 C 365.002 365.209, 327.687 367.742, 303.114 363.032 C 295.420 361.558, 294.203 361.706, 291.455 364.455 C 288.086 367.823, 288.098 373.145, 291.479 375.805 C 297.380 380.446, 337.642 382.994, 359 380.078 C 378.755 377.380, 401.449 371.267, 404.250 367.889 C 406.936 364.650, 406.519 359.553, 403.365 357.073 C 400.179 354.566, 397.371 354.586, 389.500 357.169" stroke="none" fill="#040404" fill-rule="evenodd"/></svg>