<svg xmlns="http://www.w3.org/2000/svg" width="512" height="512" viewBox="0 0 512 512" version="1.1"><path d="" stroke="none" fill="#080404" fill-rule="evenodd"/><path d="M 303.303 9.645 C 294.696 12.694, 287.032 23.368, 283.637 37.037 C 280.844 48.283, 280.094 65.480, 280.708 104.180 C 281.128 130.577, 280.960 143.452, 280.135 148.169 C 277.563 162.884, 270.082 180.523, 259.787 196.145 L 254.500 204.168 253.661 200.834 C 251.051 190.462, 247.392 179.743, 244.508 174.016 C 232.356 149.884, 210.662 136.035, 185 136.027 C 167.239 136.021, 151.250 143.633, 136.363 159.181 C 123.924 172.174, 116.704 186.128, 111.621 207 C 107.874 222.388, 102.122 233.031, 88.283 250.182 C 74.910 266.755, 72.024 272.062, 72.010 280.102 C 71.992 290.452, 78.296 296, 90.074 296 C 104.963 296, 124.808 287.921, 142.150 274.801 C 147.458 270.785, 159.829 260.143, 169.642 251.151 C 179.455 242.159, 188.759 234.142, 190.318 233.336 C 192.833 232.035, 193.424 232.048, 195.560 233.448 C 196.885 234.315, 198.171 236.032, 198.418 237.263 C 200.069 245.468, 200.098 245.358, 194.190 253.240 C 179.415 272.952, 165.105 287.188, 122.500 324.558 C 108.750 336.618, 93.715 350.089, 89.089 354.493 C 76.606 366.376, 65.477 380.253, 60.679 389.918 L 56.500 398.337 56.190 417.091 C 55.839 438.334, 56.415 440.645, 63.640 446.989 C 72.237 454.537, 81.655 456.488, 105.809 455.724 C 155.753 454.145, 208.588 436.830, 252.087 407.785 C 257.264 404.328, 261.970 401.192, 262.545 400.815 C 263.120 400.438, 259.384 412.588, 254.243 427.815 C 239.620 471.127, 237.631 481.201, 241.866 490.500 C 244.141 495.496, 250.547 501.365, 255.514 503.005 C 261.114 504.853, 270.404 503.747, 278.754 500.239 C 314.161 485.362, 351.062 437.761, 371.555 380.529 L 374.767 371.559 375.846 377.029 C 377.693 386.385, 377.983 388.936, 379.532 409.431 C 382.004 442.148, 384.319 453.440, 391.743 469 C 399.494 485.243, 413.563 497.229, 430.933 502.388 C 442.354 505.779, 450.013 503.677, 454.210 496 C 456.575 491.673, 456.254 487.134, 452.406 470.500 C 449.857 459.484, 449.628 456.819, 449.609 438 C 449.591 420.382, 449.999 414.759, 452.512 398 C 455.153 380.382, 455.434 376.087, 455.414 353.500 C 455.394 329.519, 455.283 328.092, 452.695 318.500 C 446.301 294.792, 433.900 277.527, 415.845 267.198 C 409.293 263.449, 394.413 258.368, 387.228 257.427 C 384.328 257.047, 381.736 256.382, 381.468 255.949 C 381.201 255.516, 383.424 247.813, 386.409 238.831 C 396.848 207.417, 400 186.885, 400 150.307 C 400 117.889, 397.172 98.736, 388.953 75.500 C 376.662 40.748, 354.027 16.029, 328.540 9.522 C 321.104 7.623, 308.841 7.683, 303.303 9.645 M 310.686 25.057 C 306.861 26.150, 305.206 27.677, 302.862 32.270 C 298.041 41.721, 297.532 48.237, 297.821 96.792 C 298.047 134.531, 297.827 143.620, 296.504 151.292 C 293.598 168.143, 285.582 187.625, 274.857 203.905 C 272.173 207.979, 270.116 211.450, 270.285 211.619 C 270.455 211.788, 272.822 211.185, 275.547 210.279 C 279.263 209.042, 284.371 208.620, 296 208.587 C 310.972 208.544, 311.824 208.654, 321 211.820 C 336.212 217.069, 344.055 222.042, 356.188 234.133 L 366.876 244.784 371.348 231.142 C 379.139 207.380, 382.315 188.642, 383.489 159.500 C 385.487 109.923, 373.156 66.374, 350.140 41.727 C 339.143 29.951, 320.750 22.179, 310.686 25.057 M 178.236 153.081 C 171.914 154.296, 162.477 158.824, 156.118 163.694 C 142.987 173.751, 133.059 189.991, 128.421 209 C 123.383 229.645, 117.637 240.519, 100.250 262.310 C 94.063 270.064, 89 277.022, 89 277.772 C 89 279.613, 92.108 278.630, 98.861 274.656 C 107.472 269.587, 117.176 258.208, 131.828 236 C 156.684 198.324, 166.240 187.450, 180.833 180.238 C 188.249 176.573, 188.621 176.500, 199.948 176.500 C 210.412 176.500, 212.043 176.755, 217.268 179.203 C 220.535 180.734, 225.443 184.313, 228.587 187.456 C 234.827 193.697, 234.933 192.869, 229.359 181.398 C 223.084 168.483, 212.297 158.714, 200.248 155.033 C 193.049 152.833, 183.797 152.013, 178.236 153.081 M 195.500 192.943 C 186.859 194.425, 176.036 202.665, 166.497 215.022 C 159.145 224.546, 138.617 256.643, 141.637 253.892 C 143.212 252.458, 151.250 245.084, 159.500 237.506 C 178.813 219.766, 183.282 216.752, 191.110 216.186 C 206.404 215.079, 216 226.138, 216 244.870 C 216 250.535, 215.616 251.681, 211.831 257.305 C 198.834 276.618, 174.988 301.031, 135 335.965 C 106.184 361.138, 91.959 374.733, 83.833 384.862 C 77.611 392.617, 73.510 399.601, 74.757 400.318 C 75.166 400.553, 77.528 401.039, 80.007 401.397 C 82.486 401.756, 86.805 403.111, 89.606 404.409 L 94.699 406.768 103.099 400.763 C 121.646 387.505, 147.471 366.203, 169.412 346.064 L 178.324 337.883 184.220 343.692 L 190.115 349.500 183.299 356 C 164.517 373.909, 134.289 399.013, 114.805 412.885 L 104.109 420.500 104.055 426.507 C 104.025 429.810, 103.581 433.973, 103.070 435.757 L 102.140 439 108.519 439 C 121.838 439, 150.676 434.063, 167.959 428.823 C 200.860 418.848, 237.005 400.212, 261.086 380.807 C 274.404 370.075, 273.673 371.038, 276.999 359.847 C 281.537 344.577, 283.106 334.142, 283.138 319 C 283.186 296.783, 278.656 281.450, 269.379 272.434 C 263.531 266.751, 257.988 264.988, 243.750 264.286 L 232 263.706 231.983 255.603 C 231.891 212.856, 218.045 189.074, 195.500 192.943 M 289 224.990 C 285.975 225.377, 282.399 226.046, 281.054 226.477 C 278.855 227.180, 279.156 227.431, 284.054 228.965 C 297.355 233.131, 311.187 242.484, 318.565 252.298 C 331.604 269.644, 336.635 288.066, 335.687 315 C 335.112 331.352, 333.971 337.992, 328.433 357.233 C 319.792 387.253, 298.284 433.640, 274.407 473.750 C 270.396 480.488, 267.651 486, 268.307 485.999 C 268.963 485.999, 272.200 484.710, 275.500 483.134 C 302.493 470.250, 334.705 428.698, 352.352 384 C 379.849 314.352, 369.080 253.369, 325.500 231.943 C 313.288 225.939, 300.540 223.511, 289 224.990 M 249.750 242.705 C 246.586 246.235, 247.473 248, 252.411 248 C 257.856 248, 267.476 250.917, 273.314 254.338 C 283.982 260.590, 293.136 274.421, 297.096 290.270 C 299.774 300.987, 300.729 324.172, 299.043 337.564 C 297.227 351.993, 294.513 361.341, 278.010 410.004 C 262.695 455.164, 259.826 464, 260.475 464 C 261.353 464, 279.755 429.723, 287.903 412.910 C 303.284 381.171, 313.372 353.409, 317.640 331.074 C 319.759 319.979, 319.685 300.190, 317.484 289.500 C 311.510 260.485, 291.175 243.445, 260 241.330 C 252.409 240.815, 251.313 240.962, 249.750 242.705 M 380.089 276.250 C 382.045 282.941, 383.992 297.787, 383.996 306.030 L 384 314.561 391.623 319.530 C 401.993 326.291, 411.065 336.283, 416.016 346.399 C 423.022 360.715, 423.250 362.326, 424.034 403 C 424.575 431.052, 425.100 440.892, 426.302 445.513 C 427.972 451.931, 434.066 469.309, 434.469 468.803 C 434.602 468.636, 434.069 463.775, 433.285 458 C 431.298 443.371, 432.139 423.525, 435.975 394.500 C 442.522 344.959, 439.541 318.900, 424.951 298.124 C 416.537 286.144, 404.073 278.147, 388.303 274.613 C 378.753 272.473, 378.973 272.429, 380.089 276.250 M 222.220 294.280 L 209.983 306.546 215.763 312.266 L 221.544 317.986 233.780 305.720 L 246.017 293.454 240.237 287.734 L 234.456 282.014 222.220 294.280 M 382.446 337.718 C 382.085 339.798, 381.416 343.270, 380.960 345.433 C 380.240 348.846, 380.459 349.757, 382.621 352.326 C 390.430 361.606, 393.891 375.137, 395.969 404.500 C 398.144 435.241, 400.496 448.852, 405.536 459.859 C 408.437 466.196, 414.439 474.402, 417.767 476.583 L 420.063 478.088 418.410 474.294 C 414.527 465.384, 409.810 449.084, 408.416 439.756 C 407.309 432.352, 406.953 422.044, 407.065 400.603 C 407.229 369.092, 406.835 365.868, 401.421 354.424 C 398.788 348.859, 390.983 339.549, 385.942 335.959 L 383.102 333.937 382.446 337.718 M 72 424.421 C 72 432.623, 73.246 435.002, 78.605 437.040 C 84.622 439.328, 86.608 437.014, 87.223 427 C 87.496 422.567, 87.433 422.467, 83 420.329 C 80.525 419.135, 77.037 417.862, 75.250 417.500 L 72 416.841 72 424.421" stroke="none" fill="#040404" fill-rule="evenodd"/></svg>