<svg xmlns="http://www.w3.org/2000/svg" width="512" height="512" viewBox="0 0 512 512" version="1.1"><path d="" stroke="none" fill="#080404" fill-rule="evenodd"/><path d="M 382.698 1.444 C 368.363 6.557, 359.532 22.551, 363.277 36.620 L 364.640 41.741 358.431 41.242 C 346.503 40.285, 335.524 46.131, 329.297 56.757 C 327.148 60.424, 326.540 62.928, 326.192 69.556 C 325.811 76.818, 326.064 78.461, 328.326 83.401 C 329.737 86.483, 333.231 91.479, 336.091 94.503 L 341.290 100 337.592 100 C 324.958 100, 305.454 108.180, 294.796 117.948 C 283.118 128.652, 274.051 145.397, 272.488 159.147 C 271.240 170.124, 271.610 169.867, 265.456 164.047 C 257.719 156.730, 252.408 154.529, 242.500 154.534 C 235.783 154.538, 233.698 154.963, 229.500 157.183 C 218.555 162.971, 212.588 172.641, 212.645 184.500 C 212.688 193.547, 215.195 199.256, 222.475 206.888 L 228.037 212.720 221.465 213.393 C 205.498 215.029, 190.863 222.141, 179.007 234.026 C 167.384 245.678, 161.365 257.741, 158.897 274.332 L 157.764 281.950 152.221 277.009 C 144.121 269.790, 139.073 267.652, 130 267.596 C 124.274 267.561, 121.294 268.090, 117.401 269.833 C 105.056 275.361, 97.008 290.314, 99.783 302.565 L 100.704 306.630 95.602 305.255 C 81.566 301.471, 65.159 309.942, 60.044 323.613 C 57.544 330.293, 57.401 338.885, 59.676 345.563 C 61.903 352.099, 69.801 360.027, 76.511 362.463 C 92.281 368.187, 104.506 374.410, 111.328 380.185 L 114.500 382.871 57.250 440.206 L -0 497.541 -0 501.847 C 0 507.927, 4.073 512, 10.153 512 L 14.459 512 71.794 454.750 L 129.129 397.500 131.815 400.672 C 137.579 407.482, 143.826 419.747, 149.504 435.404 C 154.861 450.174, 172.711 457.822, 188.255 452.006 C 201.978 446.871, 210.524 430.414, 206.745 416.398 L 205.370 411.296 209.435 412.217 C 217.945 414.144, 229.100 410.538, 235.801 403.692 C 241.973 397.387, 244.483 391.067, 244.414 382 C 244.346 372.926, 242.201 367.869, 234.991 359.779 L 230.050 354.236 237.668 353.103 C 254.259 350.635, 266.322 344.616, 277.974 332.993 C 289.892 321.104, 296.800 306.888, 298.519 290.713 L 299.241 283.925 305.092 289.506 C 312.777 296.837, 318.456 299.325, 327.500 299.325 C 339.213 299.325, 349.256 293.160, 354.808 282.563 C 357.034 278.315, 357.462 276.212, 357.466 269.500 C 357.471 259.597, 355.270 254.281, 347.969 246.561 L 342.826 241.123 346.663 240.543 C 369.865 237.031, 384.051 229.581, 396.296 214.476 C 404.894 203.869, 412 185.738, 412 174.408 L 412 170.710 417.497 175.909 C 424.889 182.900, 432.104 186.134, 440.226 186.096 C 450.778 186.047, 456.960 183.261, 463.827 175.459 C 468.945 169.645, 471.420 161.826, 470.758 153.569 L 470.259 147.360 475.380 148.723 C 487.932 152.064, 502.884 144.905, 509.260 132.500 C 512.203 126.775, 512.762 115.809, 510.463 108.889 C 508.019 101.530, 499.624 93.217, 492 90.607 C 480.900 86.807, 472.640 82.892, 464.418 77.532 C 459.788 74.514, 456 71.708, 456 71.295 C 456 70.883, 468.600 57.917, 484 42.482 C 511.947 14.472, 512 14.411, 512 10.133 C 512 4.084, 507.916 0, 501.867 0 C 497.589 0, 497.528 0.053, 469.518 28 C 454.083 43.400, 441.117 56, 440.705 56 C 439.078 56, 428.549 38.310, 425.318 30.149 C 419.171 14.621, 417.647 11.868, 412.774 7.487 C 410.142 5.120, 405.886 2.468, 403.316 1.592 C 397.660 -0.335, 387.882 -0.405, 382.698 1.444 M 390.021 21.125 C 382.543 24.081, 381.674 28.641, 386.302 40.626 C 394.121 60.872, 402.903 74.691, 417.719 90.063 C 433.751 106.696, 448.764 116.774, 469.891 125.083 C 483.594 130.472, 487.855 129.772, 490.953 121.623 C 491.832 119.310, 491.700 118.051, 490.273 115.163 C 488.697 111.973, 487.446 111.176, 479 107.975 C 459.355 100.531, 448.288 93.380, 433.454 78.546 C 418.659 63.751, 410.079 50.342, 403.459 31.669 C 400.068 22.104, 395.873 18.812, 390.021 21.125 M 350.750 63.080 C 348.041 64.658, 345.795 69.789, 346.469 72.860 C 347.272 76.515, 435.384 164.622, 439.142 165.527 C 442.244 166.273, 447.444 163.908, 448.970 161.055 C 449.537 159.997, 450 157.464, 450 155.427 C 450 151.876, 448.136 149.857, 405.170 106.861 C 361.177 62.837, 360.268 62.001, 356.420 62.030 C 354.264 62.047, 351.712 62.519, 350.750 63.080 M 329.585 122.119 C 305.163 127.847, 287.950 154.960, 293.245 179.359 C 296.262 193.258, 303.454 204.124, 314.483 211.445 C 340.769 228.893, 376.155 217.557, 388.097 187.864 C 391.392 179.671, 391.879 165.252, 389.163 156.312 C 384.153 139.815, 371.757 127.563, 355.068 122.612 C 349.153 120.856, 336.049 120.603, 329.585 122.119 M 323.500 174.945 C 317.942 177.220, 315.606 184.431, 318.786 189.500 C 323.433 196.909, 336.533 201.927, 346.442 200.095 C 353.577 198.776, 358.936 195.976, 362.845 191.524 C 367.899 185.768, 366.765 178.415, 360.316 175.117 C 356.874 173.357, 353.584 173.793, 349.524 176.548 C 343.547 180.604, 340.788 180.714, 335.187 177.120 C 330.312 173.992, 327.231 173.418, 323.500 174.945 M 237.360 176.460 C 234.500 178.463, 232.630 183.374, 233.449 186.731 C 234.268 190.083, 319.906 276.304, 324.174 278.072 C 330.149 280.547, 337 275.865, 337 269.308 C 337 265.653, 335.469 263.993, 291.738 220.262 C 249.223 177.747, 246.262 175, 242.960 175 C 241.027 175, 238.507 175.657, 237.360 176.460 M 216 235.476 C 208.887 237.527, 204.774 239.569, 198.962 243.936 C 179.646 258.450, 173.641 284.571, 184.633 306.263 C 188.035 312.975, 199.025 323.965, 205.737 327.367 C 238.886 344.165, 278.055 320.134, 277.988 283.040 C 277.948 261.003, 262.535 241.036, 241.356 235.582 C 234.082 233.709, 222.300 233.660, 216 235.476 M 210.500 287.899 C 203.855 290.773, 202.294 299.566, 207.470 304.968 C 212.608 310.332, 220.369 313.450, 228.464 313.405 C 245.908 313.306, 258.600 300.243, 250.250 290.981 C 246.285 286.583, 241.606 286.079, 236.570 289.508 C 230.773 293.455, 227.282 293.701, 222.570 290.492 C 218.260 287.557, 213.603 286.557, 210.500 287.899 M 123.306 290.413 C 120.990 292.405, 120.500 293.628, 120.500 297.412 L 120.500 301.997 165.251 346.749 L 210.003 391.500 214.588 391.500 C 220.381 391.500, 224 387.926, 224 382.207 C 224 378.685, 222.030 376.555, 178.738 333.262 C 135.445 289.970, 133.315 288, 129.793 288 C 127.343 288, 125.173 288.807, 123.306 290.413 M 81.923 327.923 C 79.637 330.209, 79 331.745, 79 334.971 C 79 340.233, 81.759 342.932, 89.673 345.413 C 96.673 347.607, 111.316 354.764, 117.807 359.163 C 140.591 374.606, 158.725 398.258, 166.944 423.251 C 169.462 430.910, 171.683 433, 177.299 433 C 180.226 433, 181.857 432.297, 184.077 430.077 C 187.690 426.464, 187.735 424.165, 184.374 414.810 C 169.905 374.539, 137.461 342.095, 97.190 327.626 C 87.835 324.265, 85.536 324.310, 81.923 327.923" stroke="none" fill="#040404" fill-rule="evenodd"/></svg>