<svg xmlns="http://www.w3.org/2000/svg" width="512" height="512" viewBox="0 0 512 512" version="1.1"><path d="" stroke="none" fill="#080404" fill-rule="evenodd"/><path d="M 83.321 9.189 C 82.123 9.768, 80.606 11.538, 79.950 13.121 C 77.967 17.907, 80.057 20.943, 90.257 28.091 C 98.089 33.579, 124.974 53.797, 127.267 55.923 C 127.689 56.314, 123.639 56.010, 118.267 55.246 C 97.457 52.287, 43.639 55.323, 38.750 59.732 C 37.628 60.744, 37 62.772, 37 65.386 C 37 69.105, 37.579 70.016, 43.594 75.771 C 52.102 83.910, 70.579 97, 73.560 97 C 74.830 97, 77.024 96.561, 78.435 96.025 C 80.823 95.117, 81 95.250, 81 97.947 C 81 101.898, 87.262 107.141, 96.142 110.625 C 99.914 112.105, 103 113.586, 103 113.917 C 103 114.247, 99.963 115.606, 96.250 116.935 C 79.890 122.794, 50.502 139.486, 34 152.293 C 23.535 160.416, 12.238 170.878, 9.968 174.552 C 5.262 182.167, 9.103 186.484, 22.011 188.087 C 39.541 190.264, 111.884 191.680, 118.957 189.985 C 121.456 189.386, 124.063 188.957, 124.750 189.031 C 129.133 189.506, 135.354 189.349, 140.812 188.626 L 147.124 187.789 142.075 197.850 C 122.767 236.327, 105.888 287.885, 95.089 341.373 C 93.438 349.554, 91.801 356.529, 91.452 356.873 C 91.102 357.218, 87.486 357.420, 83.416 357.323 C 71.647 357.042, 61.395 353.375, 49 345.013 C 40.894 339.544, 32.889 336.861, 22.881 336.257 C 15.036 335.784, 14.071 335.929, 12.131 337.869 C 9.534 340.466, 9.371 345.002, 11.770 347.964 C 13.093 349.598, 15.633 350.513, 21.838 351.589 C 30.513 353.095, 34.498 354.765, 44.552 361.110 C 57.306 369.159, 67.180 372.569, 80.861 373.651 L 89.221 374.312 88.697 377.906 C 82.553 420.041, 78 466.100, 78 486.127 C 78 491.343, 78.347 492.422, 80.750 494.688 C 88.298 501.805, 105.098 506.547, 119.500 505.626 C 134.721 504.652, 154.976 497.617, 156.635 492.728 C 157.051 491.502, 157.265 472.725, 157.111 451 C 156.851 414.297, 157.698 390.505, 160.028 369.113 C 160.530 364.500, 161.162 360.505, 161.432 360.235 C 162.335 359.332, 171.806 362.959, 186.718 369.918 C 205.612 378.735, 212.589 381.029, 222.588 381.710 C 233.461 382.452, 240.600 381.049, 262.744 373.823 C 279.735 368.278, 282.300 367.702, 290 367.704 C 300.262 367.705, 303.060 368.608, 325 378.990 C 346.586 389.204, 352.886 391.120, 365 391.152 C 375.734 391.181, 383.417 389.720, 400 384.498 C 421.918 377.596, 428.590 376.771, 441 379.425 C 451.169 381.599, 457.592 384.392, 472.577 393.153 C 487.758 402.029, 493.738 404.534, 497.497 403.590 C 500.742 402.776, 504 399.168, 504 396.388 C 504 393.458, 499.674 388.386, 496.493 387.588 C 495.111 387.241, 488.247 383.520, 481.240 379.319 C 462.096 367.841, 450.219 363.019, 435.953 360.933 C 425.247 359.367, 417.002 360.668, 397.712 366.965 C 378.563 373.217, 375.259 373.945, 365.932 373.976 C 356.054 374.007, 350.860 372.376, 331 363.002 C 312.680 354.356, 304.053 351.368, 294.605 350.401 C 285.844 349.503, 277.922 351.087, 255.613 358.199 C 238.400 363.687, 235.605 364.303, 227.500 364.396 C 216.698 364.521, 213.658 363.600, 191.501 353.486 C 182.670 349.455, 172.646 345.334, 169.224 344.328 C 164.376 342.904, 163.002 342.074, 163.001 340.569 C 162.999 336.901, 168.153 305.452, 171.126 291 C 177.734 258.868, 187.082 226.579, 197.246 200.771 C 201.851 189.080, 204 186.005, 204 191.109 C 204 193.524, 206.318 198.189, 208.361 199.885 C 209.362 200.715, 209.682 202.187, 209.331 204.349 C 208.652 208.534, 214.062 223.119, 222.690 240.360 C 227.942 250.856, 229.653 253.420, 231.998 254.306 C 234.384 255.206, 234.784 255.829, 234.355 257.974 C 233.753 260.983, 236.811 265.874, 249.120 281.594 C 265.239 302.178, 281.433 318.246, 290.615 322.766 C 299.651 327.214, 303.505 324.297, 305.116 311.790 C 306.961 297.468, 301.806 250.477, 294.417 214.269 L 293.758 211.039 298.413 212.625 C 300.973 213.497, 304.627 214.029, 306.534 213.806 C 308.440 213.584, 310 213.751, 310 214.178 C 310 216.163, 316.168 218.399, 334.095 222.911 C 344.768 225.598, 357.925 228.576, 363.333 229.531 C 372.980 231.233, 373.217 231.229, 375.833 229.284 C 380.251 225.999, 379.967 221.325, 374.890 213.781 C 360.100 191.805, 344.341 172.293, 327.600 155.229 L 315.561 142.958 324.031 143.500 C 336.634 144.305, 364.559 150.171, 370.861 153.336 C 376.810 156.324, 377.859 156.477, 381.385 154.870 C 384.950 153.246, 386.581 148.816, 385.010 145.024 C 384.332 143.388, 378.090 136.274, 371.139 129.216 C 347.696 105.412, 326.980 91.881, 302.495 84.376 C 294.363 81.884, 292.012 81.616, 278 81.581 C 263.032 81.543, 262.174 81.655, 253 84.822 C 242.281 88.523, 233.027 93.677, 223.791 101.090 L 217.500 106.139 216.265 94.319 C 214.708 79.425, 211.241 67.230, 205.257 55.601 C 201.529 48.356, 198.731 44.644, 191.537 37.397 C 176.097 21.845, 158.217 13.546, 131.463 9.513 C 119.871 7.766, 86.726 7.543, 83.321 9.189 M 114.486 25.197 C 134.224 40.420, 145.820 49.561, 155.636 57.633 C 162.104 62.952, 171.332 69.959, 176.144 73.205 C 180.955 76.451, 188.247 82.673, 192.348 87.032 L 199.804 94.958 199.321 90.729 C 195.350 55.923, 173.778 33.386, 137.500 26.139 C 132 25.041, 123.900 23.861, 119.500 23.518 L 111.500 22.894 114.486 25.197 M 74.500 69.682 C 71.750 69.858, 67.976 70.259, 66.113 70.572 L 62.725 71.142 68.113 75.039 C 71.076 77.182, 74.267 78.950, 75.205 78.968 C 76.142 78.985, 81.955 77.200, 88.123 75 C 101.083 70.377, 104.779 70.047, 107.711 73.250 C 112.217 78.174, 111.713 80.883, 104.727 89.290 C 102.538 91.925, 100.938 94.271, 101.172 94.505 C 101.949 95.282, 117.410 102.195, 123.500 104.488 C 128.492 106.368, 130.424 106.613, 135 105.947 C 150.274 103.723, 172.577 105.509, 183.940 109.866 C 186.933 111.014, 189.522 111.811, 189.695 111.638 C 190.534 110.800, 181.254 98.159, 176.411 93.542 C 157.209 75.239, 120.779 66.709, 74.500 69.682 M 261.105 98.418 C 255.251 99.895, 239.774 107.362, 237.908 109.610 C 236.939 110.778, 238.107 111, 245.218 111 C 256.334 111, 266.638 113.705, 279.913 120.108 C 290.484 125.206, 290.522 125.216, 305.253 126.384 C 321.635 127.684, 320.202 128.186, 321.468 120.694 C 321.822 118.601, 322.991 116.009, 324.065 114.935 C 326.003 112.997, 325.992 112.966, 322.759 110.956 C 317.102 107.441, 305.759 102.307, 298.500 99.975 C 289.693 97.146, 269.483 96.305, 261.105 98.418 M 134.235 122.497 C 105.877 127.638, 66.398 146.444, 40.038 167.370 L 33.575 172.500 38.538 173.162 C 41.267 173.527, 46.074 173.864, 49.219 173.912 L 54.939 174 58.381 168.618 C 63.932 159.942, 68.244 158.044, 73.328 162.043 C 74.931 163.305, 76.165 165.506, 76.550 167.793 C 77.853 175.529, 76.807 175.001, 90.817 174.991 C 97.793 174.987, 105.893 174.695, 108.818 174.344 C 113.972 173.725, 114.342 173.463, 120.810 165.852 C 127.857 157.562, 131.551 155.619, 135.872 157.931 C 139.373 159.805, 140.044 162.195, 138.404 166.955 C 137.589 169.320, 137.052 171.374, 137.211 171.520 C 137.370 171.666, 142 171.162, 147.500 170.401 C 164.970 167.985, 183.434 161.720, 191.724 155.397 C 194.933 152.949, 195 152.738, 195 145.076 L 195 137.255 190.590 133.190 C 185.311 128.324, 178.104 124.523, 170.307 122.492 C 163.235 120.650, 144.412 120.653, 134.235 122.497 M 338 122.783 C 338 123.288, 338.494 125.119, 339.098 126.851 C 339.868 129.059, 340.839 130.004, 342.348 130.014 C 343.532 130.021, 345.625 130.293, 347 130.619 C 349.451 131.198, 349.441 131.158, 346.500 128.593 C 341.406 124.150, 338 121.822, 338 122.783 M 232.500 127.747 C 229.830 128.144, 230.329 128.496, 237.032 130.946 C 250.351 135.815, 259.769 142.910, 268.775 154.862 C 274.986 163.105, 281.374 175.342, 285.144 186.222 C 287.440 192.845, 287.560 192.981, 293.320 195.480 C 296.536 196.874, 299.586 197.756, 300.098 197.440 C 300.610 197.123, 301.941 195.076, 303.056 192.891 C 305.917 187.283, 308.518 185, 312.045 185 C 317.015 185, 319.619 188.542, 321.016 197.202 L 322.224 204.686 337.335 208.287 C 345.646 210.267, 352.625 211.708, 352.843 211.490 C 353.061 211.272, 350.181 207.135, 346.443 202.297 C 307.884 152.391, 272.570 126.607, 243.520 127.150 C 239.109 127.232, 234.150 127.501, 232.500 127.747 M 212.481 152.703 C 212.871 158.677, 213.935 168.049, 214.845 173.532 C 216.444 183.164, 216.584 183.493, 219 183.290 C 228.936 182.455, 229.168 182.494, 231.707 185.446 C 234.989 189.261, 234.328 192.280, 228.393 200.598 L 223.755 207.097 227.531 216.298 C 229.608 221.359, 232.824 228.547, 234.677 232.271 L 238.047 239.043 245.891 238.389 C 253.044 237.792, 253.922 237.922, 255.867 239.867 C 258.960 242.960, 258.535 246.998, 254.500 252.864 C 252.575 255.662, 251 258.497, 251 259.164 C 251 261.110, 263.906 277.501, 275.655 290.477 L 286.500 302.454 286.836 297.977 C 287.590 287.946, 282.229 244.381, 276.991 217.975 C 273.488 200.317, 269.984 188.932, 264.995 179 C 253.899 156.908, 238.771 145.490, 216.636 142.500 L 211.771 141.843 212.481 152.703 M 176.149 180.437 L 166.798 183.568 160.916 194.534 C 125.251 261.016, 98.233 371.271, 93.376 470.148 L 92.706 483.797 95.701 485.346 C 97.349 486.197, 101.727 487.453, 105.432 488.135 C 113.128 489.554, 124.671 488.350, 134.085 485.149 L 139.500 483.307 139.159 451.904 C 138.034 348.418, 153.619 259.068, 186.455 180.750 C 188.344 176.245, 188.640 176.254, 176.149 180.437 M 166.400 423.404 C 158.429 426.935, 161.787 438, 170.829 438 C 176.263 438, 181.895 440.175, 189.060 445.041 C 200.856 453.051, 205.170 454.504, 217 454.452 C 229.325 454.397, 233.292 453.101, 245.348 445.190 C 260.222 435.429, 269.861 435.399, 284.098 445.067 C 303.138 457.997, 319.740 458.126, 338.959 445.494 C 348.608 439.152, 356.035 436.561, 361.696 437.562 C 365.241 438.188, 367.698 439.371, 384.250 448.415 C 393.532 453.487, 401.025 455.363, 409.450 454.723 C 418.309 454.050, 424.399 451.718, 434.348 445.190 C 442.238 440.012, 447.199 438.016, 452.203 438.006 C 460.658 437.988, 464.947 429.856, 459.417 424.326 C 457.026 421.935, 456.331 421.779, 450.073 422.227 C 442.470 422.771, 434.568 425.945, 427.019 431.486 C 419.278 437.169, 414.368 438.956, 406.500 438.956 C 398.534 438.956, 394.622 437.498, 385.614 431.174 C 376.636 424.871, 370.154 422.782, 359.500 422.760 C 348.706 422.737, 343.368 424.382, 333.500 430.772 C 322.895 437.638, 319.405 438.953, 311.718 438.978 C 303.736 439.004, 300.673 437.865, 290.789 431.195 C 281.032 424.611, 275.522 422.810, 265 422.765 C 252.318 422.712, 250.716 423.311, 232.108 435.068 C 227.510 437.974, 225.644 438.530, 219.441 438.843 C 210.324 439.303, 207.459 438.348, 196.082 431.053 C 184.579 423.677, 172.696 420.615, 166.400 423.404" stroke="none" fill="#040404" fill-rule="evenodd"/></svg>