<svg xmlns="http://www.w3.org/2000/svg" width="512" height="512" viewBox="0 0 512 512" version="1.1"><path d="" stroke="none" fill="#080404" fill-rule="evenodd"/><path d="M 188 1.485 C 167.919 5.492, 146.080 19.225, 134.326 35.237 L 130.830 40 124.165 40.013 C 115.336 40.031, 101.333 42.999, 91.494 46.939 C 68.967 55.959, 49.242 76.254, 40.968 98.925 C 35.104 114.994, 34.917 117.994, 35.222 191.102 L 35.500 257.500 38.306 263.214 C 43.436 273.661, 53.927 280.299, 65.500 280.420 C 68.250 280.448, 71.725 280.135, 73.221 279.724 L 75.943 278.976 76.221 375.738 L 76.500 472.500 79.209 479.260 C 85.350 494.585, 96.807 505.385, 111.855 510.036 C 118.006 511.937, 121.694 512, 226.500 512 C 331.696 512, 334.973 511.943, 341.217 510.015 C 356.326 505.348, 368.636 493.460, 374.260 478.106 C 376.004 473.343, 376.380 469.454, 376.759 452.250 L 377.205 432 405.997 432 C 431.790 432, 435.451 431.795, 441.145 430.036 C 456.714 425.224, 469.200 412.904, 474.624 397 C 476.407 391.773, 476.500 386.782, 476.500 296.500 C 476.500 206.218, 476.407 201.227, 474.624 196 C 469.200 180.096, 456.714 167.776, 441.145 162.964 C 435.449 161.204, 431.790 161, 405.895 161 L 377 161 377 146.200 L 377 131.399 382.557 125.662 C 389.257 118.745, 394.342 108.666, 396.102 98.815 C 400.463 74.417, 384.704 49.832, 360.068 42.595 C 353.695 40.723, 339.373 40.589, 333.543 42.347 L 329.587 43.540 322.543 36.401 C 311.883 25.596, 301.126 21, 286.500 21 C 282.025 21, 276.040 21.690, 273.201 22.533 L 268.039 24.066 260.769 18.520 C 244.533 6.133, 226.141 -0.068, 206.122 0.094 C 199.730 0.146, 191.575 0.772, 188 1.485 M 197.161 21.038 C 176.545 23.835, 159.637 34.774, 146.985 53.500 C 145.127 56.250, 142.908 59.048, 142.053 59.718 C 141.047 60.507, 136.520 60.948, 129.197 60.968 C 115.299 61.007, 106.060 62.946, 95.500 68.039 C 77.774 76.587, 65.251 90.982, 58.654 110.393 C 56.649 116.294, 56.568 118.775, 56.250 183.946 C 56.004 234.178, 56.221 252.120, 57.101 254.243 C 58.419 257.427, 62.591 260, 66.435 260 C 67.828 260, 70.438 258.687, 72.234 257.083 L 75.500 254.166 76 210 L 76.500 165.834 79.588 163.076 C 82.113 160.821, 83.979 160.196, 89.813 159.654 C 107.496 158.011, 120.087 149.347, 131.109 131.243 C 135.622 123.828, 140.732 120.995, 149.566 121.010 C 156.675 121.021, 162.987 123.826, 170.656 130.380 C 178.094 136.736, 185.486 139.353, 196 139.353 C 206.328 139.353, 213.550 136.859, 221.120 130.677 C 232.703 121.220, 231.948 121.499, 245.929 121.513 C 260.890 121.529, 269.325 123.698, 278.658 129.931 C 285.464 134.475, 289.718 139.962, 293.057 148.500 C 295.279 154.183, 295.432 156.089, 295.951 184.599 C 296.541 216.954, 296.500 216.722, 302.014 219.006 C 305.691 220.529, 309.451 219.639, 312.586 216.505 L 315 214.091 315 168.996 C 315 130.730, 315.229 123.458, 316.510 120.980 C 319.405 115.383, 324.302 114.473, 333.338 117.853 C 355.255 126.054, 377.275 111.073, 375.749 89 C 374.643 73.001, 362.742 61.827, 346.698 61.724 C 340.412 61.683, 338.508 62.121, 333.162 64.838 C 322.666 70.172, 318.657 68.945, 313.305 58.761 C 305.271 43.473, 289.353 37.571, 274.495 44.374 C 265.696 48.402, 263.198 48.003, 255.788 41.382 C 247.710 34.165, 242.464 30.576, 234.730 26.976 C 223.071 21.550, 209.361 19.383, 197.161 21.038 M 335.793 179 C 335.506 216.755, 335.455 217.597, 333.199 222.500 C 330.467 228.434, 326.084 233.235, 320.250 236.680 L 316 239.190 316 321.145 C 316 412.226, 316.336 407.708, 309.348 410.628 C 304.625 412.601, 299.569 410.981, 296.926 406.647 C 295.076 403.612, 295.007 400.579, 295.004 321.345 L 295 239.190 290.750 236.680 C 284.916 233.235, 280.533 228.434, 277.801 222.500 C 275.601 217.720, 275.478 216.161, 275 187 C 274.565 160.459, 274.273 156.085, 272.751 153.302 C 269.137 146.693, 260.751 142.840, 247.307 141.609 L 241.113 141.043 235.807 145.573 C 228.696 151.643, 223.802 154.398, 214.390 157.629 C 203.174 161.480, 188.972 161.470, 177.610 157.605 C 168.463 154.493, 162.937 151.441, 156.848 146.139 C 150.104 140.266, 149.553 140.289, 145.939 146.607 C 137.117 162.027, 120.418 174.130, 101.250 178.998 L 97 180.077 97 316.039 L 97 452 173.577 452 L 250.154 452 253.077 454.923 C 257.193 459.039, 257.193 464.961, 253.077 469.077 L 250.154 472 174.577 472 C 133.010 472, 99 472.362, 99 472.804 C 99 475.087, 105.377 483.163, 109.324 485.879 C 118.464 492.168, 115.257 492, 226.500 492 C 337.435 492, 334.566 492.147, 343.468 486.022 C 347.306 483.381, 354 474.996, 354 472.829 C 354 472.373, 346.765 472, 337.923 472 L 321.846 472 318.923 469.077 C 314.807 464.961, 314.807 459.039, 318.923 454.923 L 321.846 452 338.923 452 L 356 452 356 296.250 L 356 140.500 346.043 140.500 L 336.086 140.500 335.793 179 M 377 190.918 L 377 201 403.750 201.022 C 432.670 201.046, 433.032 201.110, 435.883 206.684 C 436.681 208.244, 437 233.928, 437 296.500 C 437 359.072, 436.681 384.756, 435.883 386.316 C 433.032 391.890, 432.670 391.954, 403.750 391.978 L 377 392 377 402.082 L 377 412.165 404.750 411.742 C 424.037 411.448, 433.620 410.921, 436.174 410.015 C 442.167 407.888, 449.055 401.939, 452.401 396 L 455.500 390.500 455.500 296.500 L 455.500 202.500 452.401 197 C 449.055 191.061, 442.167 185.112, 436.174 182.985 C 433.620 182.079, 424.037 181.552, 404.750 181.258 L 377 180.835 377 190.918 M 138.766 202.918 L 135.500 205.836 135.236 304.440 C 134.941 414.132, 134.550 407.661, 141.652 410.628 C 146.372 412.600, 151.428 410.981, 154.082 406.647 C 155.955 403.588, 156.002 400.737, 155.754 304.668 L 155.500 205.836 152.234 202.918 C 147.821 198.975, 143.179 198.975, 138.766 202.918 M 218.766 202.918 L 215.500 205.836 215.236 304.440 C 214.941 414.132, 214.550 407.661, 221.652 410.628 C 226.372 412.600, 231.428 410.981, 234.082 406.647 C 235.955 403.588, 236.002 400.737, 235.754 304.668 L 235.500 205.836 232.234 202.918 C 227.821 198.975, 223.179 198.975, 218.766 202.918 M 377 296.500 L 377 372 396.500 372 L 416 372 416 296.500 L 416 221 396.500 221 L 377 221 377 296.500 M 281.357 451.940 C 275.437 454.471, 274.161 462.910, 278.898 468.211 C 281.296 470.895, 282.520 471.455, 286 471.455 C 289.480 471.455, 290.704 470.895, 293.102 468.211 C 298.938 461.680, 295.814 452.336, 287.498 451.450 C 285.299 451.216, 282.536 451.437, 281.357 451.940" stroke="none" fill="#040404" fill-rule="evenodd"/></svg>