<svg xmlns="http://www.w3.org/2000/svg" width="512" height="512" viewBox="0 0 512 512" version="1.1"><path d="" stroke="none" fill="#080404" fill-rule="evenodd"/><path d="M 304.529 102.380 C 301.897 105.012, 301.285 108.795, 302.979 111.961 C 304.687 115.151, 309.684 116, 326.767 116 L 343.235 116 347.118 119.882 C 349.253 122.018, 351 124.215, 351 124.765 C 351 125.315, 348.143 127.626, 344.652 129.901 C 341.161 132.176, 337.781 135.185, 337.142 136.588 C 336.179 138.701, 336.755 143.236, 340.490 162.945 C 342.970 176.038, 345 187.468, 345 188.345 C 345 189.352, 342.284 191.194, 337.628 193.345 C 318.863 202.016, 303.200 216.621, 290.214 237.558 C 287.492 241.947, 281.315 253.179, 276.488 262.519 C 271.660 271.858, 265.030 284.057, 261.755 289.626 L 255.799 299.752 250.150 296.868 C 247.042 295.282, 241.800 293.469, 238.500 292.840 C 235.200 292.210, 232.328 291.555, 232.119 291.383 C 231.909 291.211, 230.517 285.021, 229.025 277.626 L 226.313 264.181 233.884 260.340 C 248.624 252.863, 258.863 244.248, 279.051 222.338 C 295.121 204.897, 304.321 196.796, 315.842 189.943 C 326.475 183.619, 328.364 179.860, 323.658 174.389 C 320.179 170.344, 316.581 170.808, 307.491 176.473 C 294.734 184.424, 286.426 191.724, 266.579 212.418 C 256.173 223.268, 245.116 234.102, 242.009 236.493 C 236.832 240.477, 223 248.703, 223 247.798 C 223 247.586, 220.075 232.827, 216.500 215 C 212.925 197.173, 210 182.517, 210 182.432 C 210 182.346, 213.024 181.966, 216.720 181.588 C 225.190 180.720, 230.621 178.335, 234.695 173.694 C 241.547 165.891, 241.550 155.113, 234.704 147.316 C 228.805 140.597, 226.296 140.046, 201.500 140.028 C 188.791 140.018, 177.861 140.466, 175.619 141.089 C 170.458 142.522, 162.823 150.226, 161.222 155.616 C 157.743 167.331, 162.483 177.895, 174 184.095 C 175.650 184.983, 179.576 185.383, 185.542 185.272 L 194.584 185.103 197.613 200.457 L 200.643 215.811 189.221 225.414 L 177.798 235.016 172.493 230.168 C 161.277 219.916, 145.757 211.673, 129.500 207.331 C 120.744 204.993, 117.572 204.657, 104 204.629 C 91.450 204.604, 86.882 205.002, 80 206.724 C 63.025 210.969, 45.759 220.184, 32.793 231.918 C 20.145 243.365, 8.974 261.799, 3.353 280.500 C 0.864 288.782, 0.643 290.936, 0.577 307.500 C 0.515 323.349, 0.784 326.516, 2.824 334 C 7.331 350.528, 16.574 367.127, 28.179 379.533 C 62.807 416.549, 120.403 422.594, 162.923 393.675 C 173.930 386.188, 187.631 371.112, 194.200 359.261 L 197.633 353.067 201.409 357.585 C 205.893 362.949, 213.845 368.367, 219.750 370.082 C 223.913 371.291, 224 371.406, 224 375.683 C 224 379.371, 223.627 380.191, 221.601 380.962 C 218.597 382.104, 216 385.723, 216 388.768 C 216 390.046, 217.105 392.195, 218.455 393.545 C 220.844 395.935, 221.311 396, 236 396 C 250.689 396, 251.156 395.935, 253.545 393.545 C 256.629 390.462, 256.673 386.893, 253.669 383.402 C 251.780 381.205, 250.267 380.604, 245.669 380.222 L 240 379.752 240 375.376 C 240 372.344, 240.419 371, 241.366 371 C 242.117 371, 245.889 369.420, 249.748 367.490 C 258.282 363.220, 264.060 357.213, 268.323 348.180 C 271.131 342.228, 271.475 340.519, 271.473 332.500 C 271.472 325.144, 271.012 322.404, 268.956 317.500 L 266.441 311.500 271.145 304.500 C 273.732 300.650, 280.459 288.725, 286.093 278 C 309.255 233.910, 317.855 222.778, 337.744 211.145 C 348.705 204.733, 348.493 204.692, 350 213.500 C 350.710 217.649, 351.112 221.174, 350.895 221.333 C 350.678 221.493, 348.250 223.242, 345.500 225.220 C 338.714 230.101, 327.289 242.116, 322.052 249.881 C 298.517 284.772, 298.517 331.228, 322.052 366.119 C 327.060 373.544, 338.216 385.384, 345.453 390.955 C 371.932 411.338, 409.728 417.524, 441.500 406.674 C 475.043 395.219, 501.532 366.338, 509.071 333 C 510.252 327.775, 511.620 322.719, 512.109 321.764 C 513.374 319.299, 513.271 293.715, 512 294.500 C 511.420 294.859, 511 293.881, 511 292.171 C 511 286.788, 506.064 271.635, 500.996 261.459 C 487.369 234.098, 462.453 214.332, 432 206.727 C 420.383 203.825, 394.880 203.538, 390.722 206.263 C 386.128 209.273, 385.816 216.761, 390.188 219.100 C 391.507 219.807, 398.621 220.352, 408.426 220.499 C 428.766 220.802, 438.085 223.299, 453.500 232.574 C 497.256 258.902, 509.667 315.713, 480.926 358.122 C 470.675 373.248, 453.141 386.249, 435.025 392.156 C 422.615 396.203, 404.139 397.211, 390.919 394.563 C 368.440 390.061, 348.045 376.342, 335.133 357.038 C 315.097 327.084, 315.076 288.948, 335.078 259.045 C 338.297 254.232, 343.972 247.449, 347.689 243.972 L 354.446 237.651 356.973 250.609 C 360.901 270.750, 362.217 272.837, 385.757 296.250 C 401.868 312.275, 406.131 316, 408.352 316 C 412.153 316, 416 311.924, 416 307.897 C 416 305.091, 413.649 302.315, 396.692 285.101 C 381.607 269.786, 377.022 264.516, 375.728 261 C 374.519 257.713, 353 146.630, 353 143.673 C 353 143.432, 355.908 141.340, 359.462 139.025 C 363.016 136.709, 366.240 133.844, 366.627 132.657 C 368.518 126.847, 365.311 116.035, 359.743 109.454 C 358.325 107.779, 354.766 105.079, 351.833 103.454 C 346.504 100.502, 346.484 100.500, 326.779 100.175 L 307.059 99.851 304.529 102.380 M 178 158 C 175.245 160.755, 175.445 165.130, 178.456 167.958 L 180.911 170.265 200.963 167.749 C 211.991 166.366, 221.686 164.676, 222.507 163.994 C 224.303 162.504, 224.460 158.860, 222.800 157.200 C 221.944 156.344, 215.644 156, 200.800 156 C 181.333 156, 179.872 156.128, 178 158 M 88.238 221.049 C 67.310 224.780, 45.412 238.500, 32.455 256 C 14.001 280.925, 10.368 316.283, 23.369 344.423 C 33.839 367.083, 53.092 384.254, 76.975 392.232 C 86.109 395.283, 87.177 395.415, 103 395.457 C 121.570 395.505, 126.332 394.558, 140.673 387.961 C 157.896 380.039, 171.539 367.476, 180.810 351 C 183.693 345.877, 189.410 332, 188.638 332 C 188.448 332, 173.973 329.312, 156.471 326.026 L 124.648 320.051 121.364 323.888 C 119.558 325.998, 116.763 328.270, 115.152 328.937 C 112.419 330.069, 112.196 330.577, 111.816 336.543 C 111.498 341.546, 110.892 343.486, 109.030 345.468 C 105.941 348.756, 101.696 348.787, 98.455 345.545 C 96.409 343.500, 96 342.118, 96 337.257 L 96 331.422 90.773 327.905 C 78.048 319.342, 76.233 301.762, 86.991 291.296 C 93.652 284.817, 101.544 282.853, 110.480 285.451 C 115.434 286.891, 116.436 286.926, 117.856 285.704 C 118.760 284.927, 129.738 275.644, 142.250 265.076 C 154.762 254.507, 165 245.453, 165 244.955 C 165 243.356, 152.737 234.272, 145 230.138 C 132.756 223.597, 121.773 220.831, 106.500 220.442 C 99.350 220.260, 91.132 220.533, 88.238 221.049 M 195.728 240.594 L 187.981 247.112 191.091 251.633 C 195.389 257.879, 202.128 272.530, 202.709 276.891 C 203.377 281.896, 200.146 286, 195.538 286 C 191.067 286, 188.699 283.643, 185.993 276.500 C 183.468 269.838, 176.986 258, 175.863 258 C 175.466 258, 164.197 267.267, 150.821 278.593 C 129.158 296.936, 126.536 299.476, 126.826 301.836 C 127.005 303.293, 127.230 304.520, 127.326 304.563 C 127.422 304.607, 141.450 307.234, 158.500 310.402 C 175.550 313.570, 190.705 316.397, 192.177 316.684 C 194.528 317.142, 195.123 316.680, 197.056 312.891 C 199.712 307.684, 208.528 298.852, 212.862 297.057 C 214.588 296.342, 216 295.024, 216 294.129 C 216.001 291.528, 204.772 235.575, 204.091 234.788 C 203.752 234.396, 199.989 237.009, 195.728 240.594 M 0.395 308.500 C 0.396 316.200, 0.553 319.218, 0.743 315.206 C 0.934 311.195, 0.932 304.895, 0.741 301.206 C 0.549 297.518, 0.393 300.800, 0.395 308.500 M 98.635 302.073 C 93.113 306.416, 96.524 316, 103.592 316 C 111.671 316, 114.631 306.307, 108.087 301.282 C 105.668 299.425, 101.565 299.768, 98.635 302.073 M 223.353 309.628 C 218.213 311.450, 212.346 317.027, 209.897 322.419 C 205.294 332.555, 209.087 345.476, 218.537 351.845 L 223.500 355.191 224.027 342.345 C 224.317 335.280, 224.905 328.773, 225.332 327.885 C 226.158 326.172, 230.159 324, 232.491 324 C 233.260 324, 235.151 325.084, 236.694 326.410 C 239.447 328.775, 239.509 329.067, 240 342.005 L 240.500 355.191 245.463 351.845 C 258.221 343.246, 259.629 326.561, 248.534 315.466 C 241.257 308.189, 232.887 306.248, 223.353 309.628" stroke="none" fill="#040404" fill-rule="evenodd"/></svg>