<svg xmlns="http://www.w3.org/2000/svg" width="512" height="512" viewBox="0 0 512 512" version="1.1"><path d="" stroke="none" fill="#080404" fill-rule="evenodd"/><path d="M 217.500 89.107 C 160.066 93.045, 105.683 106.420, 66.781 126.176 C 33.592 143.030, 13.105 162.308, 3.733 185.500 L 0.500 193.500 0.205 241.683 C -0.113 293.804, -0.006 295.145, 5.460 307.506 C 13.106 324.794, 31.985 343.567, 55 356.768 L 63.500 361.643 64.088 370.072 C 64.759 379.690, 66.245 383.182, 71.805 388.204 C 77.656 393.491, 81.613 394.500, 96.500 394.500 C 106.692 394.500, 110.522 394.106, 114.232 392.674 C 122.096 389.640, 128.974 380.200, 128.994 372.411 L 129 370.322 137.250 372.117 C 145.573 373.929, 166.698 375.997, 176.950 376.004 L 182.500 376.007 185.772 382.336 C 195.035 400.251, 213.871 415.223, 234.701 421.227 C 245.878 424.449, 266.122 424.449, 277.299 421.227 C 298.069 415.240, 317.004 400.175, 326.260 382.275 L 329.500 376.007 335.105 376.004 C 344.971 375.997, 365.226 374.016, 374.250 372.174 C 382.991 370.390, 383 370.390, 383.006 372.444 C 383.027 380.200, 389.920 389.646, 397.768 392.674 C 401.478 394.106, 405.308 394.500, 415.500 394.500 C 429.967 394.500, 434.229 393.494, 439.547 388.824 C 445.476 383.619, 447.256 379.653, 447.909 370.196 L 448.500 361.643 457 356.768 C 474.815 346.550, 490.919 332.372, 500.149 318.781 C 504.798 311.935, 509.450 301.613, 510.533 295.739 C 510.915 293.670, 511.626 291.731, 512.113 291.430 C 512.609 291.124, 513 269.921, 513 243.382 C 513 211.970, 512.661 196.091, 512 196.500 C 511.450 196.840, 510.991 196.304, 510.979 195.309 C 510.967 194.314, 509.882 190.451, 508.567 186.725 C 490.509 135.559, 404.094 96.546, 292.170 89.029 C 274.635 87.852, 235.211 87.893, 217.500 89.107 M 223.250 109.723 L 220 110.127 220 136.313 L 220 162.500 256 162.500 L 292 162.500 292 136.386 L 292 110.272 287.360 109.636 C 282.453 108.963, 228.784 109.037, 223.250 109.723 M 180 114.060 C 134.730 120.876, 93.609 133.931, 65.742 150.332 C 52.854 157.918, 45.383 163.751, 36.611 173.075 C 21.416 189.228, 16.922 206.276, 23.516 222.750 C 24.452 225.088, 25.582 227, 26.027 227 C 26.472 227, 29.222 224.964, 32.138 222.475 C 40.696 215.170, 53.559 207.005, 67.760 199.863 C 100.509 183.392, 142.433 171.950, 193.750 165.475 L 199 164.812 199 138.406 L 199 112 195.750 112.089 C 193.963 112.137, 186.875 113.024, 180 114.060 M 313 138.500 C 313 153.075, 313.356 165, 313.792 165 C 316.628 165, 340.739 168.538, 352 170.607 C 405.780 180.486, 453.543 199.846, 479.832 222.421 C 482.764 224.940, 485.544 227, 486.010 227 C 486.475 227, 487.840 224.412, 489.042 221.250 C 492.027 213.395, 492.021 201.712, 489.027 193.764 C 477.037 161.931, 427.731 133.498, 359.500 119.073 C 345.834 116.183, 319.743 112.016, 315.250 112.005 L 313 112 313 138.500 M 219 184.127 C 144.821 189.113, 74.803 211.403, 43.815 239.895 L 38.626 244.667 42.891 248.584 C 45.237 250.738, 51.259 255.275, 56.274 258.668 L 65.393 264.835 69.318 260.376 C 76.141 252.625, 79.304 251.556, 95.500 251.526 C 106.705 251.505, 110.445 251.864, 114.232 253.326 C 119.829 255.485, 126.502 262.547, 127.983 267.877 C 128.536 269.870, 128.991 278.336, 128.994 286.691 C 128.997 295.046, 129.363 302.107, 129.808 302.381 C 130.252 302.656, 135.089 303.838, 140.558 305.009 C 147.523 306.500, 155.590 307.288, 167.500 307.642 L 184.500 308.147 187.902 302.103 C 197.572 284.920, 216.713 270.916, 237.257 265.990 C 252.939 262.231, 273.380 263.884, 287.500 270.054 C 301.859 276.329, 317.059 289.611, 324.017 301.964 L 327.500 308.147 344.500 307.642 C 356.410 307.288, 364.477 306.500, 371.442 305.009 C 376.911 303.838, 381.748 302.656, 382.192 302.381 C 382.637 302.107, 383.003 295.046, 383.006 286.691 C 383.012 269.067, 383.814 265.318, 388.748 259.857 C 395.457 252.431, 398.414 251.508, 415.500 251.508 C 432.785 251.508, 435.715 252.461, 442.646 260.336 L 446.536 264.755 453.630 260.127 C 461.327 255.107, 472.990 245.902, 472.996 244.843 C 473.004 243.526, 462.510 234.801, 454.606 229.552 C 410.209 200.070, 334.326 182.601, 253.017 183.144 C 241.183 183.223, 225.875 183.665, 219 184.127 M 0.462 244.500 C 0.463 270.900, 0.592 281.556, 0.749 268.181 C 0.907 254.805, 0.907 233.205, 0.749 220.181 C 0.591 207.156, 0.462 218.100, 0.462 244.500 M 20.227 272.518 C 20.649 287.035, 21.053 290.371, 23.010 295.500 C 28.052 308.720, 39.057 321.352, 55.087 332.320 L 63.500 338.076 63.768 312.794 C 63.938 296.673, 63.675 287.392, 63.040 287.180 C 60.765 286.422, 44.478 276.147, 38.433 271.657 C 34.847 268.993, 29.172 264.276, 25.822 261.175 L 19.732 255.537 20.227 272.518 M 485 262.160 C 481.425 265.405, 475.914 269.959, 472.754 272.280 C 467.589 276.074, 450.723 286.592, 448.751 287.250 C 448.319 287.394, 448.085 298.845, 448.232 312.696 L 448.500 337.880 457 332.203 C 469.898 323.589, 480.874 312.080, 485.923 301.874 C 490.947 291.719, 492.172 284.722, 491.786 268.380 L 491.500 256.261 485 262.160 M 85.471 273.216 C 85.201 273.922, 85.097 296.775, 85.240 324 L 85.500 373.500 96.500 373.500 L 107.500 373.500 107.500 323 L 107.500 272.500 96.732 272.216 C 88.676 272.004, 85.839 272.255, 85.471 273.216 M 404.471 273.216 C 404.201 273.922, 404.097 296.775, 404.240 324 L 404.500 373.500 415.500 373.500 L 426.500 373.500 426.500 323 L 426.500 272.500 415.732 272.216 C 407.676 272.004, 404.839 272.255, 404.471 273.216 M 248.477 284.954 C 225.688 288.457, 207.614 303.170, 199.814 324.568 C 196.853 332.693, 196.163 349.137, 198.409 358.068 C 201.192 369.136, 205.621 376.711, 214.457 385.511 C 226.760 397.766, 239.194 403, 256 403 C 272.951 403, 285.171 397.851, 297.511 385.511 C 306.200 376.823, 310.808 369.041, 313.482 358.540 C 315.368 351.136, 315.429 336.200, 313.602 329.339 C 309.168 312.684, 297.493 298.351, 281.943 290.471 C 272.953 285.915, 258.125 283.471, 248.477 284.954 M 129 336.308 L 129 348.833 138.089 350.967 C 146.597 352.965, 174.432 355.939, 175.354 354.949 C 175.584 354.702, 175.954 348.828, 176.177 341.894 L 176.581 329.289 164.041 328.677 C 153.224 328.150, 138.906 326.258, 131.250 324.345 C 129.007 323.785, 129 323.819, 129 336.308 M 374.500 325.519 C 366.414 327.295, 350.614 329, 342.244 329 L 335.409 329 335.818 341.750 C 336.043 348.762, 336.416 354.702, 336.646 354.949 C 337.568 355.939, 365.403 352.965, 373.911 350.967 L 383 348.833 383 336.417 C 383 327.096, 382.688 324.025, 381.750 324.100 C 381.063 324.156, 377.800 324.794, 374.500 325.519" stroke="none" fill="#040404" fill-rule="evenodd"/></svg>