<svg xmlns="http://www.w3.org/2000/svg" width="512" height="512" viewBox="0 0 512 512" version="1.1"><path d="" stroke="none" fill="#080404" fill-rule="evenodd"/><path d="M 134.405 2.102 C 132.704 3.979, 132.467 6.173, 132.188 22.570 L 131.877 40.937 125.188 38.395 C 115.740 34.805, 94.271 29, 90.440 29 C 88.670 29, 86.159 29.860, 84.861 30.911 L 82.500 32.822 82.225 86.254 L 81.950 139.686 72.037 142.344 C 53.949 147.194, 38.803 153.055, 35.250 156.577 C 33.462 158.350, 32 160.520, 32 161.400 C 32 162.737, 30.645 163, 23.743 163 C 13.723 163, 9.564 164.093, 5.736 167.730 C -0.379 173.541, 0 165.141, 0 294.878 L -0 413.855 2.635 415.927 C 5.977 418.556, 9.022 418.557, 12.361 415.931 L 14.992 413.861 15.246 296.681 L 15.500 179.500 23.740 179.210 L 31.981 178.919 32.240 328.048 L 32.500 477.177 34.861 479.088 C 37.169 480.958, 42.085 481, 256 481 C 469.915 481, 474.831 480.958, 477.139 479.088 L 479.500 477.177 479.760 328.048 L 480.019 178.919 488.260 179.210 L 496.500 179.500 496.753 336.894 C 496.939 452.391, 496.707 494.649, 495.881 495.644 C 494.946 496.770, 476.541 497, 387.353 497 L 279.952 497 274.878 493.510 C 269.268 489.651, 261.581 487, 256 487 C 250.419 487, 242.732 489.651, 237.122 493.510 L 232.048 497 124.724 497 C 42.583 497, 17.118 496.718, 16.200 495.800 C 15.342 494.942, 15 488.568, 15 473.455 C 15 453.409, 14.893 452.214, 12.950 450.455 C 10.304 448.060, 4.696 448.060, 2.050 450.455 C 0.093 452.226, 0.001 453.378, 0.016 475.905 C 0.032 498.527, 0.126 499.664, 2.287 503.480 C 3.551 505.711, 6.289 508.449, 8.520 509.713 L 12.500 511.967 126.189 511.984 L 239.878 512 244.450 508.043 C 252.132 501.395, 259.868 501.395, 267.550 508.043 L 272.122 512 385.811 511.984 L 499.500 511.967 503.433 509.734 C 505.727 508.431, 508.472 505.616, 510.019 502.980 L 512.672 498.460 512.881 336.143 C 513.027 223.423, 512.772 174.023, 512.046 174.472 C 511.470 174.827, 511 174.643, 511 174.062 C 511 171.785, 503.668 165.002, 500.152 164.025 C 498.143 163.468, 492.788 163.009, 488.250 163.006 C 481.625 163.001, 480 162.708, 480 161.516 C 480 157.652, 474.480 153.869, 462.500 149.522 L 450.500 145.168 450 118.994 C 449.388 86.974, 450.469 89, 433.995 89 C 404.990 89, 369.630 95.709, 338.019 107.210 C 315.822 115.286, 281.145 134.435, 266.733 146.574 L 263.500 149.297 262.703 144.398 C 258.167 116.514, 253.169 99.380, 243.995 80.259 C 235.783 63.142, 227.533 51.446, 214.540 38.499 C 196.153 20.176, 176.830 9.086, 151.020 2.041 C 141.283 -0.616, 136.853 -0.600, 134.405 2.102 M 148.008 161.171 L 148.016 304.500 158.613 307.875 C 194.995 319.459, 224.486 344.982, 242.495 380.468 L 248.061 391.436 247.770 268.968 L 247.479 146.500 244.751 132.842 C 233.653 77.280, 205.792 39.786, 162.799 22.557 C 158.235 20.728, 153.037 18.919, 151.250 18.536 L 148 17.841 148.008 161.171 M 98 190.352 L 98 333.703 104.750 335.498 C 135.937 343.788, 171.558 362.422, 197 383.754 C 209.275 394.046, 227.650 413.134, 236.517 424.806 C 240.358 429.861, 243.634 433.595, 243.798 433.104 C 244.252 431.744, 240.370 417.217, 236.907 407.320 C 220.992 361.831, 189.866 332.226, 145.584 320.459 C 138.968 318.701, 135.889 317.344, 134.250 315.467 L 132 312.888 132 185.458 L 132 58.027 128.250 56.447 C 122.301 53.942, 101.188 47, 99.517 47 C 98.168 47, 98 62.875, 98 190.352 M 413.500 105.697 C 402.658 106.674, 377.408 111.528, 365.165 114.988 C 328.529 125.342, 294.001 143.569, 267.239 166.683 L 263.977 169.500 264.239 310.702 L 264.500 451.904 271.500 446.639 C 301.255 424.257, 341.307 406.580, 380.500 398.532 C 394.124 395.734, 414.931 393, 422.595 393 C 425.430 393, 429.156 392.719, 430.875 392.375 L 434 391.750 434 307.830 L 434 223.909 436.455 221.455 C 440.268 217.641, 446.665 218.774, 448.890 223.657 C 450.507 227.208, 450.456 400.275, 448.837 403.316 C 446.803 407.133, 444.765 407.935, 437 407.972 C 418.700 408.058, 390.034 411.977, 370.345 417.085 C 359.101 420.002, 335.604 427.937, 336.262 428.596 C 336.458 428.791, 339.357 428.509, 342.705 427.970 C 374.332 422.877, 419.005 426.159, 453.500 436.110 C 457.350 437.221, 461.289 438.356, 462.254 438.633 C 463.920 439.112, 463.995 432.351, 463.754 302.951 L 463.500 166.765 459 165.014 C 449.128 161.172, 450 160.445, 450 172.510 C 450 183.034, 449.966 183.188, 446.960 186.194 C 444.416 188.738, 443.396 189.133, 440.710 188.614 C 433.866 187.292, 434 188.175, 434 144.389 L 434 105 425.750 105.168 C 421.212 105.261, 415.700 105.498, 413.500 105.697 M 72.500 158.489 C 68.100 159.799, 60.900 162.138, 56.500 163.686 L 48.500 166.500 48.246 302.858 C 48.044 411.823, 48.245 439.121, 49.246 438.740 C 49.936 438.478, 56.800 436.644, 64.500 434.664 C 121.152 420.101, 177.481 423.238, 225.250 443.618 C 229.513 445.436, 233 446.773, 233 446.588 C 233 445.423, 216.605 425.055, 209.284 417.124 C 179.483 384.839, 137.763 359.814, 97.500 350.070 C 86.553 347.421, 84.540 346.480, 83.110 343.343 C 82.322 341.613, 82 314.089, 82 248.453 C 82 197.604, 81.662 156.024, 81.250 156.053 C 80.838 156.082, 76.900 157.178, 72.500 158.489 M 0.484 294.500 C 0.484 360.500, 0.604 387.647, 0.750 354.827 C 0.896 322.007, 0.896 268.007, 0.750 234.827 C 0.604 201.647, 0.484 228.500, 0.484 294.500 M 114 442.031 C 98.216 443.532, 84.288 445.971, 68.500 449.999 C 47.249 455.421, 48 455.037, 48 460.475 L 48 465 140.250 464.950 L 232.500 464.900 224.850 460.988 C 209.964 453.376, 186.678 446.477, 165.804 443.493 C 152.633 441.611, 126.252 440.866, 114 442.031 M 363.500 441.587 C 331.360 444.780, 306.487 451.101, 287.150 460.988 L 279.500 464.900 371.805 464.950 L 464.110 465 463.805 460.261 L 463.500 455.522 454.272 452.816 C 440.537 448.789, 423.992 445.269, 410.500 443.506 C 398.573 441.947, 371.148 440.827, 363.500 441.587 M 0.432 476 C 0.432 489.475, 0.574 494.988, 0.747 488.250 C 0.920 481.512, 0.920 470.488, 0.747 463.750 C 0.574 457.012, 0.432 462.525, 0.432 476" stroke="none" fill="#040404" fill-rule="evenodd"/></svg>