<svg xmlns="http://www.w3.org/2000/svg" width="512" height="512" viewBox="0 0 512 512" version="1.1"><path d="" stroke="none" fill="#080404" fill-rule="evenodd"/><path d="M 183.500 64.601 C 172.255 67.328, 159.775 74.266, 153.113 81.493 C 132.473 103.885, 130.576 132.236, 148.143 155.750 L 152.065 161 127.168 161 L 102.272 161 100.662 165.250 C 99.777 167.588, 94.957 181.727, 89.951 196.671 L 80.850 223.842 75.675 221.232 C 71.704 219.230, 68.988 218.618, 64 218.601 C 39.157 218.519, 25.799 247.857, 42.197 266.486 C 46.806 271.723, 51.710 274.530, 58.967 276.086 L 64 277.166 64 354.698 L 64 432.229 66.635 437.071 C 68.137 439.831, 71.040 443.115, 73.385 444.707 L 77.500 447.500 102.696 447.798 C 126.078 448.074, 128.166 447.955, 131.696 446.139 C 133.788 445.063, 136.714 442.904, 138.197 441.342 C 143.449 435.808, 144 432.881, 144 410.532 L 144 390 256 390 L 368 390 368 410.532 C 368 432.881, 368.551 435.808, 373.803 441.342 C 379.811 447.672, 381.500 448, 408.075 448 L 432.229 448 437.071 445.365 C 439.831 443.863, 443.115 440.960, 444.707 438.615 L 447.500 434.500 447.768 355.829 L 448.035 277.158 453.051 276.083 C 460.291 274.530, 465.197 271.719, 469.803 266.486 C 486.201 247.857, 472.843 218.519, 448 218.601 C 443.007 218.618, 440.296 219.230, 436.309 221.240 L 431.119 223.858 423.421 200.679 C 419.188 187.930, 414.393 173.787, 412.767 169.250 L 409.811 161 392.106 161 L 374.402 161 374.818 157.434 C 375.047 155.473, 374.688 151.085, 374.021 147.684 C 370.443 129.443, 356.670 116.302, 338.363 113.663 L 331.226 112.634 329.543 106.580 C 323.977 86.560, 307.994 70.652, 288.356 65.585 C 271.957 61.354, 252.002 65.297, 238.896 75.359 L 234.578 78.673 227.539 73.956 C 216.645 66.656, 210.585 64.762, 197 64.412 C 190.675 64.249, 184.600 64.334, 183.500 64.601 M 183.336 87.791 C 168.753 92.997, 159.466 106.343, 159.531 122 C 159.557 128.349, 160.066 130.574, 162.844 136.500 C 165.861 142.934, 168.886 146.268, 200.288 177.757 L 234.449 212.015 244.175 202.326 L 253.900 192.637 247.326 185.668 C 243.693 181.817, 239.644 176.280, 238.276 173.292 C 227.013 148.691, 240.030 121.048, 266 114.414 C 277.459 111.487, 290.889 114.069, 300.332 121.012 C 304.076 123.766, 304.347 123.819, 306.737 122.253 C 308.988 120.778, 309.177 120.145, 308.664 115.810 C 307.401 105.145, 299.751 94.734, 289.281 89.429 C 284.095 86.802, 282.522 86.500, 274 86.500 C 265.751 86.500, 263.735 86.858, 258.695 89.220 C 255.502 90.716, 250.100 94.541, 246.690 97.720 C 243.281 100.899, 239.124 104.732, 237.453 106.238 L 234.415 108.977 224.957 100.333 C 213.138 89.530, 207.497 86.745, 196.500 86.283 C 190.580 86.035, 187.157 86.427, 183.336 87.791 M 269.637 136.412 C 262.151 139.183, 256.058 147.508, 256.032 155 C 256.006 162.499, 259.772 167.485, 282.683 190.278 L 304.573 212.056 327.613 188.778 C 348.085 168.094, 350.796 164.975, 351.945 160.790 C 356.601 143.823, 339.161 129.672, 323.535 137.738 C 321.866 138.599, 317.575 142.065, 314 145.440 C 303.501 155.351, 305.165 155.231, 296.232 146.721 C 291.922 142.615, 286.964 138.516, 285.215 137.611 C 280.631 135.241, 274.149 134.742, 269.637 136.412 M 117.488 184.250 C 117.241 184.938, 111.912 201.137, 105.646 220.250 L 94.252 255 256.005 255 L 417.759 255 406.085 219.250 L 394.412 183.500 379.490 183.222 L 364.568 182.944 334.526 212.974 L 304.483 243.005 287.002 225.502 L 269.521 207.999 252.002 225.498 L 234.484 242.996 204.498 212.998 L 174.513 183 146.225 183 C 124.501 183, 117.833 183.290, 117.488 184.250 M 61.017 241.293 C 57.499 243.063, 56.155 247.400, 58.065 250.818 C 59.252 252.943, 60.420 253.563, 63.688 253.803 C 67.044 254.049, 68.109 253.682, 69.406 251.830 C 71.484 248.863, 71.427 245.716, 69.250 243.198 C 66.881 240.458, 64.001 239.792, 61.017 241.293 M 445.017 241.293 C 441.499 243.063, 440.155 247.400, 442.065 250.818 C 443.252 252.943, 444.420 253.563, 447.688 253.803 C 451.044 254.049, 452.109 253.682, 453.406 251.830 C 455.484 248.863, 455.427 245.716, 453.250 243.198 C 450.881 240.458, 448.001 239.792, 445.017 241.293 M 86 322.500 L 86 368 132.500 368 L 179 368 179 340 L 179 312 256 312 L 333 312 333 340 L 333 368 379.500 368 L 426 368 426 322.500 L 426 277 256 277 L 86 277 86 322.500 M 120.453 294.985 C 110.806 298.814, 103.399 308.733, 102.311 319.280 C 100.592 335.931, 113.941 351, 130.409 351 C 139.487 351, 145.553 348.577, 151.589 342.542 C 158.039 336.091, 160.386 329.714, 159.823 320.166 C 158.914 304.735, 148.101 294.115, 132.500 293.333 C 127.214 293.068, 124.264 293.472, 120.453 294.985 M 371.703 294.442 C 363.053 297.528, 356.008 304.540, 353.159 312.899 C 351.493 317.785, 351.732 326.857, 353.676 332.563 C 355.928 339.172, 363.828 347.072, 370.437 349.324 C 386.873 354.924, 403.917 346.412, 408.613 330.259 C 411.688 319.683, 408.844 309.117, 400.773 301.126 C 393.507 293.932, 381.118 291.084, 371.703 294.442 M 126.455 317.455 C 123.456 320.453, 123.351 322.905, 126.073 326.365 C 130.010 331.370, 138 328.563, 138 322.174 C 138 318.819, 134.348 315, 131.140 315 C 129.913 315, 127.805 316.105, 126.455 317.455 M 376.174 317.314 C 371.872 321.894, 374.763 329, 380.927 329 C 384.165 329, 388 325.107, 388 321.820 C 388 319.153, 383.567 315, 380.720 315 C 379.416 315, 377.370 316.042, 376.174 317.314 M 201 351 L 201 368 256 368 L 311 368 311 351 L 311 334 256 334 L 201 334 201 351 M 86 408 L 86 426 104 426 L 122 426 122 408 L 122 390 104 390 L 86 390 86 408 M 390 408 L 390 426 408 426 L 426 426 426 408 L 426 390 408 390 L 390 390 390 408" stroke="none" fill="#040404" fill-rule="evenodd"/></svg>