<?xml version="1.0" encoding="UTF-8"?>
<svg version="1.1" xmlns="http://www.w3.org/2000/svg" width="512" height="512">
<path d="M0 0 C2.50444451 -0.00813878 5.00888184 -0.01882667 7.51330566 -0.03186035 C13.58791692 -0.056306 19.66191034 -0.0528302 25.73649693 -0.03538451 C30.67702946 -0.02178784 35.61743749 -0.02001639 40.5579834 -0.0265274 C41.61608628 -0.0279065 41.61608628 -0.0279065 42.69556499 -0.02931346 C44.12894984 -0.03123197 45.56233465 -0.03317726 46.99571943 -0.03514901 C60.41027821 -0.05222412 73.82459026 -0.03264025 87.23910856 -0.00034681 C98.72853959 0.0264568 110.21760678 0.02179969 121.70703125 -0.00585938 C135.07630518 -0.03802921 148.44536332 -0.05057649 161.81467056 -0.03218579 C163.24253588 -0.03027467 164.67040122 -0.02838844 166.0982666 -0.0265274 C167.15184235 -0.02513893 167.15184235 -0.02513893 168.22670245 -0.0237224 C173.15651844 -0.01855998 178.08619658 -0.02724677 183.01599121 -0.04140472 C189.66139105 -0.06007176 196.30621331 -0.04662345 202.95158386 -0.01203918 C205.38472866 -0.00413211 207.81793144 -0.00633876 210.25105286 -0.01961517 C234.58914673 -0.14013362 234.58914673 -0.14013362 243.328125 6.77636719 C246.1584171 9.6061343 248.40027683 12.26206063 250.328125 15.77636719 C250.65994656 16.33995878 250.99176811 16.90355038 251.33364487 17.4842205 C255.91083027 26.70736449 254.85566659 36.99001166 254.78222656 47.01513672 C254.78109719 49.17421955 254.7817337 51.33330392 254.78399658 53.49238586 C254.78514113 59.33265227 254.76167351 65.17258803 254.73370075 71.01277781 C254.70864402 77.12396969 254.70634172 83.2351697 254.70159912 89.34640503 C254.68918192 100.90945819 254.65637719 112.47235952 254.61620116 124.03534591 C254.57144445 137.20338323 254.54948658 150.37142792 254.52941942 163.53952241 C254.48764355 190.61855474 254.41731582 217.69745244 254.328125 244.77636719 C255.18732544 244.76748474 256.04652588 244.75860229 256.9317627 244.74945068 C265.05252687 244.66910418 273.1731564 244.60830118 281.2942276 244.5691185 C285.46878601 244.54829657 289.64301433 244.52007867 293.81738281 244.47460938 C297.85041013 244.43095753 301.88312114 244.40718956 305.91636658 244.39685822 C307.45048497 244.38950134 308.98458722 244.37513527 310.51856995 244.35344696 C327.53552653 244.12255053 327.53552653 244.12255053 334.3515625 250.74121094 C334.79757812 251.3921875 335.24359375 252.04316406 335.703125 252.71386719 C336.16460937 253.36226562 336.62609375 254.01066406 337.1015625 254.67871094 C340.14630105 259.88579565 340.6254059 264.40939058 340.61865234 270.37109375 C340.62536957 271.22543503 340.63208679 272.07977631 340.63900757 272.96000671 C340.65797482 275.77906138 340.66191141 278.59787771 340.6640625 281.41699219 C340.67049232 283.38368832 340.67722082 285.3503835 340.68423462 287.31707764 C340.69620493 291.43943498 340.69991579 295.56170854 340.69873047 299.68408203 C340.69852753 304.95086723 340.72580505 310.21711132 340.76027489 315.48376846 C340.78258181 319.5468591 340.78656681 323.60982042 340.78551102 327.672966 C340.78786221 329.61372488 340.79665842 331.55448758 340.81217575 333.49518585 C340.83190847 336.21852267 340.82596896 338.94070461 340.81396484 341.6640625 C340.82520386 342.45606552 340.83644287 343.24806854 340.84802246 344.06407166 C340.77536281 350.59476088 339.09220385 356.67857323 334.66596031 361.63920975 C328.20763038 367.789729 320.84108324 369.23878384 312.234375 369.06933594 C311.12594238 369.06480408 311.12594238 369.06480408 309.99511719 369.06018066 C307.27264143 369.04465483 304.55036703 369.00277275 301.828125 368.96386719 C295.723125 368.90199219 289.618125 368.84011719 283.328125 368.77636719 C283.328125 381.64636719 283.328125 394.51636719 283.328125 407.77636719 C278.16046624 403.90062312 273.40540286 400.18100179 268.765625 395.77636719 C265.4412475 392.64370225 262.10115581 389.55388032 258.62524414 386.58886719 C258.00484756 386.0590625 257.38445099 385.52925781 256.74525452 384.98339844 C256.04377541 384.38591797 256.04377541 384.38591797 255.328125 383.77636719 C255.32598747 385.39010223 255.32598747 385.39010223 255.32380676 387.03643799 C255.3070768 397.21647658 255.26412075 407.39611851 255.19603443 417.57594681 C255.16186531 422.80850106 255.13667016 428.04076645 255.13256836 433.2734375 C255.12826375 438.33118424 255.09962269 443.38828048 255.05469322 448.44582367 C255.04178704 450.36729888 255.03738591 452.28885221 255.04197121 454.2103653 C255.0647301 466.65310666 254.39743509 477.21415708 246.765625 487.65136719 C235.28494811 498.90200752 221.67618424 497.6346912 206.65625 497.55273438 C204.15180549 497.56087316 201.64736816 497.57156104 199.14294434 497.58459473 C193.06833308 497.60904038 186.99433966 497.60556458 180.91975307 497.58811888 C175.97922054 497.57452221 171.03881251 497.57275076 166.0982666 497.57926178 C165.04016372 497.58064088 165.04016372 497.58064088 163.96068501 497.58204783 C162.52730016 497.58396635 161.09391535 497.58591163 159.66053057 497.58788338 C146.24597179 497.6049585 132.83165974 497.58537462 119.41714144 497.55308118 C107.92771041 497.52627757 96.43864322 497.53093469 84.94921875 497.55859375 C71.57994482 497.59076358 58.21088668 497.60331086 44.84157944 497.58492017 C43.41371412 497.58300904 41.98584878 497.58112281 40.5579834 497.57926178 C39.85559957 497.57833613 39.15321574 497.57741047 38.42954755 497.57645677 C33.49973156 497.57129436 28.57005342 497.57998115 23.64025879 497.5941391 C16.99485895 497.61280614 10.35003669 497.59935782 3.70466614 497.56477356 C1.27152134 497.55686648 -1.16168144 497.55907313 -3.59480286 497.57234955 C-27.93289673 497.692868 -27.93289673 497.692868 -36.671875 490.77636719 C-44.13646765 483.31315915 -48.09587795 474.35335159 -48.18820024 463.78523672 C-48.17654887 462.81828237 -48.1648975 461.85132802 -48.15289307 460.85507202 C-48.15631077 459.80113837 -48.15972847 458.74720472 -48.16324973 457.66133368 C-48.16980183 454.15431069 -48.14789598 450.64806494 -48.12597656 447.14111328 C-48.12484751 444.61750303 -48.12548307 442.09389147 -48.12774658 439.57028198 C-48.12865541 434.14972544 -48.11736162 428.72941607 -48.09479523 423.30891037 C-48.06219021 415.47197251 -48.05185956 407.63512761 -48.04684326 399.79812928 C-48.03810388 387.08102409 -48.01152531 374.36402195 -47.97363281 361.64697266 C-47.93687748 349.29867058 -47.908583 336.95039657 -47.89160156 324.60205078 C-47.89002522 323.45898533 -47.89002522 323.45898533 -47.88841704 322.29282765 C-47.88319662 318.46961193 -47.87814185 314.64639601 -47.87316942 310.82317996 C-47.83174969 279.14083348 -47.76103961 247.45861639 -47.671875 215.77636719 C-48.2072287 216.24533417 -48.7425824 216.71430115 -49.29415894 217.19747925 C-50.00387848 217.81889801 -50.71359802 218.44031677 -51.44482422 219.08056641 C-52.14517792 219.69390839 -52.84553162 220.30725037 -53.56710815 220.93917847 C-56.62834205 223.61123898 -59.71027943 226.25868649 -62.796875 228.90136719 C-63.37824219 229.40023437 -63.95960937 229.89910156 -64.55859375 230.41308594 C-66.26010149 231.87097736 -67.96523973 233.3244833 -69.671875 234.77636719 C-70.24260742 235.26459961 -70.81333984 235.75283203 -71.40136719 236.25585938 C-75.55611145 239.77636719 -75.55611145 239.77636719 -76.671875 239.77636719 C-76.671875 226.90636719 -76.671875 214.03636719 -76.671875 200.77636719 C-89.14668425 200.89468891 -89.14668425 200.89468891 -101.62109375 201.04663086 C-103.2005146 201.05540366 -104.77994231 201.06304572 -106.359375 201.06933594 C-107.56110352 201.09235779 -107.56110352 201.09235779 -108.78710938 201.11584473 C-115.16509874 201.11876862 -120.53718587 199.96787551 -125.87890625 196.23339844 C-126.67361328 195.41935547 -126.67361328 195.41935547 -127.484375 194.58886719 C-128.02707031 194.0590625 -128.56976563 193.52925781 -129.12890625 192.98339844 C-133.33148383 186.97211658 -134.116391 180.93410268 -134.07592773 173.82519531 C-134.08279099 172.96880966 -134.08965424 172.11242401 -134.09672546 171.23008728 C-134.11490404 168.42242467 -134.1111693 165.61532554 -134.10546875 162.80761719 C-134.11003436 160.8428123 -134.11534106 158.878009 -134.12135315 156.91320801 C-134.13026633 152.80453992 -134.12788098 148.69606641 -134.11791992 144.58740234 C-134.10642391 139.3351476 -134.12666074 134.08356456 -134.15583706 128.83139801 C-134.17422409 124.77691418 -134.17390174 120.72259064 -134.16819954 116.66807556 C-134.16804668 114.73208167 -134.17406179 112.79607668 -134.18649101 110.86012268 C-134.20144925 108.14883812 -134.19068939 105.43878632 -134.17358398 102.72753906 C-134.18808594 101.54121132 -134.18808594 101.54121132 -134.20288086 100.33091736 C-134.11163446 93.38782828 -131.79418842 88.37030581 -127.421875 83.02636719 C-118.97720542 76.11709208 -111.23656809 76.23593941 -100.796875 76.38574219 C-99.26131938 76.39321372 -97.72575415 76.39890234 -96.19018555 76.40289307 C-92.17211016 76.4180779 -88.15462421 76.45729633 -84.13677979 76.50170898 C-80.02746552 76.54281739 -75.9180549 76.56093712 -71.80859375 76.58105469 C-63.76275202 76.62379899 -55.71738708 76.69196166 -47.671875 76.77636719 C-47.68075745 76.15964142 -47.68963989 75.54291565 -47.6987915 74.90750122 C-47.78773721 68.45047333 -47.84780416 61.99362134 -47.89160156 55.53613281 C-47.91163534 53.13078738 -47.93887022 50.72549016 -47.97363281 48.3203125 C-48.02251308 44.84981341 -48.04492705 41.37996192 -48.0625 37.90917969 C-48.08314514 36.8452298 -48.10379028 35.78127991 -48.12506104 34.68508911 C-48.12795066 24.92653614 -45.38350827 16.39364469 -38.87237549 8.9764595 C-28.15745873 -1.73646974 -14.04444592 -0.07663403 0 0 Z " fill="#9DCC6C" transform="translate(152.671875,7.2236328125)"/>
<path d="M0 0 C1.37496512 -0.01159555 2.7502228 -0.00095937 4.12495422 0.0269165 C4.87641724 0.0263324 5.62788025 0.02574829 6.40211487 0.02514648 C8.88612555 0.0279334 11.36893639 0.05905229 13.85273743 0.09039307 C15.57480209 0.09785334 17.29687523 0.10354728 19.01895142 0.10754395 C23.55163509 0.12281721 28.08380612 0.16211331 32.61628723 0.20635986 C37.24125737 0.24727625 41.86631034 0.26554718 46.4914093 0.28570557 C55.56650434 0.32860616 64.64121888 0.39687775 73.71601868 0.48101807 C74.40437805 2.14390869 74.40437805 2.14390869 75.10664368 3.84039307 C75.72592566 5.30415047 76.34574575 6.7676803 76.96601868 8.23101807 C77.26637024 8.96062744 77.5667218 9.69023682 77.87617493 10.44195557 C79.91841223 15.22165988 81.86661113 19.05631429 86.71601868 21.48101807 C88.78813611 21.58291118 90.86357679 21.61944078 92.93818665 21.62628174 C94.90064835 21.63585152 94.90064835 21.63585152 96.90275574 21.64561462 C98.33790551 21.64714338 99.77305578 21.6482573 101.20820618 21.64898682 C102.67550184 21.65219924 104.14279718 21.6555633 105.61009216 21.65907288 C108.68854006 21.66506615 111.76695988 21.66691261 114.84541321 21.6663208 C118.78872422 21.66621924 122.73185492 21.67986393 126.67512321 21.69709301 C129.70688197 21.70821673 132.73859722 21.71023988 135.7703743 21.70971107 C137.22402187 21.71089092 138.67767057 21.71531297 140.13129807 21.72304344 C142.16586232 21.73284892 144.20047934 21.72869959 146.23506165 21.72393799 C147.3926297 21.72536301 148.55019775 21.72678802 149.74284363 21.72825623 C152.68068224 21.48395651 154.30549607 21.14017405 156.71601868 19.48101807 C158.08130758 17.20841692 159.2330129 15.05857478 160.34101868 12.66851807 C160.64008118 12.05170166 160.93914368 11.43488525 161.24726868 10.79937744 C162.87579198 7.4090225 164.33580227 3.97794033 165.71601868 0.48101807 C175.55602408 0.38835632 185.39592577 0.31727256 195.23627853 0.27376938 C199.80552831 0.25289042 204.3744797 0.22456735 208.94355774 0.17926025 C213.3526274 0.13581318 217.76140998 0.11188329 222.17067719 0.10150909 C223.85323354 0.09411564 225.53577411 0.0796779 227.21820831 0.05809784 C229.57426968 0.02907803 231.92914341 0.02506132 234.28535461 0.0269165 C235.32976715 0.00534485 235.32976715 0.00534485 236.39527893 -0.0166626 C239.77239142 0.0121286 241.43540338 0.25864651 244.11793518 2.38439941 C247.19976192 6.4276271 246.85356616 9.93702531 246.83627319 14.84579468 C246.83755483 16.15917826 246.83755483 16.15917826 246.83886236 17.49909484 C246.84051718 20.45028369 246.83499574 23.40141643 246.82954407 26.3526001 C246.82926217 28.46124266 246.82941998 30.56988532 246.82998657 32.67852783 C246.83027445 38.41790432 246.82437931 44.15726007 246.81741261 49.89663172 C246.81117744 55.88910474 246.81057515 61.88157819 246.80938721 67.87405396 C246.80627438 79.22835107 246.79806163 90.5826386 246.78803772 101.93693149 C246.77687509 114.86055175 246.77136575 127.78417246 246.76634228 140.70779634 C246.75587899 167.29887557 246.73828047 193.88994628 246.71601868 220.48101807 C245.69264656 220.48248463 244.66927444 220.48395119 243.61489105 220.48546219 C218.70992218 220.52206292 193.80508772 220.58152013 168.90023041 220.66492081 C156.85640236 220.7047241 144.81263977 220.73711009 132.76875305 220.75201416 C122.27086624 220.76502393 111.7731234 220.7919715 101.27531767 220.83563113 C95.71718384 220.85826094 90.15922768 220.87392782 84.6010437 220.87290192 C79.36758719 220.87215622 74.13452366 220.89007123 68.90116882 220.9221859 C66.98237907 220.93069198 65.06354528 220.93243002 63.14474487 220.92682076 C60.51964872 220.92017001 57.89579897 220.93812664 55.27082825 220.96203613 C54.51594132 220.95427572 53.76105439 220.9465153 52.9832921 220.93851972 C46.65165091 221.04023353 41.50502764 223.07428639 36.69258118 227.22711182 C36.02355774 228.06435791 36.02355774 228.06435791 35.34101868 228.91851807 C34.8795343 229.474104 34.41804993 230.02968994 33.94258118 230.60211182 C30.68458954 235.59285697 30.41889847 240.26033789 30.42549133 246.09161377 C30.41877411 246.94756134 30.41205688 247.80350891 30.40513611 248.68539429 C30.38617076 251.50925537 30.38223254 254.33287855 30.38008118 257.15679932 C30.37365183 259.12589108 30.36692336 261.09498189 30.35990906 263.06407166 C30.34793966 267.19062514 30.34422785 271.31709493 30.34541321 275.44366455 C30.34561628 280.71951563 30.31832446 285.99482736 30.28386879 291.27055073 C30.26157983 295.33789004 30.2575763 299.40510001 30.25863266 303.47249413 C30.25627932 305.41687057 30.24747088 307.36125072 30.23196793 309.30556679 C30.21226922 312.03150296 30.21816123 314.7562821 30.23017883 317.48223877 C30.21893982 318.27783707 30.20770081 319.07343536 30.19612122 319.8931427 C30.25207217 324.91287731 31.28053633 328.38119223 33.76044273 332.75441265 C34.71601868 334.48101807 34.71601868 334.48101807 35.71601868 337.48101807 C37.46469351 338.56532901 37.46469351 338.56532901 39.71601868 339.48101807 C40.58144854 339.98841931 41.4468784 340.49582056 42.3385334 341.0185976 C46.34118268 342.7517084 49.78847951 342.90687938 54.06828308 342.87974548 C54.89420365 342.88639231 55.72012423 342.89303914 56.5710727 342.89988738 C59.3302891 342.91849537 62.08907102 342.91591358 64.8483429 342.91339111 C66.82950451 342.92240961 68.81066054 342.93273705 70.79180908 342.9442749 C76.16526408 342.97186062 81.53861324 342.9811316 86.91212988 342.98712897 C92.52959229 342.9965085 98.14697552 343.02271158 103.76438904 343.0471344 C114.39958851 343.09081461 125.03477263 343.11935227 135.67003453 343.14245778 C147.77881591 343.16950125 159.88751771 343.21341332 171.99624228 343.2587465 C196.90280285 343.35161466 221.80935564 343.42105869 246.71601868 343.48101807 C246.71601868 366.58101807 246.71601868 389.68101807 246.71601868 413.48101807 C162.89601868 413.48101807 79.07601868 413.48101807 -7.28398132 413.48101807 C-7.28398132 334.94101807 -7.28398132 256.40101807 -7.28398132 175.48101807 C90.65351868 175.66851807 90.65351868 175.66851807 121.57124329 175.75128174 C130.72139588 175.76131538 130.72139588 175.76131538 139.87155151 175.76734924 C143.94537259 175.77014284 148.01907624 175.78137995 152.09286499 175.79774475 C157.29324935 175.8183577 162.49346354 175.82448491 167.69388497 175.82023489 C169.59992047 175.8211233 171.50596206 175.82705106 173.41196239 175.83866346 C175.99313672 175.85365572 178.5736558 175.84996299 181.15484619 175.84178162 C181.89493203 175.85051961 182.63501787 175.8592576 183.39753056 175.86826038 C190.27545383 175.80993941 196.2320023 174.074538 202.02851868 170.35601807 C207.72318319 164.26405138 209.31743002 157.56769363 209.2335968 149.4163208 C209.24060608 148.55978912 209.24761536 147.70325745 209.25483704 146.82077026 C209.27229518 144.0183776 209.2608391 141.2170129 209.24726868 138.41461182 C209.24996685 136.45123605 209.25385197 134.48786158 209.25886536 132.52449036 C209.26474369 128.42173464 209.25625031 124.31932865 209.23750305 120.21661377 C209.21469951 114.97220535 209.22785619 109.72861525 209.25179291 104.48423672 C209.26628306 100.43402498 209.2616304 96.38400561 209.25128174 92.33378792 C209.24862413 90.40059371 209.25185002 88.46738172 209.26119995 86.5342083 C209.27142045 83.8277785 209.25578901 81.12265399 209.2335968 78.4163208 C209.24169373 77.62700668 209.24979065 76.83769257 209.25813293 76.02445984 C209.15111353 68.9382461 206.92598355 63.74120941 201.96601868 58.66851807 C195.64186017 54.41187292 189.822979 53.03306 182.27510071 53.08229065 C181.46380549 53.07564382 180.65251028 53.068997 179.81663036 53.06214875 C177.11890031 53.04360989 174.42161734 53.04611785 171.72383118 53.04864502 C169.78178282 53.03962229 167.83974015 53.02929382 165.89770508 53.01776123 C160.64006691 52.99022522 155.3825369 52.98091129 150.12483597 52.97490716 C144.62483194 52.96551469 139.12490842 52.93931055 133.62495422 52.91490173 C123.21648385 52.87125715 112.80802912 52.8426976 102.39949512 52.81957835 C90.54700987 52.79251578 78.69460568 52.74860488 66.84217834 52.70328963 C42.46683576 52.61047255 18.09146776 52.53877832 -6.28398132 52.48101807 C-6.36002203 45.71839599 -6.41257717 38.95588409 -6.44877625 32.19293213 C-6.46386627 29.89210897 -6.48434059 27.59131458 -6.51029968 25.29058838 C-6.5466728 21.98420104 -6.56370565 18.6781939 -6.57695007 15.37164307 C-6.59243393 14.3423468 -6.60791779 13.31305054 -6.62387085 12.25256348 C-6.62409744 11.29186951 -6.62432404 10.33117554 -6.6245575 9.34136963 C-6.63121933 8.49753723 -6.63788116 7.65370483 -6.64474487 6.78430176 C-5.95604394 2.38731204 -4.36462771 0.63930473 0 0 Z " fill="#A6DAFE" transform="translate(136.2839813232422,31.51898193359375)"/>
<path d="M0 0 C1.54370993 -0.00967334 1.54370993 -0.00967334 3.11860591 -0.0195421 C4.24252355 -0.01644489 5.36644118 -0.01334769 6.52441692 -0.01015663 C7.72360892 -0.01468774 8.92280091 -0.01921886 10.15833205 -0.02388728 C13.48372477 -0.03435894 16.80890125 -0.03585689 20.13429511 -0.03349853 C23.72200325 -0.03309035 27.30967914 -0.04412962 30.89737225 -0.05361366 C37.92524087 -0.07022449 44.95307594 -0.07572325 51.98096255 -0.07683842 C57.69397604 -0.07778887 63.40697846 -0.08189903 69.11998844 -0.08823967 C85.31916136 -0.10585245 101.51830779 -0.11507851 117.71749035 -0.11357872 C118.59073825 -0.11349881 119.46398614 -0.1134189 120.3636961 -0.11333656 C121.23801085 -0.1132548 122.1123256 -0.11317304 123.01313474 -0.1130888 C137.18208402 -0.11227593 151.35092699 -0.13141375 165.51984552 -0.1596133 C180.0700897 -0.18834315 194.62028203 -0.20215353 209.17055529 -0.20042574 C217.33874417 -0.19976187 225.50682161 -0.20525305 233.67498493 -0.22678185 C240.62973076 -0.24499501 247.58431463 -0.24933994 254.53907398 -0.235763 C258.08645499 -0.2292339 261.6335253 -0.2291136 265.18087673 -0.2464695 C269.02933924 -0.2651047 272.87734833 -0.25264401 276.72583294 -0.23720741 C277.84305841 -0.24749454 278.96028388 -0.25778167 280.11136466 -0.26838052 C287.57969562 -0.20213839 293.26945926 0.81381526 298.8390379 6.22211266 C299.28505352 6.87308922 299.73106915 7.52406578 300.1906004 8.19476891 C300.88282696 9.16736656 300.88282696 9.16736656 301.5890379 10.15961266 C304.63377644 15.36669737 305.1128813 19.8902923 305.10612774 25.85199547 C305.11284496 26.70633675 305.11956219 27.56067802 305.12648296 28.44090843 C305.14545021 31.2599631 305.1493868 34.07877943 305.1515379 36.89789391 C305.15796772 38.86459004 305.16469622 40.83128522 305.17171001 42.79797935 C305.18368033 46.92033669 305.18739119 51.04261026 305.18620586 55.16498375 C305.18600292 60.43176894 305.21328044 65.69801304 305.24775028 70.96467018 C305.27005721 75.02776081 305.27404221 79.09072214 305.27298641 83.15386772 C305.2753376 85.0946266 305.28413382 87.0353893 305.29965115 88.97608757 C305.31938387 91.69942439 305.31344435 94.42160633 305.30144024 97.14496422 C305.31267925 97.93696724 305.32391827 98.72897026 305.33549786 99.54497337 C305.26283821 106.07566259 303.57967925 112.15947495 299.15343571 117.12011147 C292.69510577 123.27063072 285.32855864 124.71968556 276.7218504 124.55023766 C275.61341778 124.5457058 275.61341778 124.5457058 274.48259258 124.54108238 C271.76011683 124.52555655 269.03784242 124.48367447 266.3156004 124.44476891 C260.2106004 124.38289391 254.1056004 124.32101891 247.8156004 124.25726891 C247.8156004 137.12726891 247.8156004 149.99726891 247.8156004 163.25726891 C242.67118592 159.39895805 237.93611629 155.70112027 233.3156004 151.31976891 C232.19137216 150.26686093 231.0663744 149.21477398 229.9406004 148.16351891 C229.40563946 147.66336266 228.87067852 147.16320641 228.31950665 146.64789391 C226.35367239 144.83013548 224.34185882 143.06971937 222.3156004 141.31976891 C218.65269999 138.1508281 215.09424624 134.87370407 212.08380413 131.06797123 C207.61124139 126.09017313 203.81147048 123.75978857 197.21210003 123.25907004 C192.65744586 123.11050629 188.11725673 123.15988255 183.56169415 123.23895836 C181.50750611 123.2414599 179.45330977 123.2399074 177.39912701 123.23462486 C172.98980932 123.23170624 168.58187336 123.25682064 164.17280865 123.30389404 C157.19606435 123.37775068 150.2201693 123.38590902 143.24309063 123.38500023 C129.69209768 123.39226984 116.14187711 123.46700536 102.59115887 123.54800987 C85.34309532 123.6474127 68.0950526 123.71312411 50.84670258 123.72479981 C43.91618159 123.73164031 36.98675108 123.76971421 30.05652142 123.83265269 C25.74033817 123.86619914 21.42434851 123.87508289 17.10804653 123.87767601 C15.11260498 123.88405914 13.11716452 123.90075794 11.12190914 123.9287529 C-8.67663285 124.19671097 -8.67663285 124.19671097 -16.1843996 117.25726891 C-21.25873683 111.0412058 -22.48384376 105.53344191 -22.47492695 97.6466732 C-22.48164417 96.79072563 -22.4883614 95.93477806 -22.49528217 95.05289268 C-22.51424752 92.22903161 -22.51818575 89.40540843 -22.5203371 86.58148766 C-22.52676646 84.61239589 -22.53349492 82.64330508 -22.54050922 80.67421532 C-22.55247862 76.54766183 -22.55619043 72.42119204 -22.55500507 68.29462242 C-22.554802 63.01877134 -22.58209383 57.74345961 -22.61654949 52.46773624 C-22.63883845 48.40039693 -22.64284199 44.33318697 -22.64178562 40.26579285 C-22.64413896 38.3214164 -22.6529474 36.37703625 -22.66845036 34.43272018 C-22.68814906 31.70678401 -22.68225706 28.98200487 -22.67023945 26.2560482 C-22.68147846 25.46044991 -22.69271748 24.66485161 -22.70429707 23.84514427 C-22.63022706 17.19982844 -20.6144603 12.03034015 -16.21955585 7.01508141 C-15.56857929 6.47625328 -14.91760273 5.93742516 -14.2468996 5.38226891 C-13.59850117 4.82797203 -12.95010273 4.27367516 -12.28205585 3.70258141 C-8.31920281 0.972124 -4.78240365 0.00759718 0 0 Z " fill="#F8DA42" transform="translate(188.18439960479736,251.74273109436035)"/>
<path d="M0 0 C0 78.21 0 156.42 0 237 C83.82 237 167.64 237 254 237 C254 213.9 254 190.8 254 167 C264.00688244 167 264.00688244 167 267.91015625 170.8125 C268.63525391 171.5859375 268.63525391 171.5859375 269.375 172.375 C270.38153111 173.38409226 271.38930154 174.3919502 272.3984375 175.3984375 C273.25695312 176.25695312 274.11546875 177.11546875 275 178 C275.99 178.66 276.98 179.32 278 180 C278.31280701 182.8666473 278.43012124 185.51933067 278.41992188 188.39013672 C278.42839142 189.25872818 278.43686096 190.12731964 278.44558716 191.02223206 C278.46907575 193.90819779 278.46997566 196.79363317 278.46875 199.6796875 C278.47585044 201.68832615 278.48354927 203.69696276 278.49182129 205.70559692 C278.50529759 209.92748635 278.50682344 214.14918879 278.50097656 218.37109375 C278.49511327 223.75551434 278.52551679 229.13902297 278.56609344 234.52326775 C278.59209235 238.67915597 278.59483617 242.83482918 278.59120178 246.99078751 C278.59288532 248.97372837 278.6024533 250.95668001 278.62034607 252.93954086 C278.72180168 265.58630459 278.18972398 276.25627169 270.4375 286.875 C258.95770336 298.12607135 245.34736377 296.85832021 230.328125 296.77636719 C227.82368049 296.78450597 225.31924316 296.79519386 222.81481934 296.80822754 C216.74020808 296.83267319 210.66621466 296.82919739 204.59162807 296.81175169 C199.65109554 296.79815503 194.71068751 296.79638358 189.7701416 296.80289459 C188.71203872 296.80427369 188.71203872 296.80427369 187.63256001 296.80568065 C186.19917516 296.80759916 184.76579035 296.80954444 183.33240557 296.8115162 C169.91784679 296.82859131 156.50353474 296.80900743 143.08901644 296.776714 C131.59958541 296.74991039 120.11051822 296.7545675 108.62109375 296.78222656 C95.25181982 296.8143964 81.88276168 296.82694368 68.51345444 296.80855298 C67.08558912 296.80664185 65.65772378 296.80475563 64.2298584 296.80289459 C63.52747457 296.80196894 62.82509074 296.80104329 62.10142255 296.80008958 C57.17160656 296.79492717 52.24192842 296.80361396 47.31213379 296.81777191 C40.66673395 296.83643895 34.02191169 296.82299064 27.37654114 296.78840637 C24.94339634 296.7804993 22.51019356 296.78270594 20.07707214 296.79598236 C-4.26102173 296.91650081 -4.26102173 296.91650081 -13 290 C-20.46726341 282.5341217 -24.39688695 273.56576824 -24.5676083 263.00314426 C-24.56346025 262.03522922 -24.5593122 261.06731417 -24.55503845 260.07006836 C-24.56621738 259.01502326 -24.5773963 257.95997816 -24.58891398 256.872962 C-24.62108322 253.36177874 -24.62499681 249.85116367 -24.62866211 246.33984375 C-24.64555365 243.81274351 -24.66403248 241.28565345 -24.68397522 238.75857544 C-24.73203224 231.9115913 -24.75392825 225.06479755 -24.76782298 218.21767044 C-24.77663198 213.93764593 -24.79163732 209.65765713 -24.80783272 205.37765503 C-24.85174223 193.51170049 -24.88876665 181.64577676 -24.89845943 169.77973938 C-24.89908614 169.02196251 -24.89971284 168.26418563 -24.90035853 167.48344582 C-24.90160761 165.94750468 -24.90285536 164.41156354 -24.90410178 162.87562239 C-24.90473013 162.1132588 -24.90535847 161.35089521 -24.90600586 160.56542969 C-24.90662927 159.8021292 -24.90725268 159.0388287 -24.90789498 158.25239789 C-24.91934023 145.87602028 -24.9813176 133.5004557 -25.06522279 121.12437761 C-25.15080693 108.39777552 -25.19502251 95.67157934 -25.19765478 82.94468403 C-25.20006881 75.80675694 -25.21992579 68.66984968 -25.28529167 61.53219604 C-25.34651357 54.82070173 -25.35096429 48.11151294 -25.31735802 41.39971542 C-25.31400187 38.93987062 -25.32938875 36.47991648 -25.36509323 34.02032852 C-25.63177676 14.4803988 -25.63177676 14.4803988 -21.60388374 9.3678894 C-19.03375964 6.75227374 -16.16257309 4.85507967 -13 3 C-12.40872283 2.4297963 -11.81744566 1.85959259 -11.208251 1.27210999 C-9 0 -9 0 0 0 Z " fill="#575865" transform="translate(129,208)"/>
<path d="M0 0 C2.50444451 -0.00813878 5.00888184 -0.01882667 7.51330566 -0.03186035 C13.58791692 -0.056306 19.66191034 -0.0528302 25.73649693 -0.03538451 C30.67702946 -0.02178784 35.61743749 -0.02001639 40.5579834 -0.0265274 C41.61608628 -0.0279065 41.61608628 -0.0279065 42.69556499 -0.02931346 C44.12894984 -0.03123197 45.56233465 -0.03317726 46.99571943 -0.03514901 C60.41027821 -0.05222412 73.82459026 -0.03264025 87.23910856 -0.00034681 C98.72853959 0.0264568 110.21760678 0.02179969 121.70703125 -0.00585938 C135.07630518 -0.03802921 148.44536332 -0.05057649 161.81467056 -0.03218579 C163.24253588 -0.03027467 164.67040122 -0.02838844 166.0982666 -0.0265274 C167.15184235 -0.02513893 167.15184235 -0.02513893 168.22670245 -0.0237224 C173.15651844 -0.01855998 178.08619658 -0.02724677 183.01599121 -0.04140472 C189.66139105 -0.06007176 196.30621331 -0.04662345 202.95158386 -0.01203918 C205.38472866 -0.00413211 207.81793144 -0.00633876 210.25105286 -0.01961517 C234.58914673 -0.14013362 234.58914673 -0.14013362 243.328125 6.77636719 C246.1584171 9.6061343 248.40027683 12.26206063 250.328125 15.77636719 C250.65994656 16.33995878 250.99176811 16.90355038 251.33364487 17.4842205 C255.91083027 26.70736449 254.85566659 36.99001166 254.78222656 47.01513672 C254.78109719 49.17421955 254.7817337 51.33330392 254.78399658 53.49238586 C254.78514113 59.33265227 254.76167351 65.17258803 254.73370075 71.01277781 C254.70864402 77.12396969 254.70634172 83.2351697 254.70159912 89.34640503 C254.68918192 100.90945819 254.65637719 112.47235952 254.61620116 124.03534591 C254.57144445 137.20338323 254.54948658 150.37142792 254.52941942 163.53952241 C254.48764355 190.6185576 254.41650719 217.69744747 254.328125 244.77636719 C246.408125 244.77636719 238.488125 244.77636719 230.328125 244.77636719 C230.32003815 242.10424133 230.31195129 239.43211548 230.30361938 236.67901611 C230.22661197 211.54503795 230.1386743 186.41111515 230.04059792 161.27721024 C229.99043549 148.35441527 229.94399301 135.43162676 229.90625 122.50878906 C229.87335114 111.24774913 229.83353162 99.98675881 229.78533494 88.72577357 C229.76004902 82.76092279 229.73827391 76.796105 229.72478104 70.8312149 C229.71197971 65.22032049 229.68994613 59.60953911 229.66074181 53.99870682 C229.65165093 51.93632603 229.6459723 49.87392704 229.64391136 47.81152725 C229.6405995 45.00143979 229.62515121 42.19167489 229.6065979 39.38165283 C229.6095 38.15013548 229.6095 38.15013548 229.61246073 36.89373899 C229.59713689 31.51134574 229.59713689 31.51134574 227.328125 26.77636719 C224.3743843 25.29949684 221.36504241 25.5975576 218.12451172 25.57104492 C217.3829483 25.56114532 216.64138489 25.55124573 215.87734985 25.54104614 C213.42087012 25.50940356 210.96437103 25.48466287 208.5078125 25.45996094 C206.806727 25.43939379 205.10564664 25.41839738 203.40457153 25.39698792 C198.92311764 25.34174254 194.44161744 25.29234416 189.96008301 25.24414062 C185.38871123 25.19394358 180.81740687 25.13824815 176.24609375 25.08300781 C167.27349506 24.9753961 158.30083789 24.87395782 149.328125 24.77636719 C149.12855698 25.46234985 148.92898895 26.14833252 148.72337341 26.85510254 C148.45815384 27.75531128 148.19293427 28.65552002 147.91967773 29.58300781 C147.65823471 30.47524048 147.39679169 31.36747314 147.12742615 32.28674316 C146.19586766 35.18831588 144.98047306 37.67863136 143.390625 40.27636719 C142.90722656 41.09105469 142.42382812 41.90574219 141.92578125 42.74511719 C140.10587654 45.05893247 139.05901676 45.7204021 136.328125 46.77636719 C133.37513733 47.0370636 133.37513733 47.0370636 129.89477539 47.05102539 C127.93738182 47.06532341 127.93738182 47.06532341 125.94044495 47.07991028 C124.51889011 47.07964884 123.09733525 47.07871175 121.67578125 47.07714844 C120.2137388 47.08103704 118.75169747 47.08537205 117.28965759 47.09013367 C114.22732885 47.09758937 111.16511542 47.09730935 108.1027832 47.09204102 C104.18418099 47.08624712 100.26605156 47.10317813 96.3475275 47.12638569 C93.32858026 47.14113866 90.30974648 47.14199263 87.29076958 47.13887596 C85.84631857 47.13938839 84.40186109 47.14461141 82.95744514 47.15468788 C80.93529002 47.16706385 78.91303921 47.15831076 76.89086914 47.14868164 C75.74155411 47.14931107 74.59223907 47.14994049 73.40809631 47.15058899 C69.94159623 46.72940328 68.098726 45.87318015 65.328125 43.77636719 C63.88661799 41.46655084 62.71224412 39.34760618 61.578125 36.90136719 C61.12373047 35.98291016 61.12373047 35.98291016 60.66015625 35.04589844 C59.01592113 31.63319709 57.99298671 28.48864399 57.328125 24.77636719 C47.34015972 24.81437598 37.35257068 24.87366697 27.36490154 24.96026993 C22.72738397 24.99981001 18.09005814 25.03196626 13.45239258 25.04736328 C8.97826513 25.06248712 4.50466456 25.09685576 0.03077126 25.14467621 C-1.67763888 25.15953432 -3.38612423 25.16741073 -5.09459877 25.16825104 C-7.48461974 25.17060926 -9.87317091 25.19759334 -12.26293945 25.23046875 C-12.97216049 25.22543839 -13.68138153 25.22040802 -14.41209412 25.21522522 C-17.52353838 25.28161788 -19.24907888 25.3972369 -21.60791016 27.51245117 C-22.79949689 30.04792244 -23.06668568 31.75028193 -23.10424805 34.54492188 C-23.12404221 35.48559509 -23.14383636 36.42626831 -23.16423035 37.39544678 C-23.17381523 38.90658051 -23.17381523 38.90658051 -23.18359375 40.44824219 C-23.20154495 41.48579651 -23.21949615 42.52335083 -23.23799133 43.59234619 C-23.29213877 46.90364528 -23.32600485 50.21479985 -23.359375 53.52636719 C-23.39254409 55.77248107 -23.42703336 58.01857587 -23.46289062 60.26464844 C-23.55035141 65.76857602 -23.61038378 71.27184294 -23.671875 76.77636719 C-31.591875 76.77636719 -39.511875 76.77636719 -47.671875 76.77636719 C-47.76403213 69.69562804 -47.84357618 62.61699529 -47.89160156 55.53613281 C-47.91163534 53.13078738 -47.93887022 50.72549016 -47.97363281 48.3203125 C-48.02251308 44.84981341 -48.04492705 41.37996192 -48.0625 37.90917969 C-48.08314514 36.8452298 -48.10379028 35.78127991 -48.12506104 34.68508911 C-48.12795066 24.92653614 -45.38350827 16.39364469 -38.87237549 8.9764595 C-28.15745873 -1.73646974 -14.04444592 -0.07663403 0 0 Z " fill="#555764" transform="translate(152.671875,7.2236328125)"/>
<path d="M0 0 C0.86081385 -0.0060911 1.72162771 -0.01218221 2.60852683 -0.01845789 C5.49815399 -0.03513075 8.38734256 -0.03030596 11.27700806 -0.0255127 C13.34665893 -0.03285056 15.4163057 -0.04143596 17.48594666 -0.05117798 C23.1120024 -0.0734331 28.73791185 -0.07632263 34.36400557 -0.07443047 C39.05843907 -0.07431094 43.75284138 -0.08286774 48.44726622 -0.09120798 C59.52155671 -0.1104567 70.59577182 -0.11332062 81.67007446 -0.10656738 C93.09907703 -0.09992614 104.5277569 -0.12279114 115.95669401 -0.15988111 C125.76487415 -0.19055777 135.57295038 -0.20194032 145.38117754 -0.1980443 C151.24105772 -0.1959746 157.10068688 -0.20149027 162.9605217 -0.22593689 C168.47145667 -0.24816749 173.9818664 -0.24635659 179.49280357 -0.22600937 C181.51566283 -0.22259274 183.53855718 -0.22771637 185.56136894 -0.24199295 C188.32285913 -0.26013833 191.08255857 -0.2474717 193.84399414 -0.22705078 C194.6447787 -0.23956863 195.44556327 -0.25208648 196.27061403 -0.26498365 C202.01459693 -0.1738999 204.53436631 1.27184242 208.54898071 5.39440918 C210.40860158 9.11365091 210.12296779 13.34461148 209.54898071 17.39440918 C207.012852 20.77591414 204.47903159 22.90112138 200.54898071 24.39440918 C197.74920467 24.58865168 195.04932737 24.67281465 192.24981689 24.66183472 C190.98309743 24.66863139 190.98309743 24.66863139 189.69078767 24.67556536 C186.8565167 24.68824193 184.02243708 24.6865869 181.18814087 24.68493652 C179.15790051 24.69091972 177.12766244 24.69772479 175.09742737 24.70529175 C169.57883019 24.72297977 164.06029501 24.7276483 158.54167223 24.72892332 C153.93671714 24.73082118 149.33177654 24.73817738 144.72682703 24.74526751 C133.86350101 24.76155958 123.00020816 24.7664357 112.13687134 24.76501465 C100.92604408 24.76381287 89.71540924 24.78492017 78.50463068 24.81650198 C68.88329525 24.84264158 59.26202274 24.85338292 49.64065206 24.85210383 C43.89258462 24.85159353 38.14468815 24.85731425 32.39665604 24.87845993 C26.99084704 24.89780332 21.58537278 24.89799339 16.17955208 24.88342667 C14.19539337 24.88133265 12.21121392 24.88607459 10.22709084 24.89814758 C7.5183695 24.91356223 4.81080781 24.90431712 2.10211182 24.8888855 C1.31689105 24.89917262 0.53167028 24.90945975 -0.27734506 24.92005861 C-5.48723106 24.85446569 -8.43421772 23.68177962 -12.45101929 20.39440918 C-14.8599945 17.42333976 -15.41614799 15.71987458 -15.82601929 11.89440918 C-15.34259561 7.38245489 -14.01019243 4.98788613 -10.86983299 1.77843475 C-7.35123787 -0.23487682 -3.94527922 -0.02610402 0 0 Z " fill="#FEFEFC" transform="translate(230.45101928710938,321.6055908203125)"/>
<path d="M0 0 C0.85249789 -0.00382555 1.70499578 -0.00765109 2.58332694 -0.01159257 C5.45068373 -0.02194239 8.31784102 -0.01792665 11.18521118 -0.01396179 C13.23663011 -0.0183072 15.28804741 -0.02348977 17.33946228 -0.02944946 C22.9200391 -0.04286987 28.50054832 -0.0434147 34.08113813 -0.04088616 C38.73584276 -0.0398184 43.3905336 -0.04469486 48.04523528 -0.04949158 C59.02500981 -0.06059752 70.00475015 -0.06101822 80.98452759 -0.05497742 C92.31972209 -0.04893703 103.65479248 -0.06124784 114.9899658 -0.08254749 C124.71402351 -0.10014933 134.43804167 -0.10616704 144.16211474 -0.10290974 C149.97328794 -0.10109432 155.78437265 -0.10375883 161.59553146 -0.11762428 C167.06037788 -0.13017476 172.52503054 -0.12828484 177.98987389 -0.11521339 C179.99702329 -0.11284191 182.0041862 -0.11560267 184.01132011 -0.12383652 C186.74874007 -0.13425742 189.48550434 -0.12624079 192.22290039 -0.11352539 C193.01949802 -0.12089968 193.81609565 -0.12827396 194.63683259 -0.13587171 C200.21690134 -0.08124448 203.2426602 1.24295514 207.49234009 4.67866516 C209.91613112 7.75589202 209.9463336 11.46002881 209.73843384 15.26069641 C207.39742167 20.3172827 204.82654843 22.2139947 199.73843384 24.26069641 C196.8177453 24.54160082 194.11506351 24.67073657 191.19876099 24.64837646 C189.92947825 24.65645477 189.92947825 24.65645477 188.63455343 24.66469628 C185.80640099 24.67897449 182.97871668 24.6718725 180.15054321 24.66474915 C178.12000655 24.67045273 176.0894731 24.67741694 174.0589447 24.68554688 C168.54869607 24.7034933 163.03860656 24.70230724 157.52833748 24.69660449 C152.92824769 24.69351521 148.32818858 24.6996021 143.72810316 24.70564324 C132.87719136 24.71969134 122.02635828 24.71812439 111.17544556 24.70674133 C99.97933559 24.69525574 88.78346503 24.70934265 77.58738661 24.73613781 C67.9744954 24.75828299 58.36167942 24.76493496 48.74876451 24.7590614 C43.00744423 24.7556883 37.26627748 24.75813061 31.52497864 24.77531242 C26.12733543 24.79076087 20.7300475 24.78684918 15.33241844 24.76800728 C13.35148881 24.7643158 11.37053298 24.76744609 9.38962746 24.77789307 C6.68537601 24.79106617 3.98230712 24.77958836 1.27810669 24.76190186 C0.49425016 24.77150686 -0.28960637 24.78111187 -1.09721613 24.79100794 C-6.29879643 24.72101042 -9.27292714 23.57960988 -13.26156616 20.26069641 C-16.0876249 16.02160831 -15.92168863 12.23945138 -15.26156616 7.26069641 C-11.32588294 0.74646211 -7.17064333 -0.03383044 0 0 Z " fill="#FEFEFE" transform="translate(87.26156616210938,153.7393035888672)"/>
<path d="M0 0 C1.07109009 -0.0071553 2.14218018 -0.01431061 3.24572754 -0.02168274 C4.42600525 -0.02437164 5.60628296 -0.02706055 6.82232666 -0.02983093 C8.68099365 -0.03968773 8.68099365 -0.03968773 10.57720947 -0.04974365 C14.69309731 -0.06951476 18.80894613 -0.08114778 22.92486572 -0.09111023 C24.341881 -0.0951577 25.75889608 -0.09927462 27.17591095 -0.10346031 C33.83409446 -0.12251494 40.49226687 -0.13674453 47.1504724 -0.14507228 C54.83435125 -0.1548416 62.51794178 -0.18115167 70.20171905 -0.22157317 C76.14150923 -0.25174683 82.08121683 -0.26654239 88.02108216 -0.26985329 C91.56823909 -0.27220271 95.11508812 -0.28114807 98.66216278 -0.30631447 C102.62189426 -0.33395408 106.58124749 -0.32976017 110.54107666 -0.32279968 C111.71325745 -0.33560974 112.88543823 -0.3484198 114.09313965 -0.36161804 C120.35184379 -0.32146604 124.20705241 -0.10450673 128.94049072 4.14717102 C131.7152157 7.27992503 132.16282713 9.58447844 131.94049072 13.64717102 C131.26341787 18.16099003 129.61660355 20.34632315 125.94049072 23.14717102 C122.92098796 24.15367194 120.88083466 24.28236475 117.72276306 24.30107117 C116.64188416 24.30967163 115.56100525 24.31827209 114.44737244 24.32713318 C112.66832268 24.3335231 112.66832268 24.3335231 110.85333252 24.34004211 C109.60432159 24.3482196 108.35531067 24.35639709 107.06845093 24.36482239 C102.92554037 24.38968299 98.78266628 24.4063456 94.63970947 24.42060852 C93.21247667 24.42596933 91.78524393 24.43134684 90.35801125 24.43674088 C84.42082818 24.45836382 78.48364781 24.47710033 72.54643536 24.48836327 C64.04243821 24.50460274 55.53889791 24.53778646 47.03507298 24.59476411 C41.05280257 24.63347836 35.07065429 24.65299761 29.0882619 24.65828383 C25.51644991 24.66193501 21.94512554 24.6739304 18.37344933 24.70638657 C14.387441 24.74208969 10.4020052 24.73809248 6.41583252 24.73066711 C5.23587204 24.74707245 4.05591156 24.76347778 2.8401947 24.78038025 C-6.08124169 24.71225376 -6.08124169 24.71225376 -9.77671814 21.79820251 C-12.90563431 18.16455633 -13.51179469 15.06347423 -13.48529053 10.28388977 C-12.70316043 6.35888827 -9.97165471 3.7499953 -7.05950928 1.14717102 C-4.54458525 -0.11029099 -2.81563602 0.01287898 0 0 Z " fill="#FDFEFD" transform="translate(165.05950927734375,113.85282897949219)"/>
<path d="M0 0 C1.07246475 -0.00708481 2.1449295 -0.01416962 3.24989319 -0.02146912 C5.01491684 -0.01775299 5.01491684 -0.01775299 6.81559753 -0.01396179 C8.05485489 -0.01907272 9.29411224 -0.02418365 10.57092285 -0.02944946 C13.97194632 -0.04098201 17.37272636 -0.04341658 20.77375245 -0.04088616 C23.61407672 -0.03981686 26.45437849 -0.04469899 29.29469794 -0.04949158 C35.99797063 -0.060592 42.70118729 -0.06102179 49.40446472 -0.05497742 C56.3146604 -0.04894207 63.22465223 -0.06123611 70.13481313 -0.08254749 C76.07038794 -0.10017864 82.00589796 -0.1061623 87.94149798 -0.10290974 C91.48521283 -0.10109846 95.02878242 -0.10371701 98.57247353 -0.11762428 C102.52729368 -0.13256349 106.48185568 -0.12321918 110.43669128 -0.11161804 C111.60730103 -0.11926178 112.77791077 -0.12690552 113.98399353 -0.13478088 C119.65417046 -0.09798608 123.96991237 -0.04153673 128.82023621 3.26069641 C131.6408672 6.12903364 132.25159369 8.21170284 132.25773621 12.19819641 C132.14474484 15.68552088 131.88249248 17.15001859 130.13273621 20.26069641 C126.19809335 23.66363077 122.56591024 24.50952368 117.43792725 24.52812195 C116.37112732 24.53665192 115.30432739 24.54518188 114.2052002 24.55397034 C113.04505905 24.55306396 111.88491791 24.55215759 110.68962097 24.55122375 C109.45982513 24.55794098 108.2300293 24.5646582 106.96296692 24.57157898 C103.59718931 24.58730685 100.23165848 24.59393305 96.86586118 24.59521055 C94.76135217 24.59663411 92.65686887 24.60090752 90.55236626 24.60620499 C83.20568581 24.62469409 75.85907783 24.63287681 68.51237488 24.63130188 C61.67138586 24.63010006 54.83071213 24.65121295 47.9898029 24.68278921 C42.10938715 24.70896184 36.22907434 24.7196688 30.3486008 24.71839106 C26.8395118 24.71788181 23.33070326 24.72354456 19.82167244 24.74474716 C15.9077388 24.76775218 11.99423619 24.75860254 8.08024597 24.74653625 C6.92212906 24.75777527 5.76401215 24.76901428 4.57080078 24.78059387 C-1.6358526 24.73191538 -5.51534514 24.52642334 -10.17976379 20.26069641 C-13.00582253 16.02160831 -12.83988626 12.23945138 -12.17976379 7.26069641 C-9.06850903 2.11103336 -5.97946285 0.0131515 0 0 Z " fill="#FEFEFE" transform="translate(308.1797637939453,281.7393035888672)"/>
<path d="M0 0 C9 0 9 0 11.5 1.875 C14.40612066 5.99200427 14.13748953 9.47245762 14.12025452 14.36477661 C14.12110894 15.24036567 14.12196337 16.11595472 14.12284368 17.01807678 C14.1244985 19.96926563 14.11897706 22.92039837 14.11352539 25.87158203 C14.11324349 27.9802246 14.1134013 30.08886726 14.1139679 32.19750977 C14.11425577 37.93688625 14.10836063 43.676242 14.10139394 49.41561365 C14.09515876 55.40808667 14.09455647 61.40056012 14.09336853 67.39303589 C14.0902557 78.747333 14.08204296 90.10162054 14.07201904 101.45591342 C14.06085641 114.37953368 14.05534707 127.30315439 14.05032361 140.22677827 C14.03986031 166.8178575 14.02226179 193.40892821 14 220 C9.71 220 5.42 220 1 220 C0.67 147.4 0.34 74.8 0 0 Z " fill="#89CAEE" transform="translate(369,32)"/>
<path d="M0 0 C3.16634636 -0.11760715 6.33212074 -0.18771024 9.5 -0.25 C10.386875 -0.28351563 11.27375 -0.31703125 12.1875 -0.3515625 C18.35629056 -0.44228001 22.87879636 0.44899123 28 4 C30.0234375 5.96484375 30.0234375 5.96484375 31.375 7.9375 C31.83648437 8.58589844 32.29796875 9.23429687 32.7734375 9.90234375 C35.81817605 15.10942846 36.2972809 19.63302339 36.29052734 25.59472656 C36.29724457 26.44906784 36.30396179 27.30340912 36.31088257 28.18363953 C36.32984982 31.00269419 36.33378641 33.82151052 36.3359375 36.640625 C36.34236732 38.60732113 36.34909582 40.57401631 36.35610962 42.54071045 C36.36807993 46.66306779 36.37179079 50.78534135 36.37060547 54.90771484 C36.37040253 60.17450004 36.39768005 65.44074413 36.43214989 70.70740128 C36.45445681 74.77049191 36.45844181 78.83345323 36.45738602 82.89659882 C36.45973721 84.83735769 36.46853342 86.7781204 36.48405075 88.71881866 C36.50378347 91.44215548 36.49784396 94.16433743 36.48583984 96.88769531 C36.49707886 97.67969833 36.50831787 98.47170135 36.51989746 99.28770447 C36.44701839 105.83811604 34.80179778 112.02060553 30.22064781 116.89213943 C25.80029909 120.86217476 22.08487683 123.26932777 16.015625 123.1953125 C15.08105469 123.18886719 14.14648438 123.18242187 13.18359375 123.17578125 C12.21550781 123.15902344 11.24742187 123.14226562 10.25 123.125 C8.77466797 123.11146484 8.77466797 123.11146484 7.26953125 123.09765625 C4.84610593 123.07412785 2.42317778 123.04125368 0 123 C0.8971875 122.56107422 0.8971875 122.56107422 1.8125 122.11328125 C8.89266074 118.50998516 13.29647015 114.37077009 16.36903572 106.99010849 C17.47447794 103.50346111 17.42542248 100.08446146 17.40405273 96.45361328 C17.41091599 95.62824066 17.41777924 94.80286804 17.42485046 93.95248413 C17.44305458 91.24158201 17.43928972 88.53126225 17.43359375 85.8203125 C17.43815904 83.92373468 17.44346564 82.02715851 17.44947815 80.13058472 C17.45839704 76.1613695 17.45600053 72.19235562 17.44604492 68.22314453 C17.4345645 63.15367334 17.45475881 58.08489969 17.48396206 53.0155201 C17.50236998 49.09996169 17.50202233 45.18456897 17.49632454 41.26897812 C17.49617185 39.40079648 17.50217299 37.53260325 17.51461601 35.66446304 C17.87693444 22.23978549 17.87693444 22.23978549 13 10 C12.443125 9.071875 11.88625 8.14375 11.3125 7.1875 C8.00587942 4.05961567 4.21379062 2.61168487 0 1 C0 0.67 0 0.34 0 0 Z " fill="#F1CC31" transform="translate(457,252)"/>
<path d="M0 0 C19.10597382 -0.91855643 19.10597382 -0.91855643 24.45703125 3.3671875 C30.87443043 10.15825803 33.14568585 14.96563184 33.17700195 24.36767578 C33.18685875 25.64874962 33.18685875 25.64874962 33.19691467 26.95570374 C33.21664309 29.78557423 33.22831118 32.61539159 33.23828125 35.4453125 C33.24235678 36.41322598 33.2464323 37.38113945 33.25063133 38.37838364 C33.27149322 43.50453223 33.28579268 48.63065407 33.29516602 53.75683594 C33.30621198 59.0393405 33.34059069 64.32142169 33.38033772 69.60377693 C33.40654935 73.6754329 33.41486205 77.74698886 33.41844749 81.81872177 C33.42330412 83.76507288 33.43489163 85.71141979 33.45348549 87.65768814 C33.4779668 90.39077992 33.47689528 93.12278802 33.4699707 95.85595703 C33.48278076 96.65110214 33.49559082 97.44624725 33.50878906 98.26548767 C33.44857923 104.82853448 31.81144088 111.01065122 27.22058582 115.89201546 C23.10239041 119.59110868 19.35980569 122.27656865 13.671875 122.1953125 C12.47304688 122.18564453 12.47304688 122.18564453 11.25 122.17578125 C10.425 122.15902344 9.6 122.14226562 8.75 122.125 C7.90953125 122.11597656 7.0690625 122.10695313 6.203125 122.09765625 C4.13529396 122.07415817 2.06761005 122.03828908 0 122 C0.77214844 121.38640625 1.54429687 120.7728125 2.33984375 120.140625 C8.13473423 115.47748259 13.02608363 110.48465581 14.37086487 102.91145706 C14.5154593 100.68661742 14.5410504 98.49354474 14.51757812 96.26416016 C14.5245874 95.43049423 14.53159668 94.59682831 14.53881836 93.73789978 C14.55630429 91.00460677 14.54480728 88.27236455 14.53125 85.5390625 C14.53394813 83.62388919 14.53783322 81.70871723 14.54284668 79.79354858 C14.54872944 75.78736274 14.54022013 71.78153472 14.52148438 67.77539062 C14.49872656 62.66229984 14.51180565 57.55005051 14.53577423 52.43699074 C14.55029173 48.48363004 14.54559851 44.53046576 14.53526306 40.57709885 C14.53261059 38.69300612 14.53581298 36.80889507 14.54518127 34.92482376 C15.0787766 19.66999424 15.0787766 19.66999424 8.55285645 6.41323853 C6.82485702 4.85861233 6.82485702 4.85861233 4 3 C2.66323715 2.00458909 1.3291969 1.00549162 0 0 Z " fill="#87B74F" transform="translate(313,85)"/>
<path d="M0 0 C59.07 0 118.14 0 179 0 C179 0.33 179 0.66 179 1 C120.26 1 61.52 1 1 1 C1 78.88 1 156.76 1 237 C80.2 237 159.4 237 241 237 C241 214.23 241 191.46 241 168 C245.29 168 249.58 168 254 168 C254 191.1 254 214.2 254 238 C170.18 238 86.36 238 0 238 C0 159.46 0 80.92 0 0 Z " fill="#8DC4DF" transform="translate(129,207)"/>
<path d="M0 0 C0.92130707 -0.00945648 1.84261414 -0.01891296 2.7918396 -0.02865601 C3.78043976 -0.02258331 4.76903992 -0.01651062 5.78759766 -0.01025391 C6.81092194 -0.01312408 7.83424622 -0.01599426 8.88858032 -0.01895142 C11.05219069 -0.0209918 13.21581951 -0.01546377 15.37939453 -0.00292969 C18.68255169 0.01309092 21.98447911 -0.00276275 25.28759766 -0.02197266 C27.39176701 -0.01998958 29.49593561 -0.01614456 31.60009766 -0.01025391 C33.0769252 -0.01936295 33.0769252 -0.01936295 34.58358765 -0.02865601 C40.83780418 0.03510225 45.31067541 0.77433015 50.20166016 5.01318359 C51.98356795 8.77498895 51.96290403 12.30915345 51.32666016 16.38818359 C49.71007488 19.68122767 48.54385725 21.69086697 45.34204102 23.52514648 C40.83516901 24.81506572 36.43505556 24.73382821 31.76806641 24.75927734 C30.74615707 24.76830582 29.72424774 24.77733429 28.67137146 24.78663635 C26.51377281 24.80111992 24.35613042 24.81002087 22.19848633 24.8137207 C18.90386921 24.82563042 15.61111745 24.87484734 12.31689453 24.92529297 C10.21729427 24.93475627 8.11768254 24.94199175 6.01806641 24.94677734 C5.03665176 24.96630966 4.05523712 24.98584198 3.04408264 25.00596619 C-1.47920117 24.97622606 -4.66109936 24.90076745 -8.25561523 21.97436523 C-11.33504925 18.68036901 -12.46795923 16.96276832 -13.04833984 12.51318359 C-12.48679548 7.83364726 -10.30518871 4.84610651 -6.82479858 1.73666382 C-4.31726103 0.16500235 -2.93643455 0.00867436 0 0 Z " fill="#FEFEFD" transform="translate(227.67333984375,281.61181640625)"/>
<path d="M0 0 C1.34708794 -0.01913956 1.34708794 -0.01913956 2.72138977 -0.03866577 C3.6849791 -0.04089142 4.64856842 -0.04311707 5.64135742 -0.04541016 C6.64011398 -0.05206696 7.63887054 -0.05872375 8.66789246 -0.06558228 C10.78020386 -0.0757017 12.89254719 -0.08039951 15.00488281 -0.08007812 C18.2247437 -0.08444272 21.44322413 -0.12074688 24.6628418 -0.15869141 C26.71817567 -0.16456153 28.77351603 -0.16852961 30.82885742 -0.17041016 C32.26513237 -0.19196671 32.26513237 -0.19196671 33.73042297 -0.21395874 C39.82812953 -0.17261423 43.47012972 0.67283799 48.43432617 4.29052734 C51.26487382 8.53634881 51.20841804 12.30537571 50.43432617 17.29052734 C48.55057467 20.91312639 46.36505724 22.98028366 42.43432617 24.29052734 C40.88644449 24.40170683 39.33439705 24.45929658 37.78271484 24.48339844 C36.84131149 24.49946136 35.89990814 24.51552429 34.92997742 24.53207397 C30.62992158 24.57663105 26.33001791 24.61758081 22.02978516 24.640625 C19.76307918 24.65718808 17.4964255 24.68448248 15.22998047 24.72265625 C11.95797698 24.77746368 8.68719581 24.79930469 5.41479492 24.81396484 C3.90045113 24.8479689 3.90045113 24.8479689 2.35551453 24.88265991 C-2.23369173 24.86890457 -5.52715419 24.84175061 -9.18945312 21.8828125 C-12.90666734 17.82760028 -12.90485589 15.11955149 -12.85083008 9.77099609 C-12.44703777 6.25855615 -11.1779 4.61250616 -8.56567383 2.29052734 C-5.61094628 0.52775643 -3.42507692 0.03317043 0 0 Z " fill="#FDFEFC" transform="translate(84.565673828125,113.70947265625)"/>
<path d="M0 0 C-3.77059894 3.82370597 -7.67602711 7.40723494 -11.71875 10.9375 C-14.23367513 13.21126792 -16.6044862 15.60090547 -19 18 C-24.76265265 23.46892981 -30.64204869 28.82775409 -36.5625 34.125 C-37.43068359 34.90230469 -37.43068359 34.90230469 -38.31640625 35.6953125 C-40.11777154 37.09126612 -41.93333596 38.05032943 -44 39 C-45.67236496 24.28656686 -45.67236496 24.28656686 -42.04296875 19.32421875 C-39.65721048 17.46940522 -37.20829067 15.84306454 -34.65917969 14.22509766 C-32.7857831 12.84182749 -31.36244684 11.31752163 -29.8203125 9.57421875 C-20.62344841 -0.64832301 -13.44992378 -1.67765574 0 0 Z " fill="#88B853" transform="translate(120,208)"/>
<path d="M0 0 C5.61 0 11.22 0 17 0 C17 12.54 17 25.08 17 38 C10.11314849 35.2452594 3.39660016 31.9080831 0 25 C-1.51631027 16.76937572 -0.68779464 8.28537797 0 0 Z " fill="#F1CC30" transform="translate(418,375)"/>
<path d="M0 0 C0.66 0.33 1.32 0.66 2 1 C-1.3 4.3 -4.6 7.6 -8 11 C-8 6.67750434 -5.85084926 5.11604454 -3 2 C-2.01 1.34 -1.02 0.68 0 0 Z " fill="#6B788A" transform="translate(119,12)"/>
</svg>
