<svg xmlns="http://www.w3.org/2000/svg" width="512" height="513" viewBox="0 0 512 513" version="1.1"><path d="" stroke="none" fill="#080404" fill-rule="evenodd"/><path d="M 104.600 3.047 C 100.580 6.576, 99.032 10.792, 95.988 26.500 C 94.816 32.550, 93.422 39.188, 92.890 41.250 L 91.923 45 77.711 45.022 C 66.133 45.040, 62.757 45.381, 59.491 46.865 C 54.450 49.155, 49.425 54.807, 48.060 59.723 C 46.675 64.711, 46.708 98.392, 48.104 103.500 C 50.667 112.885, 57.909 118.016, 69.673 118.785 C 78.100 119.335, 76.938 116.938, 80.138 140.362 L 82.442 157.224 80.300 158.958 C 76.587 161.965, 74.008 167.232, 74.004 171.815 C 74 176.046, 109 424.195, 111.124 435 C 112.398 441.479, 115.857 446.487, 120.631 448.764 C 124.619 450.666, 124.217 449.262, 127.557 472.945 C 129.273 485.108, 130.849 492.772, 132.185 495.445 C 134.820 500.717, 140.473 506.614, 145.500 509.335 L 149.500 511.500 256 511.500 L 362.500 511.500 366.563 509.325 C 371.904 506.466, 377.483 500.631, 380.005 495.266 C 381.263 492.590, 382.971 484.401, 384.497 473.724 C 388.062 448.787, 387.637 450.393, 391.045 448.981 C 394.335 447.619, 398.694 442.936, 400.089 439.265 C 401.318 436.034, 438 177.679, 438 172.258 C 438 167.187, 435.828 162.374, 432.195 159.396 L 429.629 157.293 431.852 141.396 C 435.334 116.500, 434.406 119, 440.168 119 C 451.957 119, 461.511 113.160, 463.890 104.500 C 464.517 102.217, 464.982 92.132, 464.972 81 C 464.954 59.501, 464.260 56.320, 458.376 50.803 C 453.159 45.911, 449.348 45, 434.100 45 C 421.654 45, 420.081 44.810, 419.643 43.250 C 419.373 42.287, 417.697 34.394, 415.920 25.710 C 412.515 9.073, 409.990 3.228, 405.284 1.083 C 403.611 0.321, 359.196 0, 255.488 0 L 108.070 0 104.600 3.047 M 114.541 15.247 C 114.322 15.936, 112.827 22.912, 111.220 30.750 L 108.298 45 122.960 45 C 136.157 45, 137.834 45.197, 139.733 46.966 C 142.681 49.712, 143.346 52.506, 141.812 55.705 C 139.355 60.829, 138.255 60.969, 100.450 60.985 C 74.539 60.996, 65.087 61.313, 64.200 62.200 C 63.354 63.046, 63 68.784, 63 81.629 C 63 96.867, 63.258 100.115, 64.571 101.429 C 65.989 102.846, 84.736 103, 256 103 C 427.264 103, 446.011 102.846, 447.429 101.429 C 448.742 100.115, 449 96.867, 449 81.629 C 449 68.784, 448.646 63.046, 447.800 62.200 C 446.878 61.278, 414.548 61, 308.365 61 C 215.143 61, 169.240 60.662, 167.397 59.961 C 161.653 57.777, 160.221 51.688, 164.455 47.455 L 166.909 45 285.323 45 L 403.737 45 400.618 29.750 L 397.500 14.500 256.220 14.247 C 143.689 14.045, 114.859 14.248, 114.541 15.247 M 93.472 122.250 C 94.331 127.206, 98 152.982, 98 154.055 C 98 154.644, 157.446 155, 256 155 C 342.900 155, 414 154.817, 414 154.593 C 414 154.369, 415.125 146.452, 416.500 137 C 417.875 127.548, 419 119.631, 419 119.407 C 419 119.183, 345.630 119, 255.955 119 L 92.909 119 93.472 122.250 M 90.264 171.747 C 89.725 173.146, 124.814 424.510, 126.697 432.732 L 127.208 434.964 203.692 435.232 L 280.177 435.500 282.089 437.861 C 284.750 441.148, 284.525 445.566, 281.545 448.545 L 279.091 451 209.701 451 L 140.312 451 142.990 469.256 C 144.464 479.297, 146.192 488.491, 146.832 489.687 C 147.472 490.883, 149.459 492.905, 151.248 494.180 L 154.500 496.500 256 496.500 L 357.500 496.500 360.863 494.101 C 365.468 490.817, 366.491 487.825, 368.933 470.499 C 370.096 462.250, 371.271 454.488, 371.543 453.250 L 372.038 451 340.654 451 C 310.418 451, 309.173 450.924, 306.635 448.927 C 303.222 446.243, 302.947 440.264, 306.104 437.405 C 308.084 435.612, 310.471 435.483, 346.593 435.216 L 384.979 434.932 385.486 432.716 C 386.952 426.315, 422.063 175.359, 421.805 173.131 L 421.500 170.500 256.220 170.247 C 99.494 170.007, 90.905 170.085, 90.264 171.747 M 256.500 226.468 C 240.016 230.064, 223.679 239.192, 210.924 251.933 C 198.575 264.267, 189.052 280.525, 185.342 295.608 C 182.987 305.180, 183.007 322.595, 185.383 330.470 C 190.582 347.706, 201.954 360.109, 218.623 366.723 C 224.984 369.247, 226.587 369.453, 240 369.476 C 252.463 369.497, 255.549 369.171, 261.965 367.156 C 292.468 357.578, 317.486 331.970, 326.153 301.455 C 329.106 291.059, 329.330 273.506, 326.625 264.500 C 320.852 245.279, 305.935 231.025, 286.897 226.537 C 279.160 224.714, 264.692 224.681, 256.500 226.468 M 265 240.999 C 256.669 242.113, 251.328 243.813, 242.995 248.002 C 223.593 257.757, 208.693 274.980, 201.829 295.586 C 197.497 308.589, 199.167 328.008, 205.343 336.454 C 206.610 338.187, 207.040 338.049, 213.092 333.969 C 227.430 324.302, 242.042 310.737, 248.821 300.800 C 250.584 298.216, 253.393 292.523, 255.063 288.149 C 256.733 283.776, 259.765 277.444, 261.800 274.079 C 266.426 266.428, 277.507 255.207, 285.724 249.854 C 289.165 247.612, 291.737 245.384, 291.439 244.902 C 289.788 242.230, 273.630 239.845, 265 240.999 M 300.960 258.719 C 285.545 267.797, 275.450 278.909, 270.441 292.312 C 268.963 296.265, 266.257 302.200, 264.427 305.500 C 258.179 316.768, 242.229 332.795, 225.571 344.544 L 218.642 349.431 222.741 351.219 C 232.384 355.424, 247.892 355.193, 260.953 350.651 C 278.732 344.468, 296.658 328.386, 305.788 310.429 C 314.385 293.520, 315.013 270.629, 307.205 258.796 L 305.420 256.092 300.960 258.719" stroke="none" fill="#040404" fill-rule="evenodd"/></svg>