<svg xmlns="http://www.w3.org/2000/svg" width="512" height="512" viewBox="0 0 512 512" version="1.1"><path d="" stroke="none" fill="#080404" fill-rule="evenodd"/><path d="M 196.164 2.550 C 170.696 11.225, 154.889 36.295, 158.844 61.737 C 160.624 73.183, 162.991 79.815, 166.287 82.588 C 171.241 86.757, 178.437 85.317, 181.551 79.534 C 183.371 76.156, 183.332 75.613, 180.499 65.020 C 175.755 47.275, 183.239 30.691, 199.266 23.438 C 211.337 17.974, 224.514 19.942, 235.526 28.852 C 244.821 36.373, 247.406 37.460, 256 37.460 C 264.594 37.460, 267.179 36.373, 276.474 28.852 C 283.912 22.834, 290.323 20.531, 299.500 20.579 C 317.562 20.674, 333 35.996, 333 53.827 C 333 66.013, 326.116 82.858, 314.879 98.166 C 302.445 115.104, 276.243 138.406, 261.346 145.774 C 255.137 148.844, 254.099 148.548, 241.045 139.976 C 231.014 133.389, 228.784 132.645, 224.473 134.447 C 217.800 137.235, 215.972 144.436, 220.555 149.883 C 226.594 157.061, 248.998 169.273, 256.126 169.273 C 261.781 169.273, 276.492 161.748, 289.211 152.349 C 301.747 143.086, 322.226 122.697, 331.245 110.500 C 343.249 94.267, 350.709 77.755, 353.102 62.128 C 355.618 45.694, 350.441 29.494, 338.803 17.373 C 327.405 5.503, 314.811 -0.010, 299.145 0.012 C 285.278 0.031, 276.005 3.224, 264.786 11.842 C 261.094 14.679, 257.140 17, 256 17 C 254.860 17, 250.906 14.679, 247.214 11.842 C 235.888 3.141, 226.698 0.016, 212.500 0.037 C 205.551 0.048, 201.828 0.621, 196.164 2.550 M 188.923 105.923 C 182.573 112.273, 186.885 123, 195.788 123 C 203.310 123, 207.894 115.987, 204.977 108.944 C 202.233 102.319, 194.064 100.782, 188.923 105.923 M 128.510 189.112 C 112.002 192.469, 96.907 206.103, 91.821 222.252 C 87.761 235.146, 88.362 263.249, 92.920 273.551 L 94.761 277.713 89.462 281.852 C 76.726 291.798, 65.952 309.129, 62.595 325.066 C 62.193 326.975, 60.701 328.257, 56.777 330.066 C 49.753 333.306, 39.304 343.837, 35.679 351.332 C 31.029 360.946, 29.737 369.397, 30.305 386.500 C 30.705 398.563, 31.241 402.752, 33.042 407.894 L 35.281 414.287 30.890 417.853 C 24.112 423.358, 19.133 428.878, 14.353 436.191 C 4.491 451.278, 2.017 461.527, 2.007 487.327 L 2 506.154 4.923 509.077 L 7.846 512 256 512 L 504.154 512 507.077 509.077 L 510 506.154 509.993 487.327 C 509.983 461.527, 507.509 451.278, 497.647 436.191 C 492.867 428.878, 487.888 423.358, 481.110 417.853 L 476.719 414.287 478.958 407.894 C 480.759 402.752, 481.295 398.563, 481.695 386.500 C 482.263 369.397, 480.971 360.946, 476.321 351.332 C 472.700 343.847, 462.247 333.306, 455.241 330.075 C 450.599 327.934, 449.862 327.172, 448.951 323.575 C 444.674 306.692, 435.219 291.756, 422.538 281.852 L 417.239 277.713 419.080 273.551 C 423.638 263.249, 424.239 235.146, 420.179 222.252 C 414.872 205.402, 399.703 192.184, 382 188.985 C 358.076 184.660, 333.798 200.441, 327.361 224.500 C 326.483 227.784, 326.029 235.505, 326.038 247 C 326.050 262.624, 326.299 265.225, 328.355 271.260 L 330.659 278.020 325.272 282.176 C 322.309 284.461, 318.786 287.719, 317.443 289.416 L 315 292.500 312.557 289.416 C 311.214 287.719, 307.691 284.461, 304.728 282.176 L 299.341 278.020 301.645 271.260 C 303.714 265.188, 303.951 262.640, 303.974 246.218 C 303.997 230.326, 303.728 227.124, 301.922 221.718 C 296.177 204.523, 281.257 191.878, 263.194 188.895 C 240.557 185.157, 217.542 199.379, 210.078 221.718 C 208.272 227.124, 208.003 230.326, 208.026 246.218 C 208.049 262.640, 208.286 265.188, 210.355 271.260 L 212.659 278.020 207.272 282.176 C 204.309 284.461, 200.817 287.697, 199.511 289.366 L 197.136 292.400 192.318 287.569 C 189.668 284.913, 186.114 281.678, 184.420 280.381 L 181.340 278.022 183.644 271.261 C 185.701 265.224, 185.950 262.625, 185.962 247 C 185.981 223.499, 183.669 215.521, 173.589 204.311 C 162.532 192.012, 144.367 185.888, 128.510 189.112 M 128.027 210.737 C 125.320 211.692, 121.497 214.373, 118.343 217.526 C 110.959 224.910, 109.710 229.697, 110.179 248.817 C 110.492 261.559, 110.828 264.044, 112.722 267.616 C 116.221 274.216, 119.705 277.708, 125.727 280.655 C 139.754 287.518, 156.618 281.403, 163.386 267 C 165.263 263.005, 165.500 260.703, 165.500 246.500 C 165.500 230.986, 165.415 230.326, 162.689 224.776 C 156.260 211.684, 141.864 205.853, 128.027 210.737 M 246.027 210.737 C 239.340 213.097, 231.851 221.087, 229.611 228.252 C 226.976 236.681, 227.608 260.464, 230.643 267.089 C 235.291 277.235, 244.843 283.368, 256 283.368 C 267.149 283.368, 276.674 277.258, 281.377 267.089 C 283.270 262.998, 283.500 260.710, 283.500 246 C 283.500 229.990, 283.420 229.348, 280.790 224.362 C 274.079 211.639, 259.577 205.954, 246.027 210.737 M 364.385 210.617 C 358.374 212.749, 352.514 218.253, 349.311 224.776 C 346.585 230.326, 346.500 230.986, 346.500 246.500 C 346.500 260.703, 346.737 263.005, 348.614 267 C 355.382 281.403, 372.246 287.518, 386.273 280.655 C 392.295 277.708, 395.779 274.216, 399.278 267.616 C 401.172 264.044, 401.508 261.559, 401.821 248.817 C 402.289 229.710, 401.039 224.908, 393.675 217.545 C 385.658 209.527, 374.740 206.945, 364.385 210.617 M 103 297.541 C 95.774 303.197, 89.021 312.220, 85.739 320.606 L 84.132 324.711 89.316 325.874 C 105.965 329.609, 119.990 342.516, 124.991 358.705 C 126.687 364.197, 126.996 367.959, 126.974 382.855 C 126.951 398.767, 126.715 401.185, 124.572 407.475 L 122.197 414.449 124.348 415.928 C 125.532 416.742, 129.089 419.861, 132.253 422.859 L 138.007 428.311 144.753 421.966 C 148.464 418.476, 151.873 415.312, 152.328 414.933 C 152.783 414.554, 152.197 411.152, 151.024 407.372 C 148.337 398.708, 147.342 380.809, 148.866 368.538 C 151.480 347.492, 164.368 332.337, 184.619 326.496 L 192.043 324.355 188.433 317.139 C 184.901 310.079, 176.518 299.929, 170.936 295.954 L 168.134 293.959 163.317 297.015 C 148.697 306.292, 127.317 306.300, 112.715 297.036 C 110.084 295.366, 107.834 294.004, 107.715 294.010 C 107.597 294.015, 105.475 295.604, 103 297.541 M 220.719 297.920 C 215.908 301.896, 209 309.569, 209 310.938 C 209 311.350, 209.900 314.303, 211 317.500 C 212.100 320.697, 213 324.135, 213 325.140 C 213 326.317, 214.708 327.832, 217.809 329.403 C 229.994 335.578, 239.255 346.444, 243.088 359.064 C 244.933 365.137, 245.119 367.941, 244.827 385.184 C 244.529 402.781, 244.297 404.940, 242.221 409.444 C 240.066 414.116, 240.039 414.441, 241.721 415.370 C 242.699 415.911, 246.313 419.045, 249.750 422.335 L 256 428.317 262.250 422.335 C 265.688 419.045, 269.301 415.911, 270.279 415.370 C 271.961 414.441, 271.934 414.116, 269.779 409.444 C 267.703 404.940, 267.471 402.781, 267.173 385.184 C 266.881 367.941, 267.067 365.137, 268.912 359.064 C 272.745 346.444, 282.006 335.578, 294.191 329.403 C 297.292 327.832, 299 326.317, 299 325.140 C 299 324.135, 299.900 320.697, 301 317.500 C 302.100 314.303, 303 311.356, 303 310.952 C 303 309.477, 295.359 301.024, 290.851 297.512 L 286.220 293.904 281.360 296.988 C 266.696 306.292, 245.336 306.313, 230.715 297.036 C 228.084 295.366, 225.825 294, 225.697 294 C 225.568 294, 223.328 295.764, 220.719 297.920 M 335.048 301.750 C 329.534 307.292, 326.287 311.616, 323.647 316.928 L 319.957 324.355 327.381 326.496 C 347.632 332.337, 360.520 347.491, 363.134 368.538 C 364.649 380.740, 363.606 399.264, 360.961 407.116 C 359.830 410.472, 359.039 413.536, 359.203 413.925 C 359.366 414.314, 362.770 417.702, 366.766 421.453 L 374.033 428.273 379.766 422.840 C 382.920 419.852, 386.468 416.742, 387.652 415.928 L 389.803 414.449 387.428 407.475 C 385.285 401.185, 385.049 398.767, 385.026 382.855 C 385.004 368.092, 385.321 364.173, 386.964 358.855 C 391.991 342.589, 405.982 329.609, 422.463 325.921 L 427.868 324.711 426.254 320.606 C 422.814 311.855, 416.326 303.185, 409.087 297.664 L 404.186 293.926 399.343 296.999 C 384.696 306.292, 363.328 306.308, 348.715 297.036 C 346.084 295.366, 343.667 294, 343.344 294 C 343.021 294, 339.288 297.488, 335.048 301.750 M 70.205 346.838 C 63.149 349.350, 58.368 353.392, 54.605 360.025 C 51.582 365.355, 51.491 365.889, 51.160 380.183 C 50.716 399.311, 51.969 404.099, 59.348 411.479 C 73.151 425.281, 95.118 421.678, 103.699 404.204 C 106.413 398.678, 106.500 398.001, 106.500 382.500 C 106.500 367.892, 106.303 366.100, 104.233 361.900 C 97.712 348.664, 83.162 342.224, 70.205 346.838 M 189.672 346.384 C 182.852 348.286, 177.010 352.728, 173.384 358.771 C 169.564 365.135, 169.025 368.203, 169.011 383.635 C 168.997 399.424, 170.574 404.632, 177.474 411.574 C 190.995 425.178, 212.055 421.968, 221.532 404.859 C 224.486 399.525, 224.500 399.424, 224.500 383 C 224.500 368.290, 224.270 366.002, 222.377 361.911 C 216.642 349.510, 202.515 342.804, 189.672 346.384 M 307.792 346.354 C 297.886 349.122, 290.201 357.274, 287.930 367.424 C 287.218 370.604, 286.917 377.924, 287.164 386.079 C 287.543 398.654, 287.754 399.838, 290.503 404.859 C 299.861 421.954, 320.988 425.175, 334.537 411.574 C 341.984 404.098, 343.328 399.001, 342.812 380.203 C 342.378 364.382, 341.524 361.341, 335.502 354.185 C 329.843 347.459, 316.913 343.805, 307.792 346.354 M 426.718 346.037 C 418.619 348.061, 411.284 354.190, 407.614 362 C 405.737 365.995, 405.500 368.297, 405.500 382.500 C 405.500 398.001, 405.587 398.678, 408.301 404.204 C 416.882 421.678, 438.849 425.281, 452.652 411.479 C 460.041 404.089, 461.290 399.307, 460.821 380.183 C 460.433 364.369, 459.609 361.443, 453.502 354.185 C 448.074 347.734, 435.378 343.872, 426.718 346.037 M 107.496 431.006 C 106.182 433.132, 94.497 438.212, 87.617 439.649 C 76.435 441.983, 62.907 439.513, 53.773 433.468 C 51.721 432.111, 49.304 431, 48.400 431 C 47.497 431, 43.313 434.488, 39.104 438.750 C 27.221 450.783, 23.332 460.393, 22.310 480.250 L 21.706 492 70.727 492 L 119.748 492 120.241 477.750 C 120.652 465.874, 121.183 462.114, 123.432 455.182 L 126.130 446.864 122.528 442.469 C 119.312 438.544, 112.512 432.454, 109.319 430.639 C 108.670 430.270, 107.849 430.435, 107.496 431.006 M 398.161 433.967 C 395.472 436.092, 391.607 439.864, 389.571 442.348 L 385.870 446.864 388.568 455.182 C 390.817 462.114, 391.348 465.874, 391.759 477.750 L 392.252 492 441.273 492 L 490.294 492 489.752 480.240 C 489.132 466.782, 486.220 456.367, 480.646 447.672 C 476.944 441.897, 465.685 431, 463.422 431 C 462.616 431, 460.279 432.111, 458.227 433.468 C 444.055 442.847, 421.603 442.623, 407.284 432.959 L 403.051 430.102 398.161 433.967 M 157.526 438.250 C 145.801 449.979, 141.479 460.525, 140.372 480.107 L 139.700 492 188.850 492 L 238 492 238 481.684 C 238 470.182, 239.111 462.550, 242.144 453.216 L 244.186 446.932 240.556 442.503 C 236.405 437.438, 228.871 431, 227.094 431 C 226.434 431, 224.230 432.139, 222.197 433.532 C 208.990 442.578, 185.494 442.549, 171.773 433.468 C 169.721 432.111, 167.307 431, 166.409 431 C 165.510 431, 161.513 434.262, 157.526 438.250 M 275.690 438.250 C 263.306 450.600, 259 461.556, 259 480.710 L 259 492 315.650 492 L 372.300 492 371.628 480.107 C 370.521 460.525, 366.199 449.979, 354.474 438.250 C 350.487 434.262, 346.476 431, 345.560 431 C 344.644 431, 342.230 432.139, 340.197 433.532 C 334.468 437.456, 323.641 440.413, 315 440.413 C 306.359 440.413, 295.532 437.456, 289.803 433.532 C 287.770 432.139, 285.398 431, 284.533 431 C 283.668 431, 279.689 434.262, 275.690 438.250" stroke="none" fill="#040404" fill-rule="evenodd"/></svg>