<svg xmlns="http://www.w3.org/2000/svg" width="512" height="512" viewBox="0 0 512 512" version="1.1"><path d="" stroke="none" fill="#080404" fill-rule="evenodd"/><path d="M 119 49.314 C 114.147 50.852, 106.725 58.556, 105.222 63.616 C 102.602 72.440, 104.678 82.748, 110.312 88.882 C 113.920 92.811, 121.818 95.980, 128 95.980 C 134.182 95.980, 142.080 92.811, 145.688 88.882 C 154.132 79.688, 153.730 62.438, 144.882 54.312 C 138.755 48.685, 127.712 46.552, 119 49.314 M 125.465 64.961 C 117.848 68.014, 119.844 79.333, 128 79.333 C 132.052 79.333, 135.333 76.052, 135.333 72 C 135.333 66.989, 129.963 63.158, 125.465 64.961 M 158.032 102.678 C 145.764 116.550, 136 136.832, 136 148.443 L 136 152 143.933 152 C 152.658 152, 152.202 152.358, 153.471 144.500 C 154.403 138.732, 161.209 125.454, 166.740 118.613 C 169.358 115.375, 172.056 111.980, 172.736 111.068 C 173.794 109.648, 173.133 108.579, 168.134 103.633 L 162.297 97.856 158.032 102.678 M 61.500 106.377 C 55.542 109.187, 52.826 111.952, 50.084 118 C 44.649 129.988, 49.740 144.176, 61.429 149.619 C 70.656 153.916, 83.345 151.789, 89.688 144.882 C 96.112 137.887, 97.766 126.335, 93.619 117.429 C 88.046 105.460, 73.823 100.566, 61.500 106.377 M 69.465 120.961 C 61.848 124.014, 63.844 135.333, 72 135.333 C 76.052 135.333, 79.333 132.052, 79.333 128 C 79.333 122.989, 73.963 119.158, 69.465 120.961 M 475 138.371 C 465.705 142.298, 354.787 192.852, 350 195.343 C 344.627 198.139, 338.646 205.622, 336.954 211.664 C 336.238 214.223, 335.942 218.951, 336.240 223.105 C 336.819 231.203, 338.215 230.730, 325 226.907 C 315.549 224.173, 288.558 223.178, 271.697 224.942 C 241.405 228.111, 203.521 236.779, 167.160 248.861 L 144.169 256.500 143.595 253 C 141.160 238.130, 145.544 221.335, 154.935 209.566 L 158.074 205.632 152.287 199.756 L 146.500 193.880 143.160 197.690 C 129.868 212.853, 122.954 238.456, 127.239 256.653 L 128.688 262.807 121.594 265.565 C 117.692 267.083, 109.825 270.501, 104.111 273.162 C 98.397 275.823, 93.406 278, 93.020 278 C 92.634 278, 91.796 275.637, 91.158 272.750 C 88.139 259.088, 86.829 246.103, 86.468 226.236 C 86.124 207.350, 85.847 204.441, 83.989 200.236 C 74.347 178.406, 43.841 178.527, 33.890 200.435 C 32.221 204.110, 32.042 207.543, 32.022 236.250 C 32.001 266.651, 31.915 268.085, 30 270 C 28.900 271.100, 26.792 272, 25.316 272 C 17.492 272, 8.681 280.277, 7.398 288.832 C 6.489 294.890, 8.417 311.264, 11.317 322.123 L 13.604 330.688 9.881 335.011 C 7.834 337.388, 4.885 341.846, 3.329 344.917 C 0.919 349.674, 0.502 351.684, 0.514 358.500 C 0.527 365.689, 0.944 367.433, 4.633 375.708 C 31.862 436.788, 104.795 470.803, 184 459.363 C 271.880 446.671, 344.370 381.470, 354.918 305.633 C 357.549 286.719, 355.135 260.545, 349.376 245.538 C 348.890 244.270, 349.546 244.347, 353.143 245.979 C 355.990 247.271, 359.701 247.964, 363.852 247.978 C 370.161 248, 370.643 247.787, 435.352 216.420 C 471.183 199.051, 501.916 183.763, 503.647 182.448 C 511.580 176.417, 514.338 162.563, 509.622 152.435 C 502.721 137.615, 489.500 132.245, 475 138.371 M 16 160 L 16 168 24 168 L 32 168 32 160 L 32 152 24 152 L 16 152 16 160 M 479 154.938 C 475.425 156.506, 452.408 166.974, 427.850 178.202 L 383.201 198.614 385.134 201.057 C 388.243 204.984, 391.084 210.896, 391.818 214.966 L 392.500 218.745 442.999 194.097 C 499.395 166.570, 497.729 167.688, 494.213 159.758 C 490.787 152.032, 487.792 151.083, 479 154.938 M 104 168 L 104 176 112 176 L 120 176 120 168 L 120 160 112 160 L 104 160 104 168 M 56.388 200.700 C 55.226 200.922, 52.976 202.459, 51.388 204.115 L 48.500 207.128 48 240.814 C 47.572 269.650, 47.262 274.932, 45.845 277.500 C 42.688 283.223, 35.589 288, 30.241 288 C 24.522 288, 23.607 289.720, 24.329 299.112 C 26.065 321.699, 36.388 345.472, 49.237 356.471 C 55.103 361.493, 64.117 365.728, 72.763 367.523 C 79.278 368.877, 81.133 368.871, 90.763 367.464 C 101.916 365.835, 123.608 361.683, 130.421 359.873 L 134.343 358.831 129.421 356.138 C 101.545 340.883, 83.271 313.789, 74.641 274.921 C 71.223 259.525, 69.851 245.904, 69.613 225 C 69.465 211.918, 69.059 206.947, 68.004 205.310 C 65.827 201.930, 60.670 199.883, 56.388 200.700 M 360.313 209.127 C 357.045 210.047, 353 214.200, 353 216.635 C 353 218.223, 354.600 218.457, 355.500 217 C 355.840 216.450, 357.813 216, 359.885 216 C 367.199 216, 370.769 224.394, 365.750 229.790 L 363.500 232.209 367.423 230.583 C 372.758 228.372, 373.809 227.353, 374.927 223.301 C 377.415 214.293, 369.439 206.558, 360.313 209.127 M 96 240 L 96 248 104 248 L 112 248 112 240 L 112 232 104 232 L 96 232 96 240 M 281.105 241.105 C 249.862 243.350, 214.091 251.122, 172.500 264.699 C 161.500 268.290, 152.146 271.438, 151.714 271.695 C 151.282 271.952, 152.520 274.377, 154.464 277.083 C 156.409 279.790, 158 282.386, 158 282.853 C 158 284.040, 147.245 292.500, 145.737 292.500 C 145.056 292.500, 142.310 289.281, 139.633 285.347 L 134.767 278.194 125.633 282.011 C 116.455 285.847, 98.828 293.838, 98.234 294.433 C 97.465 295.202, 103.501 307.030, 108.485 314.520 C 120.077 331.942, 136.408 343.523, 157.245 349.097 L 163.990 350.902 181.245 345.036 C 216.277 333.128, 241.759 322.360, 247.330 317.109 C 252.970 311.795, 261.827 297.995, 265.246 289.197 C 266.891 284.964, 269.088 277.270, 270.129 272.101 C 272.732 259.171, 276.871 253.170, 285.743 249.463 C 293.737 246.123, 306.979 248.902, 312.688 255.118 C 315.818 258.526, 318.952 265.921, 318.978 269.958 L 319 273.416 323.580 268.958 C 329.319 263.371, 333.104 257.062, 333.222 252.884 C 333.406 246.441, 325.433 242.767, 307.481 241.022 C 296.472 239.952, 297.176 239.949, 281.105 241.105 M 292.465 264.961 C 289.177 266.279, 288.136 268.219, 286.502 276.075 C 284.771 284.402, 281.472 295.029, 279.263 299.396 C 277.891 302.107, 277.916 302.247, 279.649 301.593 C 280.667 301.208, 285.217 298.560, 289.759 295.706 C 296.629 291.391, 298.274 289.844, 299.539 286.509 C 301.636 280.980, 302.935 271.960, 301.991 269.477 C 300.527 265.625, 296.075 263.514, 292.465 264.961 M 331 285.363 C 286.245 328.281, 169.127 375.475, 82.506 385.497 C 68.823 387.080, 41.761 387.418, 33.793 386.105 C 28.385 385.215, 28.341 384.965, 35.126 393.590 C 55.073 418.943, 88.432 436.846, 127.500 443.166 C 139.164 445.053, 171.040 444.755, 183.500 442.642 C 254.579 430.590, 313.062 385.065, 332.496 326.660 C 337.305 312.209, 339.124 301.238, 338.785 288.720 L 338.500 278.170 331 285.363 M 144 312 L 144 320 152 320 L 160 320 160 312 L 160 304 152 304 L 144 304 144 312 M 56 330.489 C 56 334.138, 59.224 342.012, 62.916 347.377 C 66.664 352.826, 76.621 362.754, 80.829 365.240 L 83.735 366.957 88.335 360.040 L 92.935 353.122 87.960 349.471 C 81.807 344.954, 76.684 338.801, 73.972 332.670 L 71.906 328 63.953 328 C 56.146 328, 56 328.046, 56 330.489 M 19.515 350.337 C 12.735 360.685, 17.360 366.097, 35.788 369.380 L 39.077 369.965 34.014 364.822 C 31.229 361.993, 27.184 357.033, 25.025 353.799 L 21.099 347.920 19.515 350.337" stroke="none" fill="#040404" fill-rule="evenodd"/></svg>