<svg width="630" height="597" viewBox="0 0 630 597" fill="none" xmlns="http://www.w3.org/2000/svg">
<path d="M502.313 193.297C473.154 181.925 448.521 161.175 433.455 133.729C408.119 87.5736 359.097 56.2869 302.753 56.2869C244.269 56.2869 193.677 89.9942 169.276 139.049C154.33 169.092 128.899 192.681 97.7977 205.241C51.8409 223.801 13.2608 266.216 1.01765 332.528C-0.32602 339.805 -0.345708 347.286 0.997964 354.562C20.0062 457.458 102.387 502.845 177.366 490.81C219.357 484.07 261.865 498.085 292.989 527.085C356.277 586.051 457.729 604.537 556.215 541.33C567.753 533.925 583.232 518.387 590.626 506.837C675.487 374.27 612.626 236.319 502.313 193.297Z" fill="url(#paint0_linear_700_26052)"/>
<path d="M325.588 377.806H309.762V592.368H325.588V377.806Z" fill="#E7839C"/>
<path d="M379.823 592.401C379.823 594.456 378.224 596.12 376.233 596.12H260.715C258.724 596.12 257.125 594.456 257.125 592.401V592.074C257.125 590.019 258.724 588.583 260.715 588.583H376.233C378.224 588.583 379.823 590.019 379.823 592.074V592.401Z" fill="#E7839C"/>
<path d="M470.54 374.12C470.54 376.372 468.713 378.166 466.494 378.166H169.605C167.353 378.166 165.559 376.339 165.559 374.12V373.925C165.559 371.673 167.386 369.879 169.605 369.879H466.494C468.746 369.879 470.54 371.706 470.54 373.925V374.12Z" fill="white"/>
<path d="M466.493 378.948H169.604C166.96 378.948 164.807 376.795 164.807 374.153V373.957C164.807 371.314 166.96 369.161 169.604 369.161H466.493C469.136 369.161 471.29 371.314 471.29 373.957V374.153C471.29 376.795 469.136 378.948 466.493 378.948ZM169.604 370.662C167.776 370.662 166.308 372.13 166.308 373.957V374.153C166.308 375.98 167.776 377.448 169.604 377.448H466.493C468.32 377.448 469.789 375.98 469.789 374.153V373.957C469.789 372.13 468.32 370.662 466.493 370.662H169.604Z" fill="#D03660"/>
<path d="M122.842 593.738H106.787V465.986L122.842 466.639V593.738Z" fill="white"/>
<path d="M122.843 594.488H106.788C106.363 594.488 106.037 594.162 106.037 593.738V465.986C106.037 465.79 106.135 465.595 106.266 465.432C106.429 465.301 106.624 465.203 106.82 465.236L122.875 465.888C123.267 465.921 123.593 466.247 123.593 466.639V593.738C123.593 594.162 123.267 594.488 122.843 594.488ZM107.538 592.987H122.092V467.356L107.538 466.737V592.987Z" fill="#D03660"/>
<path d="M181.026 476.426L83.4878 475.447C65.8337 475.447 50.7576 463.931 47.6901 446.413L30.9824 351.708C28.9918 340.421 37.6068 330.079 48.9628 330.079H112.596L181.026 476.426Z" fill="#EEF0F3"/>
<path d="M181.026 477.176L83.4884 476.197C65.0511 476.197 50.0076 463.996 46.9401 446.543L30.2324 351.838C29.2534 346.195 30.7871 340.453 34.442 336.082C38.0641 331.775 43.3506 329.296 48.9307 329.296H112.564C112.857 329.296 113.119 329.459 113.249 329.72L181.679 476.067C181.777 476.295 181.777 476.589 181.646 476.784C181.516 477.045 181.287 477.176 181.026 477.176ZM48.9633 330.829C43.8074 330.829 38.9452 333.113 35.6167 337.06C32.223 341.073 30.8198 346.39 31.7335 351.577L48.4412 446.282C51.3781 463.018 65.8016 474.697 83.521 474.697L179.884 475.643L112.14 330.797H48.9633V330.829Z" fill="#D03660"/>
<path d="M152.801 574.164H80.4555C69.23 574.164 60.1582 583.266 60.1582 594.455V594.553H173.099V594.455C173.099 583.266 164.027 574.164 152.801 574.164Z" fill="white"/>
<path d="M173.097 595.304H60.1568C59.7326 595.304 59.4062 594.977 59.4062 594.553V594.455C59.4062 582.842 68.837 573.414 80.4541 573.414H152.8C164.417 573.414 173.848 582.842 173.848 594.455V594.553C173.848 594.977 173.522 595.304 173.097 595.304ZM60.9073 593.803H172.347C171.988 583.331 163.373 574.914 152.8 574.914H80.4541C69.8812 574.914 61.2663 583.331 60.9073 593.803Z" fill="#D03660"/>
<path d="M57.3826 403.937C57.0237 403.937 56.6973 403.676 56.6321 403.318L48.5393 357.352C48.474 356.928 48.7351 356.536 49.1593 356.471C49.5835 356.406 49.9751 356.667 50.0403 357.091L58.1332 403.057C58.1984 403.481 57.9374 403.872 57.5131 403.937C57.4479 403.937 57.4153 403.937 57.3826 403.937Z" fill="#D03660"/>
<path d="M515.999 168.791L483.529 173.26C479.516 173.815 476.22 176.653 475.045 180.503L469.106 200.174L455.922 182.46C453.671 179.426 449.951 177.86 446.231 178.382L416.372 182.493C410.727 183.276 405.505 179.328 404.722 173.652L395.911 110.266C395.128 104.589 399.077 99.3695 404.755 98.5866L504.447 84.8523C510.092 84.0693 515.313 88.0167 516.096 93.6931L524.842 157.145C525.625 162.789 521.644 168.008 515.999 168.791Z" fill="white"/>
<path d="M473.871 200.957C473.642 200.957 473.414 200.859 473.251 200.664L460.067 182.949C457.979 180.144 454.52 178.708 451.061 179.165L421.202 183.275C418.265 183.667 415.361 182.917 412.979 181.122C410.629 179.328 409.096 176.718 408.704 173.782L404.103 140.278C404.038 139.854 404.331 139.496 404.755 139.43C405.18 139.365 405.539 139.659 405.604 140.083L410.205 173.586C410.564 176.131 411.869 178.382 413.925 179.915C415.981 181.449 418.494 182.134 421.039 181.775L450.898 177.664C454.911 177.11 458.892 178.774 461.307 182.036L473.61 198.543L479.125 180.307C480.365 176.164 483.954 173.097 488.229 172.51L520.698 168.041C525.952 167.323 529.607 162.462 528.889 157.21L520.143 93.7581C519.784 91.2135 518.479 88.9626 516.423 87.4293C514.367 85.896 511.855 85.2109 509.309 85.5698L444.273 94.5737C443.849 94.639 443.49 94.3453 443.425 93.9212C443.36 93.4971 443.653 93.1383 444.077 93.073L509.114 84.1017C512.051 83.7103 514.955 84.4606 517.337 86.2549C519.687 88.0491 521.22 90.659 521.612 93.595L530.357 157.047C531.206 163.115 526.931 168.726 520.894 169.574L488.425 174.043C484.737 174.565 481.637 177.208 480.56 180.764L474.621 200.435C474.523 200.696 474.295 200.925 474.034 200.957C473.969 200.957 473.903 200.957 473.871 200.957Z" fill="#D03660"/>
<path d="M474.849 119.008C472.304 116.888 469.073 115.942 465.745 116.366C463.265 116.692 461.078 117.769 459.284 119.563C458.37 120.476 457.587 121.553 456.901 122.76C455.955 121.749 454.911 120.9 453.801 120.248C451.615 118.943 449.233 118.454 446.753 118.78C443.424 119.204 440.553 120.933 438.627 123.641C436.735 126.316 435.951 129.741 436.408 133.265C436.865 136.918 438.66 140.05 442.021 143.215C445.023 146.02 449.168 148.728 453.997 151.892C455.629 152.969 457.489 154.176 459.447 155.481C459.969 155.84 460.589 155.97 461.176 155.905C461.796 155.84 462.351 155.513 462.775 155.057C464.309 153.295 465.81 151.664 467.148 150.196C470.999 145.955 474.327 142.268 476.546 138.778C478.994 134.896 479.94 131.372 479.483 127.751C478.961 124.228 477.329 121.096 474.849 119.008Z" fill="#D03660"/>
<path d="M116.087 168.791L148.556 173.261C152.57 173.815 155.866 176.653 157.04 180.503L162.98 200.174L176.163 182.46C178.415 179.426 182.135 177.86 185.855 178.382L215.713 182.493C221.359 183.276 226.58 179.328 227.363 173.652L236.174 110.266C236.957 104.589 233.009 99.3695 227.331 98.5866L127.639 84.8523C121.993 84.0694 116.772 88.0168 115.989 93.6932L107.244 157.145C106.46 162.789 110.409 168.008 116.087 168.791Z" fill="white"/>
<path d="M168.494 198.804C168.461 198.804 168.396 198.804 168.363 198.804C168.069 198.739 167.841 198.543 167.776 198.283L161.837 178.611C160.76 175.022 157.66 172.38 153.972 171.891L121.503 167.421C115.433 166.573 111.191 160.962 112.04 154.894L118.403 108.667C118.468 108.243 118.86 107.982 119.251 108.015C119.676 108.08 119.937 108.439 119.904 108.863L113.541 155.09C112.823 160.342 116.478 165.17 121.731 165.921L154.201 170.39C158.475 170.977 162.065 174.044 163.305 178.187L168.82 196.423L181.122 179.916C183.537 176.686 187.518 174.99 191.532 175.544L221.391 179.655C223.936 180.014 226.449 179.361 228.504 177.795C230.56 176.262 231.866 174.011 232.225 171.466L240.97 108.015C241.688 102.762 238.033 97.9343 232.779 97.184L163.403 87.6254C162.979 87.5602 162.718 87.2014 162.75 86.7773C162.816 86.3532 163.175 86.0922 163.599 86.1248L232.975 95.6833C239.045 96.5315 243.287 102.143 242.438 108.211L233.693 171.662C233.301 174.598 231.768 177.208 229.386 179.002C227.036 180.797 224.099 181.547 221.162 181.155L191.304 177.045C187.845 176.556 184.386 178.024 182.297 180.829L169.114 198.543C168.95 198.707 168.722 198.804 168.494 198.804Z" fill="#D03660"/>
<path d="M157.235 119.009C159.78 116.888 163.011 115.942 166.34 116.366C168.82 116.692 171.006 117.769 172.801 119.563C173.714 120.477 174.498 121.553 175.183 122.76C176.129 121.749 177.174 120.901 178.283 120.248C180.469 118.943 182.852 118.454 185.332 118.78C188.66 119.204 191.532 120.933 193.457 123.641C195.35 126.316 196.133 129.742 195.676 133.265C195.219 136.919 193.424 140.05 190.063 143.215C187.061 146.02 182.917 148.728 178.087 151.892C176.456 152.969 174.596 154.176 172.638 155.481C172.115 155.84 171.495 155.97 170.908 155.905C170.288 155.84 169.733 155.514 169.309 155.057C167.775 153.295 166.274 151.664 164.936 150.196C161.086 145.955 157.757 142.269 155.538 138.778C153.091 134.896 152.145 131.373 152.601 127.752C153.091 124.228 154.722 121.096 157.235 119.009Z" fill="#D03660"/>
<path d="M191.959 368.085H272.365L281.339 358.331H183.018L191.959 368.085Z" fill="white"/>
<path d="M272.364 368.835H191.958C191.762 368.835 191.533 368.737 191.403 368.607L182.429 358.852C182.233 358.624 182.168 358.298 182.298 358.037C182.429 357.776 182.69 357.58 182.984 357.58H281.337C281.631 357.58 281.892 357.743 282.023 358.037C282.153 358.298 282.088 358.624 281.892 358.852L272.918 368.607C272.788 368.737 272.592 368.835 272.364 368.835ZM192.317 367.334H272.07L279.641 359.081H184.713L192.317 367.334Z" fill="#D03660"/>
<path d="M360.212 368.085H440.618L449.592 358.331H351.238L360.212 368.085Z" fill="white"/>
<path d="M440.618 368.835H360.211C360.016 368.835 359.787 368.737 359.657 368.607L350.683 358.852C350.487 358.624 350.422 358.298 350.552 358.037C350.683 357.776 350.944 357.58 351.238 357.58H449.591C449.885 357.58 450.146 357.743 450.277 358.037C450.407 358.298 450.342 358.624 450.146 358.852L441.172 368.607C441.042 368.737 440.813 368.835 440.618 368.835ZM360.538 367.334H440.291L447.862 359.081H352.934L360.538 367.334Z" fill="#D03660"/>
<path d="M486.692 557.885C485.093 556.254 475.76 527.285 475.76 527.285L457.355 540.4L477.522 567.509L486.692 557.885Z" fill="white"/>
<path d="M477.555 568.259H477.522C477.294 568.259 477.098 568.129 476.967 567.966L456.801 540.856C456.67 540.693 456.637 540.497 456.67 540.301C456.703 540.106 456.801 539.91 456.964 539.812L475.368 526.698C475.564 526.567 475.825 526.535 476.054 526.6C476.282 526.665 476.445 526.861 476.543 527.089C480.1 538.148 486.137 556.124 487.279 557.396C487.54 557.689 487.573 558.146 487.279 558.44L478.142 568.096C477.946 568.194 477.75 568.259 477.555 568.259ZM458.432 540.562L477.62 566.335L485.745 557.755C483.624 553.807 477.326 534.527 475.368 528.459L458.432 540.562Z" fill="#D03660"/>
<path d="M453.537 594.488L465.774 594.423C473.867 594.39 481.405 590.247 485.81 583.461L497.917 564.312C501.245 559.027 499.385 552.013 493.87 549.077C488.812 546.402 483.526 543.792 482.286 543.89C479.773 544.118 478.762 556.026 478.762 556.026L467.862 556.45C467.862 556.45 462.478 578.829 457.746 581.374C454.287 583.233 451.873 585.941 450.274 588.453C448.511 591.063 450.404 594.521 453.537 594.488Z" fill="#D03660"/>
<path d="M453.504 595.238C451.775 595.238 450.241 594.325 449.425 592.792C448.577 591.258 448.675 589.497 449.621 588.029C451.71 584.799 454.32 582.352 457.388 580.721C461.042 578.764 465.676 562.42 467.145 556.254C467.21 555.928 467.504 555.699 467.863 555.667L478.109 555.275C478.501 551.23 479.578 543.368 482.253 543.107C482.776 543.042 484.048 542.944 494.262 548.359C497.101 549.86 499.19 552.502 500.005 555.569C500.821 558.701 500.332 561.93 498.602 564.671L486.496 583.82C481.927 590.834 474.193 595.075 465.807 595.108L453.504 595.238ZM468.417 557.2C467.438 561.213 462.674 579.579 458.04 582.059C455.201 583.592 452.786 585.876 450.829 588.877C450.176 589.856 450.143 591.063 450.698 592.107C451.253 593.151 452.264 593.77 453.504 593.77L465.742 593.705C473.606 593.672 480.883 589.692 485.158 583.103L497.264 563.953C498.765 561.571 499.19 558.766 498.472 556.058C497.754 553.351 495.992 551.1 493.479 549.795C484.375 544.934 482.612 544.673 482.319 544.705C481.34 544.803 479.969 550.251 479.447 556.156C479.414 556.548 479.121 556.841 478.729 556.841L468.417 557.2Z" fill="#D03660"/>
<path d="M454.744 590.475C454.385 590.475 454.059 590.214 453.993 589.823C453.928 589.399 454.222 589.04 454.613 588.975L471.354 586.463C474.911 585.941 477.978 583.853 479.838 580.786L494.621 556.091C494.849 555.732 495.306 555.634 495.665 555.83C496.024 556.058 496.122 556.515 495.926 556.874L481.144 581.569C479.055 585.027 475.596 587.376 471.582 587.963L454.842 590.475C454.842 590.475 454.809 590.475 454.744 590.475Z" fill="white"/>
<path d="M423.907 552.339L413.888 563.17C410.429 566.889 408.21 571.619 407.525 576.643L406.383 584.799L369.77 575.893L382.692 570.119C390.752 566.497 397.866 561.082 403.479 554.264L410.952 542.193L423.907 552.339Z" fill="white"/>
<path d="M406.35 585.582C406.285 585.582 406.219 585.582 406.187 585.549L369.573 576.643C369.247 576.578 369.019 576.284 368.986 575.991C368.953 575.665 369.149 575.371 369.443 575.24L382.365 569.466C390.262 565.943 397.343 560.527 402.826 553.872L410.266 541.834C410.364 541.639 410.56 541.541 410.788 541.476C410.984 541.443 411.212 541.508 411.375 541.639L424.363 551.784C424.526 551.915 424.624 552.111 424.657 552.306C424.689 552.502 424.591 552.731 424.461 552.894L414.443 563.724C411.082 567.378 408.928 571.88 408.243 576.806L407.101 584.962C407.068 585.158 406.97 585.353 406.774 585.484C406.644 585.517 406.513 585.582 406.35 585.582ZM372.053 575.697L405.73 583.885L406.742 576.545C407.459 571.326 409.744 566.53 413.301 562.648L422.764 552.404L411.082 543.27L404.066 554.623C404.033 554.655 404.033 554.688 404 554.721C398.355 561.604 391.078 567.15 382.953 570.804L372.053 575.697Z" fill="#D03660"/>
<path d="M409.287 570.445C409.287 570.445 410.331 579.579 408.569 587.637C407.622 591.943 403.772 594.977 399.367 594.977H346.926C343.174 594.977 341.477 590.312 344.348 587.898C353.681 580.101 370.813 568.161 391.926 564.67L397.8 572.891L409.287 570.445Z" fill="#D03660"/>
<path d="M399.333 595.728H346.893C344.87 595.728 343.108 594.488 342.423 592.596C341.737 590.704 342.292 588.616 343.826 587.311C352.408 580.101 370.062 567.509 391.763 563.92C392.056 563.888 392.317 563.985 392.513 564.214L398.093 572.043L409.123 569.727C409.319 569.694 409.547 569.727 409.71 569.858C409.874 569.988 410.004 570.184 410.004 570.379C410.037 570.771 411.016 579.742 409.286 587.833C408.307 592.4 404.098 595.728 399.333 595.728ZM391.567 565.486C370.454 569.14 353.224 581.439 344.837 588.485C343.532 589.562 343.499 591.062 343.858 592.106C344.25 593.15 345.229 594.26 346.926 594.26H399.366C403.445 594.26 407.002 591.421 407.85 587.539C409.254 581.08 408.829 573.805 408.634 571.423L397.963 573.674C397.669 573.74 397.375 573.609 397.18 573.381L391.567 565.486Z" fill="#D03660"/>
<path d="M403.74 588.518H349.407C348.983 588.518 348.656 588.192 348.656 587.768C348.656 587.343 348.983 587.017 349.407 587.017H403.74C404.164 587.017 404.49 587.343 404.49 587.768C404.49 588.192 404.164 588.518 403.74 588.518Z" fill="white"/>
<path d="M537.012 402.176C537.012 402.176 439.343 390.823 410.333 415.943C381.29 441.062 456.181 549.142 456.181 549.142L479.872 531.591L457.421 455.221L547.682 429.579L537.012 402.176Z" fill="url(#paint1_radial_700_26052)"/>
<path d="M456.148 549.86C456.115 549.86 456.05 549.86 456.017 549.86C455.821 549.827 455.626 549.729 455.528 549.534C455.332 549.273 436.601 522.13 421.655 492.28C401.456 451.926 397.475 426.023 409.81 415.355C421.982 404.818 447.141 399.272 484.538 398.881C512.308 398.587 536.847 401.393 537.076 401.425C537.337 401.458 537.598 401.654 537.696 401.915L548.334 429.318C548.399 429.514 548.399 429.742 548.301 429.938C548.204 430.134 548.04 430.264 547.845 430.329L458.301 455.743L480.557 531.395C480.655 531.689 480.524 532.015 480.296 532.211L456.605 549.762C456.474 549.827 456.311 549.86 456.148 549.86ZM488.878 400.382C459.933 400.382 425.832 403.481 410.821 416.465C383.769 439.888 450.241 539.029 456.344 548.033L478.958 531.265L456.637 455.384C456.572 455.188 456.605 454.992 456.702 454.797C456.8 454.634 456.964 454.503 457.159 454.438L546.637 429.024L536.456 402.828C533.193 402.502 512.765 400.382 488.878 400.382Z" fill="white"/>
<path d="M591.083 450.817C576.888 455.319 551.533 461.126 516.029 460.636C505.945 460.506 496.645 466.052 492.076 475.056C481.569 495.641 458.824 532.733 421.786 556.776L404.1 547.25L449.263 445.63C453.374 436.365 461.108 429.155 470.637 425.632L560.147 392.813C560.147 392.813 596.108 378.263 609.52 409.908C614.48 421.717 603.255 446.967 591.083 450.817Z" fill="url(#paint2_radial_700_26052)"/>
<path d="M421.785 557.559C421.655 557.559 421.524 557.526 421.426 557.461L403.74 547.935C403.381 547.739 403.25 547.315 403.413 546.956L448.576 445.336C452.753 435.94 460.716 428.502 470.375 424.947L559.885 392.128C560.244 391.997 596.662 377.676 610.204 409.646C612.652 415.421 611.51 424.816 607.202 434.146C603.025 443.215 597.086 449.707 591.343 451.534C576.332 456.297 551.075 461.876 516.06 461.419C515.929 461.419 515.832 461.419 515.701 461.419C505.944 461.419 497.199 466.769 492.793 475.414C482.481 495.641 459.573 533.189 422.242 557.428C422.046 557.526 421.916 557.559 421.785 557.559ZM405.045 546.956L421.72 555.928C458.562 531.885 481.176 494.76 491.39 474.729C496.122 465.432 505.52 459.755 516.027 459.918C550.846 460.375 575.908 454.862 590.821 450.131C596.107 448.468 601.85 442.106 605.799 433.559C609.911 424.588 611.053 415.682 608.769 410.266C595.781 379.666 560.734 393.433 560.375 393.563L470.864 426.382C461.564 429.775 453.928 436.919 449.914 445.956L405.045 546.956Z" fill="white"/>
<path d="M395.844 291.617C395.158 290.149 391.83 276.969 387.979 274.881C384.129 272.793 363.472 259.287 363.799 262.517C364.125 265.747 372.609 274.848 372.609 274.848C372.609 274.848 370.064 290.442 384.096 292.269L387 297.554L395.844 291.617Z" fill="white"/>
<path d="M386.969 298.304C386.904 298.304 386.838 298.304 386.806 298.272C386.61 298.207 386.414 298.076 386.316 297.913L383.608 292.954C379.692 292.367 376.69 290.671 374.634 287.93C371.077 283.135 371.599 276.708 371.795 275.109C370.196 273.38 363.376 265.779 363.049 262.615C362.984 262.126 363.18 261.734 363.572 261.473C365.007 260.56 369.641 262.876 383.477 271.325C385.696 272.695 387.491 273.772 388.34 274.229C391.668 276.023 394.377 284.57 395.812 289.137C396.139 290.149 396.4 291.029 396.53 291.29C396.693 291.617 396.563 292.041 396.269 292.237L387.393 298.174C387.263 298.272 387.132 298.304 386.969 298.304ZM364.616 262.778C365.301 265.486 370.947 271.978 373.166 274.327C373.329 274.49 373.394 274.718 373.361 274.946C373.361 275.012 372.252 282.156 375.874 287.017C377.734 289.496 380.54 291.029 384.195 291.486C384.424 291.519 384.652 291.649 384.75 291.878L387.263 296.445L394.964 291.29C394.833 290.899 394.638 290.344 394.409 289.561C393.234 285.81 390.428 277.002 387.654 275.501C386.741 275.012 384.978 273.935 382.727 272.532C377.93 269.727 367.129 263.104 364.616 262.778Z" fill="#D03660"/>
<path d="M511.755 268.063C511.755 268.063 480.721 262.386 462.415 289.985C444.075 317.584 411.476 322.608 396.889 289.985L383.836 295.401C383.836 295.401 403.056 359.342 444.075 346.162C485.094 332.95 497.951 311.06 497.951 311.06L511.755 268.063Z" fill="#E7839C"/>
<path d="M543.995 269.368C543.995 269.368 571.831 271.423 578.879 299.511C585.895 327.632 579.369 413.953 585.406 424.49C591.443 435.027 563.346 447.391 552.023 434.179C540.7 420.967 483.463 397.478 468.713 398.13C453.963 398.783 470.54 343.552 470.54 343.552C470.54 343.552 490.87 273.707 504.967 271.064C519.13 268.389 543.995 269.368 543.995 269.368Z" fill="#E7839C"/>
<path d="M503.531 273.902L498.408 313.866L535.837 276.741C535.837 276.741 515.801 271.651 503.531 273.902Z" fill="#E7839C"/>
<path d="M497.951 329.068C497.951 329.068 495.797 319.183 492.762 315.692C489.728 312.202 485.42 307.406 486.921 312.495C488.422 317.584 488.063 319.607 487.672 319.672C487.28 319.738 479.579 311.092 475.826 306.46C472.073 301.828 466.102 304.698 469.985 313.865C473.868 323.032 475.63 328.35 483.332 332.036C491.033 335.69 491.62 339.474 491.62 339.474L497.951 329.068Z" fill="white"/>
<path d="M491.621 340.257C491.589 340.257 491.523 340.257 491.491 340.257C491.164 340.192 490.936 339.964 490.903 339.637C490.903 339.605 490.153 336.147 483.006 332.754C475.599 329.231 473.51 324.272 470.084 316.084L469.301 314.192C466.886 308.515 468.126 305.253 470.051 304.078C471.976 302.937 474.522 303.687 476.414 306.003C479.71 310.048 485.225 316.214 487.281 318.302C487.281 317.323 487.053 315.562 486.204 312.691C485.813 311.386 485.584 310.114 486.465 309.657C487.542 309.07 489.108 310.309 493.318 315.203C496.418 318.791 498.572 328.48 498.67 328.904C498.702 329.1 498.67 329.296 498.572 329.459L492.274 339.898C492.143 340.127 491.882 340.257 491.621 340.257ZM471.977 305.057C471.552 305.057 471.193 305.155 470.834 305.383C469.496 306.199 468.648 308.841 470.671 313.637L471.454 315.529C474.75 323.391 476.741 328.122 483.626 331.416C488.684 333.831 490.838 336.343 491.719 337.908L497.103 328.97C496.712 327.339 494.721 319.216 492.143 316.214C489.402 313.017 488.032 311.745 487.346 311.288C487.379 311.516 487.444 311.843 487.607 312.332C488.717 316.116 489.043 318.987 488.423 319.998C488.227 320.325 487.934 320.423 487.771 320.455C487.281 320.553 487.085 320.586 482.419 315.366C479.808 312.463 476.969 309.168 475.207 306.982C474.228 305.71 473.021 305.057 471.977 305.057Z" fill="#D03660"/>
<path d="M527.19 390.66C527.125 390.66 527.059 390.66 526.994 390.66C509.144 390.399 499.355 362.115 495.993 349.979C494.917 346.064 493.154 342.443 490.772 339.213C490.576 338.952 490.577 338.626 490.74 338.333L497.756 327.795C497.886 327.6 498.115 327.469 498.343 327.469C498.571 327.469 498.8 327.534 498.963 327.73L500.856 329.851C500.888 329.883 500.921 329.916 500.954 329.981C509.144 343.944 517.498 355.297 519.195 354.84C522.197 352.752 525.689 344.792 527.679 335.494C528.006 333.896 528.365 332.036 528.756 330.079C530.747 319.803 533.194 307.015 538.024 303.687C538.383 303.459 538.84 303.524 539.068 303.883C539.297 304.242 539.231 304.698 538.872 304.927C534.532 307.895 532.052 320.879 530.225 330.373C529.833 332.33 529.474 334.222 529.148 335.821C527.059 345.64 523.405 353.796 520.043 356.112C519.782 356.275 519.358 356.471 518.738 356.34C514.202 355.329 501.313 333.635 499.648 330.862L498.474 329.524L492.273 338.789C494.623 342.052 496.352 345.705 497.429 349.587C500.725 361.397 510.156 388.931 526.994 389.192C527.059 389.192 527.092 389.192 527.157 389.192C548.401 389.192 561.128 332.428 561.258 331.873C561.356 331.482 561.748 331.221 562.139 331.286C562.531 331.384 562.792 331.775 562.727 332.167C562.237 334.548 549.641 390.66 527.19 390.66Z" fill="#D03660"/>
<path d="M529.474 238.572L534.63 263.594C535.217 266.171 537.339 268.096 539.982 268.487L543.114 268.944C544.779 269.205 545.268 271.293 543.898 272.272C537.534 276.806 522.654 284.538 504.543 274.881C502.977 273.935 503.238 271.619 504.967 271.032L509.177 269.629C511.657 268.814 513.386 266.595 513.582 264.018L511.624 235.93L529.474 238.572Z" fill="white"/>
<path d="M522.098 280.264C516.681 280.264 510.644 279.024 504.216 275.566C503.204 274.979 502.682 273.902 502.813 272.761C502.943 271.619 503.694 270.705 504.771 270.346L508.98 268.944C511.167 268.226 512.668 266.301 512.863 264.018L510.906 235.962C510.906 235.734 510.971 235.505 511.134 235.342C511.297 235.179 511.526 235.114 511.754 235.146L529.571 237.789C529.898 237.821 530.126 238.082 530.191 238.376L535.347 263.398C535.869 265.649 537.729 267.345 540.079 267.704L543.212 268.161C544.288 268.324 545.104 269.074 545.365 270.118C545.626 271.162 545.235 272.206 544.321 272.826C540.503 275.631 532.476 280.264 522.098 280.264ZM512.439 236.81L514.332 263.985C514.332 264.018 514.332 264.05 514.332 264.083C514.103 266.986 512.178 269.433 509.404 270.379L505.195 271.782C504.673 271.945 504.314 272.402 504.249 272.956C504.183 273.511 504.444 274 504.901 274.294C522.229 283.559 536.489 276.643 543.407 271.717C543.799 271.456 543.962 271.032 543.832 270.575C543.734 270.118 543.375 269.825 542.918 269.759L539.785 269.303C536.816 268.878 534.499 266.725 533.813 263.822L528.755 239.289L512.439 236.81Z" fill="#D03660"/>
<path d="M493.446 211.168C498.896 209.309 493.511 216.877 512.34 205.231C519.846 200.598 518.344 211.168 520.27 209.961C527.449 205.525 529.439 204.415 533.551 204.318C536.26 204.252 542.982 207.71 543.08 211.299C543.406 223.076 537.663 221.542 536.978 232.08C536.488 239.485 535.15 242.062 532.703 243.824C530.223 245.586 527.155 242.486 524.284 244.215C520.596 246.466 523.305 253.089 520.172 257.036C518.214 259.516 512.732 261.962 502.289 260.135C500.592 259.842 499.385 258.374 499.385 256.677C499.385 254.492 499.385 251.719 499.613 249.076C500.723 236.484 504.117 232.765 501.8 230.22C498.276 226.338 490.346 231.362 487.866 228.034C485.353 224.674 485.973 213.746 493.446 211.168Z" fill="#D03660"/>
<path d="M518.214 225.359L517.43 228.719C517.072 230.318 516.81 231.916 516.68 233.548C516.419 236.582 515.766 241.801 515.44 244.705C514.363 254.133 501.277 247.771 501.277 247.771L499.907 245.651L498.341 245.488C498.047 245.455 497.753 245.357 497.492 245.194C496.872 244.737 496.676 243.987 496.905 243.302C498.145 239.615 500.625 231.46 500.462 224.805C500.462 224.805 508.848 219.976 518.214 225.359Z" fill="white"/>
<path d="M509.469 250.642C505.488 250.642 501.18 248.587 500.952 248.489C500.821 248.424 500.724 248.326 500.658 248.228L499.484 246.401L498.276 246.271C497.819 246.205 497.395 246.075 497.069 245.814C496.22 245.194 495.861 244.085 496.188 243.074C497.297 239.811 499.875 231.492 499.712 224.837C499.712 224.576 499.843 224.315 500.104 224.152C500.463 223.956 508.98 219.161 518.606 224.707C518.9 224.87 519.03 225.196 518.965 225.522L518.182 228.883C517.823 230.448 517.594 232.014 517.431 233.58C517.236 235.799 516.844 239.191 516.518 241.932C516.387 242.976 516.289 243.954 516.191 244.77C515.93 247.151 514.919 248.815 513.222 249.761C512.112 250.414 510.807 250.642 509.469 250.642ZM501.8 247.217C502.943 247.739 509.11 250.348 512.504 248.489C513.777 247.804 514.494 246.532 514.723 244.639C514.821 243.824 514.919 242.845 515.049 241.801C515.376 239.061 515.767 235.701 515.963 233.482C516.093 231.851 516.354 230.187 516.746 228.556L517.399 225.751C509.795 221.64 502.91 224.446 501.246 225.261C501.278 231.819 498.994 239.485 497.624 243.563C497.493 243.954 497.624 244.346 497.95 244.607C498.08 244.705 498.244 244.737 498.439 244.77L500.006 244.933C500.234 244.966 500.43 245.096 500.56 245.259L501.8 247.217Z" fill="#D03660"/>
<path d="M518.834 236.191C518.834 236.191 520.661 228.1 524.186 229.698C527.71 231.297 525.458 240.171 518.834 236.191Z" fill="white"/>
<path d="M391.048 298.631L387.067 297.358C383.608 296.249 381.193 293.085 381.095 289.464L380.41 267.019H380.182C384.652 266.758 388.111 263.006 387.981 258.537L386.577 211.886C386.545 211.201 385.99 210.646 385.305 210.679L370.588 211.136C369.902 211.168 369.348 211.723 369.38 212.408L369.413 213.68L369.707 223.859L370.751 259.059C370.881 263.561 374.569 267.084 379.039 267.084H378.811L379.496 289.529C379.594 293.15 377.408 296.477 374.014 297.782L370.098 299.283C369.87 299.381 369.707 299.577 369.739 299.838C369.739 300.164 370 300.392 370.327 300.392L390.82 299.772C391.146 299.772 391.374 299.511 391.374 299.185C391.44 298.924 391.277 298.696 391.048 298.631Z" fill="white"/>
<path d="M370.358 301.11C369.641 301.11 369.053 300.555 369.021 299.838C368.988 299.283 369.347 298.761 369.869 298.565L373.785 297.065C376.885 295.89 378.875 292.856 378.778 289.561L378.125 267.802C373.654 267.345 370.163 263.691 370.032 259.091L368.629 212.441C368.629 211.919 368.792 211.397 369.184 211.005C369.543 210.614 370.032 210.385 370.587 210.385L385.304 209.929C386.381 209.896 387.327 210.777 387.36 211.853L388.763 258.504C388.894 263.104 385.63 266.954 381.192 267.671L381.845 289.431C381.943 292.726 384.129 295.629 387.295 296.641L391.276 297.913C391.798 298.076 392.189 298.565 392.189 299.152C392.189 299.511 392.059 299.838 391.831 300.099C391.602 300.36 391.243 300.49 390.917 300.523L370.424 301.142C370.391 301.11 370.358 301.11 370.358 301.11ZM379.626 267.573L380.279 289.496C380.409 293.443 377.994 297.032 374.307 298.467L371.37 299.577L389.775 299.022L386.805 298.076C383.052 296.869 380.442 293.443 380.311 289.496L379.626 267.573ZM379.104 266.334C379.3 266.334 379.495 266.432 379.626 266.562C379.757 266.432 379.952 266.334 380.148 266.301C384.26 266.073 387.36 262.68 387.229 258.57L385.826 211.919C385.826 211.658 385.598 211.429 385.337 211.429L370.62 211.886C370.489 211.886 370.358 211.951 370.261 212.049C370.163 212.147 370.13 212.278 370.13 212.408L371.533 259.059C371.664 263.137 374.96 266.334 379.039 266.334C379.071 266.334 379.071 266.334 379.104 266.334Z" fill="#D03660"/>
<path d="M385.889 237.267C382.724 235.701 379.885 235.081 377.438 234.918C375.382 234.787 373.424 234.983 371.531 235.374L372.217 258.7C372.347 262.647 375.643 265.746 379.591 265.616C383.54 265.485 386.64 262.19 386.51 258.243L385.889 237.267Z" fill="#D03660"/>
<path d="M379.364 266.366C375.121 266.366 371.597 262.974 371.467 258.7L370.781 235.375C370.781 235.016 371.042 234.689 371.401 234.624C373.62 234.167 375.611 234.037 377.504 234.167C380.44 234.363 383.377 235.179 386.216 236.614C386.477 236.745 386.641 236.973 386.641 237.267L387.261 258.276C387.326 260.396 386.575 262.386 385.107 263.92C383.671 265.453 381.713 266.334 379.592 266.399C379.527 266.366 379.461 266.366 379.364 266.366ZM372.315 235.994L373 258.667C373.098 262.191 376.068 264.964 379.592 264.866C381.289 264.8 382.888 264.115 384.063 262.843C385.237 261.603 385.857 259.972 385.792 258.276L385.172 237.723C382.627 236.516 380.016 235.799 377.406 235.636C375.807 235.538 374.142 235.668 372.315 235.994Z" fill="#D03660"/>
<path d="M385.989 277.458L377.766 274.164V275.11C377.766 276.676 378.386 278.176 379.495 279.253C380.507 280.264 381.649 281.83 381.943 283.82C382.465 287.637 387.033 289.04 387.033 289.04L385.989 277.458Z" fill="white"/>
<path d="M386.577 289.79C386.512 289.79 386.414 289.79 386.349 289.757C386.153 289.692 381.324 288.159 380.736 283.95C380.475 282.091 379.366 280.688 378.517 279.807C377.277 278.567 376.592 276.904 376.592 275.109V274.163C376.592 273.902 376.722 273.674 376.918 273.544C377.114 273.413 377.375 273.38 377.603 273.478L385.827 276.773C386.218 276.936 386.414 277.36 386.251 277.752C386.088 278.143 385.664 278.339 385.272 278.176L378.093 275.305C378.126 276.61 378.648 277.817 379.594 278.763C380.638 279.807 381.944 281.504 382.27 283.755C382.727 287.049 386.773 288.322 386.838 288.354C387.23 288.485 387.458 288.909 387.328 289.3C387.197 289.594 386.904 289.79 386.577 289.79Z" fill="#D03660"/>
<path d="M535.969 594.162H552.024V463.344L535.969 464.029V594.162Z" fill="white"/>
<path d="M552.024 594.912H535.969C535.545 594.912 535.219 594.586 535.219 594.162V464.029C535.219 463.637 535.545 463.278 535.937 463.278L551.992 462.593C552.188 462.593 552.383 462.659 552.547 462.789C552.71 462.92 552.775 463.115 552.775 463.344V594.162C552.775 594.586 552.416 594.912 552.024 594.912ZM536.72 593.411H551.274V464.159L536.72 464.779V593.411Z" fill="#D03660"/>
<path d="M609.847 330.503H587.494C574.637 330.503 563.607 339.67 561.291 352.328L547.683 426.284C545.953 435.712 537.73 442.563 528.136 442.563H523.143C515.507 442.563 508.459 446.608 504.608 453.166L489.369 474.631C489.075 475.023 489.043 475.577 489.271 476.002C489.499 476.426 489.956 476.719 490.446 476.719L537.828 476.263L552.023 476.132L575.322 475.904C592.944 475.904 608.053 464.388 611.153 446.869L627.861 352.165C629.819 340.845 621.236 330.503 609.847 330.503Z" fill="#EEF0F3"/>
<path d="M490.414 477.437C489.631 477.437 488.945 477.013 488.587 476.328C488.228 475.643 488.293 474.827 488.717 474.175L503.956 452.709C507.905 445.988 515.247 441.78 523.112 441.78H528.104C537.339 441.78 545.236 435.19 546.9 426.121L560.508 352.165C562.89 339.148 574.246 329.72 587.462 329.72H609.816C615.428 329.72 620.715 332.2 624.304 336.506C627.959 340.877 629.493 346.619 628.514 352.263L611.806 446.967C608.739 464.42 593.695 476.621 575.258 476.621L537.763 477.013L490.414 477.437C490.447 477.437 490.447 477.437 490.414 477.437ZM523.144 443.313C515.834 443.313 508.982 447.228 505.262 453.557L489.99 475.088C489.859 475.251 489.859 475.48 489.957 475.675C490.055 475.871 490.251 475.969 490.447 475.969L552.024 475.382L575.323 475.153C593.01 475.153 607.434 463.474 610.403 446.739L627.111 352.034C628.024 346.847 626.621 341.53 623.227 337.517C619.899 333.537 615.037 331.286 609.881 331.286H587.528C575.03 331.286 564.326 340.192 562.042 352.491L548.434 426.447C546.639 436.234 538.09 443.346 528.137 443.346H523.144V443.313Z" fill="#D03660"/>
<path d="M506.012 574.588H578.358C589.584 574.588 598.655 583.69 598.655 594.88V594.977H485.715V594.88C485.715 583.69 494.787 574.588 506.012 574.588Z" fill="white"/>
<path d="M598.656 595.728H485.715C485.291 595.728 484.965 595.402 484.965 594.977V594.88C484.965 583.266 494.396 573.838 506.013 573.838H578.359C589.976 573.838 599.406 583.266 599.406 594.88V594.977C599.439 595.402 599.08 595.728 598.656 595.728ZM486.466 594.227H597.905C597.546 583.755 588.931 575.338 578.359 575.338H506.013C495.44 575.338 486.825 583.755 486.466 594.227Z" fill="#D03660"/>
<path d="M601.428 404.361C601.396 404.361 601.331 404.361 601.298 404.361C600.874 404.296 600.613 403.905 600.678 403.481L608.771 357.515C608.836 357.091 609.228 356.83 609.652 356.895C610.076 356.96 610.337 357.352 610.272 357.776L602.179 403.742C602.114 404.1 601.787 404.361 601.428 404.361Z" fill="#D03660"/>
<path d="M163.862 224.25C157.302 217.856 147.545 216.518 140.203 218.313C130.936 220.596 126.237 227.839 122.941 232.928C117.099 241.932 119.938 245.194 115.337 250.446C107.212 259.711 87.5019 253.578 77.908 260.69C54.8696 277.817 67.433 306.101 87.8609 319.444C101.469 328.35 120.004 323.196 125.062 321.793C140.366 317.552 165.722 309.2 168.169 289.3C169.833 275.925 154.659 265.192 162.817 254.035C164.906 251.197 166.603 250.414 168.136 246.858C170.649 241.116 171.237 231.427 163.862 224.25Z" fill="#D03660"/>
<path d="M139.91 225.816C143.401 223.272 141.182 215.768 138.963 211.69C138.115 210.157 134.395 203.372 129.467 203.633C124.409 203.894 119.58 211.56 121.375 217.595C123.626 225.196 135.831 228.817 139.91 225.816Z" fill="#D03660"/>
<path d="M253.895 265.192C250.501 265.355 244.529 271.26 241.103 274.75C240.124 275.729 239.341 276.545 238.884 276.936C238.884 276.936 205.991 318.791 202.695 319.737C195.287 312.006 166.473 279.318 160.827 280.753C158.184 288.713 165.722 321.108 172.249 326.132C178.775 331.155 200.867 354.481 211.669 347.728C222.47 340.942 249.881 282.547 249.881 282.547C263.326 287.017 267.796 271.88 267.796 271.88C267.796 271.88 279.381 267.378 281.078 264.605C282.742 261.799 258.268 264.996 253.895 265.192Z" fill="white"/>
<path d="M207.099 349.685C197.668 349.685 184.844 338.235 176.653 330.927C174.662 329.133 172.933 327.6 171.758 326.719C164.742 321.336 157.433 288.583 160.108 280.525C160.174 280.296 160.402 280.101 160.631 280.035C164.938 278.926 178.122 292.073 198.027 313.637C199.953 315.725 201.617 317.552 202.824 318.824C206.479 316.182 226.189 291.845 238.296 276.479C238.328 276.447 238.361 276.414 238.393 276.381C238.785 276.055 239.47 275.37 240.319 274.489L240.58 274.228C245.54 269.237 250.565 264.605 253.861 264.474C254.84 264.441 256.896 264.213 259.507 263.985C275.627 262.386 280.815 262.354 281.697 263.789C281.925 264.148 281.925 264.605 281.664 265.029C279.967 267.736 270.504 271.619 268.35 272.467C267.828 274 265.478 280.035 260.224 282.776C257.255 284.309 253.894 284.57 250.239 283.493C247.172 290.018 222.436 341.888 212.027 348.413C210.558 349.261 208.861 349.685 207.099 349.685ZM161.381 281.438C159.293 289.724 166.276 320.618 172.672 325.512C173.879 326.425 175.544 327.926 177.632 329.785C186.443 337.647 202.857 352.295 211.211 347.043C221.686 340.453 248.868 282.776 249.129 282.188C249.293 281.83 249.684 281.666 250.043 281.797C253.535 282.971 256.733 282.841 259.474 281.405C264.858 278.6 266.979 271.716 266.979 271.619C267.045 271.39 267.208 271.227 267.436 271.129C271.776 269.433 278.531 266.334 280.163 264.442C277.748 263.626 265.152 264.866 259.637 265.42C257.026 265.681 254.938 265.877 253.894 265.942C250.696 266.073 244.333 272.532 241.591 275.272L241.33 275.533C240.482 276.382 239.829 277.067 239.372 277.458C233.76 284.602 206.185 319.509 202.824 320.488C202.563 320.553 202.269 320.488 202.074 320.292C200.834 319.02 199.071 317.095 196.852 314.681C187.715 304.666 166.504 281.699 161.381 281.438Z" fill="#D03660"/>
<path d="M185.14 592.531C179.103 589.334 178.352 571.75 177.928 565.78C177.504 559.81 170.259 569.76 168.236 567.77C166.213 565.78 170.586 561.409 173.066 556.222C175.546 551.035 182.692 547.511 182.692 547.511L183.867 548.294L196.952 556.874C196.952 556.874 197.148 567.542 196.398 574.197C196.169 576.35 196.952 578.927 198.16 581.504C200.705 586.887 205.111 592.335 206.024 594.586C207.427 597.881 191.177 595.761 185.14 592.531Z" fill="#D03660"/>
<path d="M201.977 597C196.658 597 188.402 595.14 184.813 593.216C178.776 590.019 177.764 574.523 177.274 567.052L177.209 565.845C177.144 565.062 176.981 564.703 176.818 564.638C176.23 564.377 174.338 565.747 173.195 566.595C171.074 568.161 169.051 569.629 167.713 568.324C165.918 566.563 167.681 563.79 169.704 560.593C170.617 559.157 171.629 557.559 172.412 555.895C174.99 550.545 182.071 546.989 182.365 546.826C182.594 546.695 182.887 546.728 183.116 546.859L197.376 556.189C197.572 556.319 197.702 556.548 197.702 556.809C197.702 556.906 197.898 567.607 197.148 574.229C196.952 575.991 197.507 578.34 198.844 581.113C200.28 584.114 202.336 587.213 203.968 589.692C205.273 591.65 206.317 593.216 206.709 594.227C206.97 594.88 206.839 595.532 206.317 596.021C205.632 596.706 204.033 597 201.977 597ZM176.687 563.105C176.948 563.105 177.209 563.17 177.47 563.268C178.58 563.79 178.678 565.258 178.71 565.747L178.808 566.987C179.2 573.022 180.244 589.105 185.53 591.911C191.437 595.043 204.555 596.413 205.436 594.945C205.436 594.945 205.436 594.912 205.404 594.88C205.045 593.999 204 592.433 202.793 590.606C201.129 588.094 199.04 584.962 197.572 581.83C196.103 578.731 195.516 576.219 195.744 574.131C196.397 568.324 196.332 559.288 196.299 557.298L182.757 548.424C181.288 549.24 175.871 552.372 173.848 556.58C173 558.309 171.955 559.973 171.042 561.408C169.377 564.051 167.909 566.334 168.855 567.248C169.247 567.639 171.368 566.106 172.38 565.388C173.913 564.214 175.414 563.105 176.687 563.105Z" fill="#D03660"/>
<path d="M301.866 595.369C286.235 594.423 281.895 592.367 275.891 585.386C269.854 578.437 275.597 591.78 269.952 592.335C264.371 592.889 267.21 564.899 267.21 564.279C267.21 564.279 276.413 548.718 279.056 557.689C279.089 557.787 279.056 557.852 279.056 557.852C281.34 566.073 294.099 572.272 304.313 580.786C305.684 581.928 307.022 583.135 308.262 584.375C318.835 594.814 317.497 596.315 301.866 595.369Z" fill="#D03660"/>
<path d="M308.196 596.348C306.466 596.348 304.345 596.282 301.832 596.119C285.777 595.141 281.339 592.824 275.335 585.876C274.421 584.799 273.899 584.375 273.638 584.244C273.54 584.669 273.54 585.549 273.54 586.202C273.508 588.812 273.475 592.759 270.049 593.118C269.331 593.183 268.678 592.955 268.156 592.4C265.709 589.986 265.154 580.786 266.459 564.997C266.492 564.605 266.524 564.344 266.524 564.279C266.524 564.149 266.557 564.018 266.622 563.888C267.242 562.844 272.79 553.644 276.901 554.166C278.272 554.329 279.251 555.438 279.871 557.461C279.904 557.559 279.904 557.689 279.904 557.787C281.503 563.203 288.16 567.933 295.208 572.924C298.439 575.208 301.767 577.589 304.867 580.167C306.303 581.374 307.641 582.581 308.881 583.788C314.853 589.692 316.582 592.335 315.734 594.227C315.016 595.728 313.025 596.348 308.196 596.348ZM273.475 582.646C274.226 582.646 275.074 583.331 276.477 584.93C282.253 591.617 286.3 593.705 301.93 594.651C305.716 594.88 313.547 595.336 314.298 593.705C315.016 592.107 309.729 586.92 307.772 584.93C306.597 583.755 305.259 582.548 303.856 581.406C300.788 578.862 297.492 576.513 294.294 574.229C286.952 569.01 280.034 564.083 278.37 558.113C278.337 558.016 278.337 557.95 278.337 557.852C277.913 556.515 277.358 555.797 276.673 555.732C274.356 555.438 270.147 560.952 267.993 564.573C267.993 564.703 267.96 564.932 267.96 565.193C266.231 586.006 268.286 590.443 269.233 591.389C269.526 591.682 269.755 591.682 269.918 591.682C271.876 591.487 272.039 589.203 272.072 586.267C272.072 584.473 272.104 583.135 273.083 582.776C273.181 582.646 273.344 582.646 273.475 582.646Z" fill="#D03660"/>
<path d="M304.311 580.787C302.386 584.343 297.393 589.138 292.074 585.974C286.69 582.744 277.063 576.089 271.092 569.63C269.95 569.369 268.84 568.194 267.665 565.519C267.502 565.128 267.208 564.704 267.208 564.312C261.171 551.491 251.316 530.939 243.224 523.109C234.87 515.019 220.218 487.844 218.325 469.706C216.432 451.6 214.148 411.702 232.781 422.598C232.781 422.598 241.233 423.381 246.519 441.454C251.675 459.071 277.749 553.286 278.989 557.722C279.021 557.82 279.021 557.885 279.021 557.885C281.306 566.074 294.097 572.272 304.311 580.787Z" fill="white"/>
<path d="M295.632 587.735C294.294 587.735 292.956 587.344 291.684 586.593C286.821 583.69 276.999 577.035 270.668 570.282C269.298 569.858 268.156 568.455 266.981 565.812C266.948 565.715 266.883 565.617 266.85 565.519C266.687 565.225 266.524 564.866 266.491 564.475C261.466 553.742 251.056 531.689 242.702 523.631C234.12 515.345 219.468 487.909 217.575 469.771C215.944 454.014 214.508 426.741 223.319 421.064C225.929 419.368 229.225 419.662 233.043 421.847C234.381 422.076 242.246 424.098 247.238 441.193C252.459 459.103 279.446 556.482 279.707 557.461C279.74 557.592 279.773 557.657 279.773 557.657C281.274 563.072 287.996 567.868 295.11 572.924C298.341 575.208 301.669 577.589 304.802 580.167C305.063 580.395 305.161 580.786 304.965 581.113C303.692 583.462 300.984 586.528 297.623 587.441C296.97 587.67 296.285 587.735 295.632 587.735ZM227.071 421.489C225.995 421.489 225.016 421.782 224.135 422.337C218.195 426.154 216.368 443.379 219.077 469.607C220.937 487.452 235.327 514.399 243.747 522.554C251.317 529.862 260.193 547.609 267.895 563.986C267.927 564.083 267.96 564.181 267.96 564.312C267.96 564.442 268.09 564.671 268.188 564.899C268.253 565.03 268.286 565.127 268.351 565.258C269.33 567.509 270.309 568.716 271.223 568.944C271.386 568.977 271.517 569.042 271.615 569.173C277.782 575.828 287.604 582.483 292.434 585.354C293.968 586.267 295.567 586.495 297.198 586.071C299.842 585.354 302.061 583.005 303.301 581.015C300.364 578.601 297.231 576.382 294.196 574.229C286.854 569.01 279.936 564.083 278.272 558.113L278.239 557.95C277.978 556.972 251.024 459.592 245.77 441.682C240.744 424.457 232.749 423.381 232.684 423.381C232.586 423.381 232.456 423.348 232.391 423.283C230.433 422.076 228.638 421.489 227.071 421.489Z" fill="#D03660"/>
<path d="M196.984 556.841C196.984 556.841 197.18 567.509 196.429 574.164C196.201 576.317 196.984 578.894 198.191 581.471C196.527 583.429 193.101 584.114 189.772 582.711C185.987 581.113 186.509 573.414 186.378 567.737C186.346 565.878 186.215 564.247 185.889 563.137C184.91 559.94 182.462 557.592 182.593 554.068C182.691 552.078 183.311 550.186 183.898 548.294C183.996 547.968 184.094 547.641 184.192 547.315C184.877 544.934 185.236 542.487 185.53 540.04C186.9 528.59 186.346 516.976 185.008 505.525C180.504 467.128 191.534 444.031 191.534 444.031C199.529 421.554 216.759 421.456 229.192 432.743C241.625 444.031 208.111 525.327 204.261 537.398C202.629 542.487 196.984 555.928 196.984 556.841Z" fill="white"/>
<path d="M193.362 584.212C192.089 584.212 190.784 583.951 189.511 583.396C185.759 581.798 185.726 575.567 185.693 570.086C185.693 569.303 185.693 568.52 185.661 567.77C185.628 566.334 185.563 564.54 185.204 563.366C184.845 562.257 184.29 561.213 183.768 560.201C182.789 558.374 181.777 556.482 181.908 554.036C181.973 552.144 182.528 550.349 183.083 548.62L183.278 547.935C183.344 547.674 183.442 547.413 183.507 547.152C184.225 544.608 184.584 541.965 184.845 539.975C186.052 529.96 185.889 519.064 184.323 505.656C179.95 468.205 190.392 444.912 190.914 443.803C195.548 430.786 202.727 426.513 207.916 425.208C214.964 423.446 222.927 426.023 229.78 432.254C239.276 440.899 224.591 484.94 208.96 526.926C207.133 531.852 205.664 535.734 205.044 537.692C204.228 540.269 202.368 544.966 200.769 549.077C199.431 552.47 197.93 556.287 197.832 556.906C197.832 557.657 197.996 567.868 197.278 574.294C197.082 576.056 197.637 578.405 198.975 581.178C199.105 581.439 199.073 581.765 198.877 581.994C197.506 583.429 195.548 584.212 193.362 584.212ZM212.321 426.121C210.918 426.121 209.547 426.284 208.21 426.61C201.259 428.339 195.744 434.473 192.252 444.292C192.252 444.325 192.22 444.325 192.22 444.357C192.122 444.586 181.353 467.715 185.759 505.427C187.357 518.966 187.521 529.96 186.281 540.106C186.02 542.161 185.661 544.836 184.91 547.511C184.845 547.772 184.747 548.066 184.682 548.327L184.486 549.012C183.964 550.741 183.442 552.339 183.376 554.068C183.278 556.091 184.16 557.722 185.073 559.451C185.661 560.528 186.248 561.637 186.64 562.909C186.966 563.953 187.129 565.421 187.162 567.737C187.194 568.488 187.194 569.271 187.194 570.086C187.227 574.882 187.26 580.819 190.099 582.026C192.774 583.168 195.679 582.874 197.31 581.341C196.005 578.47 195.483 576.089 195.711 574.099C196.462 567.574 196.266 556.972 196.266 556.874C196.266 556.352 196.919 554.623 199.301 548.522C200.9 544.412 202.76 539.747 203.543 537.202C204.163 535.212 205.566 531.526 207.459 526.371C216.824 501.252 238.721 442.465 228.67 433.331C223.547 428.633 217.771 426.121 212.321 426.121Z" fill="#D03660"/>
<path d="M165.201 281.112C165.201 281.112 185.759 316.28 179.983 331.58C174.207 346.88 156.945 368.574 164.059 389.844C171.14 411.114 248.838 390.105 244.856 430.688C244.856 430.688 235.589 449.577 217.119 445.14C198.682 440.671 203.348 477.567 188.141 490.356C172.902 503.144 136.55 509.538 136.191 532.896C135.799 556.221 113.609 526.502 126.401 488.855L129.762 457.733C129.762 457.733 57.7426 441.062 97.1624 389.877C97.1624 389.877 109.595 359.766 110.281 335.429C110.966 311.092 112.695 282.417 139.584 278.535C161.057 275.436 165.201 281.112 165.201 281.112Z" fill="#E7839C"/>
<path d="M132.797 541.9C131.981 541.9 130.969 541.541 129.762 540.464C124.182 535.31 117.003 514.17 125.65 488.692L128.946 458.287C123.954 457.015 93.736 448.598 86.2305 427.719C82.1841 416.432 85.6431 403.578 96.4771 389.453C97.2276 387.593 108.845 358.624 109.497 335.364C109.856 322.804 110.509 309.624 114.36 299.022C118.895 286.495 127.119 279.546 139.421 277.784C161.089 274.652 165.56 280.427 165.756 280.655C165.756 280.688 165.788 280.688 165.788 280.72C166.637 282.156 186.477 316.377 180.636 331.84C179.167 335.755 176.916 340.094 174.566 344.694C167.518 358.461 159.523 374.022 164.711 389.616C167.485 397.967 182.529 399.533 198.453 401.164C221.655 403.546 247.956 406.253 245.574 430.753C245.574 430.851 245.542 430.916 245.509 431.014C245.411 431.21 235.752 450.392 216.923 445.858C207.199 443.509 204.294 453.752 200.933 465.627C198.323 474.827 195.386 485.234 188.598 490.943C183.573 495.184 176.394 498.642 168.79 502.328C153.225 509.864 137.137 517.661 136.909 532.928C136.843 537.854 135.766 540.888 133.841 541.704C133.58 541.802 133.221 541.9 132.797 541.9ZM151.071 278.339C147.971 278.339 144.251 278.6 139.715 279.252C114.621 282.873 111.847 307.895 111.064 335.396C110.378 359.603 98.0108 389.811 97.8803 390.105C97.8476 390.17 97.815 390.236 97.7824 390.268C87.2421 403.97 83.8484 416.399 87.699 427.197C95.4002 448.728 129.632 456.884 129.958 456.949C130.317 457.047 130.578 457.374 130.545 457.765L127.184 488.887C127.184 488.953 127.151 488.985 127.151 489.05C119.091 512.767 125.161 534.037 130.839 539.322C131.524 539.942 132.503 540.627 133.319 540.268C133.808 540.073 135.375 538.931 135.473 532.83C135.734 516.649 152.996 508.265 168.203 500.893C175.708 497.271 182.79 493.813 187.684 489.703C194.113 484.287 197.017 474.109 199.53 465.138C202.956 453.035 206.187 441.617 217.315 444.324C234.381 448.468 243.257 432.123 244.138 430.394C246.292 407.493 221.916 405.014 198.355 402.567C181.941 400.871 166.441 399.272 163.341 390.007C157.956 373.826 166.441 357.254 173.294 343.911C175.643 339.344 177.829 335.07 179.298 331.221C184.78 316.703 165.462 282.971 164.581 281.438C164.32 281.242 161.448 278.339 151.071 278.339Z" fill="#E7839C"/>
<path d="M165.886 250.838C166.702 250.218 166.833 249.011 166.147 248.261C161.84 243.498 157.043 233.939 157.01 234.298C156.684 238.246 150.614 236.973 144.741 240.007C141.249 241.802 141.086 244.575 141.51 246.532C141.64 247.152 140.988 247.674 140.4 247.38C138.834 246.565 136.778 246.271 135.865 249.598C134.853 253.317 139.944 257.656 143.076 258.244C142.881 259.124 140.857 267.933 138.345 278.111C137.855 280.134 132.699 281.928 132.699 281.928C149.635 289.268 157.957 286.234 160.274 281.797L160.828 280.753C161.383 279.677 160.828 278.339 159.686 277.98L156.978 277.165C154.693 276.317 153.78 274.131 153.682 271.913L153.812 264.116C155.15 264.638 156.749 265.16 158.055 265.257C160.6 265.486 162.786 264.018 163.537 261.538C164.548 258.146 164.744 254.916 164.157 252.208L165.886 250.838Z" fill="white"/>
<path d="M150.191 287.115C145.687 287.115 139.814 285.842 132.406 282.613C132.112 282.482 131.949 282.189 131.949 281.895C131.949 281.601 132.145 281.308 132.439 281.21C134.429 280.525 137.334 279.057 137.595 277.915C139.814 268.976 141.641 261.179 142.163 258.765C139.944 258.048 137.366 256.058 136.028 253.905C135.049 252.339 134.723 250.773 135.115 249.37C135.539 247.771 136.289 246.76 137.334 246.303C138.313 245.879 139.455 246.01 140.76 246.695C140.368 244.835 140.303 241.443 144.415 239.322C146.862 238.05 149.375 237.495 151.398 237.071C154.596 236.386 156.13 235.962 156.293 234.233C156.326 233.907 156.554 233.613 156.88 233.548C157.468 233.417 157.5 233.45 158.708 235.603C160.339 238.441 163.7 244.379 166.735 247.739C167.192 248.261 167.421 248.946 167.355 249.631C167.29 250.349 166.931 251.001 166.376 251.425L164.973 252.502C165.495 255.275 165.234 258.439 164.255 261.767C163.407 264.572 160.894 266.269 157.99 266.008C157.076 265.91 155.934 265.649 154.563 265.159L154.433 271.88C154.498 273.185 154.922 275.566 157.239 276.414L159.915 277.23C160.698 277.458 161.318 278.013 161.612 278.763C161.906 279.514 161.873 280.329 161.514 281.047L160.959 282.091C159.458 284.994 155.967 287.115 150.191 287.115ZM134.658 281.928C149.636 287.995 157.435 285.549 159.589 281.438L160.144 280.394C160.307 280.068 160.339 279.709 160.176 279.383C160.046 279.057 159.752 278.796 159.426 278.698L156.717 277.882C154.4 277.034 153.03 274.848 152.899 271.945L153.03 264.115C153.03 263.854 153.16 263.626 153.356 263.496C153.552 263.365 153.813 263.333 154.041 263.43C155.738 264.083 157.076 264.442 158.088 264.54C160.274 264.735 162.134 263.496 162.754 261.343C163.733 258.113 163.929 254.981 163.342 252.371C163.276 252.078 163.374 251.784 163.603 251.621L165.365 250.251C165.593 250.088 165.724 249.794 165.756 249.533C165.789 249.239 165.691 248.978 165.495 248.783C162.33 245.292 158.904 239.257 157.272 236.353C157.207 236.255 157.174 236.158 157.109 236.06C156.13 237.56 153.976 238.017 151.594 238.539C149.571 238.996 147.254 239.485 144.97 240.66C142.522 241.932 141.576 243.857 142.13 246.369C142.261 246.956 142.033 247.543 141.576 247.902C141.086 248.261 140.466 248.326 139.944 248.032C139.063 247.576 138.345 247.478 137.823 247.706C137.236 247.967 136.779 248.652 136.485 249.794C136.159 251.034 136.681 252.306 137.236 253.122C138.671 255.405 141.413 257.167 143.142 257.493C143.338 257.526 143.501 257.656 143.632 257.819C143.729 257.982 143.795 258.178 143.729 258.406C143.566 259.255 141.51 268.03 138.998 278.306C138.671 279.872 136.387 281.177 134.658 281.928Z" fill="#D03660"/>
<path d="M153.781 264.867C153.683 264.867 153.552 264.834 153.455 264.801L151.497 263.888C151.105 263.724 150.942 263.268 151.138 262.876C151.301 262.484 151.758 262.321 152.149 262.517L154.107 263.431C154.499 263.594 154.662 264.051 154.466 264.442C154.336 264.703 154.075 264.867 153.781 264.867Z" fill="#D03660"/>
<path d="M238.752 316.704C233.727 320.358 216.53 322.478 216.53 322.478C216.53 322.478 221.686 316.084 222.665 311.941C223.676 307.798 219.01 313.311 212.744 315.953C206.479 318.596 203.934 326.099 203.934 326.099C193.132 330.438 173.292 338.104 169.474 340.29C164.318 343.226 152.016 347.271 152.016 347.271C151.102 338.072 143.14 302.97 141.116 297.978C139.093 293.02 130.185 289.203 122.777 293.183C112.531 298.696 122.222 323.946 129.826 350.436C134.459 366.617 140.072 373.5 143.76 376.436C145.913 378.165 148.883 378.426 151.33 377.187C155.54 375.066 161.283 370.956 165.003 368.183C167.288 366.454 201.976 341.106 206.74 337.582L210.884 335.788C210.884 335.788 222.045 336.18 232.585 331.58C243.125 327.013 243.745 313.05 238.752 316.704Z" fill="white"/>
<path d="M148.099 378.687C146.369 378.687 144.673 378.133 143.269 377.023C139.354 373.924 133.741 366.845 129.107 350.664C127.965 346.717 126.79 342.769 125.648 338.952C118.958 316.736 113.182 297.521 122.417 292.53C126.137 290.54 130.641 290.214 134.785 291.714C138.146 292.921 140.789 295.172 141.801 297.684C143.759 302.513 151.362 335.886 152.668 346.227C155.572 345.249 164.905 342.019 169.114 339.605C172.051 337.941 183.962 333.211 194.502 329.035C197.733 327.763 200.768 326.556 203.346 325.512C203.966 323.881 206.739 317.682 212.45 315.268C214.93 314.224 217.116 312.724 218.879 311.549C221.065 310.049 222.174 309.331 223.023 309.918C223.708 310.375 223.578 311.288 223.382 312.136C222.631 315.203 219.825 319.346 218.193 321.499C222.697 320.847 234.379 318.922 238.262 316.116C239.6 315.138 240.546 315.301 241.134 315.594C242.08 316.116 242.57 317.389 242.504 319.183C242.341 322.837 239.665 329.329 232.878 332.265C222.892 336.604 212.515 336.571 211.014 336.538L207.098 338.235C200.376 343.161 167.646 367.106 165.427 368.77C161.446 371.771 155.8 375.751 151.623 377.872C150.514 378.394 149.306 378.687 148.099 378.687ZM129.433 292.269C127.214 292.269 125.061 292.791 123.103 293.835C114.945 298.239 120.557 316.899 127.051 338.496C128.193 342.313 129.401 346.26 130.51 350.207C135.046 365.997 140.43 372.848 144.183 375.816C146.076 377.317 148.752 377.578 150.938 376.469C155.017 374.414 160.565 370.466 164.513 367.53C166.732 365.866 199.691 341.758 206.25 336.93C206.282 336.897 206.348 336.865 206.413 336.832L210.557 335.038C210.655 335.005 210.786 334.972 210.884 334.972C210.981 334.972 222.011 335.299 232.258 330.829C238.425 328.154 240.84 322.315 241.003 319.052C241.068 317.78 240.742 317.03 240.416 316.834C240.155 316.704 239.698 316.834 239.143 317.226C234.02 320.945 217.28 323.032 216.594 323.13C216.301 323.163 216.007 323.032 215.844 322.739C215.681 322.478 215.713 322.152 215.909 321.891C215.974 321.825 220.967 315.562 221.913 311.647C221.946 311.484 221.979 311.321 222.011 311.223C221.456 311.484 220.51 312.136 219.727 312.658C217.997 313.833 215.648 315.431 213.037 316.541C207.164 319.02 204.651 326.164 204.651 326.23C204.586 326.425 204.422 326.588 204.227 326.686C201.583 327.763 198.418 329.002 195.057 330.34C185.104 334.287 172.704 339.213 169.865 340.812C164.709 343.748 152.765 347.695 152.243 347.859C152.015 347.924 151.786 347.891 151.591 347.761C151.395 347.63 151.264 347.434 151.264 347.206C150.351 338.17 142.421 303.067 140.398 298.141C139.549 296.021 137.167 294.063 134.263 293.019C132.664 292.563 131.032 292.269 129.433 292.269Z" fill="#D03660"/>
<path d="M269.036 293.379L265.055 292.106C261.596 290.997 259.181 287.833 259.084 284.211L258.398 261.767H258.17C262.64 261.506 266.1 257.754 265.969 253.285L264.566 206.634C264.533 205.949 263.978 205.394 263.293 205.427L248.576 205.884C247.891 205.916 247.336 206.471 247.369 207.156L247.401 208.428L247.695 218.607L248.739 253.807C248.87 258.309 252.557 261.832 257.028 261.832H256.799L257.485 284.277C257.582 287.898 255.396 291.225 252.002 292.53L248.086 294.031C247.858 294.129 247.728 294.325 247.728 294.586C247.728 294.912 247.989 295.14 248.315 295.14L268.808 294.52C269.134 294.52 269.363 294.259 269.363 293.933C269.428 293.64 269.265 293.444 269.036 293.379Z" fill="white"/>
<path d="M248.38 295.858C247.662 295.858 247.075 295.303 247.042 294.585C247.009 294.031 247.368 293.509 247.89 293.313L251.806 291.812C254.906 290.638 256.897 287.604 256.799 284.309L256.146 262.55C251.676 262.093 248.184 258.439 248.054 253.839L246.65 207.189C246.65 206.667 246.814 206.145 247.205 205.753C247.564 205.362 248.054 205.133 248.608 205.133L263.326 204.677C264.435 204.644 265.349 205.525 265.381 206.601L266.785 253.252C266.915 257.852 263.652 261.701 259.214 262.419L259.866 284.179C259.964 287.474 262.151 290.377 265.316 291.388L269.297 292.661C269.819 292.824 270.211 293.313 270.211 293.9C270.244 294.618 269.656 295.238 268.938 295.27L248.445 295.89C248.38 295.858 248.38 295.858 248.38 295.858ZM257.647 262.321L258.3 284.244C258.431 288.191 256.016 291.812 252.328 293.215L249.391 294.324L267.796 293.77L264.827 292.824C261.074 291.617 258.463 288.191 258.333 284.244L257.647 262.321C257.68 262.321 257.68 262.321 257.647 262.321ZM257.093 261.049C257.289 261.049 257.484 261.147 257.615 261.277C257.745 261.147 257.941 261.049 258.137 261.016C262.249 260.788 265.349 257.395 265.218 253.285L263.815 206.634C263.815 206.373 263.587 206.145 263.293 206.145L248.576 206.601C248.445 206.601 248.315 206.667 248.217 206.764C248.119 206.862 248.086 206.993 248.086 207.123L249.489 253.774C249.62 257.852 252.916 261.049 256.995 261.049C257.093 261.049 257.093 261.049 257.093 261.049Z" fill="#D03660"/>
<path d="M263.915 231.982C260.75 230.416 257.911 229.796 255.463 229.633C253.407 229.503 251.449 229.698 249.557 230.09L250.242 253.415C250.372 257.363 253.668 260.462 257.617 260.331C261.565 260.201 264.665 256.906 264.535 252.959L263.915 231.982Z" fill="#D03660"/>
<path d="M257.387 261.114C253.145 261.114 249.62 257.721 249.49 253.448L248.805 230.122C248.805 229.763 249.033 229.437 249.425 229.372C251.644 228.915 253.634 228.785 255.527 228.915C258.464 229.111 261.401 229.926 264.24 231.362C264.501 231.492 264.664 231.721 264.664 232.014L265.284 253.024C265.349 255.144 264.599 257.134 263.13 258.667C261.694 260.201 259.737 261.081 257.615 261.147C257.55 261.114 257.452 261.114 257.387 261.114ZM250.306 230.709L250.991 253.382C251.089 256.906 254.026 259.679 257.583 259.581C259.28 259.515 260.879 258.83 262.053 257.558C263.228 256.318 263.848 254.687 263.783 252.991L263.163 232.438C260.618 231.231 258.007 230.514 255.396 230.351C253.83 230.285 252.133 230.383 250.306 230.709Z" fill="#D03660"/>
<path d="M253.34 269.466L262.184 270.086L261.759 270.934C261.074 272.337 259.867 273.413 258.398 273.935C257.028 274.392 255.331 275.305 254.189 277.002C252.068 280.199 247.336 279.481 247.336 279.481L253.34 269.466Z" fill="white"/>
<path d="M248.903 280.46C248.185 280.46 247.695 280.394 247.63 280.394C247.206 280.329 246.945 279.938 247.01 279.546C247.075 279.122 247.467 278.861 247.858 278.926C247.891 278.926 252.133 279.514 253.961 276.773C255.233 274.881 257.159 273.902 258.529 273.413C259.769 272.989 260.781 272.108 261.368 270.966L253.634 270.412C253.21 270.379 252.916 270.02 252.949 269.596C252.982 269.172 253.341 268.878 253.765 268.911L262.608 269.531C262.869 269.564 263.098 269.694 263.196 269.89C263.326 270.118 263.326 270.379 263.228 270.607L262.804 271.456C262.021 273.054 260.683 274.261 259.019 274.816C257.844 275.207 256.245 276.023 255.201 277.589C253.569 280.068 250.6 280.46 248.903 280.46Z" fill="#D03660"/>
<path d="M325.718 291.421L325.653 291.323C319.322 280.982 320.693 257.917 320.693 257.917L315.928 255.895V255.634L315.635 255.764L315.341 255.634V255.895L310.577 257.917C310.577 257.917 311.98 280.982 305.617 291.323L305.551 291.421C301.081 297.946 298.666 305.71 298.666 313.67V361.985C298.666 365.508 301.472 368.379 304.899 368.379H315.309H315.896H326.306C329.765 368.379 332.538 365.508 332.538 361.985V313.67C332.604 305.743 330.189 297.946 325.718 291.421Z" fill="white"/>
<path d="M326.337 369.161H304.931C301.08 369.161 297.947 365.964 297.947 362.017V313.702C297.947 305.547 300.362 297.685 304.963 291.029L305.029 290.932C311.163 280.949 309.858 258.243 309.858 258.015C309.825 257.689 310.021 257.395 310.315 257.265L314.655 255.405C314.72 255.275 314.818 255.144 314.949 255.046C315.144 254.916 315.438 254.883 315.667 254.981C315.895 254.883 316.156 254.916 316.385 255.046C316.515 255.144 316.613 255.275 316.678 255.405L321.018 257.265C321.312 257.395 321.508 257.689 321.475 258.015C321.475 258.243 320.17 280.949 326.337 290.964L326.37 291.029C330.971 297.717 333.386 305.547 333.386 313.702V362.017C333.353 365.964 330.221 369.161 326.337 369.161ZM311.359 258.439C311.522 262.06 312.208 282.091 306.269 291.747L306.203 291.878C301.798 298.304 299.448 305.84 299.448 313.702V362.017C299.448 365.116 301.896 367.661 304.931 367.661H326.337C329.372 367.661 331.82 365.149 331.82 362.017V313.702C331.82 305.84 329.47 298.304 325.065 291.878L324.999 291.78C319.06 282.091 319.713 262.06 319.876 258.439L315.601 256.612L311.359 258.439Z" fill="#D03660"/>
<path d="M322.586 244.183C322.586 242.976 321.444 242.291 320.236 242.291H309.892C308.717 242.291 307.51 242.976 307.51 244.183V258.7C307.51 259.907 308.685 260.364 309.892 260.364H320.236C321.411 260.364 322.586 259.907 322.586 258.7V244.183Z" fill="#D03660"/>
<path d="M315.633 349.49C321.129 349.49 325.585 341.092 325.585 330.732C325.585 320.372 321.129 311.973 315.633 311.973C310.136 311.973 305.68 320.372 305.68 330.732C305.68 341.092 310.136 349.49 315.633 349.49Z" fill="#D03660"/>
<path d="M332.341 319.085H298.469V341.66H332.341V319.085Z" fill="#D03660"/>
<path d="M177.635 41.4312C177.407 41.4312 177.146 41.3007 177.015 41.1049C176.787 40.7461 176.885 40.2893 177.211 40.061C177.798 39.6695 236.83 0.391475 293.415 0C293.839 0 294.165 0.326226 294.165 0.750324C294.165 1.17442 293.839 1.50066 293.415 1.50066C237.287 1.85951 178.614 40.9092 178.027 41.3007C177.929 41.3985 177.798 41.4312 177.635 41.4312Z" fill="#D03660"/>
<path d="M147.972 48.6735C147.744 48.6735 147.548 48.5756 147.385 48.3798C147.124 48.0536 147.157 47.5969 147.483 47.3359C191.961 11.2223 232.914 2.9687 233.306 2.90345C233.73 2.83821 234.122 3.0992 234.187 3.49067C234.252 3.91477 233.991 4.30624 233.6 4.37149C233.208 4.43673 192.613 12.6577 148.429 48.5103C148.299 48.6408 148.136 48.6735 147.972 48.6735Z" fill="#D03660"/>
<path d="M131.362 63.941C130.252 63.941 129.176 63.5822 128.294 62.8971C127.25 62.0815 126.565 60.9071 126.402 59.5695C126.239 58.232 126.598 56.9271 127.413 55.8832C128.229 54.8392 129.404 54.1541 130.742 53.991C132.08 53.8279 133.385 54.1868 134.429 55.0023C135.474 55.8179 136.159 56.9923 136.322 58.3299C136.648 61.0702 134.723 63.5822 131.982 63.9084C131.786 63.9084 131.558 63.941 131.362 63.941ZM131.362 55.4264C131.231 55.4264 131.068 55.4264 130.938 55.4591C130.024 55.5896 129.176 56.0463 128.621 56.7966C128.033 57.5469 127.805 58.4604 127.903 59.3738C128.033 60.2873 128.49 61.1354 129.241 61.69C129.991 62.2772 130.905 62.5056 131.819 62.4077C133.744 62.1794 135.082 60.4177 134.854 58.493C134.723 57.5795 134.266 56.7314 133.516 56.1768C132.896 55.6874 132.145 55.4264 131.362 55.4264Z" fill="#D03660"/>
<path d="M598.625 274.653C596.145 274.653 593.991 272.793 593.665 270.281C593.339 267.541 595.264 265.029 598.005 264.703C600.746 264.377 603.259 266.301 603.585 269.042C603.911 271.782 601.986 274.294 599.245 274.62C599.049 274.62 598.821 274.653 598.625 274.653ZM598.625 266.138C598.495 266.138 598.331 266.138 598.201 266.171C596.275 266.399 594.938 268.161 595.166 270.086C595.394 272.01 597.157 273.348 599.082 273.119C601.007 272.891 602.345 271.129 602.117 269.205C601.888 267.443 600.387 266.138 598.625 266.138Z" fill="#D03660"/>
<path d="M570.43 220.728C570.006 220.728 569.68 220.401 569.68 219.977L569.712 216.29C569.712 215.866 570.039 215.507 570.463 215.54C570.887 215.54 571.213 215.866 571.213 216.29L571.181 219.977C571.181 220.369 570.822 220.728 570.43 220.728Z" fill="#D03660"/>
<path d="M570.333 233.679C569.908 233.679 569.582 233.32 569.582 232.928L569.615 229.242C569.615 228.817 569.941 228.491 570.365 228.491C570.789 228.491 571.116 228.85 571.116 229.242L571.083 232.928C571.083 233.32 570.724 233.679 570.333 233.679Z" fill="#D03660"/>
<path d="M565.764 225.327H562.044C561.619 225.327 561.293 225.001 561.293 224.577C561.293 224.152 561.619 223.826 562.044 223.826H565.731C566.155 223.826 566.482 224.152 566.482 224.577C566.514 225.001 566.155 225.327 565.764 225.327Z" fill="#D03660"/>
<path d="M578.719 225.36H574.999C574.574 225.36 574.248 225.034 574.248 224.609C574.248 224.185 574.574 223.859 574.999 223.859H578.686C579.11 223.859 579.437 224.185 579.437 224.609C579.469 225.001 579.143 225.36 578.719 225.36Z" fill="#D03660"/>
<path d="M354.957 22.8692C354.761 22.8692 354.566 22.8039 354.435 22.6408C354.141 22.3471 354.141 21.8577 354.435 21.5641L357.405 18.6277C357.698 18.3341 358.188 18.3341 358.482 18.6277C358.775 18.9214 358.775 19.4108 358.482 19.7044L355.512 22.6408C355.349 22.8039 355.153 22.8692 354.957 22.8692Z" fill="#D03660"/>
<path d="M344.58 33.1127C344.384 33.1127 344.189 33.0474 344.058 32.8843C343.764 32.5906 343.764 32.1012 344.058 31.8076L347.028 28.8712C347.321 28.5776 347.811 28.5776 348.105 28.8712C348.398 29.1649 348.398 29.6543 348.105 29.9479L345.135 32.8843C344.939 33.0148 344.776 33.1127 344.58 33.1127Z" fill="#D03660"/>
<path d="M347.584 22.8365C347.388 22.8365 347.192 22.7712 347.061 22.6081L344.125 19.6717C343.831 19.3781 343.831 18.8887 344.125 18.595C344.418 18.3014 344.908 18.3014 345.201 18.595L348.138 21.5314C348.432 21.8251 348.432 22.3144 348.138 22.6081C347.943 22.7712 347.779 22.8365 347.584 22.8365Z" fill="#D03660"/>
<path d="M357.863 33.1454C357.667 33.1454 357.471 33.0801 357.341 32.917L354.404 29.9806C354.11 29.687 354.11 29.1976 354.404 28.904C354.698 28.6103 355.187 28.6103 355.481 28.904L358.418 31.8403C358.711 32.134 358.711 32.6234 358.418 32.917C358.254 33.0801 358.059 33.1454 357.863 33.1454Z" fill="#D03660"/>
<path d="M50.3674 226.306C50.1716 226.306 49.9758 226.241 49.8453 226.078C49.5516 225.784 49.5516 225.294 49.8453 225.001L52.8148 222.065C53.1085 221.771 53.598 221.771 53.8917 222.065C54.1854 222.358 54.1854 222.848 53.8917 223.141L50.9221 226.078C50.7263 226.241 50.5632 226.306 50.3674 226.306Z" fill="#D03660"/>
<path d="M39.9904 236.55C39.7946 236.55 39.5988 236.484 39.4683 236.321C39.1746 236.027 39.1746 235.538 39.4683 235.244L42.4379 232.308C42.7316 232.014 43.221 232.014 43.5147 232.308C43.8084 232.602 43.8084 233.091 43.5147 233.385L40.5452 236.321C40.3494 236.484 40.1536 236.55 39.9904 236.55Z" fill="#D03660"/>
<path d="M42.9937 226.273C42.7979 226.273 42.6022 226.208 42.4716 226.045L39.5347 223.109C39.241 222.815 39.241 222.325 39.5347 222.032C39.8284 221.738 40.3179 221.738 40.6116 222.032L43.5485 224.968C43.8422 225.262 43.8422 225.751 43.5485 226.045C43.3527 226.208 43.1569 226.273 42.9937 226.273Z" fill="#D03660"/>
<path d="M53.273 236.615C53.0772 236.615 52.8815 236.549 52.7509 236.386L49.814 233.45C49.5203 233.156 49.5203 232.667 49.814 232.373C50.1077 232.08 50.5972 232.08 50.8909 232.373L53.8278 235.31C54.1215 235.603 54.1215 236.093 53.8278 236.386C53.6646 236.517 53.4688 236.615 53.273 236.615Z" fill="#D03660"/>
<defs>
<linearGradient id="paint0_linear_700_26052" x1="581.15" y1="607.06" x2="-71.3841" y2="-82.3389" gradientUnits="userSpaceOnUse">
<stop stop-color="#F6D7DF" stop-opacity="0"/>
<stop offset="1" stop-color="#F6D7DF"/>
</linearGradient>
<radialGradient id="paint1_radial_700_26052" cx="0" cy="0" r="1" gradientUnits="userSpaceOnUse" gradientTransform="translate(397.944 549.142) scale(149.738 2113.6)">
<stop stop-color="#D33753"/>
<stop offset="0.528348" stop-color="#D13660"/>
<stop offset="1" stop-color="#C72D65"/>
</radialGradient>
<radialGradient id="paint2_radial_700_26052" cx="0" cy="0" r="1" gradientUnits="userSpaceOnUse" gradientTransform="translate(395.928 556.776) scale(214.794 2364.88)">
<stop stop-color="#D33753"/>
<stop offset="0.528348" stop-color="#D13660"/>
<stop offset="1" stop-color="#C72D65"/>
</radialGradient>
</defs>
</svg>
