<?xml version="1.0" encoding="UTF-8"?>
<svg version="1.1" xmlns="http://www.w3.org/2000/svg" width="512" height="512">
<path d="M0 0 C1.22818451 -0.0112793 2.45636902 -0.02255859 3.72177124 -0.03417969 C5.07989738 -0.02640274 6.43802119 -0.01821008 7.79614258 -0.00964355 C9.22865511 -0.01506461 10.66116206 -0.02218719 12.09365845 -0.03088379 C15.98213489 -0.04912236 19.87018692 -0.04204767 23.75867081 -0.02936745 C27.82740678 -0.01924243 31.89610635 -0.02863173 35.96484375 -0.03491211 C42.79767381 -0.04218999 49.63033095 -0.0325972 56.46313477 -0.0135498 C64.36354143 0.00821932 72.26353519 0.00116804 80.16393185 -0.02085543 C86.94622044 -0.0390055 93.72838471 -0.04156971 100.51068974 -0.03110075 C104.56183198 -0.02486361 108.61278013 -0.0240361 112.66390991 -0.0372467 C116.47257191 -0.04879901 120.28070143 -0.04079149 124.08930588 -0.01766968 C125.48731985 -0.01237917 126.88537861 -0.0139023 128.28337479 -0.02272034 C130.19101617 -0.03364394 132.09875544 -0.01751878 134.00634766 0 C135.07411942 0.0015081 136.14189117 0.0030162 137.24201965 0.00457001 C140.69731995 0.63447896 141.8545104 1.78326694 144.00317383 4.50793457 C145.45562751 8.5021822 145.17504879 10.11938515 143.44458008 14.03137207 C140.65284468 19.38699611 137.28400842 24.36098057 133.94067383 29.38293457 C129.32766668 36.38058001 124.77294771 43.39520813 120.44067383 50.57043457 C114.71731286 60.03894785 108.77020954 69.35938385 102.81030273 78.68029785 C99.82703231 83.3482576 96.85242684 88.02172586 93.87817383 92.69543457 C93.29720947 93.60817139 92.71624512 94.5209082 92.11767578 95.46130371 C86.88293183 103.68921915 81.67333121 111.93287209 76.47094727 120.18127441 C73.48815289 124.90948972 70.50216059 129.63568714 67.51586914 134.36169434 C64.93786438 138.44212647 62.36275643 142.52434504 59.79223633 146.60949707 C59.26243164 147.45061035 58.73262695 148.29172363 58.18676758 149.1583252 C57.18580938 150.74756584 56.18573313 152.33736251 55.18676758 153.92785645 C52.78127834 157.74497032 50.33634992 161.52982754 47.82885742 165.28088379 C47.29714935 166.07678925 46.76544128 166.8726947 46.21762085 167.69271851 C45.81685333 168.29173981 45.41608582 168.89076111 45.00317383 169.50793457 C46.25740646 169.51380081 47.5116391 169.51966705 48.80387878 169.52571106 C60.6195125 169.58290535 72.43496159 169.65564989 84.25040722 169.74364948 C90.32496504 169.78839124 96.3994552 169.82763914 102.47412109 169.85437012 C108.3356892 169.88036487 114.19699745 169.92074053 120.05840492 169.97112083 C122.2954822 169.98781539 124.53260445 169.99931351 126.76973534 170.00554848 C129.90145533 170.0151612 133.03250663 170.04318741 136.1640625 170.07556152 C137.09051071 170.07412643 138.01695892 170.07269135 138.97148132 170.07121277 C143.80137275 170.14189992 147.08059668 170.36658711 151.00317383 173.50793457 C153.19836211 176.20202928 152.99672359 177.7002323 152.87817383 181.23449707 C152.20348461 186.09875321 149.92785654 188.71212444 146.62817383 192.19543457 C145.52988501 193.41361456 144.4322431 194.63237805 143.33520508 195.85168457 C142.77784668 196.46012207 142.22048828 197.06855957 141.64624023 197.69543457 C139.13167641 200.46930111 136.72327866 203.32880895 134.31567383 206.19543457 C133.86071533 206.7332959 133.40575684 207.27115723 132.93701172 207.82531738 C130.11078045 211.17017456 127.32787141 214.54733539 124.56567383 217.94543457 C120.15404328 223.36364036 115.60993741 228.66064307 111.05395508 233.95715332 C104.80890062 241.2182446 98.60686233 248.51346886 92.56567383 255.94543457 C88.15404328 261.36364036 83.60993741 266.66064307 79.05395508 271.95715332 C72.80890062 279.2182446 66.60686233 286.51346886 60.56567383 293.94543457 C56.15404328 299.36364036 51.60993741 304.66064307 47.05395508 309.95715332 C40.80890062 317.2182446 34.60686233 324.51346886 28.56567383 331.94543457 C24.15404328 337.36364036 19.60993741 342.66064307 15.05395508 347.95715332 C8.80890062 355.2182446 2.60686233 362.51346886 -3.43432617 369.94543457 C-7.84595672 375.36364036 -12.39006259 380.66064307 -16.94604492 385.95715332 C-23.19109938 393.2182446 -29.39313767 400.51346886 -35.43432617 407.94543457 C-39.84595672 413.36364036 -44.39006259 418.66064307 -48.94604492 423.95715332 C-55.19109938 431.2182446 -61.39313767 438.51346886 -67.43432617 445.94543457 C-71.84595672 451.36364036 -76.39006259 456.66064307 -80.94604492 461.95715332 C-87.19109938 469.2182446 -93.39313767 476.51346886 -99.43432617 483.94543457 C-104.39449417 490.0365565 -109.5064062 495.99290505 -114.64135742 501.93664551 C-115.84723499 503.33452519 -117.04743759 504.73729585 -118.24682617 506.14074707 C-119.17495117 507.21969238 -119.17495117 507.21969238 -120.12182617 508.32043457 C-120.6400293 508.92500488 -121.15823242 509.5295752 -121.69213867 510.15246582 C-124.03322816 512.58467556 -126.11572775 512.74230573 -129.37182617 512.88293457 C-132.89298915 512.83190322 -133.71187724 512.73728371 -136.55932617 510.44543457 C-138.7366894 505.99604014 -138.70938959 502.62575666 -137.15625 498.00964355 C-135.87445372 494.89469108 -134.51083778 491.82661391 -133.12182617 488.75793457 C-132.01017177 486.23416495 -130.90097457 483.70940223 -129.79370117 481.18371582 C-129.4939035 480.50337784 -129.19410583 479.82303986 -128.88522339 479.12208557 C-125.32045921 471.01584827 -121.91616677 462.84292746 -118.50799561 454.66992188 C-117.35865856 451.91385919 -116.20754265 449.15854581 -115.0559082 446.40344238 C-113.48455207 442.64407122 -111.91378403 438.88445533 -110.34350586 435.12463379 C-106.9391418 426.97471244 -103.5274255 418.82786953 -100.11605835 410.68087769 C-98.24148738 406.20403931 -96.3671447 401.72710539 -94.49291992 397.25012207 C-94.12143326 396.36275864 -93.74994659 395.4753952 -93.36720276 394.56114197 C-91.12597663 389.20701563 -88.88621316 383.85228005 -86.64761353 378.49705505 C-77.71287181 357.1234039 -68.74481029 335.76433287 -59.71582031 314.43029785 C-54.09471074 301.14279473 -48.53431234 287.83049406 -42.99682617 274.50793457 C-44.07566574 274.51237579 -45.15450531 274.51681702 -46.26603699 274.52139282 C-56.43332248 274.56193708 -66.60059157 274.59191812 -76.76793957 274.61155891 C-81.9950669 274.62199587 -87.22212897 274.63615357 -92.44921875 274.65881348 C-97.49368748 274.68054484 -102.53809343 274.69250386 -107.58260536 274.69768906 C-109.50712383 274.70138427 -111.43163886 274.70860006 -113.3561306 274.71939468 C-116.05178629 274.73391342 -118.74718259 274.73591234 -121.44287109 274.73498535 C-122.23840897 274.7421759 -123.03394684 274.74936646 -123.85359192 274.7567749 C-129.4975727 274.73577469 -133.1844369 274.17724048 -137.37182617 270.32043457 C-139.12394034 267.28792928 -139.17050532 265.9876002 -138.57875502 262.61364305 C-137.34431691 258.14683101 -135.12886186 254.09370615 -133.04411316 249.97431946 C-132.5233863 248.92577134 -132.00265943 247.87722323 -131.46615297 246.79690093 C-130.02394478 243.89795589 -128.57288229 241.00365145 -127.11789405 238.11110604 C-125.54892769 234.98656282 -123.99151024 231.85626969 -122.43260193 228.72669983 C-119.3790742 222.60127617 -116.31482543 216.48127691 -113.24676796 210.36312012 C-110.75364104 205.39089672 -108.26457828 200.41665858 -105.77840614 195.44095421 C-105.42445029 194.73256505 -105.07049443 194.0241759 -104.70581264 193.2943204 C-103.98676953 191.85520784 -103.26773803 190.41608949 -102.54871801 188.97696539 C-96.19214795 176.25526004 -89.82549682 163.53862607 -83.45361328 150.82458496 C-77.27065106 138.48750473 -71.09641508 126.14610577 -64.93115234 113.8001709 C-58.21660661 100.35432016 -51.49698176 86.91103004 -44.76872808 73.47203273 C-44.05137934 72.03917964 -43.33403447 70.60632461 -42.6166935 69.17346764 C-42.26374522 68.46848317 -41.91079694 67.7634987 -41.54715326 67.03715107 C-39.06003669 62.06852446 -36.57649058 57.0981229 -34.09425926 52.12705421 C-31.06967609 46.07015826 -28.03932415 40.0161904 -25.00158521 33.96588115 C-23.451789 30.87879132 -21.9045693 27.79048132 -20.36424255 24.69865417 C-18.69368578 21.34888324 -17.01340194 18.00417544 -15.33049011 14.66059875 C-14.84478222 13.6809422 -14.35907432 12.70128564 -13.858648 11.69194251 C-13.40542587 10.79654594 -12.95220374 9.90114937 -12.48524761 8.97861958 C-12.09847495 8.20626573 -11.71170228 7.43391188 -11.31320924 6.63815337 C-8.22100457 1.63423566 -5.87746679 0.00830123 0 0 Z M4.00317383 18.50793457 C-3.77688 33.2318342 -3.77688 33.2318342 -11.33743286 48.06216431 C-12.01791004 49.42077869 -12.01791004 49.42077869 -12.71213424 50.80683982 C-14.1892727 53.75721732 -15.66363319 56.70897299 -17.13793945 59.6607666 C-18.21312798 61.80978485 -19.288486 63.95871829 -20.36399841 66.10757446 C-23.25153377 71.87813285 -26.1365826 77.64993087 -29.02103662 83.42202997 C-30.82452225 87.03079114 -32.62886439 90.63912361 -34.43343735 94.24734116 C-34.88517656 95.15058974 -34.88517656 95.15058974 -35.34604182 96.07208576 C-35.95805771 97.29579777 -36.57007537 98.51950889 -37.1820948 99.74321912 C-42.88721009 111.15061459 -48.58989525 122.5592235 -54.29171763 133.96826516 C-59.18466741 143.75865209 -64.07973715 153.54797668 -68.97631836 163.33654785 C-74.67874427 174.73605526 -80.3798798 186.13620645 -86.07893741 197.53739822 C-86.68541415 198.75067024 -87.29189256 199.96394142 -87.89837265 201.17721176 C-88.19671079 201.77404232 -88.49504893 202.37087288 -88.80242763 202.98578922 C-90.90625442 207.19430679 -93.01100994 211.40235911 -95.1161232 215.61023331 C-97.93988633 221.25488436 -100.76171132 226.90049997 -103.58200264 232.54688644 C-104.6197983 234.6238061 -105.65828388 236.70038118 -106.69748878 238.77659607 C-108.10885377 241.5966181 -109.51778054 244.41784451 -110.92605591 247.2394104 C-111.34334808 248.07176401 -111.76064024 248.90411762 -112.19057763 249.76169407 C-114.12036411 252.99571778 -114.12036411 252.99571778 -114.99682617 256.50793457 C-113.87818176 256.5115802 -112.75953735 256.51522583 -111.60699463 256.51898193 C-101.07130648 256.55590294 -90.53591139 256.61364386 -80.00044632 256.69183731 C-74.58386258 256.7313678 -69.16744277 256.76352895 -63.75073242 256.77893066 C-58.52450994 256.79406052 -53.29873797 256.82844073 -48.07271576 256.87624359 C-46.07764346 256.89109532 -44.08250686 256.89897775 -42.08737946 256.89981842 C-39.29531161 256.90217843 -36.50449863 256.9291797 -33.71264648 256.96203613 C-32.88546112 256.95700577 -32.05827576 256.9519754 -31.20602417 256.9467926 C-27.63793974 257.01187372 -25.41534974 257.21684726 -22.44975281 259.27944946 C-20.32190989 262.54311476 -20.81895791 264.39240452 -21.42532349 268.10345459 C-22.35545373 272.01678624 -23.78995472 275.60283752 -25.39916992 279.28137207 C-25.74806778 280.10549591 -26.09696564 280.92961975 -26.45643616 281.77871704 C-27.60489738 284.48488284 -28.76966117 287.18370792 -29.93432617 289.88293457 C-30.75133972 291.80101886 -31.56707205 293.71964933 -32.3815918 295.63879395 C-34.07374348 299.62302285 -35.77136857 303.60485151 -37.47290039 307.58508301 C-40.98963981 315.82289935 -44.43905629 324.08869976 -47.88894653 332.35467529 C-49.75503573 336.82376949 -51.62620534 341.29073576 -53.49682617 345.75793457 C-54.24685012 347.54959121 -54.99685013 349.34125787 -55.74682617 351.13293457 C-57.24682617 354.7162679 -58.74682617 358.29960124 -60.24682617 361.88293457 C-60.80358032 363.21297516 -60.80358032 363.21297516 -61.37158203 364.56988525 C-62.12236363 366.36339646 -62.87317749 368.15689415 -63.62402344 369.95037842 C-65.48732828 374.40121413 -67.35009072 378.85227524 -69.21166992 383.30383301 C-72.72541331 391.70454019 -76.24488149 400.10272874 -79.78222656 408.49353027 C-81.45359316 412.45899211 -83.12205102 416.42567476 -84.7902832 420.39245605 C-85.58667959 422.28385719 -86.38450224 424.1746585 -87.18383789 426.06481934 C-88.29177984 428.68497769 -89.39479825 431.30715943 -90.49682617 433.92980957 C-90.82303955 434.69762756 -91.14925293 435.46544556 -91.48535156 436.25653076 C-93.31294593 440.62143773 -94.79037403 444.93095675 -95.99682617 449.50793457 C-88.6068582 442.35635266 -81.9745912 434.54601128 -75.51245117 426.55871582 C-72.56757565 422.98736833 -69.5396253 419.49581817 -66.49682617 416.00793457 C-62.00161885 410.85229394 -57.61058953 405.63282033 -53.30541992 400.31652832 C-50.07753264 396.38953855 -46.75451195 392.54711398 -43.43579102 388.69689941 C-40.42424587 385.19539204 -37.46616408 381.65997936 -34.55932617 378.07043457 C-30.41686238 372.96565614 -26.11563518 368.01170775 -21.79614258 363.05725098 C-17.87180959 358.54558724 -14.0624858 353.95458951 -10.29760742 349.30871582 C-6.6191023 344.83080721 -2.82642961 340.45194162 0.95239258 336.05871582 C7.1783975 328.81977333 13.36403623 321.54927548 19.37817383 314.13293457 C23.54473806 309.01059933 27.86518664 304.03376079 32.20361328 299.05749512 C36.12566923 294.548535 39.93349248 289.96095393 43.69458008 285.31652832 C46.92246736 281.38953855 50.24548805 277.54711398 53.56420898 273.69689941 C56.57575413 270.19539204 59.53383592 266.65997936 62.44067383 263.07043457 C66.58313762 257.96565614 70.88436482 253.01170775 75.20385742 248.05725098 C79.12819041 243.54558724 82.9375142 238.95458951 86.70239258 234.30871582 C90.3808977 229.83080721 94.17357039 225.45194162 97.95239258 221.05871582 C102.67154061 215.57178775 107.35271448 210.05318354 112.00317383 204.50793457 C112.4332373 203.99537109 112.86330078 203.48280762 113.30639648 202.95471191 C114.54313977 201.47619216 115.7732777 199.99215494 117.00317383 198.50793457 C117.70442383 197.66230957 118.40567383 196.81668457 119.12817383 195.94543457 C120.96656676 193.55552376 122.4746471 191.10297572 124.00317383 188.50793457 C122.11849396 188.49913521 122.11849396 188.49913521 120.19573975 188.49015808 C108.36507822 188.4329891 96.53460154 188.36025798 84.70412827 188.27221966 C78.62169464 188.22745836 72.53932889 188.18821485 66.45678711 188.16149902 C60.58873949 188.13552366 54.72095228 188.09516199 48.85306549 188.04474831 C46.61237065 188.02804056 44.37163073 188.01655069 42.13088226 188.01032066 C38.99656254 188.00072219 35.86291496 187.9727134 32.72875977 187.94030762 C31.79871628 187.94174271 30.86867279 187.9431778 29.91044617 187.94465637 C23.64439473 187.85280313 23.64439473 187.85280313 20.46173096 186.1410675 C18.11996077 183.51900907 17.93884336 182.04611017 18.00317383 178.50793457 C20.9737046 171.0629677 25.51263896 164.39336239 29.94067383 157.75793457 C31.28286495 155.72346754 32.62398523 153.6882937 33.96411133 151.65246582 C34.63925781 150.6284668 35.3144043 149.60446777 36.01000977 148.54943848 C39.07262486 143.87598688 42.0730916 139.1639357 45.06567383 134.44543457 C45.64003174 133.54059326 46.21438965 132.63575195 46.80615234 131.70349121 C47.96386571 129.8787972 49.12117531 128.05384695 50.27807617 126.2286377 C53.14021669 121.71467026 56.00895346 117.20490406 58.87817383 112.69543457 C59.7368103 111.34566528 59.7368103 111.34566528 60.61279297 109.96862793 C65.73955233 101.91351261 70.88789748 93.8722823 76.03735352 85.83166504 C80.41084702 79.00085583 84.77471875 72.16403161 89.12817383 65.32043457 C89.69358887 64.43178711 90.25900391 63.54313965 90.84155273 62.62756348 C93.79989167 57.97657105 96.75472854 53.32338166 99.70629883 48.66809082 C100.93007687 46.73959099 102.15403226 44.81120368 103.37817383 42.88293457 C104.2526416 41.50440308 104.2526416 41.50440308 105.14477539 40.09802246 C108.91053909 34.17769315 112.75726017 28.3283786 116.74536133 22.55480957 C118.1776915 20.62434602 118.1776915 20.62434602 118.00317383 18.50793457 C80.38317383 18.50793457 42.76317383 18.50793457 4.00317383 18.50793457 Z " fill="#000000" transform="translate(248.996826171875,-0.5079345703125)"/>
</svg>
