<svg xmlns="http://www.w3.org/2000/svg" width="512" height="512" viewBox="0 0 512 512" version="1.1"><path d="" stroke="none" fill="#080404" fill-rule="evenodd"/><path d="M 253.465 80.961 C 250.293 82.232, 249.302 83.925, 244.959 95.488 C 238.328 113.142, 238.078 113.453, 225.705 119.500 C 219.431 122.567, 217.299 124.142, 216.568 126.250 C 214.749 131.494, 216.692 134.078, 226.156 139 C 230.914 141.475, 235.739 144.346, 236.877 145.380 C 238.015 146.415, 240.596 151.590, 242.614 156.880 C 249.335 174.509, 249.980 175.749, 253.086 177.036 C 255.362 177.978, 256.638 177.978, 258.914 177.036 C 262.020 175.749, 262.665 174.509, 269.386 156.880 C 271.404 151.590, 273.985 146.415, 275.123 145.380 C 276.261 144.346, 281.086 141.475, 285.844 139 C 295.301 134.082, 297.244 131.501, 295.443 126.250 C 294.712 124.119, 292.588 122.572, 286 119.375 C 281.325 117.107, 276.449 114.112, 275.165 112.721 C 273.881 111.329, 270.617 104.421, 267.911 97.369 C 265.206 90.317, 262.206 83.796, 261.246 82.878 C 258.950 80.683, 255.983 79.952, 253.465 80.961 M 253.658 116.045 C 252.646 118.241, 249.681 122.104, 247.069 124.630 L 242.322 129.221 247.005 133.601 C 249.581 136.011, 252.502 139.786, 253.496 141.991 C 254.490 144.196, 255.617 146, 256 146 C 256.383 146, 257.510 144.196, 258.504 141.991 C 259.498 139.786, 262.419 136.011, 264.995 133.601 L 269.678 129.221 264.931 124.630 C 262.319 122.104, 259.354 118.241, 258.342 116.045 C 257.329 113.849, 256.275 112.052, 256 112.052 C 255.725 112.052, 254.671 113.849, 253.658 116.045 M 84.247 135.250 C 83.091 136.488, 80.248 142.592, 77.928 148.817 C 72.133 164.368, 71.153 165.607, 59.991 171.500 C 44.894 179.470, 44.978 184.177, 60.353 192 C 65.219 194.475, 70.091 197.737, 71.181 199.248 C 72.272 200.760, 75.365 207.732, 78.054 214.741 C 80.743 221.751, 83.717 228.051, 84.663 228.743 C 87.431 230.767, 92.402 230.275, 94.694 227.750 C 95.818 226.512, 98.843 219.881, 101.416 213.014 C 103.989 206.147, 107.086 199.444, 108.297 198.120 C 109.509 196.796, 114.237 193.969, 118.806 191.839 C 125.508 188.713, 127.368 187.355, 128.441 184.803 C 130.843 179.091, 128.931 176.307, 119.606 171.935 C 115.148 169.846, 110.228 166.807, 108.673 165.182 C 106.935 163.367, 103.951 157.271, 100.929 149.365 C 98.181 142.173, 95.080 135.728, 93.896 134.750 C 90.971 132.333, 86.769 132.550, 84.247 135.250 M 418.104 134.750 C 416.920 135.728, 413.819 142.173, 411.071 149.365 C 408.082 157.185, 405.046 163.401, 403.327 165.217 C 401.772 166.860, 396.805 169.921, 392.290 172.019 C 383.798 175.965, 382.078 178.066, 382.895 183.500 C 383.373 186.687, 384.772 187.797, 393.398 191.839 C 397.869 193.934, 402.658 196.994, 404.042 198.638 C 405.425 200.282, 408.524 206.999, 410.928 213.564 C 413.331 220.129, 416.209 226.512, 417.323 227.750 C 419.597 230.276, 424.567 230.768, 427.337 228.743 C 428.283 228.051, 431.257 221.751, 433.946 214.741 C 436.635 207.732, 439.728 200.760, 440.819 199.248 C 441.909 197.737, 446.781 194.475, 451.647 192 C 467.022 184.177, 467.106 179.470, 452.009 171.500 C 440.847 165.607, 439.867 164.368, 434.072 148.817 C 431.752 142.592, 428.909 136.488, 427.753 135.250 C 425.231 132.550, 421.029 132.333, 418.104 134.750 M 87.089 168.316 C 85.894 170.785, 82.781 174.802, 80.171 177.243 L 75.426 181.681 79.555 185.273 C 81.826 187.248, 84.967 191.316, 86.536 194.311 L 89.387 199.758 91.576 195.129 C 92.780 192.583, 95.847 188.490, 98.391 186.034 L 103.016 181.568 99.006 178.034 C 96.800 176.090, 93.706 172.099, 92.129 169.164 L 89.262 163.827 87.089 168.316 M 419.581 169.591 C 417.975 172.664, 414.925 176.573, 412.803 178.279 L 408.944 181.380 413.921 186.440 C 416.658 189.223, 419.729 193.368, 420.744 195.650 L 422.590 199.801 425.453 194.333 C 427.028 191.325, 430.174 187.248, 432.445 185.273 L 436.574 181.681 431.829 177.243 C 429.219 174.802, 426.125 170.824, 424.953 168.402 C 423.781 165.981, 422.749 164.001, 422.661 164.002 C 422.572 164.004, 421.186 166.519, 419.581 169.591 M 182 166.709 C 179.259 167.717, 177.121 170.174, 176.492 173.039 C 176.038 175.105, 175.105 176.038, 173.039 176.492 C 163.857 178.508, 164.656 192, 173.957 192 C 175.145 192, 175.950 193.002, 176.344 194.969 C 177.190 199.199, 180.370 202, 184.326 202 C 188.376 202, 192 198.546, 192 194.686 C 192 192.405, 192.426 192, 194.826 192 C 200.957 192, 204.365 183.365, 199.969 178.969 C 198.852 177.852, 196.602 176.670, 194.969 176.344 C 193.002 175.950, 192 175.145, 192 173.957 C 192 170.822, 190.837 168.967, 187.928 167.463 C 184.924 165.909, 184.368 165.839, 182 166.709 M 324.500 167.131 C 321.621 168.740, 320 171.058, 320 173.566 C 320 175.188, 319.235 175.903, 317.031 176.344 C 312.801 177.190, 310 180.370, 310 184.326 C 310 188.376, 313.454 192, 317.314 192 C 319.595 192, 320 192.426, 320 194.826 C 320 200.957, 328.635 204.365, 333.031 199.969 C 334.148 198.852, 335.330 196.602, 335.656 194.969 C 336.050 193.002, 336.855 192, 338.043 192 C 341.201 192, 343.036 190.831, 344.589 187.829 C 347.040 183.088, 344.354 177.676, 338.961 176.492 C 336.895 176.038, 335.962 175.105, 335.508 173.039 C 334.396 167.973, 328.578 164.851, 324.500 167.131 M 140 208.349 C 125.955 211.578, 119.736 217.668, 109.485 238.226 C 101.102 255.038, 100.378 258.579, 104.635 261.927 C 108.110 264.661, 111.542 264.548, 114.486 261.604 C 115.804 260.287, 120.022 252.940, 123.860 245.279 C 131.364 230.299, 135.059 225.911, 141.723 224.060 C 146.897 222.623, 149.994 222.734, 155.110 224.539 C 161.859 226.920, 164.617 230.343, 172.610 246.259 C 185.295 271.518, 189.910 274.838, 218.013 278.918 C 227.838 280.345, 233.945 281.760, 236.991 283.316 C 245.377 287.599, 250.002 299.328, 246.974 308.633 C 246.077 311.392, 241.897 316.392, 232.392 326.077 C 212.212 346.641, 211.006 350.394, 215.565 378.467 C 217.944 393.115, 218.198 396.387, 217.205 399.646 C 214.160 409.640, 206.733 415.414, 196.850 415.469 C 191.599 415.497, 189.743 414.792, 174.564 407 L 158.007 398.500 148.056 398.500 L 138.105 398.500 121.302 406.982 C 106.271 414.569, 103.920 415.462, 99 415.456 C 88.711 415.443, 79.371 407.468, 78.277 397.763 C 77.984 395.167, 78.921 386.440, 80.517 376.900 C 84.852 350.983, 83.334 346.368, 63.937 326.500 C 56.957 319.350, 50.515 312.060, 49.623 310.300 C 47.216 305.554, 47.526 297.220, 50.307 291.907 C 54.006 284.842, 59.758 281.628, 72.121 279.722 C 81.010 278.351, 82.822 277.746, 84.749 275.505 C 85.987 274.066, 87 272.216, 87 271.395 C 87 268.428, 83.914 264.017, 81.397 263.385 C 77.092 262.304, 58.503 265.692, 52.436 268.663 C 45.612 272.004, 38.665 279.305, 35.285 286.688 C 32.342 293.116, 31.204 303.461, 32.803 309.250 L 33.839 313 22.821 313 C 10.048 313, 6.237 314.285, 2.439 319.875 C 0.160 323.229, -0 324.325, 0 336.584 C 0 348.544, 0.199 349.997, 2.250 353.010 C 3.488 354.828, 5.770 357.257, 7.321 358.408 C 10.004 360.397, 11.537 360.514, 38.571 360.794 C 54.207 360.956, 67 361.344, 67 361.658 C 67 361.971, 65.835 369.039, 64.411 377.364 C 62.599 387.958, 61.999 394.275, 62.413 398.414 C 64.460 418.905, 84.343 434.204, 104.750 430.990 C 108.730 430.363, 115.426 427.597, 126.500 422.007 C 148.039 411.134, 147.883 411.134, 169.500 422.034 C 180.680 427.671, 187.248 430.374, 191.303 431.007 C 206.655 433.402, 223.149 424.652, 230.014 410.470 C 231.174 408.075, 232.611 403.165, 233.209 399.558 L 234.296 393 255.945 393 L 277.594 393 278.707 399.498 C 281.543 416.053, 293.260 427.989, 309.562 430.927 C 318.908 432.612, 324.382 431.131, 342.500 422.016 C 364.122 411.138, 363.969 411.138, 385.500 422.007 C 396.574 427.597, 403.270 430.363, 407.250 430.990 C 427.657 434.204, 447.540 418.905, 449.587 398.414 C 450.001 394.275, 449.401 387.958, 447.589 377.364 C 446.165 369.039, 445 361.952, 445 361.614 C 445 361.276, 447.720 361, 451.045 361 C 456.131 361, 457.481 360.610, 459.545 358.545 C 464.364 353.726, 461.017 345.061, 454.295 344.957 C 451.699 344.916, 452.105 344.348, 460 336.980 L 468.500 329.046 482.750 329.023 L 497 329 497 337 L 497 345 492.056 345 C 482.547 345, 478.046 353.203, 484.506 358.759 C 487.065 360.960, 488.063 361.165, 494.622 360.834 C 502.842 360.419, 505.724 358.861, 510.217 352.404 C 512.843 348.631, 512.934 348.049, 512.951 335 C 512.961 327.575, 512.626 322.040, 512.207 322.700 C 511.698 323.500, 511.010 322.921, 510.144 320.962 C 509.428 319.346, 507.416 317.007, 505.672 315.762 C 502.875 313.768, 501.063 313.461, 490.353 313.171 L 478.205 312.841 479.223 309.171 C 480.740 303.699, 479.493 292.758, 476.644 286.534 C 473.304 279.237, 466.777 272.421, 459.721 268.859 C 455.057 266.505, 450.480 265.401, 437.184 263.423 C 413.636 259.919, 413.902 260.109, 403 239.052 C 393.765 221.214, 389.474 215.794, 381.311 211.658 C 366.971 204.391, 350.640 206.709, 338.916 217.675 C 334.815 221.511, 332.345 225.341, 326.778 236.496 C 322.934 244.198, 318.685 251.967, 317.337 253.759 C 313.407 258.981, 308.569 260.757, 291.209 263.348 C 273.516 265.988, 266.941 268.348, 260.130 274.502 L 256 278.233 251.870 274.502 C 245.059 268.348, 238.484 265.988, 220.791 263.348 C 203.431 260.757, 198.593 258.981, 194.663 253.759 C 193.315 251.967, 189.050 244.166, 185.186 236.424 C 179.302 224.634, 177.254 221.519, 172.577 217.244 C 163.643 209.080, 151.382 205.731, 140 208.349 M 357.239 224.335 C 350.240 226.873, 347.245 230.536, 339.464 246.072 C 326.715 271.527, 322.140 274.831, 293.987 278.918 C 284.162 280.345, 278.055 281.760, 275.009 283.316 C 266.623 287.599, 261.998 299.328, 265.026 308.633 C 265.923 311.392, 270.103 316.392, 279.608 326.077 C 299.788 346.641, 300.994 350.394, 296.435 378.467 C 294.056 393.115, 293.802 396.387, 294.795 399.646 C 297.840 409.640, 305.267 415.414, 315.150 415.469 C 320.401 415.497, 322.257 414.792, 337.436 407 L 353.993 398.500 363.944 398.500 L 373.895 398.500 390.698 406.982 C 405.729 414.569, 408.080 415.462, 413 415.456 C 423.289 415.443, 432.629 407.468, 433.723 397.763 C 434.016 395.167, 433.079 386.440, 431.483 376.900 C 427.148 350.983, 428.666 346.368, 448.063 326.500 C 455.043 319.350, 461.533 311.967, 462.484 310.094 C 465.206 304.731, 464.236 295.220, 460.410 289.771 C 455.781 283.179, 451.729 281.550, 432.689 278.630 C 405.905 274.523, 401.229 271.067, 388.522 245.978 C 383.571 236.205, 379.895 230.237, 377.563 228.190 C 372.019 223.321, 364.149 221.829, 357.239 224.335 M 141.250 250.537 C 140.043 251.383, 136.927 256.196, 134.326 261.233 C 124.412 280.427, 111.180 290.103, 89.687 293.873 C 77.794 295.959, 74.713 297.759, 73.113 303.551 C 71.572 309.133, 72.913 311.830, 82.071 321.575 C 91.381 331.482, 95.688 338.857, 98.011 348.868 C 99.207 354.026, 99.021 363.160, 97.379 379.731 C 96.773 385.858, 96.821 386.021, 100.281 389.481 C 105.351 394.551, 109.138 394.299, 122.167 388.022 C 141.874 378.527, 155.899 378.871, 176.725 389.361 C 184.816 393.436, 189.050 393.877, 193.580 391.115 C 198.420 388.163, 199.538 384.262, 198.152 375.159 C 194.605 351.850, 198.823 336.654, 212.842 322.233 C 221.832 312.986, 222.986 311.177, 222.993 306.327 C 223.006 298.378, 218.479 295.376, 203.500 293.402 C 185.826 291.074, 171.327 280.063, 161.985 261.876 C 156.449 251.098, 154.052 249, 147.272 249 C 145.167 249, 142.457 249.692, 141.250 250.537 M 357.788 250.552 C 355.963 251.543, 353.418 255.250, 350.011 261.884 C 342.720 276.077, 333.364 285.126, 320.903 290.038 C 317.974 291.193, 310.835 292.988, 305.039 294.028 C 295.730 295.698, 294.179 296.276, 291.750 298.975 C 289.612 301.351, 289 303.031, 289 306.520 C 289 310.751, 289.465 311.509, 297.123 319.754 C 306.324 329.662, 310.142 335.694, 313.010 344.855 C 315.314 352.214, 315.625 363.479, 313.848 375.159 C 312.462 384.262, 313.580 388.163, 318.420 391.115 C 322.950 393.877, 327.184 393.436, 335.275 389.361 C 356.270 378.786, 371.153 378.532, 390.831 388.415 C 402.575 394.313, 406.677 394.523, 411.719 389.481 C 415.179 386.021, 415.227 385.858, 414.621 379.731 C 412.979 363.160, 412.793 354.026, 413.989 348.868 C 416.312 338.857, 420.619 331.482, 429.929 321.575 C 439.128 311.787, 440.430 309.142, 438.856 303.440 C 437.218 297.509, 433.576 295.529, 420.555 293.487 L 408.887 291.658 406.277 294.268 C 400.500 300.045, 404.313 307.168, 413.887 308.484 L 418.900 309.174 413.391 315.837 C 402.064 329.537, 396.432 346.128, 397.206 363.522 L 397.656 373.642 390.972 370.922 C 373.078 363.640, 352.900 363.868, 336.129 371.542 C 333.175 372.894, 330.689 374, 330.604 374 C 330.519 374, 330.624 369.298, 330.836 363.550 C 331.509 345.369, 326.025 329.129, 314.706 315.787 L 309.215 309.313 314.857 308.251 C 333.242 304.789, 352.543 290.910, 360.750 275.252 C 362.262 272.366, 363.754 270.004, 364.065 270.002 C 364.375 270.001, 365.336 271.462, 366.199 273.250 C 368.986 279.025, 376.148 287.819, 379.038 289.016 C 382.688 290.528, 386.931 288.630, 388.850 284.628 C 390.475 281.236, 389.819 279.401, 384.483 272.410 C 382.479 269.785, 379.088 264.153, 376.947 259.894 C 374.805 255.635, 372.041 251.442, 370.804 250.575 C 368.003 248.613, 361.382 248.601, 357.788 250.552 M 144.885 274.764 C 135.987 290.879, 118.944 303.641, 100.899 307.704 L 93.298 309.415 98.708 315.957 C 109.934 329.533, 115.565 346.185, 114.794 363.522 L 114.344 373.642 121.028 370.922 C 138.859 363.665, 159.159 363.895, 175.871 371.542 C 178.825 372.894, 181.311 374, 181.396 374 C 181.481 374, 181.376 369.298, 181.164 363.550 C 180.670 350.223, 182.682 340.829, 188.523 329.188 C 190.920 324.409, 195.129 317.986, 197.875 314.914 L 202.867 309.328 197.184 308.258 C 178.776 304.792, 159.442 290.946, 151.329 275.419 C 149.773 272.441, 148.275 270.010, 148 270.017 C 147.725 270.023, 146.323 272.160, 144.885 274.764 M 0.395 336.500 C 0.396 344.200, 0.553 347.218, 0.743 343.206 C 0.934 339.195, 0.932 332.895, 0.741 329.206 C 0.549 325.518, 0.393 328.800, 0.395 336.500 M 245.500 335 L 235.538 345 256 345 L 276.462 345 266.500 335 C 261.021 329.500, 256.296 325, 256 325 C 255.704 325, 250.979 329.500, 245.500 335 M 15 337 L 15 345 37.750 344.952 L 60.500 344.904 52 336.959 L 43.500 329.014 29.250 329.007 L 15 329 15 337 M 229 362.057 C 229 362.639, 229.516 366.239, 230.147 370.057 L 231.293 377 256 377 L 280.707 377 281.853 370.057 C 282.484 366.239, 283 362.639, 283 362.057 C 283 361.340, 274.310 361, 256 361 C 237.690 361, 229 361.340, 229 362.057" stroke="none" fill="#040404" fill-rule="evenodd"/></svg>