<svg xmlns="http://www.w3.org/2000/svg" width="512" height="512" viewBox="0 0 512 512" version="1.1"><path d="" stroke="none" fill="#080404" fill-rule="evenodd"/><path d="M 242.500 2.451 C 234.439 5.811, 226.120 14.342, 223.158 22.288 C 219.044 33.321, 220.830 46.844, 227.568 55.678 L 230.283 59.238 228.260 63.401 C 227.148 65.690, 225.019 69.013, 223.528 70.784 C 219.188 75.942, 206.720 83.494, 193.116 89.205 C 182.359 93.720, 179.666 95.323, 174.839 100.081 C 168.170 106.656, 166 112.393, 166 123.452 C 166 136.633, 171.339 150.710, 185.345 174.459 C 196.782 193.853, 199.379 200.584, 199.443 211 C 199.506 221.425, 198.302 224.324, 186.885 241.231 C 182.393 247.882, 177.019 256.963, 174.941 261.412 C 166.395 279.709, 165.798 300.765, 173.144 324.800 C 176.077 334.398, 177.758 337.569, 180.595 338.861 C 182.295 339.636, 193.156 340, 214.547 340 L 246 340 246 396 L 246 452 228.178 452 C 206.189 452, 202.994 452.858, 194.926 460.926 C 187.106 468.746, 186 472.503, 186 491.255 L 186 506.154 188.923 509.077 L 191.846 512 256 512 L 320.154 512 323.077 509.077 L 326 506.154 326 491.255 C 326 472.503, 324.894 468.746, 317.074 460.926 C 309.006 452.858, 305.811 452, 283.822 452 L 266 452 266 396 L 266 340 297.453 340 C 318.844 340, 329.705 339.636, 331.405 338.861 C 335.263 337.104, 339.308 326.512, 342.452 309.940 C 347.094 285.471, 342.305 266.328, 325.388 241.720 C 314.147 225.369, 312.489 221.401, 312.550 211 C 312.611 200.578, 314.901 194.704, 327.064 173.769 C 341.148 149.527, 346 136.635, 346 123.452 C 346 113.807, 343.873 107.273, 338.890 101.613 C 334.217 96.304, 332.930 95.535, 316.901 88.468 C 297.899 80.091, 288.342 72.874, 283.759 63.441 L 281.756 59.319 284.822 55.087 C 294.470 41.769, 292.736 22.015, 280.875 10.108 C 274.264 3.472, 267.297 0.593, 257 0.241 C 249.784 -0.006, 247.594 0.328, 242.500 2.451 M 252.170 20.687 C 250.888 20.947, 248.146 22.854, 246.076 24.924 C 239.753 31.247, 239.725 38.725, 246 45 C 252.247 51.247, 259.753 51.247, 266 45 C 271.476 39.524, 272.153 33, 267.880 26.882 C 264.453 21.974, 258.121 19.478, 252.170 20.687 M 246.019 74.670 C 238.915 88.062, 223.660 99.213, 197.698 109.991 C 188.417 113.844, 186.537 116.136, 186.643 123.471 C 186.775 132.553, 192.238 145.337, 206.100 169 C 213.216 181.147, 217.558 191.425, 219.555 200.848 C 221.339 209.262, 221.331 213.776, 219.516 222.339 C 217.670 231.051, 214.440 237.459, 204.058 253 C 195.970 265.107, 192.663 271.203, 190.958 277.148 L 190.140 280 212.615 280 C 235.042 280, 235.096 280.005, 237.505 282.414 C 238.832 283.742, 240.211 285.992, 240.568 287.414 C 241.471 291.013, 240.348 294.743, 237.505 297.586 C 235.092 299.999, 235.080 300, 211.958 300 L 188.824 300 189.488 304.250 C 189.853 306.587, 190.851 311.087, 191.707 314.250 L 193.264 320 256.002 320 L 318.740 320 319.869 315.750 C 322.360 306.369, 322.952 302.113, 322.964 293.500 C 322.985 278.502, 320.496 271.791, 307.942 253 C 297.560 237.459, 294.330 231.051, 292.484 222.339 C 290.669 213.776, 290.661 209.262, 292.445 200.848 C 294.442 191.425, 298.784 181.147, 305.900 169 C 319.762 145.337, 325.225 132.553, 325.357 123.471 C 325.463 116.136, 323.583 113.844, 314.302 109.991 C 288.340 99.213, 273.085 88.062, 265.981 74.670 L 263.503 70 256 70 L 248.497 70 246.019 74.670 M 268.700 282.573 C 261.869 289.404, 266.146 300, 275.734 300 C 282.564 300, 287.228 294.030, 285.568 287.414 C 283.732 280.102, 273.972 277.300, 268.700 282.573 M 212.213 473.507 C 208.177 475.260, 206 479.978, 206 486.968 L 206 492 256 492 L 306 492 306 486.968 C 306 479.794, 303.834 475.246, 299.568 473.464 C 294.468 471.333, 217.128 471.371, 212.213 473.507" stroke="none" fill="#040404" fill-rule="evenodd"/></svg>