<?xml version="1.0" encoding="UTF-8"?>
<svg version="1.1" xmlns="http://www.w3.org/2000/svg" width="512" height="512">
<path d="M0 0 C1.01823853 0.00215515 2.03647705 0.0043103 3.08557129 0.00653076 C17.70747424 0.05622604 32.00633932 0.36188758 46.375 3.3125 C47.89383789 3.61051514 47.89383789 3.61051514 49.44335938 3.91455078 C96.52585845 13.3296401 139.40053877 34.90932066 174.515625 67.69921875 C176.49320537 69.50659753 178.4616654 71.22641972 180.53125 72.91796875 C182.81887163 74.84422158 184.71731006 76.65831255 186.625 78.9375 C188.55563919 81.21304641 190.49619329 83.44022076 192.55078125 85.60546875 C204.64656896 98.37434449 214.89950264 112.9183002 223.375 128.3125 C224.07471924 129.57271973 224.07471924 129.57271973 224.78857422 130.85839844 C232.1922846 144.29590685 238.38162298 157.80915222 243.375 172.3125 C243.78806396 173.47845703 243.78806396 173.47845703 244.20947266 174.66796875 C253.43665899 200.87562517 256.80340718 227.91619261 256.75 255.5625 C256.74918427 257.15105301 256.74918427 257.15105301 256.74835205 258.771698 C256.70872251 275.57985496 255.94465387 291.8279797 252.375 308.3125 C252.16069336 309.30314453 251.94638672 310.29378906 251.72558594 311.31445312 C250.20722919 318.06417875 248.39134558 324.69567523 246.375 331.3125 C246.0970459 332.23272949 245.8190918 333.15295898 245.53271484 334.10107422 C234.34427437 370.34505108 214.72121041 403.81207304 188.40625 431.10546875 C185.88999319 433.72026645 183.64054453 436.47691523 181.375 439.3125 C180.22033231 440.41059154 179.03250369 441.4749861 177.8125 442.5 C175.50248829 444.4637211 173.24186245 446.43894722 171.04296875 448.52734375 C157.72315977 461.15149451 142.25391774 471.21108599 126.375 480.3125 C125.62669922 480.74159668 124.87839844 481.17069336 124.10742188 481.61279297 C101.06716333 494.64820917 75.83910144 503.32317422 49.9375 508.625 C49.21860596 508.77235596 48.49971191 508.91971191 47.7590332 509.0715332 C32.28054085 512.01349807 16.96897313 512.68487337 1.25 512.625 C0.25643494 512.62317719 -0.73713013 512.62135437 -1.76080322 512.61947632 C-16.254692 512.57469978 -30.36636097 512.11360213 -44.625 509.3125 C-45.52057617 509.15152832 -46.41615234 508.99055664 -47.33886719 508.82470703 C-96.92067991 499.85448335 -141.32572163 475.88476424 -177.625 441.3125 C-178.22393066 440.74225098 -178.82286133 440.17200195 -179.43994141 439.58447266 C-187.78310078 431.58149888 -195.42845187 423.36270159 -202.31445312 414.07177734 C-203.64297091 412.28837587 -204.99860037 410.52840484 -206.359375 408.76953125 C-217.30312124 394.4555054 -226.03421843 378.62742252 -233.625 362.3125 C-233.95064941 361.61817871 -234.27629883 360.92385742 -234.61181641 360.20849609 C-244.07735391 339.74059807 -250.41780456 317.62724516 -253.625 295.3125 C-253.80087646 294.11222168 -253.97675293 292.91194336 -254.15795898 291.67529297 C-255.75720504 280.01259554 -255.98343146 268.44620652 -255.9375 256.6875 C-255.93476578 255.23316559 -255.93476578 255.23316559 -255.93197632 253.74945068 C-255.88662737 239.41770741 -255.46795422 225.40354488 -252.625 211.3125 C-252.44807617 210.41063965 -252.27115234 209.5087793 -252.08886719 208.57958984 C-250.78998713 202.10650105 -249.27842874 195.70361512 -247.625 189.3125 C-247.41536621 188.49249512 -247.20573242 187.67249023 -246.98974609 186.82763672 C-239.61312425 158.62156999 -226.50042255 132.01979753 -209.625 108.3125 C-209.17044434 107.66861328 -208.71588867 107.02472656 -208.24755859 106.36132812 C-201.3146039 96.61000248 -193.7548574 87.70806707 -185.40722656 79.14160156 C-183.63301167 77.32072238 -181.87518486 75.48496071 -180.1171875 73.6484375 C-173.01832106 66.31138736 -165.60682072 59.74213624 -157.41796875 53.64794922 C-155.58092428 52.27967127 -153.75911069 50.89264471 -151.9375 49.50390625 C-143.51077324 43.13790222 -134.81596417 37.50688619 -125.625 32.3125 C-124.99464844 31.94946777 -124.36429688 31.58643555 -123.71484375 31.21240234 C-85.96655707 9.60246146 -43.1975542 -0.16447332 0 0 Z " fill="#F8C258" transform="translate(255.625,-0.3125)"/>
<path d="M0 0 C17.31697914 6.39300664 32.80407227 20.93326208 46.140625 33.38671875 C48.11820537 35.19409753 50.0866654 36.91391972 52.15625 38.60546875 C54.44387163 40.53172158 56.34231006 42.34581255 58.25 44.625 C60.18063919 46.90054641 62.12119329 49.12772076 64.17578125 51.29296875 C76.27156896 64.06184449 86.52450264 78.6058002 95 94 C95.69971924 95.26021973 95.69971924 95.26021973 96.41357422 96.54589844 C103.8172846 109.98340685 110.00662298 123.49665222 115 138 C115.41306396 139.16595703 115.41306396 139.16595703 115.83447266 140.35546875 C125.06165899 166.56312517 128.42840718 193.60369261 128.375 221.25 C128.37418427 222.83855301 128.37418427 222.83855301 128.37335205 224.459198 C128.33372251 241.26735496 127.56965387 257.5154797 124 274 C123.78569336 274.99064453 123.57138672 275.98128906 123.35058594 277.00195312 C121.83222919 283.75167875 120.01634558 290.38317523 118 297 C117.7220459 297.92022949 117.4440918 298.84045898 117.15771484 299.78857422 C105.96927437 336.03255108 86.34621041 369.49957304 60.03125 396.79296875 C57.51499319 399.40776645 55.26554453 402.16441523 53 405 C51.84533231 406.09809154 50.65750369 407.1624861 49.4375 408.1875 C47.12748829 410.1512211 44.86686245 412.12644722 42.66796875 414.21484375 C29.34815977 426.83899451 13.87891774 436.89858599 -2 446 C-2.74830078 446.42909668 -3.49660156 446.85819336 -4.26757812 447.30029297 C-27.30783667 460.33570917 -52.53589856 469.01067422 -78.4375 474.3125 C-79.15639404 474.45985596 -79.87528809 474.60721191 -80.6159668 474.7590332 C-96.09445915 477.70099807 -111.40602687 478.37237337 -127.125 478.3125 C-128.11856506 478.31067719 -129.11213013 478.30885437 -130.13580322 478.30697632 C-144.629692 478.26219978 -158.74136097 477.80110213 -173 475 C-173.89557617 474.83902832 -174.79115234 474.67805664 -175.71386719 474.51220703 C-225.29567991 465.54198335 -269.70072163 441.57226424 -306 407 C-306.59893066 406.42975098 -307.19786133 405.85950195 -307.81494141 405.27197266 C-316.14680066 397.27983824 -323.78907167 389.07186557 -330.66748047 379.79443359 C-332.06686748 377.9099531 -333.48759004 376.04281094 -334.91015625 374.17578125 C-340.2637149 367.08506386 -345.0586927 359.99902452 -349 352 C-343.93946072 352.92524785 -339.08326679 354.40519887 -334.15625 355.8671875 C-268.75025842 374.14960462 -195.8072691 366.19576683 -135.58349609 334.95458984 C-133.81418369 333.97452634 -133.81418369 333.97452634 -132 332 C-125.35899234 331.37820012 -120.29138673 332.94353164 -114.11328125 335.25390625 C-112.70673531 335.76170876 -112.70673531 335.76170876 -111.27177429 336.2797699 C-108.28085831 337.36210087 -105.29659452 338.4615179 -102.3125 339.5625 C-94.54907406 342.39558024 -86.7776868 345.20632891 -79 348 C-78.04011169 348.3476239 -77.08022339 348.6952478 -76.09124756 349.05340576 C-73.2891699 350.06173074 -70.48009545 351.04744513 -67.66796875 352.02734375 C-66.42639763 352.47926842 -66.42639763 352.47926842 -65.15974426 352.94032288 C-58.04262115 355.37785313 -50.84864264 356.46242143 -43.75 353.4375 C-37.24291762 349.70414364 -33.34346668 344.05824104 -31 337 C-30.70675104 334.34416138 -30.54564491 331.91454338 -30.53930664 329.26391602 C-30.51902657 328.15512085 -30.51902657 328.15512085 -30.49833679 327.02392578 C-30.47086145 325.43082134 -30.44983777 323.83759487 -30.43467903 322.24432564 C-30.40978855 319.71656458 -30.36599439 317.18974517 -30.31724548 314.66233826 C-30.18253018 307.48089867 -30.08513712 300.29901855 -29.99145508 293.11694336 C-29.9327101 288.71240899 -29.85519058 284.3085016 -29.76705742 279.90446281 C-29.72346929 277.42515224 -29.7020742 274.94627938 -29.6811676 272.46669006 C-29.52851043 262.64219911 -28.54017878 255.74050557 -21.93359375 247.9921875 C-21.37148193 247.3230835 -20.80937012 246.65397949 -20.23022461 245.96459961 C-19.63862549 245.27503174 -19.04702637 244.58546387 -18.4375 243.875 C-17.17577998 242.37479311 -15.91537876 240.87347616 -14.65625 239.37109375 C-14.03492188 238.6322998 -13.41359375 237.89350586 -12.7734375 237.13232422 C-10.26470864 234.11590931 -7.84391433 231.03574726 -5.4375 227.9375 C-1.46741027 222.83530861 2.59060506 217.81333827 6.6875 212.8125 C19.31643936 198.32428366 19.31643936 198.32428366 22 180 C19.74062587 173.28327366 14.75429752 169.82084813 8.6875 166.75 C7.46120526 166.16065317 6.23299634 165.57519432 5 165 C4.79655283 160.36982303 5.49768062 156.68197543 6.8125 152.25 C9.24651396 143.59704797 10.75879594 134.89560681 12 126 C12.10586426 125.26813477 12.21172852 124.53626953 12.32080078 123.78222656 C17.79851225 84.45729316 13.52479692 42.44805443 0.91796875 4.88671875 C0 2 0 2 0 0 Z " fill="#FAAB48" transform="translate(384,34)"/>
<path d="M0 0 C7.96403292 5.71332796 13.26579065 14.26059341 18.54272461 22.36660767 C20.1088216 24.77215636 21.69097025 27.16700199 23.27194214 29.56278992 C24.05721329 30.75325435 24.84166799 31.94425777 25.62527466 33.13581848 C28.65999726 37.74950911 31.74064918 42.32851364 34.875 46.875 C35.29604004 47.48690186 35.71708008 48.09880371 36.15087891 48.72924805 C38.32081626 51.86658385 40.52590563 54.97565759 42.76171875 58.06640625 C43.23158203 58.71697998 43.70144531 59.36755371 44.18554688 60.0378418 C45.07916153 61.27068145 45.97734385 62.50022799 46.88085938 63.72583008 C49.875 67.84399854 49.875 67.84399854 49.875 70.0625 C50.431875 70.330625 50.98875 70.59875 51.5625 70.875 C53.875 72.0625 53.875 72.0625 55.95703125 73.453125 C59.7832625 75.56344263 63.70369583 76.74193466 67.875 78 C68.64972656 78.23912109 69.42445313 78.47824219 70.22265625 78.72460938 C72.7716049 79.51001713 75.32314041 80.28660449 77.875 81.0625 C88.17684523 84.20319493 98.4311155 87.47902522 108.67773438 90.79492188 C114.67981379 92.73182161 120.67941294 94.63128351 126.75195312 96.33642578 C133.29014324 98.57246274 137.89964304 102.52109333 141.875 108.0625 C142.87518367 111.06305102 143.07285609 113.23332941 143.125 116.375 C143.15078125 117.29925781 143.1765625 118.22351563 143.203125 119.17578125 C142.43994294 125.8899663 138.05760924 130.57460426 133.875 135.5625 C132.69694137 136.98877834 131.51987407 138.41587599 130.34375 139.84375 C129.75722656 140.55402344 129.17070312 141.26429688 128.56640625 141.99609375 C126.12234438 144.98202615 123.74521205 148.0178445 121.375 151.0625 C117.39927649 156.15954399 113.3426272 161.18395042 109.25 166.1875 C105.33188386 170.99312925 101.44308318 175.81582783 97.6875 180.75 C96.99269531 181.66136719 96.29789063 182.57273437 95.58203125 183.51171875 C92.28114164 188.44416935 91.57488205 192.68590667 91.54370117 198.53979492 C91.53193344 199.27548706 91.52016571 200.0111792 91.50804138 200.76916504 C91.48336645 202.36124782 91.46282458 203.95339891 91.44597435 205.54558372 C91.41762523 208.07360186 91.37491489 210.60100127 91.32795715 213.1287384 C91.19604087 220.31382893 91.0817361 227.49900843 90.99682617 234.68481445 C90.94378625 239.08719639 90.86707448 243.48865664 90.77587318 247.89040565 C90.74589101 249.55944632 90.72472932 251.22867157 90.71291161 252.89793968 C90.63502945 263.48781772 89.92900217 272.08958834 82.8125 280.5 C75.7751482 286.17528371 70.93901112 287.73468529 61.875 287.0625 C58.49491908 286.32910376 55.29837626 285.23289641 52.046875 284.0625 C51.14291992 283.75075333 50.23896484 283.43900665 49.30761719 283.11781311 C46.40816637 282.11376812 43.51681443 281.08830566 40.625 280.0625 C38.63491254 279.37030364 36.64435067 278.67946975 34.65332031 277.98999023 C26.53132218 275.16728396 18.42953259 272.29528553 10.375 269.28515625 C9.36856445 268.90939453 8.36212891 268.53363281 7.32519531 268.14648438 C5.60036911 267.49398231 3.88034046 266.82855627 2.16699219 266.14648438 C1.42610352 265.86224609 0.68521484 265.57800781 -0.078125 265.28515625 C-0.67786133 265.04547119 -1.27759766 264.80578613 -1.89550781 264.55883789 C-9.62932733 262.83710606 -15.78892508 264.95528386 -23.02734375 267.5703125 C-24.58129601 268.11496658 -24.58129601 268.11496658 -26.16664124 268.67062378 C-29.46949619 269.83129383 -32.76595559 271.00904152 -36.0625 272.1875 C-38.24243618 272.95687018 -40.42277174 273.72510973 -42.60351562 274.4921875 C-50.50776539 277.27755608 -58.40841286 280.07239807 -66.28540039 282.93408203 C-67.45257347 283.35486526 -67.45257347 283.35486526 -68.64332581 283.78414917 C-70.05327845 284.29290031 -71.4615294 284.80640774 -72.86753845 285.32595825 C-79.72199172 287.79152156 -85.53771296 288.42182076 -92.3125 285.5625 C-99.20479419 281.58617643 -103.07299282 276.09376414 -105.48020935 268.65644836 C-106.59877781 264.15652452 -106.58611248 259.7062673 -106.6015625 255.08984375 C-106.61714203 254.0496962 -106.63272156 253.00954865 -106.64877319 251.93788147 C-106.69594849 248.62526301 -106.72384405 245.31284482 -106.75 242 C-106.89826259 228.97922797 -107.04962786 215.95692185 -107.4609375 202.94140625 C-107.49255478 201.47537209 -107.49255478 201.47537209 -107.52481079 199.97972107 C-107.79161918 192.63632266 -108.95060502 186.06063904 -113.875 180.2734375 C-114.39505615 179.64961182 -114.9151123 179.02578613 -115.45092773 178.38305664 C-116.27959351 177.4200061 -116.27959351 177.4200061 -117.125 176.4375 C-118.30444984 175.02823391 -119.48281798 173.61806188 -120.66015625 172.20703125 C-121.24684082 171.50916504 -121.83352539 170.81129883 -122.43798828 170.09228516 C-124.87974214 167.15440649 -127.22286551 164.14434882 -129.5625 161.125 C-133.71452879 155.79150585 -137.9939926 150.57429711 -142.3125 145.375 C-159.81399102 124.23831085 -159.81399102 124.23831085 -159.5625 113.69140625 C-158.65211457 108.22096525 -155.51572016 104.22714733 -151.47265625 100.56640625 C-145.19539087 96.15721109 -137.38094958 94.27740909 -130.125 92.0625 C-121.09996137 89.30396077 -112.10431345 86.46640601 -103.125 83.5625 C-95.0649644 80.95588805 -86.99690584 78.38853704 -78.89160156 75.92578125 C-65.92777615 71.88059182 -60.74738974 61.51956791 -53.53369141 50.6796875 C-49.11337888 44.03859689 -44.67568655 37.40924591 -40.22485352 30.78857422 C-39.11274655 29.13209179 -38.00273321 27.47420191 -36.89477539 25.81494141 C-35.26718661 23.3782304 -33.63236415 20.9465121 -31.99609375 18.515625 C-31.5104747 17.7852301 -31.02485565 17.05483521 -30.52452087 16.30230713 C-22.72298609 4.76159971 -15.08020859 -4.52406258 0 0 Z " fill="#FEFEFE" transform="translate(264.125,102.9375)"/>
<path d="M0 0 C-4.95 2.475 -4.95 2.475 -10 5 C-10.33 4.01 -10.66 3.02 -11 2 C-9.54494642 1.47007308 -8.08581873 0.9513211 -6.625 0.4375 C-5.81289062 0.14746094 -5.00078125 -0.14257812 -4.1640625 -0.44140625 C-2 -1 -2 -1 0 0 Z " fill="#F9C86A" transform="translate(251,368)"/>
</svg>
