<svg xmlns="http://www.w3.org/2000/svg" width="512" height="512" viewBox="0 0 512 512" version="1.1"><path d="" stroke="none" fill="#080404" fill-rule="evenodd"/><path d="M 249.629 66.077 C 243.003 71.289, 225.163 96.977, 215.652 115 C 205.174 134.857, 196.844 159.814, 193.958 180 C 193.290 184.675, 192.653 188.610, 192.543 188.745 C 192.434 188.879, 188.554 186.478, 183.922 183.408 C 159.536 167.247, 126.242 155.701, 89.216 150.565 C 72.736 148.279, 71.409 148.391, 67.400 152.400 C 64.373 155.427, 64.002 156.387, 64.018 161.150 C 64.041 167.743, 66.241 183.516, 68.970 196.641 C 74.784 224.612, 85.146 249.993, 99.542 271.525 L 105.784 280.861 101.642 281.538 C 93.141 282.929, 70.071 291.255, 57.500 297.468 C 38.671 306.775, 6.018 328.854, 1.460 335.360 C -0.420 338.044, -0.420 344.956, 1.460 347.640 C 3.438 350.464, 20.249 363.254, 32.500 371.257 C 58.801 388.437, 87.186 399.822, 114.500 404.147 C 124.802 405.779, 152.198 405.779, 162.500 404.147 C 173.833 402.353, 191.749 397.500, 201.982 393.453 C 206.785 391.554, 211.117 390.024, 211.608 390.054 C 212.098 390.083, 213.847 392.858, 215.493 396.219 C 222.668 410.871, 237.604 433.227, 246.511 442.646 C 251.044 447.439, 252.008 448, 255.710 448 C 258.698 448, 260.698 447.283, 262.914 445.419 C 269.607 439.787, 287.107 414.371, 295.985 397.390 L 300.224 389.280 308.362 392.725 C 318.492 397.012, 337.623 402.308, 349.500 404.113 C 360.656 405.808, 386.803 405.822, 397.500 404.139 C 417.487 400.995, 439.765 393.458, 459 383.334 C 476.437 374.156, 500.167 357.833, 509.188 348.812 C 512.489 345.511, 513 344.389, 513 340.441 C 513 337.934, 512.597 336.131, 512.105 336.435 C 511.612 336.740, 510.965 336.352, 510.667 335.574 C 509.876 333.512, 493.356 320.901, 479.500 311.780 C 472.900 307.436, 461.650 300.993, 454.500 297.462 C 441.913 291.246, 418.847 282.927, 410.341 281.536 L 406.183 280.855 412.763 271.178 C 431.274 243.954, 445.254 201.561, 447.680 165.298 L 448.295 156.095 444.607 152.407 L 440.919 148.719 432.886 149.389 C 395.828 152.480, 354.496 165.895, 328.078 183.407 C 323.446 186.477, 319.566 188.879, 319.457 188.745 C 319.347 188.610, 318.710 184.675, 318.042 180 C 314.098 152.415, 301.857 121.419, 284.276 94.500 C 276.383 82.414, 265.980 68.916, 262.371 66.077 C 258.903 63.349, 253.097 63.349, 249.629 66.077 M 250.404 100.274 C 234.040 123.479, 222.395 149.617, 216.822 175.652 C 214.800 185.099, 214.501 189.276, 214.505 208 C 214.509 226.763, 214.807 230.890, 216.852 240.421 C 221.163 260.517, 229.060 280.767, 239.602 298.761 C 245.401 308.659, 255.090 322.952, 256 322.952 C 257.011 322.952, 266.908 308.188, 273.022 297.558 C 305.867 240.457, 306.369 176.628, 274.413 120.661 C 268.896 110.999, 256.965 92.990, 256.104 93.024 C 255.772 93.037, 253.207 96.300, 250.404 100.274 M 88.669 181.750 C 97.945 240.047, 127.063 283.792, 171.943 306.854 C 189.252 315.748, 203.955 320.768, 229.315 326.441 C 231.060 326.831, 231.062 326.745, 229.348 324.173 C 209.545 294.465, 197.231 262.414, 193.276 230.282 L 191.649 217.064 185.398 211.992 C 162.289 193.243, 132.795 180.446, 98.976 174.494 C 86.110 172.230, 87.049 171.569, 88.669 181.750 M 412.500 174.513 C 378.340 180.842, 349.470 193.439, 326.602 211.992 L 320.351 217.064 318.724 230.282 C 315.044 260.182, 303.305 292.128, 286.390 318.277 C 283.917 322.099, 282.134 325.468, 282.429 325.762 C 282.723 326.056, 286.684 325.503, 291.232 324.533 C 314.534 319.562, 344.042 306.696, 360.337 294.402 C 371.735 285.804, 384.403 272.856, 392.529 261.500 C 407.138 241.082, 418.607 211.386, 423.329 181.750 L 424.723 173 422.112 173.108 C 420.675 173.168, 416.350 173.800, 412.500 174.513 M 119 300.656 C 102.428 303.199, 82.568 309.693, 66.105 317.951 C 55.215 323.414, 30.983 338.600, 29.609 340.823 C 27.952 343.505, 60.628 363.573, 78.859 371.069 C 122.190 388.885, 163.777 387.695, 206.640 367.412 C 215.755 363.099, 236.302 350.969, 235.631 350.297 C 235.380 350.046, 229.623 348.756, 222.837 347.429 C 186.057 340.239, 155.558 326.511, 130.413 305.829 C 126.515 302.623, 122.915 300.061, 122.413 300.136 C 121.911 300.211, 120.375 300.445, 119 300.656 M 381.500 305.903 C 357.892 325.563, 326.546 339.851, 291.473 346.939 C 283.377 348.575, 276.547 350.119, 276.295 350.371 C 276.043 350.623, 280.711 353.721, 286.669 357.255 C 312.799 372.755, 335.289 380.561, 360.944 383.035 C 390.182 385.855, 423.382 378.148, 452.500 361.780 C 462.314 356.264, 480.359 344.477, 481.980 342.525 C 483.269 340.971, 482.216 340.047, 469.500 331.576 C 449.580 318.307, 425.982 307.856, 405.500 303.231 C 388.496 299.392, 389.447 299.286, 381.500 305.903 M 0.286 341.500 C 0.294 344.250, 0.488 345.256, 0.718 343.736 C 0.947 342.216, 0.941 339.966, 0.704 338.736 C 0.467 337.506, 0.279 338.750, 0.286 341.500 M 244.149 371.458 C 237.905 375.534, 232.566 379.101, 232.283 379.384 C 230.979 380.688, 253.966 419, 256.051 419 C 257.065 419, 270.712 397.777, 275.553 388.673 C 278.134 383.818, 279.853 379.499, 279.373 379.076 C 278.013 377.877, 256.385 363.997, 255.917 364.023 C 255.687 364.036, 250.392 367.381, 244.149 371.458" stroke="none" fill="#040404" fill-rule="evenodd"/></svg>