<svg xmlns="http://www.w3.org/2000/svg" width="512" height="512" viewBox="0 0 512 512" version="1.1"><path d="" stroke="none" fill="#080404" fill-rule="evenodd"/><path d="M 291.087 74.114 L 83.674 148.127 77.853 145.515 C 71.290 142.569, 60.489 140.035, 54.500 140.035 C 52.300 140.035, 47.350 140.699, 43.500 141.511 C 23.416 145.746, 6.701 161.692, 1.528 181.552 C -0.421 189.037, -0.430 201.552, 1.509 209.035 C 6.096 226.735, 29.757 272.839, 50.759 305 C 71.530 336.805, 93.188 363.370, 120.917 391.054 C 161.793 431.862, 203.006 462.065, 255 489.316 C 271.269 497.843, 295.590 508.580, 302.965 510.491 C 321.921 515.403, 342.846 509.326, 356.380 494.980 C 370.388 480.131, 375.086 460.490, 369.210 441.345 L 367.415 435.500 439.657 224.500 C 483.965 95.088, 511.919 12.020, 511.950 9.673 C 512.020 4.303, 507.697 -0.020, 502.327 0.051 C 499.893 0.083, 422.985 27.048, 291.087 74.114 M 419.500 50.466 C 373.811 66.802, 354.549 74.121, 354.664 75.103 C 354.755 75.871, 355.729 78.975, 356.829 82 C 357.962 85.116, 358.598 88.697, 358.296 90.261 C 357.505 94.356, 352.648 98, 347.979 98 C 342.850 98, 339.726 95.090, 336.710 87.500 C 335.276 83.893, 333.761 81.554, 332.912 81.636 C 330.892 81.830, 212.653 124.049, 211.746 124.900 C 211.331 125.290, 211.869 127.423, 212.941 129.641 C 216.221 136.430, 217.272 142.505, 216.767 151.762 C 216.185 162.452, 213.403 170.203, 207.585 177.344 C 198.826 188.092, 188.139 193.773, 174.890 194.722 C 153.544 196.250, 135.005 183.705, 128.071 163.039 L 125.474 155.298 112.916 159.721 L 100.357 164.143 103.640 170.822 C 105.445 174.495, 110.776 185.567, 115.487 195.426 C 126.378 218.223, 131.612 227.461, 145.558 248.500 C 176.893 295.775, 216.268 335.148, 263.500 366.435 C 287.692 382.461, 301.437 389.991, 331.346 403.606 C 338.961 407.072, 346.753 411.099, 348.661 412.555 C 350.570 414.011, 352.262 415.044, 352.422 414.851 C 352.582 414.658, 360.707 391.100, 370.478 362.500 C 380.248 333.900, 391.758 300.265, 396.054 287.755 L 403.866 265.010 389.470 253.977 C 381.553 247.909, 374.383 241.957, 373.537 240.750 C 370.408 236.282, 372.525 228.449, 377.472 226.195 C 382.974 223.688, 385.233 224.590, 398.135 234.446 C 404.936 239.641, 410.765 243.579, 411.089 243.196 C 411.725 242.444, 430 188.925, 430 187.814 C 430 187.444, 427.616 186.449, 424.703 185.602 C 403.861 179.543, 389.702 157.268, 392.952 135.652 C 397.290 106.793, 427.253 88.729, 453.940 98.883 C 456.933 100.021, 459.549 100.785, 459.754 100.579 C 460.334 99.999, 485.053 27.716, 484.760 27.456 C 484.617 27.329, 455.250 37.684, 419.500 50.466 M 427.195 119.590 C 406.659 129.824, 409.734 160.004, 431.920 165.979 C 434.315 166.623, 436.637 166.763, 437.108 166.292 C 437.578 165.822, 441.080 156.227, 444.891 144.969 C 448.701 133.711, 452.108 123.778, 452.461 122.895 C 452.947 121.679, 451.895 120.771, 448.116 119.145 C 441.133 116.141, 433.803 116.297, 427.195 119.590 M 298.108 128.082 C 285.115 130.633, 272.355 140.456, 266.411 152.482 C 257.152 171.217, 260.258 190.410, 274.924 205.076 C 282.565 212.717, 289.640 216.430, 299.913 218.192 C 308.647 219.689, 318.386 218.287, 326.837 214.314 C 334.296 210.808, 344.808 200.296, 348.314 192.837 C 364.175 159.098, 334.575 120.920, 298.108 128.082 M 168.262 139.900 L 147.023 147.500 147.034 151.500 C 147.055 159.830, 154.055 169.328, 162.569 172.580 C 169.216 175.118, 178.504 174.211, 184.644 170.423 C 190.382 166.884, 195.446 159.181, 196.454 152.457 C 197.282 146.939, 194.935 138.107, 191.732 134.685 L 189.500 132.300 168.262 139.900 M 298.748 149.365 C 282.733 155.343, 277.048 174.604, 287.284 188.208 C 300.718 206.061, 329.410 197.940, 331.694 175.637 C 333.163 161.300, 323.037 149.285, 308.710 148.364 C 304.883 148.118, 301.060 148.502, 298.748 149.365 M 45.286 162.391 C 29.920 167.412, 20.779 179.733, 20.724 195.500 C 20.694 204.047, 22.379 208.592, 35.948 236.555 C 62.329 290.924, 92.993 334.050, 135.471 376.529 C 178.195 419.252, 221.611 450.050, 276.497 476.567 C 303.434 489.580, 307.922 491.225, 316.448 491.207 C 330.340 491.178, 341.173 484.491, 347.213 472.215 C 350.151 466.245, 350.499 464.632, 350.495 457.018 C 350.490 449.730, 350.086 447.678, 347.700 442.810 C 343.338 433.909, 336.539 428.455, 321.916 422.127 C 218.999 377.587, 133.280 291.671, 89.390 189.068 C 83.631 175.605, 77.931 168.581, 69.363 164.389 C 62.719 161.138, 51.874 160.238, 45.286 162.391 M 52.420 185.145 C 49.884 186.375, 47 191.046, 47 193.923 C 47 198.604, 69.578 245.734, 75.690 253.812 C 77.069 255.634, 79.390 257.581, 80.848 258.139 C 84.459 259.521, 90.319 257.688, 92.390 254.528 C 95.425 249.896, 94.444 245.844, 86.750 231.231 C 82.762 223.658, 77.520 213.195, 75.101 207.981 C 72.681 202.766, 69.433 195.766, 67.883 192.425 C 64.926 186.051, 62.231 183.942, 57.203 184.068 C 55.716 184.105, 53.564 184.589, 52.420 185.145 M 208.378 207.425 C 202.447 210.029, 200.397 216, 203.425 221.855 C 204.209 223.371, 206.015 225.142, 207.439 225.790 C 210.166 227.033, 237.774 231, 243.693 231 C 251.402 231, 255.898 220.954, 250.984 214.707 C 248.357 211.367, 245.163 210.451, 229.500 208.546 C 222.350 207.676, 215.375 206.760, 214 206.509 C 212.625 206.259, 210.095 206.671, 208.378 207.425 M 290.487 253.799 C 278.454 257.960, 268.174 267.188, 262.701 278.741 C 259.653 285.177, 259.500 286.073, 259.500 297.500 C 259.500 308.927, 259.653 309.823, 262.701 316.259 C 266.304 323.864, 274.309 332.925, 280.772 336.712 C 294.649 344.845, 313.441 345.069, 326.937 337.263 C 353.980 321.621, 358.029 285.137, 335.101 263.691 C 329.634 258.577, 324.905 255.934, 317.068 253.610 C 309.855 251.472, 296.952 251.563, 290.487 253.799 M 210.888 256.500 C 206.313 258.986, 205.484 262.798, 206.895 274.875 C 207.577 280.719, 208.588 286.955, 209.140 288.734 C 212.644 300.016, 229.055 297.609, 228.968 285.827 C 228.922 279.445, 226.348 262.519, 225.058 260.109 C 223.708 257.586, 218.957 254.985, 215.800 255.040 C 214.535 255.062, 212.325 255.719, 210.888 256.500 M 94.763 264.565 C 88.336 268.052, 87.489 276.709, 93.111 281.440 C 97.590 285.209, 102.283 284.917, 106.600 280.600 C 111.701 275.499, 110.910 268.745, 104.775 265.004 C 100.911 262.648, 98.491 262.542, 94.763 264.565 M 297.939 273.354 C 285.161 276.831, 277.305 289.516, 279.971 302.362 C 282.672 315.371, 294.922 324.027, 308.125 322.256 C 314.225 321.438, 321.974 316.236, 325.423 310.644 C 330.904 301.759, 329.972 288.874, 323.272 280.911 C 317.836 274.451, 306.420 271.045, 297.939 273.354" stroke="none" fill="#040404" fill-rule="evenodd"/></svg>