<svg xmlns="http://www.w3.org/2000/svg" width="512" height="512" viewBox="0 0 512 512" version="1.1"><path d="" stroke="none" fill="#080404" fill-rule="evenodd"/><path d="M 225 1.514 C 116.007 14.979, 26.946 97.022, 4.936 204.237 C -0 228.284, -1.440 262.012, 1.446 286 C 15.629 403.892, 108.108 496.371, 226 510.554 C 240.764 512.330, 271.236 512.330, 286 510.554 C 387.632 498.327, 471.885 427.572, 501.459 329.612 C 505.735 315.449, 509.684 296.228, 510.618 285.032 C 510.989 280.580, 511.677 276.700, 512.146 276.410 C 512.616 276.119, 512.964 266.346, 512.921 254.691 C 512.878 243.036, 512.565 234.175, 512.227 235 C 511.889 235.825, 511.061 231.624, 510.387 225.665 C 505.115 179.047, 485.759 133.075, 455.372 95 C 446.671 84.098, 427.902 65.329, 417 56.628 C 378.506 25.907, 333.720 7.160, 285.286 1.494 C 269.863 -0.310, 239.684 -0.300, 225 1.514 M 146 44.590 C 113.529 61.935, 86.338 85.101, 64.961 113.632 L 58.119 122.764 66.882 160.132 L 75.645 197.500 119.208 212.138 L 162.771 226.776 204.342 193.638 L 245.912 160.500 245.706 117.096 L 245.500 73.692 203 56.830 C 179.625 47.555, 159.600 39.745, 158.500 39.474 C 157.266 39.170, 152.476 41.131, 146 44.590 M 309.500 56.348 L 266.500 73.602 266.294 117.051 L 266.088 160.500 307.658 193.638 L 349.229 226.776 392.792 212.138 L 436.355 197.500 445.128 160.090 L 453.900 122.681 447.047 113.590 C 429.677 90.553, 409.475 71.699, 385.290 55.954 C 373.911 48.546, 356.092 38.968, 353.835 39.046 C 353.101 39.072, 333.150 46.858, 309.500 56.348 M 44.582 247.287 L 18.752 278.275 19.416 284.888 C 21.443 305.089, 30.389 336.319, 39.960 356.609 C 45.702 368.783, 55.657 385.945, 57.316 386.532 C 58.755 387.041, 134.372 398.965, 138.145 399.278 C 140.555 399.478, 142.838 396.812, 161.286 372.247 L 181.752 344.994 169.263 295.044 L 156.774 245.094 113.593 230.696 L 70.413 216.299 44.582 247.287 M 398.489 230.624 L 355.478 245.007 343.211 294.254 C 336.465 321.339, 330.986 344.175, 331.035 345 C 331.178 347.373, 371.438 399.510, 373.051 399.411 C 373.848 399.361, 392.755 396.459, 415.066 392.962 L 455.631 386.603 461.221 377.051 C 471.460 359.557, 478.060 344.722, 483.613 326.723 C 487.576 313.876, 491.590 295.276, 492.554 285.292 L 493.250 278.083 468.488 248.292 C 454.869 231.906, 443.225 217.991, 442.613 217.370 C 441.788 216.532, 430.374 219.960, 398.489 230.624 M 0.425 256 C 0.425 267.825, 0.569 272.663, 0.746 266.750 C 0.923 260.837, 0.923 251.162, 0.746 245.250 C 0.569 239.338, 0.425 244.175, 0.425 256 M 177 383.188 C 166.275 397.546, 157.370 409.822, 157.211 410.466 C 157.053 411.111, 168.117 429.156, 181.799 450.567 C 206.549 489.297, 206.695 489.498, 210.588 490.198 C 225.063 492.803, 239.514 494.060, 255.119 494.074 C 273.862 494.090, 283.824 493.197, 301.509 489.916 L 312.518 487.874 334.009 450.288 C 345.829 429.616, 355.656 412.301, 355.847 411.810 C 356.038 411.319, 347.038 398.790, 335.847 383.968 L 315.500 357.018 256 357.050 L 196.500 357.081 177 383.188" stroke="none" fill="#040404" fill-rule="evenodd"/></svg>