<svg xmlns="http://www.w3.org/2000/svg" width="512" height="512" viewBox="0 0 512 512" version="1.1"><path d="" stroke="none" fill="#080404" fill-rule="evenodd"/><path d="M 269.291 2.538 C 254.458 6.327, 239.296 11.706, 227.483 17.373 C 212.174 24.716, 208.584 29.428, 212.510 37.020 C 215.949 43.670, 220.941 43.575, 235.344 36.588 C 245.779 31.526, 264.799 24.466, 265.666 25.332 C 265.879 25.545, 264.725 29.321, 263.103 33.722 C 248.879 72.298, 244.025 115.526, 250.917 142.242 C 258.242 170.638, 276.045 189.996, 301 196.701 C 309.744 199.050, 327.151 198.995, 335.983 196.590 C 353.218 191.897, 368.142 180.346, 374.887 166.478 L 376.721 162.708 380.843 168.287 C 389.339 179.788, 395.675 194.057, 399.602 210.536 C 402.484 222.629, 402.232 254.760, 399.150 268 C 396.501 279.383, 393.076 290.085, 387.863 303.270 C 385.738 308.644, 384 314.347, 384 315.943 C 384 320.013, 388.290 324.776, 392.700 325.603 C 401.456 327.246, 435.563 322.296, 448.963 317.437 C 452.518 316.148, 455.608 315.275, 455.830 315.497 C 456.439 316.105, 454.144 334.380, 452.383 342.954 C 440.032 403.070, 395.684 452.255, 332 476.467 C 316.927 482.198, 316.692 482.074, 326.015 473.304 C 339.845 460.296, 349.296 447.197, 357.152 430.150 C 361.883 419.885, 362.084 415.930, 358.077 411.923 C 355.731 409.578, 354.284 409, 350.751 409 C 345.674 409, 343.605 410.749, 339.862 418.206 L 337.500 422.911 337.434 410.206 C 337.378 399.232, 337.006 396.409, 334.710 389.500 C 331.302 379.247, 325.970 370.188, 318.850 362.556 C 313.573 356.899, 312.907 356.500, 308.745 356.500 C 304.648 356.500, 303.739 357.015, 297.459 362.889 C 293.331 366.751, 288.032 370.497, 284.064 372.358 C 270.913 378.528, 256.647 375.850, 247.019 365.405 C 235.837 353.273, 233.672 334.179, 241.016 312.453 C 244.662 301.666, 244.727 299.017, 241.440 295.111 C 237.471 290.394, 233.276 290.093, 226.271 294.022 C 202.509 307.351, 180.560 329.494, 170.087 350.702 C 162.025 367.028, 158.915 380.225, 158.823 398.500 C 158.726 417.671, 163.127 435.776, 172.046 452.905 L 175.902 460.310 171.822 456.405 C 165.906 450.742, 156.342 437.629, 152.359 429.720 C 135.887 397.012, 136.067 361.620, 152.875 328.050 C 155.505 322.798, 163.436 308.600, 170.500 296.500 C 197.511 250.231, 207.751 226.903, 210.581 205.195 C 211.394 198.959, 210.933 198.911, 222.320 206.410 C 255.310 228.136, 273.339 257.264, 273.127 288.500 C 273.090 294, 272.537 301.750, 271.897 305.722 C 270.979 311.424, 271.002 313.591, 272.005 316.012 C 275.070 323.412, 281.366 323.869, 294.384 317.635 C 305.268 312.422, 312.847 307.336, 322.185 298.975 C 325.993 295.565, 329.268 292.939, 329.462 293.138 C 329.656 293.337, 331.025 296.200, 332.503 299.500 C 337.742 311.194, 341.876 323.822, 344.478 336.083 C 345.928 342.912, 347.805 349.910, 348.651 351.632 C 351.593 357.627, 358.974 358.785, 364.234 354.077 C 367.271 351.359, 367.487 350.745, 367.320 345.327 C 367.096 338.069, 361.294 315.275, 356.533 302.946 C 351.678 290.377, 341.239 270.396, 337.399 266.324 C 334.886 263.660, 333.487 263, 330.354 263 C 325.359 263, 322.916 264.761, 318.123 271.819 C 313.960 277.949, 302.273 289.415, 297.331 292.217 L 294.302 293.935 293.702 282.217 C 292.319 255.188, 281.025 231.800, 258.579 209.487 C 245.199 196.186, 232.767 187.200, 215.724 178.513 C 202.232 171.635, 197.950 170.676, 193.566 173.549 C 189.644 176.119, 188.723 179.772, 189.887 188.144 C 191.591 200.395, 188.750 214.081, 180.441 233.646 C 174.854 246.802, 171.033 253.957, 151.679 287.500 C 135.188 316.080, 129.417 327.538, 125.598 339.273 C 112.079 380.817, 120.355 426.472, 147.500 460.103 C 156.195 470.875, 156.100 470.590, 149.951 467.487 C 141.029 462.986, 126.066 452.692, 117.207 444.962 C 85.186 417.021, 63.974 373.429, 59.078 325.500 C 57.962 314.581, 57.803 309.502, 57.921 288.621 L 58 274.741 62.250 278.388 C 74.852 289.202, 86.445 298.328, 92.809 302.445 C 100.464 307.397, 111.430 312, 115.572 312 C 119.235 312, 123.746 309.376, 124.577 306.761 C 124.973 305.517, 125.385 287.400, 125.494 266.500 C 125.696 227.906, 126.060 222.809, 130.468 197 C 137.376 156.558, 153.037 116.351, 171.960 90.478 C 177.544 82.845, 178.549 80.323, 177.568 76.414 C 175.641 68.735, 165.867 66.286, 160.113 72.040 C 156.559 75.595, 148.236 88.065, 141.675 99.664 C 127.846 124.117, 116.087 158.813, 110.045 193 C 106.223 214.621, 104.894 229.509, 104.311 257.235 L 103.727 284.970 98.614 281.275 C 89.883 274.966, 76.963 263.739, 65.665 252.642 C 55.303 242.464, 54.644 242, 50.550 242 C 41.750 242, 40.042 245.548, 38.035 268 C 35.165 300.099, 37.520 334.065, 44.562 362.143 C 65.346 445.013, 131.386 500.236, 222.500 510.937 C 235.403 512.453, 263.417 512.245, 278.122 510.525 C 326.387 504.879, 371.714 485.973, 406.140 457.128 C 451.854 418.824, 477 364.337, 477 303.584 C 477 290.638, 476.803 289.019, 474.937 286.647 C 472.724 283.834, 467.908 282.104, 464.240 282.805 C 462.997 283.043, 459.677 285.628, 456.862 288.550 C 453.863 291.664, 449.647 294.766, 446.676 296.044 C 440.441 298.726, 424.648 302.608, 416.281 303.515 L 410.063 304.189 412.887 295.835 C 424.931 260.203, 426.045 222.764, 415.976 192 C 408.920 170.442, 392.605 145.639, 377.764 133.908 C 372.371 129.644, 368.821 129.007, 364.091 131.453 C 360.536 133.291, 359.259 136.662, 358.715 145.643 C 358.444 150.119, 357.488 154.427, 356.154 157.183 C 349.305 171.330, 330.126 180.001, 311.589 177.331 C 281.255 172.961, 264.827 143.315, 268.988 100.452 C 271.209 77.570, 276.634 56.392, 287.592 27.835 C 294.826 8.982, 295.015 6.873, 289.850 2.527 C 286.063 -0.659, 281.799 -0.657, 269.291 2.538 M 180.923 49.923 C 174.482 56.365, 178.889 67, 188 67 C 191.258 67, 192.784 66.369, 195.077 64.077 C 201.518 57.635, 197.111 47, 188 47 C 184.742 47, 183.216 47.631, 180.923 49.923 M 209.145 332.500 C 192.592 348.127, 183.053 366.688, 179.985 389.243 C 176.570 414.342, 186.771 444.352, 205.907 465.500 C 219.822 480.879, 240.568 491.969, 253.159 490.759 C 262.669 489.845, 278.260 479.710, 291.594 465.776 C 308.686 447.914, 317.024 429.764, 316.979 410.520 C 316.956 400.764, 314.323 391.071, 310.075 385.105 L 307.901 382.052 302.200 385.914 C 291.545 393.133, 281.901 396.149, 269.651 396.093 C 252.018 396.013, 236.569 387.840, 226.673 373.356 C 219.607 363.014, 216.879 354.131, 216.124 339 L 215.500 326.500 209.145 332.500 M 356.313 366.199 C 345.095 369.106, 347.388 386, 359 386 C 367.797 386, 372.256 376.023, 366.511 369.195 C 363.677 365.828, 360.897 365.011, 356.313 366.199" stroke="none" fill="#040404" fill-rule="evenodd"/></svg>