<svg xmlns="http://www.w3.org/2000/svg" width="512" height="512" viewBox="0 0 512 512" version="1.1"><path d="" stroke="none" fill="#080404" fill-rule="evenodd"/><path d="M 80.831 1.522 C 69.503 5.140, 58.398 15.585, 53.743 27 L 51.500 32.500 51.500 102.500 L 51.500 172.500 54.701 179.259 C 56.462 182.976, 60.175 188.419, 62.951 191.355 L 68 196.693 67.996 214.097 L 67.993 231.500 57.899 233.698 C 28.912 240.011, 10.589 257.230, 2.778 285.500 C 0.792 292.687, 0.571 295.786, 0.609 316 C 0.656 341.098, 2.356 353.739, 9.506 382.162 C 25.205 444.569, 52.207 494.182, 78 508.014 C 84.047 511.257, 85.129 511.500, 93.515 511.500 C 101.687 511.500, 103.156 511.192, 109.221 508.209 C 134.628 495.712, 162.318 445.218, 177.986 382.811 C 196.861 307.633, 188.877 262.247, 153.275 242.337 C 146.276 238.423, 132.314 233.597, 124.750 232.476 L 120 231.773 120 214.240 L 120 196.707 124.320 192.089 C 130.048 185.966, 133.558 179.800, 135.448 172.540 C 137.720 163.815, 137.773 41.387, 135.508 32.693 C 132.126 19.706, 123.791 9.416, 112.074 3.762 C 106.245 0.949, 104.367 0.558, 95.500 0.310 C 88.696 0.120, 84.008 0.508, 80.831 1.522 M 89.326 18.140 C 81.273 19.548, 74.275 24.984, 70.871 32.478 C 69.161 36.241, 69.043 40.741, 69.022 102.434 C 69 167.231, 69.036 168.443, 71.084 172.673 C 73.661 177.997, 81.045 184.640, 85.877 185.983 C 98.117 189.382, 110.512 184.304, 116.342 173.500 C 118.481 169.535, 118.502 168.933, 118.784 104 C 119.041 44.719, 118.909 38.082, 117.392 34.096 C 115.462 29.021, 109.970 22.553, 105.729 20.360 C 101.686 18.269, 94.306 17.270, 89.326 18.140 M 228.194 34.012 C 218.394 35.032, 207.194 37.262, 197.772 40.068 C 186.867 43.316, 185.823 46.760, 189.874 66.116 C 198.427 106.981, 217.154 135.954, 243.417 148.957 C 263.484 158.891, 290.671 161.079, 319.409 155.071 C 324.859 153.932, 329.677 153, 330.116 153 C 331.176 153, 335.660 167.278, 338.123 178.500 C 339.209 183.450, 340.365 193.238, 340.693 200.250 L 341.287 213 279.856 213 L 218.424 213 214.020 215.250 C 211.599 216.488, 208.773 218.660, 207.742 220.077 C 203.908 225.348, 203.966 228.447, 208.538 263.175 C 212.381 292.361, 213.176 296.667, 215.322 299.911 C 217.478 303.168, 221.122 305.456, 227.195 307.363 C 228.154 307.664, 229.135 309.328, 229.455 311.197 C 229.766 313.014, 235.391 356.212, 241.954 407.192 C 249.662 467.058, 254.427 500.925, 255.409 502.823 C 257.505 506.878, 262.427 510.807, 266.279 511.501 C 268.051 511.820, 306.885 511.950, 352.578 511.790 L 435.656 511.500 439.187 508.806 C 441.130 507.325, 443.432 504.608, 444.305 502.770 C 445.340 500.588, 450.090 466.778, 457.975 405.463 C 464.621 353.783, 470.279 310.488, 470.549 309.250 C 470.861 307.816, 471.775 307, 473.069 307 C 477.271 307, 483.201 302.505, 485.895 297.279 C 487.179 294.787, 495 237.134, 495 230.159 C 495 223.853, 491.253 217.785, 485.698 215.096 C 481.447 213.038, 480.261 213, 420.044 213 L 358.720 213 359.320 199.250 C 359.941 185.026, 361.298 177.198, 365.518 163.500 C 369.089 151.912, 368.158 152.492, 379.300 154.906 C 412.186 162.031, 442.792 158.288, 464.039 144.543 C 486.046 130.307, 502.576 101.789, 509.946 65.343 C 514.102 44.790, 513.094 42.758, 496.732 38.700 C 481.088 34.820, 471.754 33.640, 457 33.678 C 435.517 33.732, 419.705 37.918, 404.963 47.455 C 382.911 61.720, 365.972 91.325, 358.995 127.795 C 357.507 135.571, 355.866 140.701, 353.351 145.438 L 349.803 152.118 345.987 144.309 C 343.429 139.074, 341.610 133.368, 340.469 127 C 339.532 121.775, 337.074 112.312, 335.006 105.972 C 321.622 64.940, 297.058 40.923, 262.500 35.080 C 253.398 33.541, 237.479 33.045, 228.194 34.012 M 88.201 36.028 C 83.365 40.533, 84.279 47.407, 90.093 50.255 C 94.705 52.514, 99.369 51.121, 101.594 46.819 C 105.890 38.511, 94.975 29.716, 88.201 36.028 M 226.159 52.178 C 221.572 52.750, 218.197 53.552, 218.659 53.960 C 221.827 56.754, 320.267 122.066, 320.683 121.650 C 321.577 120.757, 314.924 101.917, 310.742 93.500 C 299.906 71.687, 285.448 59.102, 265.306 53.950 C 255.871 51.537, 237.845 50.721, 226.159 52.178 M 442.536 52.041 C 413.081 56.686, 392.470 76.936, 381.509 112 C 380.048 116.675, 378.678 121.053, 378.465 121.729 C 378.124 122.813, 463.661 66.422, 476.460 57.124 L 481.420 53.521 477.460 52.796 C 470.575 51.534, 448.740 51.063, 442.536 52.041 M 209 69.981 C 209 70.478, 210.563 75.657, 212.474 81.489 C 222.926 113.399, 240.589 132.054, 266.500 138.552 C 277.320 141.265, 311.801 140.803, 310.805 137.959 C 310.335 136.618, 209 68.954, 209 69.981 M 440.014 103.057 C 412.247 121.679, 389.385 137.345, 389.209 137.872 C 388.728 139.315, 401.012 140.519, 414.500 140.349 C 434.732 140.096, 450.008 134.536, 462.447 122.901 C 470.452 115.412, 474.707 109.718, 480.002 99.405 C 483.439 92.710, 491.527 70.158, 490.750 69.434 C 490.613 69.305, 467.781 84.436, 440.014 103.057 M 93.750 204.743 L 86 205.084 86 217.542 L 86 230 94 230 L 102 230 102 217 C 102 209.850, 101.888 204.091, 101.750 204.201 C 101.612 204.312, 98.013 204.556, 93.750 204.743 M 222.639 233.250 C 222.838 234.488, 224.350 246.075, 226 259 C 227.651 271.925, 229.265 284.188, 229.588 286.250 L 230.176 290 350.088 290 C 445.349 290, 470.001 289.743, 470.004 288.750 C 470.006 288.063, 471.575 275.575, 473.491 261 C 475.407 246.425, 476.980 233.713, 476.987 232.750 C 476.999 231.092, 470.273 231, 349.639 231 L 222.277 231 222.639 233.250 M 243.500 248.155 C 240.354 249.875, 239 252.118, 239 255.609 C 239 263.288, 242.099 265, 256 265 C 269.690 265, 273 263.248, 273 256 C 273 248.709, 269.703 246.989, 255.800 247.030 C 250.135 247.047, 244.600 247.553, 243.500 248.155 M 293.077 249.589 C 290.629 251.648, 290 252.960, 290 256 C 290 259.040, 290.629 260.352, 293.077 262.411 L 296.153 265 328.500 265 L 360.847 265 363.923 262.411 C 366.371 260.352, 367 259.040, 367 256 C 367 252.960, 366.371 251.648, 363.923 249.589 L 360.847 247 328.500 247 L 296.153 247 293.077 249.589 M 79.495 253.750 C 81.765 274.171, 87.186 299.913, 91.166 309.163 C 92.893 313.178, 93.537 313.876, 94.532 312.814 C 97.880 309.241, 103.651 286.623, 106.477 266 C 107.343 259.675, 108.286 253.037, 108.571 251.250 L 109.091 248 93.973 248 L 78.856 248 79.495 253.750 M 53.978 253.312 C 34.864 259.768, 23.404 273.113, 19.441 293.528 C 17.416 303.961, 17.454 326.164, 19.522 341 C 27.321 396.955, 53.977 463.668, 77.378 485.797 C 86.473 494.398, 93.747 496.210, 102.089 491.954 C 125.483 480.020, 156.215 412.281, 167.172 348.500 C 170.157 331.125, 170.455 300.015, 167.733 290 C 162.901 272.223, 153.097 260.887, 137 254.463 C 133.975 253.256, 130.326 251.990, 128.892 251.651 C 126.316 251.041, 126.276 251.117, 125.643 257.932 C 123.679 279.064, 117.569 305.756, 111.893 318 C 105.666 331.434, 96.535 336.195, 86.306 331.341 C 76.723 326.794, 68.838 305.090, 63.513 268.607 C 62.157 259.316, 60.915 251.581, 60.752 251.419 C 60.590 251.257, 57.542 252.108, 53.978 253.312 M 247.475 311.250 C 248.186 315.332, 271 492.508, 271 493.945 C 271 495.603, 427.927 495.409, 428.478 493.750 C 428.706 493.063, 434.101 451.775, 440.467 402 C 446.833 352.225, 452.215 310.712, 452.427 309.750 C 452.792 308.092, 447.391 308, 349.861 308 L 246.909 308 247.475 311.250" stroke="none" fill="#040404" fill-rule="evenodd"/></svg>