<svg xmlns="http://www.w3.org/2000/svg" width="512" height="512" viewBox="0 0 512 512" version="1.1"><path d="" stroke="none" fill="#080404" fill-rule="evenodd"/><path d="M 129 39.463 C 96.007 45.331, 68.367 59.747, 45.247 83.147 C 21.698 106.981, 7.152 136.079, 1.476 170.711 C -0.196 180.908, -0.430 200.758, 1.016 209.668 C 5.137 235.056, 21.821 267.422, 47.066 299 C 84.893 346.316, 149.264 402.945, 224.956 455.492 C 250.415 473.167, 251.812 474, 256 474 C 260.188 474, 261.585 473.167, 287.044 455.492 C 362.736 402.945, 427.107 346.316, 464.934 299 C 489.737 267.974, 508.015 232.720, 510.702 210.721 C 511.023 208.092, 511.671 205.703, 512.143 205.412 C 512.614 205.120, 513 198.357, 513 190.382 C 513 182.211, 512.613 176.121, 512.114 176.430 C 511.626 176.731, 510.923 174.395, 510.551 171.239 C 509.565 162.867, 504.515 144.010, 500.745 134.622 C 488.955 105.258, 466.541 78.289, 439.402 60.812 C 422.956 50.221, 400.227 42.007, 378.927 38.958 C 367.833 37.370, 340.219 38.248, 330 40.514 C 304.017 46.276, 279.856 58.119, 261.975 73.859 L 256 79.118 250.025 73.859 C 232.159 58.132, 208.165 46.364, 182 40.495 C 171.899 38.229, 139.486 37.598, 129 39.463 M 141.500 59.053 C 90.114 63.241, 45.550 98.738, 27.952 149.500 C 22.263 165.908, 19.512 187.413, 21.171 202.500 C 26.973 255.270, 90.948 330.057, 200.231 411.822 C 225.864 431.001, 254.332 451, 256 451 C 256.666 451, 264.702 445.760, 273.856 439.356 C 392.667 356.241, 469.250 277.435, 487.025 220 C 490.757 207.941, 491.914 197.282, 490.934 184 C 486.888 129.157, 451.319 82.486, 400.373 65.170 C 378.399 57.702, 349.366 56.707, 327 62.657 C 305.476 68.382, 286.959 78.742, 270.160 94.458 C 256.799 106.958, 255.201 106.958, 241.840 94.458 C 213.917 68.335, 178.959 56, 141.500 59.053 M 344.357 93.940 C 341.055 95.352, 339 99.032, 339 103.535 C 339 110.571, 346.039 115.264, 352.527 112.553 C 362.287 108.475, 360.809 94.549, 350.498 93.450 C 348.299 93.216, 345.536 93.437, 344.357 93.940 M 383.388 95.948 C 380.198 97.286, 377 101.909, 377 105.185 C 377 110.810, 379.432 113.608, 386.751 116.405 C 397.415 120.480, 405.686 125.862, 413.971 134.119 C 427.948 148.048, 436.024 165.632, 437.645 185.666 C 438.581 197.230, 441.128 201.024, 448.092 201.222 C 452.360 201.343, 455.660 199.235, 457.598 195.152 C 459.085 192.020, 459.155 190.389, 458.187 181.547 C 454.059 143.845, 431.876 113.179, 398.329 98.798 C 390.884 95.606, 386.291 94.730, 383.388 95.948 M 0.400 191.500 C 0.401 199.750, 0.556 202.992, 0.744 198.704 C 0.932 194.417, 0.931 187.667, 0.742 183.704 C 0.552 179.742, 0.399 183.250, 0.400 191.500" stroke="none" fill="#040404" fill-rule="evenodd"/></svg>