<svg xmlns="http://www.w3.org/2000/svg" width="512" height="512" viewBox="0 0 512 512" version="1.1"><path d="" stroke="none" fill="#080404" fill-rule="evenodd"/><path d="M 174.500 90.788 L 128.500 106.420 91.500 106.960 L 54.500 107.500 48.500 110.300 C 41.766 113.441, 34.164 120.360, 30.396 126.777 C 25.462 135.178, 25.036 140.445, 25.017 193.275 L 25 242.049 12.420 317.275 C -1.847 402.586, -1.861 402.745, 3.855 414.357 C 9.308 425.434, 20.376 433.843, 32.435 436.073 C 35.581 436.654, 65.643 436.932, 107.807 436.770 L 177.945 436.500 180.223 434.225 C 182.328 432.122, 182.525 430.935, 182.827 418.475 L 183.155 405 192.816 405 L 202.477 405 218.250 420.750 L 234.023 436.500 324.262 436.790 C 418.209 437.092, 428.046 436.768, 441.812 432.910 C 482.355 421.548, 509.788 385.658, 511.727 341.445 C 512.299 328.387, 511.166 322.207, 506.516 313.032 C 500.574 301.306, 489.233 290.031, 483.361 290.011 C 479.326 289.997, 476.171 292.646, 475.387 296.705 C 474.814 299.673, 475.317 300.449, 482.207 307.205 C 490.006 314.853, 494.778 322.926, 495.740 330.102 C 496.221 333.687, 495.898 334.155, 486.369 343.657 C 464.996 364.973, 441.603 372.992, 396 374.637 C 380.924 375.180, 375.107 374.898, 354 372.595 C 322.266 369.134, 324.648 369.750, 325.441 365.205 C 326.642 358.324, 332.099 348.751, 338.425 342.426 C 345.236 335.616, 350.499 332.262, 361.603 327.653 L 369.200 324.500 376.471 311 L 383.743 297.500 419.622 296.968 C 439.355 296.676, 455.635 296.338, 455.801 296.218 C 455.967 296.098, 456.769 294.404, 457.584 292.454 C 458.814 289.509, 458.848 288.455, 457.783 286.233 C 455.357 281.176, 454.202 281.031, 416.206 281.015 L 380.912 281 369.706 273.322 C 363.543 269.099, 358.354 265.541, 358.176 265.415 C 357.998 265.289, 358.561 263.816, 359.426 262.143 C 361.529 258.076, 361.409 255.790, 358.927 252.635 C 355.926 248.819, 350.038 248.918, 346.826 252.839 L 344.500 255.679 335.528 249.589 C 330.594 246.240, 326.171 243.226, 325.699 242.892 C 325.227 242.557, 326.275 240.250, 328.027 237.764 C 330.623 234.081, 331.086 232.667, 330.527 230.124 C 328.968 223.023, 322.079 222.042, 315.616 228 C 313.229 230.200, 310.969 232, 310.594 232 C 309.434 232, 288 216.897, 288 216.080 C 288 215.656, 288.860 214.532, 289.910 213.581 C 292.648 211.103, 293.284 207.450, 291.558 204.113 C 288.746 198.675, 283.149 198.472, 277.880 203.617 L 274.175 207.235 260.025 197.517 C 252.242 192.172, 245.508 186.832, 245.061 185.649 C 244.613 184.467, 243.917 180.575, 243.513 177 C 242.216 165.510, 238.780 161.013, 232.504 162.588 C 227.590 163.822, 226.636 166.196, 227.417 175.242 C 227.809 179.784, 228.213 184.553, 228.315 185.840 C 228.475 187.867, 222.376 192.354, 182.781 219.340 C 151.243 240.835, 136.753 251.275, 136.066 253 C 135.519 254.375, 133.206 262.250, 130.927 270.500 C 128.648 278.750, 126.565 285.863, 126.298 286.306 C 126.031 286.750, 123.492 284.930, 120.656 282.262 C 113.843 275.852, 105.283 270.779, 95.490 267.347 C 87.711 264.620, 86.847 264.537, 62.750 264.196 C 40.933 263.888, 38 263.658, 38 262.255 C 38 261.380, 38.490 257.849, 39.089 254.409 L 40.179 248.153 58.866 247.827 L 77.553 247.500 84.026 244.269 C 89.080 241.747, 94.066 237.546, 106.754 225.123 C 135.056 197.411, 135.146 197.242, 135.952 170.023 L 136.500 151.545 178 138.294 C 200.825 131.006, 219.557 125.033, 219.628 125.022 C 219.698 125.010, 220.326 128.665, 221.023 133.145 C 222.641 143.551, 224.585 145.753, 231.500 145.018 C 234.071 144.744, 235.995 143.143, 237.032 140.415 C 237.556 139.038, 236.317 127.582, 233.635 109 C 229.541 80.642, 229.329 79.680, 226.651 77.376 C 225.131 76.069, 223.126 75.035, 222.194 75.078 C 221.262 75.121, 199.800 82.191, 174.500 90.788 M 174.750 107.167 L 136 120.167 136 127.536 L 136 134.904 140.250 133.589 C 168.989 124.696, 215.695 109.582, 216.376 108.955 C 217.519 107.902, 215.820 94.736, 214.500 94.412 C 213.950 94.277, 196.063 100.017, 174.750 107.167 M 53.907 125.326 C 49.878 127.453, 43 134.863, 43 137.078 C 43 137.625, 58.663 138, 81.500 138 L 120 138 120 130.500 L 120 123 89.157 123 C 58.803 123, 58.245 123.037, 53.907 125.326 M 41 193 L 41 232 56.750 231.990 C 77.960 231.977, 77.679 232.121, 99.130 210.365 C 108.276 201.089, 116.597 191.925, 117.621 190 C 119.166 187.096, 119.542 183.731, 119.828 170.250 L 120.172 154 80.586 154 L 41 154 41 193 M 194.500 230.666 C 170.850 246.787, 151.005 260.770, 150.400 261.739 C 149.795 262.707, 146.704 272.959, 143.531 284.519 L 137.762 305.539 150.885 331.769 L 164.007 358 188.281 358 C 208.069 358, 212.945 358.273, 214.663 359.477 C 219.122 362.599, 218.358 370.605, 213.385 372.870 C 211.753 373.614, 202.295 374.002, 185.703 374.005 L 160.500 374.009 152.764 377.018 C 131.270 385.379, 106.030 389.485, 81 388.692 C 62.736 388.114, 51.449 386.398, 33.500 381.472 C 26.900 379.661, 20.855 378.027, 20.067 377.840 C 19.011 377.589, 18.304 379.339, 17.379 384.500 C 14.053 403.037, 17.310 412.469, 28.893 417.843 C 33.632 420.042, 36.241 420.504, 45.750 420.830 L 57 421.216 57 415.562 C 57 410.893, 57.427 409.482, 59.455 407.455 C 62.757 404.152, 66.470 404.316, 70.077 407.923 C 72.540 410.386, 73 411.645, 73 415.923 L 73 421 96.500 421 L 120 421 120 415.073 C 120 409.860, 120.318 408.895, 122.635 407.073 C 126.073 404.368, 129.249 404.450, 132.598 407.331 C 134.795 409.220, 135.396 410.733, 135.778 415.331 L 136.248 421 151.624 421 L 167 421 167 408.082 C 167 400.977, 167.280 394.435, 167.621 393.545 C 169.044 389.837, 173.259 389, 190.500 389 C 202.978 389, 207.770 389.355, 209.800 390.432 C 211.285 391.219, 219.019 398.419, 226.987 406.432 L 241.474 421 259.237 421 L 277 421 277 415.455 C 277 410.900, 277.439 409.470, 279.455 407.455 C 282.538 404.371, 286.107 404.327, 289.598 407.331 C 291.795 409.220, 292.396 410.733, 292.778 415.331 L 293.248 421 316.624 421 L 340 421 340 415.073 C 340 409.860, 340.318 408.895, 342.635 407.073 C 346.047 404.389, 349.247 404.447, 352.495 407.250 C 354.546 409.021, 355.227 410.725, 355.690 415.250 L 356.280 421 379.016 421 L 401.752 421 402.222 415.331 C 402.604 410.733, 403.205 409.220, 405.402 407.331 C 408.893 404.327, 412.462 404.371, 415.545 407.455 C 417.542 409.451, 418 410.911, 418 415.276 L 418 420.642 424.437 419.868 C 437.372 418.310, 447.387 414.474, 459.659 406.377 C 469.064 400.172, 478.878 390.022, 484.193 381.004 C 488.667 373.412, 493.535 362.201, 492.713 361.380 C 492.385 361.052, 489.953 362.567, 487.308 364.748 C 471.827 377.514, 445.319 387.892, 420.500 390.903 C 401.609 393.194, 389.023 392.388, 313.249 384.034 C 273.510 379.653, 240.108 375.593, 239.022 375.012 C 235.210 372.972, 233.779 367.173, 236.282 363.913 C 239.388 359.868, 240.505 359.855, 273.031 363.503 C 290.178 365.427, 305.186 367, 306.382 367 C 308.238 367, 308.824 365.965, 310.376 359.940 C 313.417 348.134, 318.394 339.522, 327.434 330.422 C 336.123 321.675, 341.785 317.901, 351.388 314.455 L 357.500 312.261 362.696 302.881 C 365.554 297.721, 367.916 293.004, 367.946 292.397 C 367.992 291.450, 364.086 288.547, 350.928 279.750 L 348.311 278 342.945 285.578 C 339.994 289.745, 336.803 293.570, 335.855 294.077 C 332.499 295.874, 328.247 295.130, 326.073 292.365 C 322.780 288.179, 323.457 285.189, 329.641 276.614 C 332.896 272.100, 334.854 268.519, 334.271 268.146 C 333.716 267.791, 328.684 264.365, 323.090 260.533 L 312.918 253.565 305.089 261.783 C 298.495 268.703, 296.758 270, 294.084 270 C 289.855 270, 286 266.156, 286 261.939 C 286 259.393, 287.334 257.411, 292.934 251.635 L 299.869 244.484 288.184 236.341 L 276.500 228.199 266.395 238.099 C 256.277 248.013, 254.191 249.162, 249.545 247.379 C 247.747 246.689, 245 241.956, 245 239.548 C 245 238.695, 248.911 233.667, 253.690 228.375 L 262.381 218.753 259.476 216.626 C 257.879 215.457, 252.281 211.542, 247.036 207.927 L 237.500 201.354 194.500 230.666 M 34.521 282.250 C 34.237 283.488, 31.151 301.714, 27.664 322.752 L 21.324 361.005 31.953 364.441 C 69.327 376.523, 107.821 376.318, 142.214 363.854 L 147.927 361.783 132.950 331.934 C 119.104 304.338, 117.498 301.609, 111.678 295.789 C 104.902 289.013, 96.087 283.905, 86.992 281.485 C 82.932 280.405, 75.443 280.021, 58.269 280.012 L 35.038 280 34.521 282.250" stroke="none" fill="#040404" fill-rule="evenodd"/></svg>