<?xml version="1.0" standalone="no"?>
<!DOCTYPE svg PUBLIC "-//W3C//DTD SVG 20010904//EN"
 "http://www.w3.org/TR/2001/REC-SVG-20010904/DTD/svg10.dtd">
<svg version="1.0" xmlns="http://www.w3.org/2000/svg"
 width="512.000000pt" height="512.000000pt" viewBox="0 0 512.000000 512.000000"
 preserveAspectRatio="xMidYMid meet">

<g transform="translate(0.000000,512.000000) scale(0.100000,-0.100000)"
fill="#000000" stroke="none">
<path d="M1325 4690 c-161 -18 -370 -75 -406 -111 -34 -34 -20 -102 25 -119
17 -6 49 0 117 21 155 49 248 63 414 62 349 -1 644 -118 906 -359 151 -139
207 -139 358 0 195 179 396 283 654 337 144 31 370 31 514 0 551 -116 966
-553 1047 -1103 46 -307 -19 -627 -179 -884 -102 -163 -156 -219 -547 -558
l-67 -58 -59 46 c-32 25 -108 72 -170 104 l-112 58 312 180 c171 98 326 194
344 213 74 75 84 188 25 283 -18 29 -29 54 -24 55 33 11 112 75 137 111 25 35
31 55 34 111 4 72 -12 121 -57 168 l-21 23 27 41 c38 57 45 157 15 216 -44 86
-152 146 -233 129 -23 -4 -31 -2 -35 12 -37 125 -150 199 -266 173 -51 -12
-184 -83 -210 -113 -22 -25 -23 -66 -2 -96 24 -34 73 -29 152 16 87 50 97 53
129 41 49 -19 68 -73 39 -111 -7 -10 -139 -90 -292 -179 -153 -88 -288 -169
-298 -179 -24 -24 -25 -74 -1 -100 37 -41 63 -30 436 185 194 112 364 205 375
205 12 0 33 -9 48 -21 31 -25 35 -76 8 -107 -9 -10 -168 -106 -352 -212 -184
-105 -345 -201 -357 -213 -40 -36 -27 -95 26 -116 35 -15 14 -26 362 175 147
85 276 154 286 154 11 0 32 -9 47 -21 31 -25 35 -76 9 -107 -10 -11 -142 -90
-293 -177 -151 -86 -283 -166 -293 -177 -38 -44 -3 -118 56 -118 15 0 93 39
181 90 97 57 166 90 184 90 63 0 96 -85 50 -127 -22 -20 -812 -479 -912 -530
-81 -41 -165 -54 -306 -47 -118 5 -128 4 -170 -18 -25 -12 -338 -227 -696
-475 -358 -249 -673 -462 -699 -473 -199 -85 -436 -16 -555 162 -77 116 -100
262 -61 387 26 83 60 137 123 197 58 55 115 85 1033 549 499 252 546 280 579
350 9 17 31 99 51 181 39 165 157 612 182 687 26 81 91 83 160 4 49 -56 52
-92 14 -238 -36 -141 -33 -167 20 -189 24 -10 35 -9 69 9 80 42 445 254 462
269 22 19 23 70 2 100 -29 42 -71 30 -230 -63 -81 -47 -147 -85 -148 -85 0 0
-1 39 -1 88 0 80 -3 92 -34 150 -40 73 -74 105 -151 141 -72 33 -141 33 -201
0 -76 -42 -90 -75 -178 -404 -44 -165 -92 -349 -106 -410 -34 -151 -44 -185
-55 -185 -11 0 -12 3 -54 180 -83 351 -187 715 -214 755 -60 87 -168 112 -272
64 -77 -36 -111 -68 -151 -141 -31 -58 -34 -70 -34 -149 l0 -87 -25 13 c-14 7
-182 104 -373 214 -217 125 -366 205 -395 212 -116 26 -229 -48 -266 -173 -4
-14 -12 -16 -35 -12 -81 17 -189 -43 -233 -129 -30 -59 -23 -159 15 -216 l27
-41 -21 -23 c-45 -47 -61 -96 -57 -168 3 -56 9 -76 34 -111 25 -36 104 -100
137 -111 5 -1 -6 -26 -24 -55 -59 -95 -49 -208 25 -283 18 -19 173 -115 345
-213 l312 -179 -113 -59 c-61 -32 -138 -79 -171 -104 l-58 -46 -27 24 c-15 14
-115 101 -223 195 -256 224 -359 353 -451 564 -151 352 -141 760 28 1102 94
192 200 319 403 487 34 28 43 42 43 68 1 42 -28 73 -69 74 -39 1 -127 -65
-243 -182 -491 -499 -558 -1278 -159 -1860 86 -126 165 -207 399 -410 115
-101 210 -187 210 -192 0 -5 -9 -26 -20 -48 -51 -101 -64 -263 -30 -395 52
-205 213 -368 425 -431 81 -24 239 -24 320 0 33 10 93 35 133 57 62 33 76 37
91 27 9 -7 149 -128 310 -268 324 -283 356 -304 461 -304 105 0 137 21 462
304 160 140 300 261 309 268 15 10 29 6 91 -27 107 -57 175 -75 293 -75 114 0
185 17 285 70 133 69 247 204 291 343 43 136 34 323 -22 433 -11 21 -19 41
-19 46 0 5 92 89 206 187 113 98 237 212 275 254 183 199 317 466 366 731 24
135 24 392 -1 525 -99 532 -473 963 -985 1136 -499 169 -1070 46 -1456 -313
-47 -43 -89 -78 -95 -78 -6 0 -48 35 -95 78 -202 188 -465 318 -744 367 -109
19 -294 26 -396 15z m133 -1247 c534 -308 496 -288 531 -273 53 22 56 48 20
189 -38 146 -35 182 14 238 69 79 134 77 160 -4 25 -76 143 -522 182 -688 20
-82 43 -163 51 -179 8 -16 13 -30 12 -31 -2 -1 -220 -111 -485 -245 l-481
-243 -154 88 c-447 258 -535 309 -555 328 -47 42 -14 127 49 127 18 0 87 -33
184 -90 88 -51 166 -90 181 -90 59 0 94 74 56 118 -10 11 -142 91 -293 177
-151 87 -283 166 -292 177 -27 31 -23 82 8 107 15 12 36 21 47 21 10 0 139
-69 286 -154 348 -201 327 -190 362 -175 53 21 66 80 27 116 -13 12 -174 108
-358 213 -184 106 -343 202 -352 212 -27 31 -23 82 8 107 15 12 36 21 47 21
11 0 180 -92 375 -205 374 -215 400 -226 437 -185 24 26 23 76 -1 100 -10 10
-144 90 -298 179 -153 88 -285 169 -292 178 -17 23 -17 63 0 85 17 23 56 38
81 31 11 -3 210 -115 443 -250z m2369 -1490 c209 -108 279 -179 324 -324 98
-314 -183 -636 -505 -580 -99 17 -152 45 -351 185 -99 69 -190 126 -202 126
-36 0 -55 -12 -68 -43 -21 -50 -4 -75 101 -148 l95 -67 -285 -247 c-156 -136
-295 -254 -307 -263 -29 -20 -108 -21 -137 -1 -11 8 -150 127 -307 263 l-286
248 38 27 c21 15 169 118 330 230 l292 202 111 -75 c62 -42 121 -76 134 -76
50 0 86 54 67 102 -5 13 -45 48 -90 78 -44 30 -79 59 -78 64 2 5 79 63 173
128 l169 119 110 -6 c68 -4 137 -2 180 5 84 15 203 59 265 99 25 17 53 30 62
30 9 1 83 -34 165 -76z"/>
</g>
</svg>
