<svg xmlns="http://www.w3.org/2000/svg" width="512" height="512" viewBox="0 0 512 512" version="1.1"><path d="" stroke="none" fill="#080404" fill-rule="evenodd"/><path d="M 118.989 23.872 C 104.424 28.534, 93.266 39.342, 87.886 54 L 85.500 60.500 85.500 195.559 L 85.500 330.618 91.345 339.313 C 94.560 344.094, 99.060 349.633, 101.345 351.621 C 107.139 356.662, 117.867 361.631, 125.801 362.951 C 130.588 363.747, 181.156 363.984, 303 363.782 L 473.500 363.500 479.419 361.246 C 492.517 356.257, 501.853 347.702, 507.809 335.230 L 511.500 327.500 511.770 195 C 512.034 65.289, 511.998 62.362, 510.054 55.958 C 507.916 48.912, 502.041 39.125, 497.386 34.851 C 492.522 30.386, 484.815 26.026, 478.145 23.964 C 471.928 22.043, 467.988 22.001, 298.145 22.054 C 135.075 22.104, 124.164 22.215, 118.989 23.872 M 129 55.172 C 127.075 55.717, 124.445 57.139, 123.155 58.331 C 117.734 63.344, 118 57.266, 118 176.195 L 118 286.490 154.750 249.799 C 194.295 210.317, 196.264 208.732, 207.644 207.226 C 215.528 206.183, 222.600 207.213, 229.619 210.426 C 234.206 212.526, 238.662 216.283, 250.496 228.028 L 265.540 242.960 306.820 193.426 C 337.162 157.017, 349.344 143.103, 352.800 140.912 C 365.977 132.553, 384.571 132.948, 395.779 141.825 C 397.890 143.497, 417.591 165.845, 439.558 191.487 L 479.500 238.109 479.791 155.305 C 479.950 109.762, 479.805 70.552, 479.468 68.172 C 478.692 62.703, 473.319 56.461, 468.152 55.025 C 463.190 53.647, 133.880 53.789, 129 55.172 M 178 87.991 C 156.427 95.951, 144.875 117.638, 150.542 139.540 C 156.022 160.714, 177.478 174.734, 198.739 171.032 C 207.194 169.559, 217.714 164.119, 222.823 158.576 C 243.129 136.547, 236.968 102.734, 210.306 89.872 C 204.247 86.949, 202.403 86.555, 193.500 86.276 C 185.380 86.021, 182.466 86.343, 178 87.991 M 189.284 118.727 C 185.749 119.370, 181.997 124.589, 182.022 128.827 C 182.084 139.023, 195.958 142.783, 200.575 133.855 C 204.737 125.806, 198.237 117.097, 189.284 118.727 M 371.500 168.239 C 370.400 168.764, 349.925 192.815, 326 221.685 C 302.075 250.555, 280.836 275.913, 278.802 278.036 C 274.574 282.448, 268.856 284.424, 263.235 283.414 C 260.055 282.843, 256.221 279.494, 237.429 260.872 C 223.968 247.533, 214.603 239, 213.424 239 C 212.210 239, 195.232 255.262, 167.746 282.754 C 143.686 306.819, 124 326.867, 124 327.305 C 124 327.743, 125.561 328.754, 127.468 329.551 C 130.450 330.797, 154.504 330.998, 299.218 330.984 L 467.500 330.967 471.444 328.733 C 478.385 324.802, 479.451 321.704, 479.838 304.342 L 480.176 289.184 428.838 229.195 C 400.602 196.202, 376.600 168.774, 375.500 168.246 C 374.227 167.634, 372.773 167.631, 371.500 168.239 M 45.920 193.324 C 43.503 194.602, 40.693 197.074, 39.675 198.818 C 38.656 200.561, 29.480 233.828, 19.284 272.744 C -1.595 352.428, -2.158 355.536, 1.873 368.807 C 5.809 381.767, 15.582 393.127, 27.500 398.598 C 33.134 401.184, 37.193 402.310, 138.500 429.396 C 178.650 440.130, 232.650 454.580, 258.500 461.507 C 359.234 488.500, 368.674 490.956, 374 491.555 C 391.344 493.507, 412.664 481.606, 420.495 465.599 C 423.615 459.223, 435.933 411.502, 435.973 405.636 C 436.052 394.162, 423.126 386.525, 412.312 391.656 C 406.472 394.427, 404.694 398.655, 398.036 425.600 C 392.979 446.065, 391.361 451.209, 389.274 453.461 C 386.507 456.444, 381.308 459, 378.005 459 C 376.873 459, 311.946 441.862, 233.723 420.917 C 155.500 399.971, 80.112 379.784, 66.194 376.058 C 43.127 369.883, 40.582 368.987, 37.425 365.927 C 30.384 359.103, 29.698 363.364, 51.041 281.317 C 69.356 210.909, 70.132 207.543, 68.989 203.460 C 67.024 196.443, 59.783 191, 52.414 191 C 51.259 191, 48.337 192.046, 45.920 193.324" stroke="none" fill="#040404" fill-rule="evenodd"/></svg>