<?xml version="1.0" standalone="no"?>
<!DOCTYPE svg PUBLIC "-//W3C//DTD SVG 20010904//EN"
 "http://www.w3.org/TR/2001/REC-SVG-20010904/DTD/svg10.dtd">
<svg version="1.0" xmlns="http://www.w3.org/2000/svg"
 width="512.000000pt" height="512.000000pt" viewBox="0 0 512.000000 512.000000"
 preserveAspectRatio="xMidYMid meet">

<g transform="translate(0.000000,512.000000) scale(0.100000,-0.100000)"
fill="#000000" stroke="none">
<path d="M1811 4155 c-72 -16 -169 -59 -236 -105 -86 -59 -166 -143 -359 -379
-359 -439 -544 -622 -941 -931 -66 -51 -122 -94 -124 -96 -2 -2 59 -70 135
-151 77 -82 242 -260 368 -396 126 -137 290 -305 365 -374 475 -437 894 -622
1451 -640 550 -18 997 136 1440 497 138 113 387 359 611 605 90 99 222 242
293 318 72 77 125 141 120 146 -5 4 -61 48 -124 97 -355 275 -610 529 -945
944 -260 320 -405 432 -609 469 -85 16 -234 14 -324 -5 -97 -19 -238 -87 -320
-153 -34 -28 -64 -51 -67 -51 -3 0 -33 23 -67 51 -82 66 -223 134 -320 153
-94 19 -260 19 -347 1z m344 -290 c79 -27 172 -95 285 -209 l104 -105 116 112
c177 173 255 215 415 224 103 6 193 -12 262 -53 62 -36 155 -133 305 -317 240
-295 402 -473 580 -638 l118 -109 -443 0 c-471 0 -501 2 -703 54 -198 50 -379
124 -466 190 l-47 36 -135 0 -136 0 -47 -37 c-93 -71 -302 -153 -538 -210
-110 -27 -110 -27 -588 -30 l-478 -4 118 109 c178 165 346 350 563 622 277
345 349 394 565 386 60 -2 120 -10 150 -21z m570 -1174 c44 -20 95 -44 114
-52 l34 -15 -82 -34 c-46 -18 -119 -55 -163 -81 -45 -27 -83 -49 -84 -49 -2 0
-31 18 -64 39 -34 22 -106 59 -161 83 l-99 43 32 14 c90 38 236 113 263 135
l29 23 50 -34 c28 -19 87 -51 131 -72z m1674 -218 c-40 -52 -320 -354 -421
-454 -404 -402 -776 -598 -1230 -648 -426 -47 -849 54 -1198 287 -157 105
-258 190 -431 362 -151 151 -419 441 -419 454 0 4 228 5 508 3 l507 -3 110
-27 c239 -58 444 -139 538 -210 l47 -37 135 0 135 0 46 35 c111 85 372 180
629 229 119 23 115 23 604 24 430 2 453 1 440 -15z"/>
</g>
</svg>
