<?xml version="1.0" encoding="UTF-8"?>
<svg version="1.1" xmlns="http://www.w3.org/2000/svg" width="512" height="512">
<path d="M0 0 C1.29833267 -0.01248528 1.29833267 -0.01248528 2.62289429 -0.02522278 C5.48464458 -0.049319 8.34616682 -0.05809526 11.20800781 -0.06469727 C13.20094877 -0.07366521 15.19388904 -0.08278709 17.18682861 -0.09205627 C21.36643102 -0.10854873 25.54595331 -0.11624663 29.72558594 -0.11914062 C35.06994844 -0.12451888 40.41355311 -0.16217503 45.75770187 -0.20788479 C49.87565833 -0.23769522 53.99343338 -0.24486508 58.11148834 -0.24586678 C60.08100091 -0.2500626 62.05051434 -0.26247121 64.01992035 -0.28338432 C66.78206797 -0.31037599 69.54247337 -0.30544993 72.3046875 -0.29296875 C73.11120758 -0.30780304 73.91772766 -0.32263733 74.74868774 -0.33792114 C81.90078127 -0.24633905 86.72027815 2.61554182 91.72363281 7.61889648 C95.2730215 13.27162661 97.13473884 18.55274024 96.41113281 25.30639648 C95.79539819 27.3312161 95.07975242 29.26469408 94.26269531 31.21655273 C93.18054753 33.87228238 92.30031263 36.58086705 91.41113281 39.30639648 C92.25369629 39.51619141 92.25369629 39.51619141 93.11328125 39.73022461 C107.03746635 43.24375124 120.24938088 47.56419188 133.41113281 53.30639648 C134.13606934 53.61802734 134.86100586 53.9296582 135.60791016 54.25073242 C152.36181755 61.51832135 168.15280754 70.89112096 182.41113281 82.30639648 C183.24386719 82.94834961 184.07660156 83.59030273 184.93457031 84.25170898 C234.5456825 122.90768599 266.54816767 180.82135582 274.77050781 243.02514648 C282.46888814 307.54490545 264.05959802 372.13078817 223.99316406 423.20092773 C217.91532396 430.63468519 211.20628069 437.53316844 204.41113281 444.30639648 C203.69054687 445.06178711 202.96996094 445.81717773 202.22753906 446.59545898 C171.3073797 478.64096211 127.48097269 499.18800696 84.41113281 508.30639648 C83.41243164 508.5195752 82.41373047 508.73275391 81.38476562 508.95239258 C53.33056717 514.65641455 21.48779267 515.0840669 -6.58886719 509.30639648 C-7.47268066 509.13479004 -8.35649414 508.96318359 -9.26708984 508.78637695 C-52.8755072 500.21181729 -93.48608196 480.22958819 -125.93652344 449.77124023 C-128.04597782 447.81090781 -130.17832661 445.94584965 -132.40136719 444.11889648 C-135.41944625 441.55569537 -137.98148409 438.74789135 -140.53417969 435.72436523 C-142.05993185 433.92885081 -143.62343975 432.16527839 -145.20605469 430.41967773 C-167.59764215 405.52074835 -198.19868076 359.01670215 -197.52636719 324.05639648 C-196.27346329 320.38121173 -194.99381707 319.15691273 -191.58886719 317.30639648 C-187.96386719 317.30639648 -187.96386719 317.30639648 -184.58886719 318.30639648 C-181.77199282 321.30371738 -180.73843778 324.41198736 -179.58105469 328.31420898 C-179.06091797 330.0409082 -179.06091797 330.0409082 -178.53027344 331.80249023 C-178.17835938 333.0000293 -177.82644531 334.19756836 -177.46386719 335.43139648 C-176.75427993 337.80940397 -176.04340837 340.18702873 -175.33105469 342.56420898 C-175.02022949 343.61753418 -174.7094043 344.67085938 -174.38916016 345.75610352 C-173.67651137 348.26352356 -173.67651137 348.26352356 -172.58886719 350.30639648 C-166.50529035 347.78615056 -160.42197995 345.26526235 -154.33886719 342.74389648 C-152.94684586 342.16693024 -152.94684586 342.16693024 -151.52670288 341.57830811 C-138.97895499 336.37691369 -126.43688228 331.16219432 -113.90136719 325.93139648 C-97.67357163 319.16025091 -81.42291081 312.44479916 -65.16821289 305.73852539 C-63.75908379 305.15698196 -63.75908379 305.15698196 -62.32148743 304.56369019 C-60.5054382 303.81456349 -58.68911136 303.06610939 -56.8724823 302.31838989 C-53.13660878 300.77935261 -49.4042048 299.235033 -45.69042969 297.64331055 C-44.0778125 296.95446777 -44.0778125 296.95446777 -42.43261719 296.25170898 C-41.54767578 295.86772949 -40.66273438 295.48375 -39.75097656 295.08813477 C-37.58886719 294.30639648 -37.58886719 294.30639648 -34.58886719 294.30639648 C-34.89824219 293.11014648 -35.20761719 291.91389648 -35.52636719 290.68139648 C-37.67377845 280.73223925 -37.76696112 271.37414196 -36.60449219 261.32983398 C-36.50797363 260.4580249 -36.41145508 259.58621582 -36.31201172 258.68798828 C-36.07575874 256.56025311 -35.83298849 254.43324326 -35.58886719 252.30639648 C-36.5555835 251.91073486 -37.5222998 251.51507324 -38.51831055 251.10742188 C-62.48034087 241.29789785 -86.41384562 231.42147414 -110.32617188 221.49145508 C-118.52864236 218.08543555 -126.73269086 214.68322062 -134.93682861 211.28121948 C-137.49199995 210.22156815 -140.04703637 209.16159213 -142.60205078 208.1015625 C-152.92422828 203.82001809 -163.25350113 199.55600522 -173.58886719 195.30639648 C-179.83993579 217.70804077 -179.83993579 217.70804077 -184.40136719 240.49389648 C-184.51287109 241.19772461 -184.624375 241.90155273 -184.73925781 242.62670898 C-186.15685378 252.32414893 -186.67417344 261.99157906 -186.58105469 271.78295898 C-186.57327499 272.60840714 -186.5654953 273.43385529 -186.55747986 274.28431702 C-186.52058998 277.70936516 -186.47794291 281.13411794 -186.41748047 284.55883789 C-186.37531773 287.09191865 -186.35178997 289.62462495 -186.33105469 292.15795898 C-186.31243378 292.93289703 -186.29381287 293.70783508 -186.27462769 294.5062561 C-186.24918708 299.79871895 -186.24918708 299.79871895 -187.89404297 302.25708008 C-190.7916756 304.05109118 -193.21697719 304.24826045 -196.58886719 304.30639648 C-200.01628348 302.22014309 -201.31367756 301.13196538 -202.58886719 297.30639648 C-210.43983788 238.66643018 -191.08945494 175.28201943 -155.85839844 128.50561523 C-142.69777886 111.43311764 -127.68932481 95.296574 -110.25976562 82.53295898 C-108.60715464 81.31982082 -106.97662349 80.08100736 -105.34667969 78.83764648 C-83.49449118 62.43066791 -46.09442385 39.30639648 -17.58886719 39.30639648 C-17.93820313 38.61932617 -18.28753906 37.93225586 -18.64746094 37.22436523 C-19.1025 36.32331055 -19.55753906 35.42225586 -20.02636719 34.49389648 C-20.70505859 33.15391602 -20.70505859 33.15391602 -21.39746094 31.78686523 C-24.07399928 26.21440017 -24.57177245 20.91235616 -22.94042969 14.92749023 C-20.71595313 9.30926098 -17.60080899 5.65868212 -12.58886719 2.30639648 C-12.06927429 1.95814316 -11.5496814 1.60988983 -11.01434326 1.25108337 C-7.40612081 -0.15426566 -3.81860124 0.00311572 0 0 Z M-6.58886719 18.30639648 C-7.94768971 21.49944501 -7.76798883 22.85623708 -6.48413086 26.08276367 C-5.91412354 27.07953125 -5.34411621 28.07629883 -4.75683594 29.10327148 C-4.12841797 30.21774658 -3.5 31.33222168 -2.85253906 32.48046875 C-2.16087256 33.67267147 -1.46880636 34.86464237 -0.77636719 36.05639648 C-0.07405077 37.28873645 0.62711428 38.52173326 1.32714844 39.75537109 C3.33559617 43.28390693 5.37003997 46.79664194 7.41113281 50.30639648 C7.89114746 51.13349121 8.37116211 51.96058594 8.86572266 52.81274414 C10.80250169 56.13999224 12.75864577 59.45510146 14.72753906 62.76342773 C19.00020364 69.96152031 23.14874873 77.23298272 27.32324219 84.48828125 C27.93876953 85.55747803 28.55429688 86.6266748 29.18847656 87.72827148 C29.73753662 88.68314453 30.28659668 89.63801758 30.85229492 90.62182617 C31.36671143 91.50773437 31.88112793 92.39364258 32.41113281 93.30639648 C33.19145874 94.71646973 33.19145874 94.71646973 33.98754883 96.1550293 C34.45733154 96.86498047 34.92711426 97.57493164 35.41113281 98.30639648 C36.07113281 98.30639648 36.73113281 98.30639648 37.41113281 98.30639648 C37.81726807 97.59435059 38.22340332 96.88230469 38.6418457 96.14868164 C45.50465748 84.11976446 52.36914591 72.0919985 59.2956543 60.09960938 C60.53530466 57.95273158 61.77311059 55.80478768 63.0090332 53.65576172 C65.98822991 48.47855507 68.99145061 43.31894555 72.05175781 38.18920898 C72.61926758 37.22684326 73.18677734 36.26447754 73.77148438 35.27294922 C74.83454034 33.4711675 75.90877407 31.67591592 76.99609375 29.88867188 C77.46305664 29.09195068 77.93001953 28.29522949 78.41113281 27.47436523 C78.82363281 26.78624756 79.23613281 26.09812988 79.66113281 25.38916016 C80.68032641 22.55884095 80.49287496 21.10681282 79.41113281 18.30639648 C75.4059489 15.19071138 71.85097478 14.87472051 66.94628906 14.91821289 C66.21231903 14.91295593 65.478349 14.90769897 64.72213745 14.90228271 C62.30575017 14.88912256 59.89002633 14.89780629 57.47363281 14.90795898 C55.78881708 14.90593709 54.1040022 14.9030247 52.41918945 14.89926147 C48.8920049 14.89484353 45.3650486 14.90125202 41.83789062 14.9152832 C37.32182138 14.93237488 32.80628705 14.92253085 28.29023743 14.90456581 C24.8123371 14.8937136 21.33456312 14.89718089 17.85665894 14.90494919 C16.19172095 14.90694722 14.52677141 14.90450586 12.86184692 14.89751053 C10.53291537 14.88987223 8.20484421 14.9015327 5.87597656 14.91821289 C4.84873978 14.90910385 4.84873978 14.90910385 3.80075073 14.89981079 C-0.47798525 14.95644439 -3.1912206 15.67774032 -6.58886719 18.30639648 Z M-17.38964844 55.51342773 C-18.7325293 55.89917969 -18.7325293 55.89917969 -20.10253906 56.29272461 C-21.02615234 56.56536133 -21.94976562 56.83799805 -22.90136719 57.11889648 C-24.26938477 57.51044922 -24.26938477 57.51044922 -25.66503906 57.90991211 C-31.0800591 59.4820147 -36.32024806 61.29982016 -41.58886719 63.30639648 C-37.27759453 75.07999429 -32.60991282 86.67609683 -27.77636719 98.24389648 C-27.02867495 100.039346 -26.28128596 101.83492182 -25.53417969 103.63061523 C-23.98765424 107.34708417 -22.43984913 111.06301613 -20.89111328 114.77856445 C-17.62873032 122.60811209 -14.38237498 130.44429671 -11.13562012 138.28033447 C-9.39289685 142.48593726 -7.64902727 146.69106467 -5.90527344 150.89624023 C-5.19970149 152.59789809 -4.49413515 154.29955828 -3.78857422 156.0012207 C-3.25287811 157.29319366 -3.25287811 157.29319366 -2.70635986 158.61126709 C3.33280436 173.17631022 9.37196859 187.74135335 15.41113281 202.30639648 C16.80525391 202.09418457 16.80525391 202.09418457 18.22753906 201.87768555 C19.46375 201.69431641 20.69996094 201.51094727 21.97363281 201.32202148 C23.19179687 201.13929688 24.40996094 200.95657227 25.66503906 200.76831055 C34.1769173 199.71874892 42.38239912 200.05208643 50.84863281 201.32202148 C52.08484375 201.50539062 53.32105469 201.68875977 54.59472656 201.87768555 C55.52414062 202.01916016 56.45355469 202.16063477 57.41113281 202.30639648 C67.05794525 179.0620119 76.68859172 155.81104687 86.28759766 132.546875 C90.26240049 122.91570437 94.24674434 113.28865393 98.25097656 103.66967773 C99.03224615 101.79143067 99.81349648 99.9131756 100.59472656 98.03491211 C102.05430601 94.5259831 103.51697694 91.01836551 104.98144531 87.51147461 C108.31590782 79.50681667 111.57720058 71.50605853 114.41113281 63.30639648 C111.07951151 62.17628307 107.74554233 61.05325389 104.41113281 59.93139648 C103.4765625 59.61428711 102.54199219 59.29717773 101.57910156 58.97045898 C91.22621043 55.3849699 91.22621043 55.3849699 80.41113281 54.30639648 C80.09063965 54.87745117 79.77014648 55.44850586 79.43994141 56.03686523 C72.568677 68.26757004 65.62609413 80.45198126 58.52856445 92.55297852 C55.71942207 97.34284044 52.92757485 102.14013044 50.18847656 106.97045898 C49.68654785 107.85185547 49.18461914 108.73325195 48.66748047 109.64135742 C47.73044202 111.2898099 46.79879428 112.94134274 45.87353516 114.59643555 C45.4592627 115.32314453 45.04499023 116.04985352 44.61816406 116.79858398 C44.26214111 117.43135254 43.90611816 118.06412109 43.53930664 118.71606445 C42.41113281 120.30639648 42.41113281 120.30639648 39.41113281 122.30639648 C36.53613281 122.74389648 36.53613281 122.74389648 33.41113281 122.30639648 C27.85635887 117.9330839 25.03619944 111.67596096 21.72363281 105.55639648 C20.47375445 103.28477922 19.22244845 101.01394688 17.96972656 98.74389648 C17.36112793 97.63788086 16.7525293 96.53186523 16.12548828 95.39233398 C13.91139802 91.40684538 11.61834414 87.4736058 9.28613281 83.55639648 C3.53608932 73.87814128 -2.02390766 64.09190662 -7.58886719 54.30639648 C-11.11134782 54.18560562 -14.00841087 54.53499675 -17.38964844 55.51342773 Z M128.41113281 70.30639648 C127.87093506 71.64988159 127.87093506 71.64988159 127.31982422 73.02050781 C119.89117427 91.48081841 112.3667677 109.8973481 104.66113281 128.24389648 C98.07195642 143.93278883 91.53028446 159.64041098 85.03613281 175.36889648 C84.62931274 176.35356903 84.22249268 177.33824158 83.80334473 178.35275269 C82.64321755 181.16121296 81.48399642 183.97004508 80.32519531 186.77905273 C79.98741058 187.59705353 79.64962585 188.41505432 79.30160522 189.25784302 C78.65968774 190.81558922 78.01995624 192.37423839 77.38262939 193.93386841 C76.68791635 195.63045307 75.98587078 197.32404263 75.2789917 199.01559448 C74.91187073 199.90618561 74.54474976 200.79677673 74.16650391 201.71435547 C73.8305722 202.52170639 73.4946405 203.32905731 73.14852905 204.16087341 C72.24861802 206.40113091 72.24861802 206.40113091 72.41113281 209.30639648 C74.99521598 211.30519062 74.99521598 211.30519062 78.28613281 213.30639648 C87.75217139 219.52593634 94.81587266 227.42143688 100.41113281 237.30639648 C108.61638954 234.765778 116.48853853 231.48925886 124.41918945 228.2109375 C126.95600218 227.1628588 129.49488112 226.11992097 132.03417969 225.07788086 C140.37198219 221.65158506 148.69622883 218.19574651 156.99621582 214.67874146 C160.72974106 213.09722195 164.46678174 211.52409675 168.20385742 209.95098877 C169.99961623 209.19177097 171.79343114 208.42793779 173.58520508 207.65936279 C176.0955428 206.58265647 178.61188413 205.52128668 181.12988281 204.46264648 C181.86682373 204.14155914 182.60376465 203.8204718 183.36303711 203.48965454 C187.86896175 201.61642475 191.44368973 200.89061931 196.41113281 201.30639648 C198.34863281 202.30639648 198.34863281 202.30639648 199.41113281 204.30639648 C200.21567827 209.93821467 200.21567827 209.93821467 199.41113281 212.30639648 C194.68484648 215.90989705 189.61917503 218.07358697 184.13378906 220.29077148 C183.22585602 220.66372345 182.31792297 221.03667542 181.38247681 221.42092896 C179.42977801 222.22203668 177.47585796 223.02017288 175.52084351 223.81561279 C172.44770745 225.06695295 169.37883852 226.32828101 166.31079102 227.59204102 C157.08036179 231.38834991 147.83831589 235.15166816 138.55671692 238.82128906 C134.9244104 240.25854126 131.29740264 241.70890006 127.67062378 243.16003418 C125.13077271 244.16863342 122.5829878 245.15502561 120.03442383 246.14135742 C118.49678651 246.75514876 116.95956986 247.36999537 115.42285156 247.98608398 C114.72092682 248.24994904 114.01900208 248.51381409 113.29580688 248.78567505 C111.1435609 249.61347471 111.1435609 249.61347471 108.41113281 251.30639648 C106.90850722 254.90258021 107.57304636 257.59702155 108.41113281 261.30639648 C108.50003959 263.11204281 108.5417337 264.92043903 108.54394531 266.72827148 C108.54587891 268.26741211 108.54587891 268.26741211 108.54785156 269.83764648 C108.54398437 270.89983398 108.54011719 271.96202148 108.53613281 273.05639648 C108.54193359 274.62647461 108.54193359 274.62647461 108.54785156 276.22827148 C108.5402151 282.33744292 108.20947163 288.24915908 107.41113281 294.30639648 C108.33297363 294.67700195 109.25481445 295.04760742 110.20458984 295.42944336 C127.95389566 302.57084901 145.66647099 309.78774853 163.28613281 317.24389648 C190.86576903 328.9107314 218.57073949 340.27567983 246.41113281 351.30639648 C263.12221126 299.96347318 265.20062109 249.76080245 247.41113281 198.30639648 C247.08113281 197.31639648 246.75113281 196.32639648 246.41113281 195.30639648 C240.82809414 196.82567471 235.57143854 198.62694023 230.28613281 200.99389648 C225.29534821 203.11353473 221.79690119 204.18770404 216.41113281 203.30639648 C214.34863281 201.74389648 214.34863281 201.74389648 213.41113281 199.30639648 C213.34863281 195.80639648 213.34863281 195.80639648 214.41113281 192.30639648 C219.20181472 188.48607599 224.6447223 186.35034353 230.28613281 184.05639648 C231.16527344 183.69288086 232.04441406 183.32936523 232.95019531 182.95483398 C235.10153902 182.06623549 237.25512783 181.18361024 239.41113281 180.30639648 C231.88290822 155.26432297 212.17181398 132.84891248 194.41113281 114.30639648 C193.70214844 113.55616211 192.99316406 112.80592773 192.26269531 112.03295898 C187.03733463 106.63697428 181.32913825 101.92259036 175.41113281 97.30639648 C174.86602051 96.87955566 174.3209082 96.45271484 173.75927734 96.01293945 C152.73877715 78.86496986 152.73877715 78.86496986 128.41113281 70.30639648 Z M-103.58886719 98.30639648 C-104.37874023 98.94182373 -104.37874023 98.94182373 -105.18457031 99.59008789 C-117.90817088 109.8671395 -129.69473139 121.25209357 -139.58886719 134.30639648 C-140.07709961 134.94528809 -140.56533203 135.58417969 -141.06835938 136.24243164 C-149.29526329 147.07243798 -156.35158841 158.22328789 -162.58886719 170.30639648 C-162.97284668 171.04212891 -163.35682617 171.77786133 -163.75244141 172.53588867 C-165.83849812 176.22920974 -165.83849812 176.22920974 -166.58886719 180.30639648 C-151.11969067 187.18945883 -135.49675723 193.66482771 -119.82495117 200.06811523 C-109.46215961 204.30296959 -99.11452813 208.5713268 -88.78567505 212.88830566 C-75.739876 218.34041122 -62.68412226 223.76835853 -49.61035156 229.15307617 C-47.85495759 229.87660941 -46.10006867 230.60136924 -44.34570312 231.32739258 C-41.91512172 232.33290928 -39.4827368 233.33392729 -37.04980469 234.33374023 C-36.32143402 234.63606064 -35.59306335 234.93838104 -34.84262085 235.24986267 C-31.33146727 236.78161015 -31.33146727 236.78161015 -27.58886719 237.30639648 C-26.11689721 235.31279153 -24.75085153 233.31790022 -23.40136719 231.24389648 C-17.14213909 221.95956254 -9.77283899 214.39838239 0.41113281 209.30639648 C-0.18469619 204.52140298 -1.60922504 200.41553322 -3.51855469 196.02514648 C-3.97114403 194.96157173 -3.97114403 194.96157173 -4.43287659 193.87651062 C-5.09065845 192.33221327 -5.75132029 190.78914017 -6.41452026 189.24716187 C-8.24576304 184.98771834 -10.05428846 180.7186167 -11.86621094 176.45092773 C-12.44215752 175.09672478 -12.44215752 175.09672478 -13.02973938 173.71516418 C-17.43706404 163.33909691 -21.73237401 152.91724437 -26.02636719 142.49389648 C-26.82239281 140.56399798 -27.61853553 138.63414777 -28.41479492 136.7043457 C-31.61933968 128.93693624 -34.82164302 121.16860413 -38.02246094 113.3996582 C-39.98348254 108.64070056 -41.94756177 103.8830144 -43.91360474 99.12612915 C-44.64655253 97.35117858 -45.37841211 95.57577819 -46.10910034 93.79989624 C-47.1191606 91.34519819 -48.1328963 88.89204807 -49.14746094 86.43920898 C-49.58372803 85.37512062 -49.58372803 85.37512062 -50.02880859 84.28953552 C-52.0105562 79.51315389 -54.23494845 74.91120372 -56.58886719 70.30639648 C-71.50752053 70.30639648 -92.43801112 89.22987669 -103.58886719 98.30639648 Z M-9.58886719 237.64624023 C-18.87854702 249.99911191 -22.94889211 265.66915456 -21.02636719 280.99389648 C-17.66809364 298.16785235 -8.8613754 312.22866464 5.66113281 322.05639648 C19.08526122 330.24548874 35.34265264 332.6214779 50.66113281 329.18139648 C66.2530503 324.58810187 79.54421744 314.73956389 87.41113281 300.30639648 C94.07781027 285.26720764 96.48566686 269.02075466 90.66113281 253.18530273 C83.74841129 237.26444098 73.45950001 225.64365964 57.12597656 218.96264648 C32.15684342 210.29925456 7.53268456 217.61536231 -9.58886719 237.64624023 Z M100.41113281 308.30639648 C99.97687988 309.04801025 99.54262695 309.78962402 99.09521484 310.55371094 C92.30430669 321.9991454 83.33239977 329.87329083 72.41113281 337.30639648 C73.0999165 341.87222264 74.77442731 345.92201216 76.55957031 350.14624023 C76.8835379 350.92342911 77.20750549 351.70061798 77.54129028 352.50135803 C78.61879204 355.08394338 79.70256553 357.66385086 80.78613281 360.24389648 C81.55164405 362.07635442 82.31660715 363.90904143 83.08105469 365.74194336 C84.28457612 368.62746665 85.48843039 371.51284609 86.69390869 374.39755249 C90.73291043 384.06413188 94.73159567 393.74718399 98.72564697 403.43240356 C100.70232089 408.22448681 102.68184925 413.01539066 104.66113281 417.80639648 C107.06051366 423.61460132 109.45942979 429.42299628 111.85644531 435.23217773 C113.83221749 440.02011979 115.81022923 444.80713105 117.78979492 449.59350586 C118.52968328 451.38354275 119.2687951 453.17390083 120.00708008 454.96459961 C121.02512591 457.4335538 122.04592379 459.90135284 123.06738281 462.36889648 C123.36338379 463.08859619 123.65938477 463.8082959 123.96435547 464.54980469 C125.62675179 468.55632355 127.42151482 472.44756097 129.41113281 476.30639648 C152.85455525 466.10055317 173.0099903 451.96782339 191.41113281 434.30639648 C191.9733252 433.77143555 192.53551758 433.23647461 193.11474609 432.68530273 C212.44432925 414.20402312 228.63882124 391.8811335 239.41113281 367.30639648 C239.41113281 366.64639648 239.41113281 365.98639648 239.41113281 365.30639648 C216.16674823 355.65958405 192.9157832 346.02893757 169.65161133 336.42993164 C160.0204407 332.45512881 150.39339026 328.47078496 140.77441406 324.46655273 C138.896167 323.68528315 137.01791193 322.90403282 135.13964844 322.12280273 C131.63071942 320.66322328 128.12310183 319.20055236 124.61621094 317.73608398 C116.611553 314.40162148 108.61079486 311.14032872 100.41113281 308.30639648 Z M-35.95214844 311.27905273 C-36.71763 311.59304016 -37.48311157 311.90702759 -38.27178955 312.23052979 C-40.81575863 313.27477271 -43.35859444 314.32174413 -45.90136719 315.36889648 C-47.68707499 316.10290863 -49.47280114 316.83687616 -51.25854492 317.57080078 C-64.01770156 322.81869309 -76.75694955 328.11355617 -89.48779297 333.4296875 C-102.23807402 338.75241496 -115.00527132 344.03382676 -127.77636719 349.30639648 C-128.7437381 349.70581451 -129.71110901 350.10523254 -130.70779419 350.51675415 C-142.66535413 355.45343166 -154.6258119 360.38305159 -166.58886719 365.30639648 C-164.68632756 371.81949117 -162.10576561 377.47740625 -158.65136719 383.30639648 C-158.17119141 384.12382324 -157.69101563 384.94125 -157.19628906 385.78344727 C-141.72798479 411.7123674 -121.34057429 435.8075481 -96.58886719 453.30639648 C-95.99686523 453.72679199 -95.40486328 454.1471875 -94.79492188 454.58032227 C-82.81730325 462.99900429 -70.15558555 470.73435144 -56.58886719 476.30639648 C-52.16096207 466.99376327 -48.151823 457.55607374 -44.27175903 448.00592041 C-42.52192049 443.6998058 -40.7616334 439.39795863 -39.00292969 435.09545898 C-38.63891556 434.20422333 -38.27490143 433.31298767 -37.89985657 432.39474487 C-34.36280215 423.73985684 -30.7880227 415.10080205 -27.20327759 406.46557617 C-26.15230066 403.93364533 -25.10230332 401.40131008 -24.05249023 398.86889648 C-20.70783417 390.80358734 -17.35513642 382.7417409 -13.98631287 374.68649292 C-12.39987497 370.89173332 -10.81681776 367.09556795 -9.23410034 363.29925537 C-8.47663338 361.48510513 -7.71748445 359.67165617 -6.95657349 357.85894775 C-5.9027844 355.34834444 -4.85462419 352.83545915 -3.80761719 350.32202148 C-3.3385923 349.21088486 -3.3385923 349.21088486 -2.86009216 348.07730103 C-1.38153505 344.51236879 -0.16070303 341.13171665 0.41113281 337.30639648 C-0.73162109 336.48848633 -0.73162109 336.48848633 -1.89746094 335.65405273 C-11.85581827 328.38109513 -19.90916571 321.14089272 -26.27636719 310.39624023 C-26.70949219 309.7065918 -27.14261719 309.01694336 -27.58886719 308.30639648 C-30.30538098 308.30639648 -33.42567176 310.23778387 -35.95214844 311.27905273 Z M15.41113281 343.30639648 C15.00499756 344.29929687 14.5988623 345.29219727 14.18041992 346.31518555 C6.8257845 364.29043524 -0.5450567 382.25843768 -8.02636719 400.18139648 C-8.32739349 400.90260681 -8.6284198 401.62381714 -8.93856812 402.36688232 C-9.55361179 403.84036359 -10.168658 405.31384381 -10.78370667 406.787323 C-11.0919487 407.52580475 -11.40019073 408.2642865 -11.71777344 409.02514648 C-12.02734482 409.76677032 -12.3369162 410.50839417 -12.65586853 411.27249146 C-18.37830731 424.98629763 -24.06646854 438.71435622 -29.74528503 452.4462738 C-31.71610833 457.20879944 -33.70132021 461.96491268 -35.69824219 466.71655273 C-36.53679258 468.72566368 -37.37533517 470.73477788 -38.21386719 472.74389648 C-38.58624512 473.61900879 -38.95862305 474.49412109 -39.34228516 475.39575195 C-40.15038865 477.34241772 -40.88009756 479.3214067 -41.58886719 481.30639648 C-40.17335624 484.13741837 -38.13542604 484.37103781 -35.27001953 485.36206055 C-34.12847412 485.73669434 -34.12847412 485.73669434 -32.96386719 486.11889648 C-31.77398193 486.51093262 -31.77398193 486.51093262 -30.56005859 486.91088867 C-24.10082735 488.96479724 -17.58155278 490.60001816 -10.96386719 492.05639648 C-9.62654541 492.35380737 -9.62654541 492.35380737 -8.26220703 492.65722656 C6.60552292 495.78734541 21.20313485 496.71610572 36.34863281 496.68139648 C37.24676697 496.68085266 38.14490112 496.68030884 39.07025146 496.67974854 C53.83171226 496.63880362 67.98778908 495.65086815 82.41113281 492.30639648 C83.43948242 492.07082031 84.46783203 491.83524414 85.52734375 491.5925293 C95.53981641 489.24657475 105.11663949 486.77774004 114.41113281 482.30639648 C108.58022245 467.51499111 102.57348266 452.80099383 96.47363281 438.11889648 C95.93922073 436.83255814 95.93922073 436.83255814 95.39401245 435.52023315 C93.90438945 431.9351775 92.41455367 428.35021037 90.92442322 424.7653656 C86.44770928 413.99314511 81.99004807 403.21306007 77.53613281 392.43139648 C76.93436218 390.97484146 76.93436218 390.97484146 76.32043457 389.48886108 C69.96971582 374.11397168 63.65630372 358.72449854 57.41113281 343.30639648 C56.73308594 343.44787109 56.05503906 343.5893457 55.35644531 343.73510742 C48.96898402 344.99357885 42.91446088 345.61833294 36.41113281 345.55639648 C35.59902344 345.56413086 34.78691406 345.57186523 33.95019531 345.57983398 C27.60658832 345.55982261 21.61276741 344.60036872 15.41113281 343.30639648 Z " fill="#000000" transform="translate(219.5888671875,-0.306396484375)"/>
<path d="M0 0 C11.0847947 7.46765117 17.67979554 17.31293217 20.9140625 30.25 C22.31259304 44.7947176 19.6276925 58.1695156 10.3984375 69.8046875 C2.19525855 78.82818434 -9.51386892 84.84477693 -21.7734375 85.5 C-36.14239029 85.6057837 -47.94965747 81.02526042 -58.4609375 71.25 C-67.85213455 61.29228062 -71.49402341 49.35205729 -71.12109375 35.796875 C-69.74957428 22.79055558 -63.84414838 10.89225906 -53.7734375 2.5 C-38.42203819 -9.65885167 -16.44989029 -9.7653059 0 0 Z M-48.7734375 20.5 C-53.59205208 28.27930563 -55.69235878 35.36329701 -54.7734375 44.5 C-52.54053794 53.43159823 -47.43737018 60.25262002 -39.8359375 65.375 C-32.33413858 69.62889364 -25.21340225 70.29848831 -16.7734375 68.5 C-9.09796313 65.80351411 -2.49641728 61.40634466 1.5078125 54.19140625 C5.44350397 45.63127731 6.62582593 38.05061824 3.6640625 28.9375 C0.05287015 19.90951912 -5.88799165 14.32681864 -14.7734375 10.5 C-27.26253265 6.53197792 -40.39587424 10.65170897 -48.7734375 20.5 Z " fill="#000000" transform="translate(280.7734375,233.5)"/>
<path d="M0 0 C6.32463044 5.17469764 9.30139562 11.37390217 10.6875 19.3125 C11.35625663 26.53507162 9.94237945 33.05856424 5.80078125 39.03515625 C0.03624285 45.86608395 -4.91994035 49.70146189 -13.86328125 50.71484375 C-23.27426762 51.10263314 -30.29726805 49.86142006 -37.37109375 43.4453125 C-43.35140079 37.05471413 -46.3125 30.07359166 -46.3125 21.3125 C-45.38356545 12.661797 -41.88180723 6.09974685 -35.3125 0.3125 C-24.74031601 -7.91030977 -10.94905377 -7.58170327 0 0 Z M-25.3125 13.3125 C-28.34529114 16.42725847 -30.20745208 18.90048745 -30.3125 23.3125 C-28.71157617 28.38209213 -27.05224733 31.73655036 -22.3125 34.3125 C-18.47672792 35.06405608 -15.00108113 35.18541058 -11.46875 33.359375 C-8.22020139 30.84334226 -6.19140707 28.31640997 -5.3125 24.3125 C-5.42805479 18.88142478 -7.5788761 16.13295236 -11.3125 12.3125 C-16.34377339 8.95831774 -20.41110947 10.35124322 -25.3125 13.3125 Z " fill="#000000" transform="translate(407.3125,383.6875)"/>
<path d="M0 0 C7.03939188 4.94690705 11.28850595 10.29501982 13.75 18.5 C14.58200119 26.82001187 14.13551235 34.39404048 9.30078125 41.49609375 C4.28571395 47.49643949 -0.58622205 50.52874068 -8 53 C-18.20427038 53.86213365 -25.56507408 52.55760499 -33.75 46.375 C-38.86143448 41.57334943 -41.59768283 36.31029394 -42.4453125 29.3359375 C-42.73399141 19.73255227 -41.09482231 13.59802172 -35.8125 5.75 C-26.30490215 -3.54631789 -12.02034393 -6.3838061 0 0 Z M-24 17 C-26.34781141 19.98812362 -26.41825081 23.21911188 -26.3203125 26.96875 C-25.67496059 31.06122552 -23.42442851 33.91939906 -20.1875 36.375 C-15.50341799 37.71330915 -12.11569394 37.55784697 -7.75 35.375 C-4.64473677 32.69318176 -3.29660174 30.88980521 -2 27 C-2.09296244 21.70114083 -3.25507094 18.74492906 -7 15 C-12.82200981 10.78406186 -18.89013842 12.72197635 -24 17 Z " fill="#000000" transform="translate(404,114)"/>
<path d="M0 0 C5.60746214 3.73472046 9.46140805 8.30216592 11.5859375 14.7890625 C13.28271198 23.84919795 12.87848267 33.08282772 7.78125 40.859375 C3.40630683 46.54680113 -2.89025392 50.67942803 -10 52 C-20.2409207 52.90404655 -27.30504659 51.19430412 -35.3125 44.75 C-41.51405323 38.99317967 -43.69773578 32.53396337 -44.25 24.25 C-44.1306844 16.34534164 -40.9281516 9.08848432 -35.46875 3.40625 C-25.39252118 -5.93716218 -11.9193658 -6.67236595 0 0 Z M-25 16 C-27.38621552 19.46386124 -28.01149219 21.34494544 -27.9375 25.5625 C-26.72301582 30.01560865 -24.92221341 32.60805236 -21.1875 35.3125 C-17.93315587 36.33529387 -15.39535546 36.35124367 -12 36 C-8.94642921 34.38679279 -6.76166434 32.96939098 -4.625 30.25 C-3.17600592 25.03362133 -3.29946343 21.35103481 -5.75 16.625 C-8.95257743 12.88865966 -10.50430385 12.16618846 -15.375 11.625 C-19.75105769 12.07769562 -21.68356181 13.13580338 -25 16 Z " fill="#000000" transform="translate(138,115)"/>
<path d="M0 0 C6.74742851 5.66902718 10.81543664 10.6258754 11.68359375 19.51171875 C11.983963 29.94676907 10.4444262 36.65690094 3.32421875 44.3515625 C-3.46515803 50.41494651 -11.16669165 51.53508353 -20 51.453125 C-27.69654809 50.73620885 -33.98564897 46.83552173 -39.17578125 41.19140625 C-43.74977619 34.73685635 -45.78212951 26.93715574 -44.6484375 19.11328125 C-43.05682788 11.44461671 -39.5753853 5.00814662 -33.2109375 0.31640625 C-22.71217791 -6.2453185 -10.4624994 -7.45337347 0 0 Z M-26.4609375 15.80078125 C-28.18272584 19.15373749 -28.8932722 22.37595149 -28.6484375 26.11328125 C-26.69352462 29.95070283 -24.54802734 33.16348633 -20.6484375 35.11328125 C-15.78611058 35.66225364 -13.63470005 35.62467665 -9.2734375 33.36328125 C-5.31674411 29.97182977 -4.79760482 28.43447748 -4.2109375 23.23828125 C-4.32809512 18.40778231 -6.21060508 16.39484856 -9.6484375 13.11328125 C-15.4977288 9.09189348 -21.52923389 11.20919513 -26.4609375 15.80078125 Z " fill="#000000" transform="translate(138.6484375,382.88671875)"/>
</svg>
