<svg xmlns="http://www.w3.org/2000/svg" width="512" height="512" viewBox="0 0 512 512" version="1.1"><path d="" stroke="none" fill="#080404" fill-rule="evenodd"/><path d="M 45.500 17.328 C 37.191 20.586, 31.159 26.028, 26.793 34.205 C 24.784 37.968, 24.500 39.925, 24.500 50 C 24.500 58.604, 24.945 62.654, 26.268 66.081 C 27.997 70.560, 27.989 70.771, 25.903 75.486 C 23.003 82.043, 23.514 95.279, 26.927 102 C 30.012 108.075, 35.460 113.620, 41.500 116.832 C 45.902 119.173, 47.636 119.490, 56 119.490 C 64.364 119.490, 66.098 119.173, 70.500 116.832 C 73.250 115.369, 77.140 112.446, 79.144 110.336 C 82.779 106.509, 86.999 99.234, 87.001 96.790 C 87.002 95.831, 89.377 95.495, 96.251 95.481 C 104.302 95.464, 106.147 95.119, 110.500 92.817 C 116.484 89.652, 121.929 84.142, 125.141 78 C 127.132 74.193, 127.494 72.036, 127.492 64 C 127.491 55.638, 127.172 53.901, 124.832 49.500 C 121.609 43.439, 116.051 37.990, 110 34.956 C 104.614 32.256, 93.710 31.205, 88.837 32.915 C 85.793 33.983, 85.373 33.885, 84.056 31.793 C 80.736 26.519, 72.254 19.275, 67.504 17.656 C 61.894 15.744, 49.992 15.567, 45.500 17.328 M 445.254 18.513 C 442.368 19.977, 439.122 22.301, 438.039 23.677 C 436.201 26.014, 435.830 26.099, 432.399 24.967 C 426.671 23.076, 415.452 24.198, 409.500 27.257 C 390.259 37.146, 385.906 62.749, 400.809 78.369 C 402.839 80.496, 407.124 83.497, 410.331 85.037 C 415.542 87.539, 416.461 88.458, 418.963 93.669 C 422.456 100.943, 427.784 106.112, 435.352 109.568 C 440.561 111.947, 442.099 112.191, 449.352 111.791 C 462.111 111.087, 471.466 105.080, 477.060 94 C 479.696 88.778, 480.821 76.634, 479.210 70.797 C 478.300 67.502, 478.424 66.952, 480.368 65.679 C 481.565 64.894, 483.827 61.896, 485.395 59.016 C 487.994 54.241, 488.204 53.108, 487.788 46.140 C 486.766 29.041, 474.953 17.191, 458 16.261 C 451.389 15.899, 449.878 16.165, 445.254 18.513 M 51.942 32.917 C 43.806 35.485, 40.561 40.461, 40.710 50.140 C 40.836 58.319, 42.236 62.933, 45.529 66.027 C 49.303 69.573, 48.930 74.707, 44.591 78.912 C 38.783 84.541, 39.022 92.333, 45.198 98.704 C 51.441 105.145, 60.559 105.145, 66.802 98.704 C 70.677 94.706, 72 90.565, 72 82.431 C 72 77.366, 72.387 75.985, 74.314 74.174 C 77.649 71.042, 82.378 71.340, 86.962 74.970 C 92.344 79.232, 95.478 80.218, 99.883 79.032 C 107.218 77.057, 112.736 68.438, 111.360 61.106 C 110.484 56.434, 104.688 50.262, 99.990 48.997 C 95.467 47.779, 92.388 48.732, 86.962 53.030 C 79.915 58.611, 72.977 56.137, 71.459 47.500 C 70.504 42.067, 67.063 36.084, 63.976 34.488 C 60.453 32.666, 54.994 31.953, 51.942 32.917 M 278.500 33.344 C 263.993 38.155, 256.833 46.558, 256.368 59.315 C 256.126 65.951, 256.020 66.203, 252.310 68.894 C 250.214 70.414, 247.239 73.480, 245.697 75.709 C 243.193 79.328, 242.237 79.890, 236.742 80.971 C 223.259 83.624, 211.178 90.264, 204.695 98.586 C 202.718 101.124, 200.965 103.594, 200.800 104.076 C 200.635 104.559, 198.025 103.726, 195 102.227 C 190.173 99.834, 188.334 99.500, 179.979 99.500 C 171.229 99.500, 169.915 99.767, 163.755 102.800 C 150.974 109.092, 140.815 121.496, 139.323 132.632 L 138.805 136.500 129.152 136.507 C 115.686 136.516, 109.899 138.911, 100.405 148.405 C 91.658 157.152, 88.765 163.644, 88.554 175 C 88.459 180.112, 87.887 183.296, 86.759 185 C 85.849 186.375, 84.068 189.750, 82.802 192.500 C 78.685 201.443, 79.365 209.682, 96.375 356.884 C 110.974 483.222, 112.036 491.410, 114.126 493.634 L 116.349 496 248 496 L 379.651 496 381.858 493.651 C 383.921 491.455, 384.875 484.254, 396.531 382.901 C 403.388 323.281, 408.998 273.755, 408.999 272.845 C 408.999 271.935, 411.013 270.010, 413.473 268.568 C 418.110 265.851, 422.322 259.957, 423.525 254.500 C 425.033 247.658, 424.563 248, 432.453 248 C 442.863 248, 449.291 244.599, 453.306 236.966 C 456.006 231.834, 456.157 230.919, 455.785 222 C 455.185 207.648, 450.140 198.373, 440.500 193.900 C 435.083 191.386, 426.546 191.428, 421.517 193.991 L 417.611 195.983 415.280 193.794 C 411.337 190.089, 408 183.105, 408 178.558 C 408 171.981, 406.037 162.974, 403.376 157.339 C 400.308 150.842, 394.616 145.662, 386.123 141.638 C 379.922 138.700, 378.784 138.500, 368.269 138.500 L 357.038 138.500 355.897 133.002 C 354.131 124.496, 350.663 117.681, 345.235 112.050 L 340.272 106.901 342.744 100.782 C 348.411 86.753, 342.323 72.708, 327.414 65.414 C 322.391 62.956, 322 62.512, 322 59.249 C 322 44.673, 308.364 33.019, 290.500 32.327 C 285.690 32.141, 280.905 32.546, 278.500 33.344 M 454 32.686 C 450.982 33.843, 449.024 36.359, 448.396 39.887 C 446.923 48.164, 439.095 50.840, 433.485 44.984 C 423.159 34.206, 405.024 45.235, 408.971 59.892 C 410.489 65.529, 416.528 70.665, 422.672 71.546 C 429.113 72.470, 431.597 74.905, 432.419 81.102 C 433.255 87.404, 438.355 93.480, 444.108 95.029 C 458.383 98.873, 470.304 79.849, 459.366 70.677 C 456.638 68.390, 456 67.139, 456 64.082 C 456 59.485, 458.320 57.099, 464.831 55 C 470.738 53.095, 472.580 49.868, 471.035 44.129 C 469.983 40.222, 463.328 33.015, 460.747 32.986 C 460.061 32.979, 458.600 32.779, 457.500 32.542 C 456.400 32.305, 454.825 32.370, 454 32.686 M 280.388 50.433 C 273.198 53.562, 270.724 60.837, 275 66.273 C 279.611 72.134, 276.036 80, 268.762 80 C 264.247 80, 259.927 83.453, 257.078 89.339 C 252.861 98.049, 255.865 106.255, 264.473 109.543 C 268.722 111.166, 269.269 111.169, 273.378 109.600 C 275.785 108.680, 278.555 107.044, 279.533 105.964 C 281.449 103.846, 288.379 103.186, 289.509 105.014 C 291.219 107.781, 298.693 110.360, 305 110.360 C 314.961 110.360, 321.200 106.249, 326.349 96.293 C 331.270 86.777, 323.622 78.204, 311.484 79.631 C 306.557 80.210, 305.653 80.022, 303.465 77.967 C 300.415 75.102, 300.257 70.880, 303 65.500 C 306.708 58.227, 304.992 53.566, 297.444 50.412 C 293.204 48.641, 284.481 48.651, 280.388 50.433 M 230.063 100.192 C 222.265 103.186, 215.694 110.057, 213.409 117.606 C 211.061 125.364, 208.678 128, 204.013 128 C 201.227 128, 199.686 127.266, 197.437 124.866 C 195.822 123.142, 192.499 120.442, 190.054 118.866 C 181.343 113.251, 169.638 115.925, 161.259 125.443 C 155.983 131.437, 154.585 136.668, 155.500 146.998 C 156.174 154.613, 156.073 155.293, 153.936 157.568 C 150.635 161.082, 145.942 160.801, 140.301 156.750 C 136.196 153.802, 135.106 153.500, 128.560 153.500 C 122.272 153.500, 120.713 153.890, 116.448 156.526 C 112.020 159.264, 104.898 168.231, 106.154 169.487 C 106.406 169.739, 108.382 169.457, 110.545 168.860 C 112.708 168.263, 118.103 167.965, 122.534 168.197 C 132.303 168.710, 141.241 172.489, 147.770 178.866 L 152.040 183.036 156.270 178.896 C 158.596 176.619, 163.425 173.349, 167 171.628 C 173.011 168.735, 174.290 168.500, 184 168.500 C 193.674 168.500, 195.011 168.744, 201 171.597 C 204.575 173.301, 209.421 176.572, 211.770 178.866 L 216.040 183.036 220.270 178.896 C 222.596 176.619, 227.425 173.349, 231 171.628 C 237.011 168.735, 238.290 168.500, 248 168.500 C 257.674 168.500, 259.011 168.744, 265 171.597 C 268.575 173.301, 273.421 176.572, 275.770 178.866 L 280.040 183.036 284.270 178.896 C 286.596 176.619, 291.425 173.349, 295 171.628 C 301.011 168.735, 302.290 168.500, 312 168.500 C 321.674 168.500, 323.011 168.744, 329 171.597 C 332.575 173.301, 337.413 176.563, 339.750 178.846 L 344 182.998 348.250 178.846 C 354.760 172.488, 363.706 168.709, 373.466 168.197 C 377.897 167.965, 383.292 168.263, 385.455 168.860 C 387.618 169.457, 389.586 169.747, 389.828 169.505 C 390.071 169.263, 389.703 167.698, 389.011 166.027 C 387.376 162.079, 382.141 157.532, 377.449 155.983 C 372.079 154.211, 360.474 155.185, 355.290 157.842 C 349.744 160.685, 344.949 160.651, 342.273 157.750 C 340.498 155.825, 340.140 153.910, 339.800 144.500 C 339.363 132.431, 337.836 128.019, 332.268 122.732 L 329.352 119.963 323.076 123.200 C 317.543 126.054, 315.655 126.483, 307.150 126.820 C 299.329 127.129, 296.344 126.811, 291.399 125.140 C 285.309 123.083, 285.288 123.083, 280.138 125.040 C 273.842 127.432, 265.050 127.577, 258.643 125.394 C 249.445 122.260, 240.198 111.431, 238.453 101.750 C 237.676 97.438, 237.379 97.383, 230.063 100.192 M 114.236 184.932 C 106.247 186.943, 98.992 194.471, 97.183 202.627 C 96.266 206.761, 98.029 223.093, 121.155 424.750 L 127.491 480 143.245 480 C 155.525 480, 159 479.713, 159 478.697 C 159 477.980, 157.191 446.001, 154.979 407.633 L 150.958 337.872 145.687 332.686 C 139.027 326.133, 136.704 321.269, 136.188 312.794 C 135.707 304.903, 137.654 299.947, 144.119 292.602 L 148.145 288.028 145.993 248.264 C 144.810 226.394, 143.402 206.170, 142.865 203.323 C 140.454 190.540, 126.800 181.769, 114.236 184.932 M 177 185.485 C 167.392 188.579, 160.750 197.483, 160.688 207.355 C 160.670 210.185, 161.491 227.411, 162.514 245.635 L 164.372 278.770 170.936 276.260 C 179.871 272.842, 192.479 269.386, 201.610 267.852 L 209.189 266.578 208.532 237.539 C 208.171 221.568, 207.419 206.128, 206.862 203.229 C 204.306 189.924, 189.864 181.343, 177 185.485 M 241 185.537 C 234.959 187.412, 229.673 191.981, 226.872 197.749 C 224.759 202.097, 224.581 203.687, 224.763 216.500 C 224.873 224.200, 225.253 238.037, 225.609 247.250 L 226.256 264 248 264 L 269.744 264 270.391 247.250 C 270.747 238.037, 271.127 224.200, 271.237 216.500 C 271.419 203.687, 271.241 202.097, 269.128 197.749 C 266.252 191.827, 260.985 187.386, 254.568 185.471 C 248.650 183.705, 246.870 183.714, 241 185.537 M 305 185.485 C 298.920 187.442, 293.656 192.014, 290.877 197.749 C 288.773 202.090, 288.513 204.397, 287.866 224.500 C 287.476 236.600, 287.122 251.055, 287.078 256.621 L 287 266.742 292.136 267.424 C 299.575 268.411, 318.523 273.481, 325.500 276.352 L 331.500 278.821 333.579 242.675 C 334.981 218.283, 335.359 205.130, 334.739 202.225 C 332.090 189.804, 317.351 181.508, 305 185.485 M 369.713 185.400 C 363.556 187.084, 358.124 191.518, 355.159 197.279 C 352.943 201.586, 352.667 204.287, 350.299 244.898 L 347.788 287.952 351.847 292.564 C 358.347 299.947, 360.294 304.892, 359.812 312.794 C 359.296 321.271, 356.973 326.133, 350.306 332.693 L 345.028 337.885 341.014 407.383 C 338.806 445.606, 337 477.582, 337 478.440 C 337 479.787, 339.146 480, 352.750 479.999 L 368.500 479.998 380.291 376.749 C 386.776 319.962, 392.063 272.938, 392.041 272.250 C 392.018 271.563, 391.212 270.996, 390.250 270.991 C 387.442 270.976, 378.615 265.464, 375.238 261.618 C 364.826 249.759, 362.536 234.857, 369.541 224.535 C 371.649 221.428, 371.857 220.277, 371.330 214.628 C 371.001 211.113, 371.029 206.660, 371.390 204.732 C 372.221 200.305, 378.920 192.596, 384.372 189.795 L 388.500 187.674 385.500 186.453 C 380.473 184.406, 374.744 184.024, 369.713 185.400 M 391.295 205.086 C 386.763 207.989, 386.390 210.234, 389.413 216.412 C 390.836 219.320, 392 223.039, 392 224.675 C 392 227.871, 388.509 232, 385.807 232 C 383.095 232, 381.528 237.482, 382.916 242.114 C 385.566 250.959, 394.715 257.167, 402.231 255.221 C 406.523 254.110, 407.967 251.023, 407.985 242.924 C 408.007 233.069, 409.194 232.283, 424.700 231.845 C 432.889 231.613, 437.322 231.078, 438.183 230.217 C 439.974 228.426, 439.582 218.027, 437.579 214.152 C 436.687 212.429, 434.816 210.270, 433.419 209.355 C 430.942 207.732, 430.736 207.793, 424.989 211.846 C 417.133 217.386, 413.220 217.501, 409.293 212.308 C 401.990 202.653, 397.750 200.952, 391.295 205.086 M 231 281.035 C 207.698 282.474, 186.217 287.287, 171.437 294.383 C 156.387 301.607, 150.479 308.424, 153.338 315.266 C 157.916 326.224, 184.228 337.297, 215.855 341.574 C 231.422 343.680, 264.578 343.680, 280.145 341.574 C 311.921 337.276, 338.062 326.276, 342.662 315.266 C 345.518 308.431, 339.636 301.635, 324.563 294.357 C 303.396 284.135, 266.310 278.855, 231 281.035 M 168.663 351.750 C 168.866 354.363, 170.366 380.800, 171.997 410.500 C 173.627 440.200, 175.241 467.988, 175.584 472.250 L 176.208 480 195.604 480 L 215 480 215.003 472.750 C 215.008 464.390, 211.908 358.589, 211.652 358.324 C 211.558 358.227, 205.860 357.005, 198.991 355.607 C 192.121 354.210, 182.478 351.702, 177.562 350.033 C 172.647 348.365, 168.550 347, 168.459 347 C 168.368 347, 168.460 349.137, 168.663 351.750 M 318.044 350.122 C 313.393 351.744, 303.947 354.214, 297.053 355.610 C 290.159 357.006, 284.435 358.231, 284.333 358.333 C 284.067 358.599, 280.991 464.068, 280.996 472.750 L 281 480 300.396 480 L 319.792 480 320.405 472.250 C 320.742 467.988, 322.355 440.200, 323.989 410.500 C 325.624 380.800, 327.128 354.363, 327.334 351.750 C 327.539 349.137, 327.435 347.039, 327.103 347.086 C 326.771 347.133, 322.695 348.500, 318.044 350.122 M 229.026 367.250 C 229.040 371.238, 229.703 395.425, 230.500 421 C 231.297 446.575, 231.960 470.313, 231.974 473.750 L 232 480 248 480 L 264 480 264.026 473.750 C 264.040 470.313, 264.703 446.575, 265.500 421 C 266.297 395.425, 266.960 371.238, 266.974 367.250 L 267 360 248 360 L 229 360 229.026 367.250" stroke="none" fill="#040404" fill-rule="evenodd"/></svg>