<svg xmlns="http://www.w3.org/2000/svg" width="512" height="512" viewBox="0 0 512 512" version="1.1"><path d="" stroke="none" fill="#080404" fill-rule="evenodd"/><path d="M 157.500 133.945 C 156.400 134.396, 154.600 135.764, 153.500 136.987 C 151.524 139.183, 151.500 140.618, 151.500 256.024 L 151.500 372.839 153.910 375.404 C 158.325 380.104, 165.071 379.764, 169.228 374.633 C 170.843 372.639, 170.956 364.892, 170.956 256 C 170.956 147.108, 170.843 139.361, 169.228 137.367 C 166.009 133.393, 161.829 132.174, 157.500 133.945 M 384.500 134.110 C 383.400 134.743, 381.723 136.214, 380.772 137.380 C 379.157 139.362, 379.044 147.103, 379.044 256 C 379.044 364.892, 379.157 372.639, 380.772 374.633 C 384.929 379.764, 391.675 380.104, 396.090 375.404 L 398.500 372.839 398.500 255.942 L 398.500 139.045 395.946 136.492 C 393.031 133.577, 387.448 132.415, 384.500 134.110 M 42.775 169.559 C 41.276 170.372, 39.589 171.900, 39.025 172.953 C 38.349 174.216, 38 202.565, 38 256.212 C 38 345.340, 37.660 340.374, 43.941 342.975 C 47.687 344.527, 51.433 343.658, 54.586 340.505 L 57 338.091 57 256.480 C 57 202.418, 56.652 174.219, 55.970 172.945 C 54.782 170.725, 49.932 167.981, 47.300 168.040 C 46.310 168.062, 44.274 168.746, 42.775 169.559 M 193.127 182.096 C 191.890 183.249, 190.455 185.303, 189.939 186.661 C 188.688 189.950, 188.688 322.050, 189.939 325.339 C 192.125 331.088, 198.834 333.765, 204.055 330.970 C 209.045 328.300, 209 328.983, 209 256 C 209 183.017, 209.045 183.700, 204.055 181.030 C 200.836 179.307, 195.569 179.821, 193.127 182.096 M 343.923 182.923 L 341 185.846 341 256 L 341 326.154 343.923 329.077 C 348.470 333.624, 356.224 332.687, 359.140 327.238 C 361.151 323.481, 361.151 188.519, 359.140 184.762 C 356.224 179.313, 348.470 178.376, 343.923 182.923 M 78.766 187.918 L 75.500 190.836 75.500 256 L 75.500 321.164 78.766 324.082 C 83.229 328.070, 88.086 328.068, 92.077 324.077 L 95 321.154 95 256 L 95 190.846 92.077 187.923 C 88.086 183.932, 83.229 183.930, 78.766 187.918 M 419.923 187.923 L 417 190.846 417 256 L 417 321.154 419.923 324.077 C 423.914 328.068, 428.771 328.070, 433.234 324.082 L 436.500 321.164 436.500 256 L 436.500 190.836 433.234 187.918 C 428.771 183.930, 423.914 183.932, 419.923 187.923 M 231.750 197.080 C 227.068 199.807, 227 200.655, 227 256 C 227 311.685, 227.056 312.354, 231.945 314.970 C 237.087 317.722, 244.060 315.136, 245.925 309.785 C 247.410 305.525, 247.410 206.475, 245.925 202.215 C 245.334 200.519, 243.775 198.427, 242.460 197.566 C 239.760 195.797, 234.373 195.552, 231.750 197.080 M 307.750 197.080 C 303.068 199.807, 303 200.655, 303 256 C 303 300.513, 303.220 308.525, 304.510 311.020 C 308.386 318.515, 318.957 317.502, 322.061 309.339 C 322.602 307.918, 323 285.280, 323 256 C 323 226.720, 322.602 204.082, 322.061 202.661 C 319.874 196.909, 312.789 194.145, 307.750 197.080 M 7.327 216.790 C 6.132 216.971, 3.994 218.279, 2.577 219.696 L 0 222.273 -0 256 L -0 289.727 2.577 292.304 C 8.362 298.090, 17.740 295.052, 19.378 286.861 C 20.188 282.809, 20.188 229.191, 19.378 225.139 C 18.255 219.524, 13.058 215.924, 7.327 216.790 M 119.213 217.531 C 113.360 220.030, 113 222.260, 113 256 C 113 289.759, 113.362 292, 119.214 294.445 C 123.625 296.288, 127.500 295.382, 130.511 291.805 L 133 288.847 133 255.939 L 133 223.032 130.250 220.112 C 126.842 216.494, 123.481 215.708, 119.213 217.531 M 271.213 217.531 C 265.360 220.030, 265 222.260, 265 256 C 265 289.759, 265.362 292, 271.214 294.445 C 275.625 296.288, 279.500 295.382, 282.511 291.805 L 285 288.847 285 255.939 L 285 223.032 282.250 220.112 C 278.842 216.494, 275.481 215.708, 271.213 217.531 M 462.327 216.790 C 461.132 216.971, 458.994 218.279, 457.577 219.696 L 455 222.273 455 256 L 455 289.727 457.577 292.304 C 461.756 296.483, 467.265 296.462, 471.476 292.252 L 474 289.727 474 256 L 474 222.273 471.476 219.748 C 468.858 217.131, 466.059 216.226, 462.327 216.790 M 500.327 216.790 C 497.250 217.256, 493.355 221.476, 492.622 225.139 C 491.812 229.191, 491.812 282.809, 492.622 286.861 C 494.268 295.090, 503.640 298.087, 509.476 292.252 L 512 289.727 512 256 L 512 222.273 509.476 219.748 C 506.858 217.131, 504.059 216.226, 500.327 216.790" stroke="none" fill="#040404" fill-rule="evenodd"/></svg>