<?xml version="1.0" standalone="no"?>
<!DOCTYPE svg PUBLIC "-//W3C//DTD SVG 20010904//EN"
 "http://www.w3.org/TR/2001/REC-SVG-20010904/DTD/svg10.dtd">
<svg version="1.0" xmlns="http://www.w3.org/2000/svg"
 width="512.000000pt" height="512.000000pt" viewBox="0 0 512.000000 512.000000"
 preserveAspectRatio="xMidYMid meet">

<g transform="translate(0.000000,512.000000) scale(0.100000,-0.100000)"
fill="#000000" stroke="none">
<path d="M2900 4465 c-180 -40 -348 -172 -427 -335 -53 -110 -67 -173 -66
-295 1 -130 31 -226 109 -350 85 -133 99 -178 98 -310 0 -128 -16 -180 -90
-292 -48 -73 -51 -103 -14 -135 56 -47 289 -22 475 52 357 142 615 463 675
842 18 111 8 315 -18 398 -45 137 -154 276 -275 348 -131 79 -320 110 -467 77z
m210 -145 c201 -32 362 -188 401 -388 16 -85 7 -245 -21 -352 -67 -261 -246
-483 -487 -604 -74 -37 -227 -86 -268 -86 l-23 0 24 70 c32 91 43 185 33 283
-12 122 -41 197 -123 325 -63 96 -86 172 -86 277 0 261 195 464 465 483 11 1
49 -3 85 -8z"/>
<path d="M2986 4177 c-53 -54 -20 -120 65 -131 29 -4 64 -13 78 -21 63 -33
111 -112 111 -183 0 -80 79 -123 131 -71 19 19 21 30 17 98 -4 62 -11 88 -38
139 -58 109 -161 179 -280 189 -53 5 -61 3 -84 -20z"/>
<path d="M1550 3633 c-25 -9 -64 -36 -90 -63 l-45 -46 -45 19 c-64 28 -160 27
-223 -3 -26 -12 -66 -44 -90 -69 -41 -46 -43 -47 -72 -35 -16 7 -59 13 -95 13
-82 1 -150 -29 -204 -89 -37 -41 -40 -43 -71 -32 -17 7 -58 12 -91 12 -111 0
-205 -67 -239 -170 -31 -94 -35 -844 -6 -1100 16 -141 45 -243 101 -355 51
-102 136 -214 178 -234 16 -8 188 -11 557 -11 l534 0 25 23 c60 53 164 261
201 405 34 129 37 188 36 865 0 665 0 678 -21 725 -26 57 -71 107 -125 134
-53 28 -155 33 -215 11z m144 -148 c58 -28 66 -55 66 -223 l0 -150 -107 42
-108 43 -3 111 c-3 124 3 143 51 172 39 24 59 25 101 5z m-373 -98 c38 -26 59
-60 59 -99 l0 -26 -47 15 c-47 14 -137 13 -175 -2 -14 -6 -18 -2 -18 14 0 56
65 121 121 121 14 0 41 -10 60 -23z m-365 -112 c21 -13 22 -23 29 -283 4 -148
4 -284 0 -303 -18 -82 -81 -119 -150 -87 -50 22 -53 42 -56 340 -4 268 -3 278
17 305 37 50 108 62 160 28z m-383 -97 c45 -24 46 -31 47 -294 0 -238 -1 -253
-20 -277 -38 -48 -120 -48 -167 -1 l-26 26 7 203 c9 257 16 302 50 332 30 25
75 30 109 11z m925 -129 c130 -50 243 -94 250 -97 11 -4 13 -89 10 -461 -4
-453 -4 -457 -30 -552 -25 -90 -74 -206 -118 -276 l-20 -33 -489 0 -490 0 -48
73 c-96 142 -126 258 -143 542 -5 94 -10 173 -10 176 0 4 31 4 69 1 92 -6 130
2 189 42 48 32 50 32 73 16 82 -58 245 -50 298 13 18 22 23 22 75 -11 l44 -28
-19 -25 c-105 -133 -179 -340 -179 -504 0 -68 2 -75 26 -94 33 -26 65 -27 94
-3 18 15 24 33 31 102 12 123 26 175 74 275 50 103 130 204 203 255 28 19 55
44 60 55 13 27 52 190 52 219 0 34 -32 58 -184 132 -147 73 -176 98 -176 157
0 59 49 110 113 116 4 1 114 -40 245 -90z m-173 -399 c-10 -53 -23 -63 -73
-57 -69 8 -104 49 -110 127 l-4 61 96 -48 97 -48 -6 -35z"/>
<path d="M4145 3350 c-203 -32 -325 -114 -476 -320 -210 -286 -529 -479 -871
-526 -159 -22 -156 -21 -173 -54 -37 -72 -8 -98 175 -154 461 -141 838 -200
1290 -201 272 0 276 0 347 26 139 51 260 151 337 277 111 183 115 441 10 631
-56 101 -172 210 -275 259 -121 58 -253 80 -364 62z m210 -165 c245 -64 404
-333 340 -578 -47 -180 -193 -320 -372 -358 -73 -15 -429 -6 -623 16 -215 24
-456 68 -630 115 l-45 12 80 29 c278 101 508 278 708 543 93 124 165 182 270
215 76 24 191 27 272 6z"/>
<path d="M4200 3067 c-83 -42 -48 -147 48 -147 78 0 169 -87 178 -171 7 -61
22 -86 56 -98 36 -13 72 0 88 30 33 61 -15 214 -90 289 -74 74 -223 126 -280
97z"/>
<path d="M2515 2118 c-50 -27 -59 -80 -24 -130 27 -37 59 -138 59 -186 0 -21
-19 -182 -42 -359 -39 -300 -41 -328 -30 -394 32 -186 159 -330 347 -394 71
-24 202 -22 286 5 270 83 413 385 309 650 -11 27 -38 80 -61 117 -170 281
-394 490 -691 647 -110 59 -121 62 -153 44z m287 -310 c240 -177 476 -484 494
-643 17 -147 -77 -299 -217 -351 -25 -10 -76 -17 -119 -18 -67 -1 -84 3 -143
32 -108 53 -175 151 -184 267 -3 39 9 165 37 365 26 193 40 324 37 358 -3 28
-2 52 3 52 4 0 46 -28 92 -62z"/>
<path d="M3042 1217 c-16 -17 -22 -36 -22 -68 0 -39 -4 -48 -42 -80 -32 -28
-41 -43 -41 -67 0 -110 155 -87 212 30 31 65 29 151 -4 183 -31 32 -74 33
-103 2z"/>
</g>
</svg>
