<svg xmlns="http://www.w3.org/2000/svg" width="512" height="512" viewBox="0 0 512 512" version="1.1"><path d="M 148 1.824 C 138.921 4.861, 133.861 7.954, 127.399 14.416 C 117.818 23.997, 113 35.569, 113 49 C 113 62.463, 117.745 73.764, 127.491 83.509 C 137.236 93.255, 148.537 98, 162 98 C 175.444 98, 186.677 93.289, 196.621 83.481 C 206.264 73.969, 211.009 62.603, 210.988 49.068 C 210.957 29.416, 200.362 12.822, 182.397 4.291 C 175.294 0.917, 173.891 0.612, 164.102 0.311 C 155.811 0.055, 152.301 0.385, 148 1.824 M 108.459 101.336 C 91.303 105.705, 77.902 118.750, 71.003 137.796 C 62.649 160.858, 57.277 185.461, 56.200 205.587 C 55.408 220.391, 56.288 246.405, 57.941 257.061 C 60.948 276.441, 70.096 289.509, 84.266 294.671 C 88.331 296.151, 89.172 296.929, 89.981 299.953 C 105.653 358.528, 104.482 415.860, 86.532 468.946 C 82.066 482.155, 81.820 489.240, 85.567 496.759 C 94.158 513.999, 116.754 517.377, 130.245 503.438 C 137.676 495.760, 147.667 462.469, 153.035 427.500 C 155.756 409.771, 156.830 369.269, 155.083 350.267 C 152.763 325.043, 147.577 299.058, 140.060 275 C 135.249 259.601, 134.410 249.944, 136.026 228.574 L 137.197 213.085 131.628 206.520 C 119.690 192.449, 105.356 170.700, 97.856 155.279 C 92.927 145.146, 92.476 138.437, 96.233 131.135 C 99.825 124.156, 105.467 120.652, 113.880 120.177 C 124.919 119.553, 130.795 123.645, 137.172 136.399 C 138.850 139.755, 141.812 145.141, 143.756 148.368 C 146.782 153.395, 147.430 153.983, 148.278 152.467 C 149.922 149.531, 150.386 133.792, 149.004 127.881 C 146.130 115.586, 139.668 106.510, 131.086 102.714 C 125.477 100.233, 115.237 99.609, 108.459 101.336 M 108.001 125.123 C 101.840 127.580, 97.769 133.948, 97.769 141.128 C 97.769 146.817, 100.870 153.884, 110.005 169.013 C 136.490 212.875, 176.117 251.293, 222 277.593 C 229.344 281.803, 231.249 282.465, 236.004 282.466 C 246.361 282.467, 253.467 275.360, 253.467 265 C 253.467 256.619, 250.835 253.188, 239.178 246.376 C 193.434 219.643, 155.395 180.364, 132.490 136.206 C 129.546 130.532, 127.775 128.367, 124.515 126.456 C 120.018 123.821, 112.740 123.233, 108.001 125.123 M 188.167 202.824 C 189.873 207.040, 225.702 234.516, 237.900 240.962 C 240.266 242.213, 240.291 242.179, 239.696 238.513 C 237.223 223.277, 222.220 207.807, 205.632 203.390 C 200.036 201.900, 187.630 201.498, 188.167 202.824 M 150.187 231.717 C 143.358 249.265, 147.489 268.649, 160.920 282.080 C 176.865 298.025, 200.672 300.402, 220.027 287.982 C 222.758 286.230, 224.786 284.463, 224.534 284.054 C 224.281 283.646, 219.671 280.702, 214.287 277.513 C 196.966 267.249, 176.534 252.073, 162.691 239.190 C 150.677 228.009, 151.450 228.471, 150.187 231.717 M 219.396 295.418 C 205.612 299.733, 196 314.276, 196 330.819 C 196 336.374, 200.182 355.609, 202.209 359.381 C 203.319 361.447, 203.367 361.430, 204.099 358.705 C 204.513 357.168, 206.308 348.922, 208.089 340.380 C 210.595 328.358, 211.941 324.001, 214.047 321.094 C 222.447 309.497, 240.433 311.128, 247.044 324.086 C 249.948 329.778, 249.477 334.629, 243.126 364.500 C 236.630 395.053, 236.528 394.011, 245.790 391.935 C 251.247 390.712, 256.381 387.098, 258.510 382.980 L 260.019 380.063 268.759 383.132 C 290.200 390.662, 309.986 400.556, 328.182 412.847 L 337.865 419.388 336.577 422.444 C 335.869 424.125, 329.769 438.550, 323.022 454.500 C 316.275 470.450, 310.525 485.186, 310.246 487.246 C 309.118 495.557, 314.288 504.969, 322.347 509.279 C 326.497 511.498, 326.539 511.500, 383.027 511.500 L 439.553 511.500 444.518 508.945 C 447.524 507.398, 450.669 504.702, 452.491 502.109 C 455.247 498.187, 455.500 497.135, 455.500 489.578 C 455.500 482.212, 455.207 480.910, 452.766 477.415 C 449.325 472.487, 444.769 469.397, 439 468.078 C 436.398 467.483, 420.013 467.039, 400.143 467.024 C 373.067 467.005, 365.891 466.735, 366.283 465.750 C 366.556 465.063, 373.069 449.650, 380.757 431.500 C 388.444 413.350, 395.345 396.700, 396.092 394.500 C 396.862 392.229, 397.445 386.395, 397.440 381 C 397.428 368.887, 395.099 363.119, 387.365 356.050 C 378.549 347.994, 367.005 345.004, 344.678 344.996 C 320.606 344.987, 299.518 339.157, 284.994 328.496 C 282.400 326.591, 275.850 320.413, 270.440 314.766 C 257.508 301.270, 253.755 298.369, 246.145 295.988 C 238.769 293.681, 225.828 293.405, 219.396 295.418 M 224.001 318.123 C 221.162 319.255, 217.267 322.665, 215.885 325.227 C 214.772 327.291, 180 493.186, 180 496.432 C 180 497.671, 181.024 500.621, 182.275 502.987 C 187.974 513.764, 203.661 513.771, 209.090 503 C 211.073 499.065, 245 337.791, 245 332.298 C 245 322.112, 233.487 314.341, 224.001 318.123" stroke="none" fill="#000000" fill-rule="evenodd"/><path d="" stroke="none" fill="#040404" fill-rule="evenodd"/></svg>