<?xml version="1.0" standalone="no"?>
<!DOCTYPE svg PUBLIC "-//W3C//DTD SVG 20010904//EN"
 "http://www.w3.org/TR/2001/REC-SVG-20010904/DTD/svg10.dtd">
<svg version="1.0" xmlns="http://www.w3.org/2000/svg"
 width="512.000000pt" height="512.000000pt" viewBox="0 0 512.000000 512.000000"
 preserveAspectRatio="xMidYMid meet">

<g transform="translate(0.000000,512.000000) scale(0.100000,-0.100000)"
fill="#000000" stroke="none">
<path d="M290 3962 l-30 -30 0 -346 c0 -344 0 -345 23 -370 12 -14 95 -58 192
-101 502 -225 876 -473 1165 -771 303 -312 491 -658 609 -1120 6 -22 22 -51
37 -65 l26 -24 245 0 245 0 29 33 c16 18 29 39 29 46 0 27 69 253 105 347 52
130 146 317 212 419 100 153 175 243 327 396 292 291 642 518 1160 753 93 42
157 76 168 92 16 22 18 55 19 372 l1 349 -23 24 c-30 32 -80 31 -155 -2 -593
-263 -1505 -407 -2356 -374 -705 28 -1340 151 -1815 352 -54 22 -117 43 -140
45 -37 4 -46 1 -73 -25z m543 -351 c361 -106 784 -179 1212 -212 83 -6 151
-12 152 -13 1 -1 -45 -30 -103 -65 -58 -35 -114 -75 -124 -89 -31 -39 -26 -92
10 -127 55 -53 76 -46 342 115 l238 143 217 -131 c263 -157 283 -167 318 -158
44 11 75 53 75 101 0 54 -13 67 -144 144 -59 35 -105 65 -104 67 2 1 68 8 148
14 554 42 1054 142 1468 292 l122 45 0 -197 0 -197 -97 -43 c-481 -211 -889
-477 -1189 -775 -306 -305 -506 -629 -644 -1045 l-48 -145 -125 -3 -124 -3
-28 98 c-123 441 -379 847 -735 1170 -277 251 -680 508 -1078 688 l-132 59 0
197 0 196 120 -44 c66 -24 180 -61 253 -82z"/>
</g>
</svg>
