<svg xmlns="http://www.w3.org/2000/svg" width="512" height="512" viewBox="0 0 512 512" version="1.1"><path d="" stroke="none" fill="#080404" fill-rule="evenodd"/><path d="M 173.821 3.025 L 170.796 6.050 171.157 18.275 C 171.487 29.455, 171.781 31.056, 174.595 37 C 178.517 45.282, 185.642 52.392, 194 56.361 C 199.655 59.046, 201.832 59.498, 210.750 59.837 L 221 60.227 221 77.399 L 221 94.571 211.750 96.423 C 168.999 104.982, 124.485 131.683, 95.775 165.989 C 69.525 197.355, 53.115 234.057, 47.572 273.795 C 45.566 288.183, 45.540 314.387, 47.518 329.474 C 56.473 397.791, 98.931 457.739, 160.731 489.323 C 181.934 500.159, 205.221 507.427, 228.526 510.482 C 243.268 512.415, 268.639 512.429, 283.199 510.512 C 368.321 499.308, 438.153 437.445, 459.561 354.276 C 464.100 336.640, 466 321.217, 466 302 C 466 251.369, 449.154 205.336, 416.225 165.989 C 387.652 131.847, 345.076 106.116, 301.753 96.809 L 291.006 94.500 291.003 77.363 L 291 60.227 301.250 59.837 C 310.122 59.500, 312.374 59.037, 318.003 56.392 C 326.339 52.475, 333.460 45.360, 337.409 37.003 C 340.217 31.060, 340.513 29.446, 340.843 18.275 L 341.204 6.050 338.179 3.025 L 335.154 -0 316 -0 L 296.846 0 293.923 2.923 C 289.807 7.039, 289.807 12.961, 293.923 17.077 C 296.832 19.985, 296.906 20, 308.942 20 L 321.038 20 320.373 22.750 C 318.291 31.354, 313.928 36.350, 306.596 38.527 C 299.293 40.696, 212.707 40.696, 205.404 38.527 C 198.072 36.350, 193.709 31.354, 191.627 22.750 L 190.962 20 203.058 20 C 215.094 20, 215.168 19.985, 218.077 17.077 C 222.193 12.961, 222.193 7.039, 218.077 2.923 L 215.154 -0 196 -0 L 176.846 0 173.821 3.025 M 248.923 2.923 C 242.482 9.365, 246.889 20, 256 20 C 261.847 20, 266 15.847, 266 10 C 266 0.889, 255.365 -3.518, 248.923 2.923 M 43.720 39.006 C 42.099 40.281, 40.381 43.470, 39.007 47.756 C 34.233 62.647, 25.604 71.279, 10.756 76.018 C 2.871 78.534, 0 81.465, 0 87 C 0 92.421, 3.003 95.662, 9.816 97.594 C 24.507 101.758, 34.727 111.759, 39.049 126.199 C 41.404 134.066, 44.379 137, 50 137 C 55.621 137, 58.596 134.066, 60.951 126.199 C 65.273 111.759, 75.493 101.758, 90.184 97.594 C 96.997 95.662, 100 92.421, 100 87 C 100 81.465, 97.129 78.534, 89.244 76.018 C 74.396 71.279, 65.767 62.647, 60.993 47.756 C 59.619 43.470, 57.901 40.281, 56.280 39.006 C 52.945 36.383, 47.055 36.383, 43.720 39.006 M 455.720 39.006 C 454.099 40.281, 452.381 43.470, 451.007 47.756 C 446.233 62.647, 437.604 71.279, 422.756 76.018 C 414.871 78.534, 412 81.465, 412 87 C 412 92.421, 415.003 95.662, 421.816 97.594 C 436.507 101.758, 446.727 111.759, 451.049 126.199 C 453.404 134.066, 456.379 137, 462 137 C 467.621 137, 470.596 134.066, 472.951 126.199 C 477.273 111.759, 487.493 101.758, 502.184 97.594 C 508.997 95.662, 512 92.421, 512 87 C 512 81.465, 509.129 78.534, 501.244 76.018 C 486.396 71.279, 477.767 62.647, 472.993 47.756 C 471.619 43.470, 469.901 40.281, 468.280 39.006 C 464.945 36.383, 459.055 36.383, 455.720 39.006 M 241 76 L 241 92 256 92 L 271 92 271 76 L 271 60 256 60 L 241 60 241 76 M 42.916 80.143 L 36.333 86.988 43.166 93.822 L 50 100.655 56.828 93.828 L 63.655 87 56.655 80 C 52.805 76.150, 49.620 73.067, 49.578 73.149 C 49.535 73.232, 46.537 76.379, 42.916 80.143 M 454.916 80.143 L 448.333 86.988 455.166 93.822 L 462 100.655 468.828 93.828 L 475.655 87 468.655 80 C 464.805 76.150, 461.620 73.067, 461.578 73.149 C 461.535 73.232, 458.537 76.379, 454.916 80.143 M 251.584 116.173 C 245.812 122.916, 240.082 139.882, 236.021 162.250 L 234.251 172 256 172 L 277.749 172 275.979 162.250 C 271.918 139.882, 266.188 122.916, 260.416 116.173 C 258.452 113.878, 256.464 112, 256 112 C 255.536 112, 253.548 113.878, 251.584 116.173 M 221.441 121.158 C 205.761 129.555, 192.098 143.133, 180.328 162.014 C 175.859 169.183, 169.688 181.035, 170.185 181.494 C 170.358 181.655, 175.225 180.734, 181 179.447 C 186.775 178.160, 196.173 176.424, 201.883 175.587 C 207.594 174.751, 212.391 173.939, 212.542 173.783 C 212.694 173.627, 213.781 168.100, 214.958 161.500 C 217.473 147.407, 221.302 131.859, 224.020 124.704 C 225.083 121.907, 225.824 119.491, 225.667 119.334 C 225.510 119.176, 223.608 119.998, 221.441 121.158 M 286.516 120.741 C 290.018 129.101, 295.426 150.745, 298.005 166.721 C 299.140 173.750, 299.255 173.954, 302.335 174.423 C 315.404 176.411, 331.569 179.331, 336.045 180.512 C 338.994 181.290, 341.590 181.743, 341.815 181.519 C 342.421 180.913, 334.057 165.527, 328.759 157.500 C 319.423 143.357, 306.456 130.364, 295.023 123.695 C 287.151 119.103, 285.605 118.566, 286.516 120.741 M 168.080 134.098 C 149.399 144.153, 135.454 154.707, 120.422 170.164 C 109.853 181.033, 105.250 186.621, 98.214 197.127 C 93.352 204.385, 83 222.906, 83 224.345 C 83 224.718, 85.588 222.912, 88.750 220.332 C 100.780 210.519, 120.688 199.131, 136.500 193.018 C 143.899 190.158, 144.158 189.899, 147.018 182.500 C 153.131 166.688, 164.519 146.780, 174.332 134.750 C 176.912 131.588, 178.680 129.006, 178.262 129.014 C 177.843 129.022, 173.261 131.309, 168.080 134.098 M 337.668 134.750 C 347.481 146.780, 358.869 166.688, 364.982 182.500 C 367.842 189.899, 368.101 190.158, 375.500 193.018 C 391.312 199.131, 411.220 210.519, 423.250 220.332 C 426.413 222.912, 429 224.718, 429 224.345 C 429 222.897, 418.636 204.369, 413.776 197.127 C 399.933 176.503, 381.814 158.454, 360.373 143.932 C 353.589 139.337, 335.093 129, 333.655 129 C 333.282 129, 335.088 131.588, 337.668 134.750 M 240.750 192.726 C 231.798 193.044, 231 193.235, 231 195.063 C 231 196.158, 230.351 205.704, 229.558 216.277 C 228.764 226.850, 227.907 239.213, 227.652 243.750 L 227.189 252 256.036 252 L 284.884 252 284.447 245.250 C 283.477 230.234, 280.785 193.492, 280.647 193.384 C 280.110 192.962, 248.703 192.444, 240.750 192.726 M 198.595 197.166 C 188.655 198.837, 161.235 205.432, 160.287 206.379 C 160.070 206.597, 158.162 213.688, 156.048 222.138 C 151.433 240.580, 148.876 256, 150.431 256.001 C 151.019 256.001, 160.950 255.325, 172.500 254.499 C 184.050 253.672, 196.425 252.884, 200 252.748 L 206.500 252.500 206.749 246 C 206.886 242.425, 207.701 229.665, 208.560 217.644 C 209.419 205.623, 209.982 195.686, 209.811 195.560 C 209.640 195.435, 204.593 196.157, 198.595 197.166 M 301.999 196.431 C 301.999 197.019, 302.675 206.950, 303.501 218.500 C 304.328 230.050, 305.116 242.425, 305.252 246 L 305.500 252.500 312 252.748 C 315.575 252.884, 327.950 253.672, 339.500 254.499 C 351.050 255.325, 361.003 256.001, 361.618 256.001 C 362.383 256, 362.028 251.975, 360.493 243.250 C 358.483 231.819, 352.576 207.242, 351.605 206.272 C 351.396 206.063, 344.312 204.162, 335.862 202.048 C 317.420 197.433, 302 194.876, 301.999 196.431 M 126.500 220.330 C 110.433 228.959, 96.174 239.726, 87.205 250 C 81.808 256.184, 71.795 272.003, 73.281 271.999 C 73.402 271.999, 75.815 271.119, 78.644 270.044 C 85.853 267.304, 101.363 263.480, 115.500 260.958 C 122.100 259.781, 127.627 258.694, 127.783 258.542 C 127.939 258.391, 128.755 253.594, 129.596 247.883 C 131.012 238.272, 134.262 221.902, 135.574 217.768 C 136.371 215.256, 135.478 215.508, 126.500 220.330 M 376.426 217.768 C 377.738 221.902, 380.988 238.272, 382.404 247.883 C 383.245 253.594, 384.061 258.391, 384.217 258.542 C 384.373 258.694, 389.900 259.781, 396.500 260.958 C 410.637 263.480, 426.147 267.304, 433.356 270.044 C 436.185 271.119, 438.622 271.999, 438.770 271.999 C 438.919 272, 438.068 270.087, 436.880 267.750 C 427.438 249.182, 408.158 231.700, 383.264 219.133 C 376.043 215.488, 375.680 215.416, 376.426 217.768 M 233.350 272.666 L 227.200 273.090 226.465 286.795 C 225.759 299.946, 226.558 329.892, 227.644 330.977 C 228.524 331.858, 283.777 331.557, 284.667 330.667 C 285.659 329.674, 285.805 274.472, 284.818 273.484 C 284.029 272.695, 242.496 272.035, 233.350 272.666 M 190.500 274.021 C 183.900 274.415, 171.475 275.319, 162.889 276.029 L 147.277 277.320 146.744 289.660 C 146.451 296.447, 146.452 307.563, 146.745 314.363 L 147.279 326.725 154.890 327.320 C 165.963 328.185, 189.287 329.828, 198.250 330.374 L 206 330.846 206 301.923 C 206 274.986, 205.880 273.010, 204.250 273.152 C 203.287 273.235, 197.100 273.626, 190.500 274.021 M 306 302 L 306 330.884 312.750 330.447 C 334.937 329.013, 364.552 326.745, 364.858 326.456 C 365.055 326.270, 365.216 315.265, 365.216 302 C 365.216 288.735, 365.055 277.730, 364.858 277.544 C 364.552 277.255, 334.937 274.987, 312.750 273.553 L 306 273.116 306 302 M 116 281.985 C 92.376 286.453, 76.454 291.990, 69.833 298.041 L 65.500 302 69.833 305.959 C 76.532 312.081, 92.959 317.751, 116.250 321.979 L 126 323.749 126 301.874 C 126 289.844, 125.888 280.042, 125.750 280.094 C 125.612 280.146, 121.225 280.997, 116 281.985 M 386 302 L 386 323.749 395.750 321.979 C 424.031 316.845, 445 308.339, 445 302 C 445 295.661, 424.031 287.155, 395.750 282.021 L 386 280.251 386 302 M 73.646 333.639 C 74.013 334.662, 76.643 339.112, 79.489 343.526 C 87.809 356.432, 100.746 368.387, 117 378.191 C 125.884 383.550, 135.052 388.281, 135.563 387.771 C 135.763 387.571, 135.290 384.994, 134.512 382.045 C 133.331 377.569, 130.411 361.404, 128.423 348.335 C 127.954 345.255, 127.750 345.140, 120.721 344.005 C 104.743 341.426, 83.104 336.018, 74.739 332.515 C 73.325 331.923, 73.109 332.144, 73.646 333.639 M 434.007 333.683 C 428.733 335.979, 409.987 340.663, 396.500 343.054 C 389.900 344.225, 384.373 345.306, 384.217 345.458 C 384.061 345.609, 383.245 350.406, 382.404 356.117 C 380.988 365.728, 377.738 382.098, 376.426 386.232 C 376.118 387.205, 376.243 388, 376.706 388 C 378.558 388, 399.524 375.691, 406.659 370.414 C 419.854 360.657, 430.710 348.384, 436.880 336.250 C 439.250 331.589, 439.108 331.463, 434.007 333.683 M 150.783 357.250 C 152.080 365.693, 159.372 396.706, 160.272 397.605 C 161.242 398.576, 185.819 404.483, 197.250 406.493 C 205.975 408.028, 210 408.383, 210.001 407.618 C 210.001 407.003, 209.325 397.050, 208.499 385.500 C 207.672 373.950, 206.884 361.575, 206.748 358 L 206.500 351.500 200 351.252 C 196.425 351.116, 184.050 350.328, 172.500 349.501 C 160.950 348.675, 151.019 347.999, 150.431 347.999 C 149.698 348, 149.808 350.904, 150.783 357.250 M 344.500 349.157 C 339 349.643, 327.975 350.369, 320 350.770 L 305.500 351.500 305.252 358 C 305.116 361.575, 304.328 373.950, 303.501 385.500 C 302.675 397.050, 301.999 407.003, 301.999 407.618 C 302 409.067, 323.149 405.394, 339.424 401.118 C 345.982 399.396, 351.491 397.842, 351.667 397.667 C 352.586 396.747, 358.547 371.816, 360.493 360.750 L 362.735 348 358.618 348.137 C 356.353 348.213, 350 348.672, 344.500 349.157 M 227.553 358.750 C 228.987 380.937, 231.255 410.552, 231.544 410.858 C 231.986 411.326, 280.014 411.326, 280.456 410.858 C 280.745 410.552, 283.013 380.937, 284.447 358.750 L 284.884 352 256 352 L 227.116 352 227.553 358.750 M 83 379.655 C 83 380.955, 93.182 399.378, 97.238 405.417 C 114.519 431.145, 138.719 453.630, 164.500 467.909 C 169.450 470.651, 174.732 473.355, 176.237 473.918 C 178.777 474.867, 178.637 474.526, 174.309 469.220 C 164.660 457.390, 153.033 437.060, 147.018 421.500 C 144.157 414.098, 143.897 413.838, 136.500 410.996 C 121.292 405.152, 100.510 393.258, 88.750 383.667 C 85.588 381.087, 83 379.282, 83 379.655 M 424.500 382.697 C 414.481 391.457, 391.113 404.946, 375.500 410.982 C 368.101 413.842, 367.842 414.101, 364.982 421.500 C 358.869 437.312, 347.481 457.220, 337.668 469.250 C 335.088 472.413, 333.282 475, 333.655 475 C 334.964 475, 353.396 464.806, 359.417 460.752 C 381.335 445.994, 400.129 427.203, 414.762 405.417 C 419.337 398.606, 429.432 380.090, 428.866 379.549 C 428.665 379.357, 426.700 380.774, 424.500 382.697 M 170 422.461 C 170 423.612, 176.309 435.539, 180.328 441.986 C 192.164 460.972, 206.500 475.125, 221.750 482.880 C 224.088 484.068, 226 484.919, 225.999 484.770 C 225.999 484.622, 225.119 482.185, 224.044 479.356 C 221.304 472.147, 217.480 456.637, 214.958 442.500 C 213.781 435.900, 212.694 430.373, 212.542 430.217 C 212.391 430.061, 207.594 429.245, 201.883 428.404 C 192.272 426.988, 175.902 423.738, 171.768 422.426 C 170.795 422.118, 170 422.133, 170 422.461 M 335.500 423.553 C 331.328 424.700, 315.525 427.570, 302.335 429.577 C 299.255 430.046, 299.140 430.250, 298.005 437.279 C 295.416 453.318, 290.034 474.833, 286.484 483.343 C 285.781 485.027, 286.093 484.994, 290.107 482.952 C 307.969 473.869, 324.191 456.352, 337.371 431.918 C 339.917 427.198, 342 423.035, 342 422.668 C 342 421.824, 341.585 421.881, 335.500 423.553 M 236.021 441.750 C 240.196 464.748, 245.904 481.391, 251.942 488.167 L 255.802 492.500 259.806 488.308 C 265.961 481.864, 271.692 465.365, 275.979 441.750 L 277.749 432 256 432 L 234.251 432 236.021 441.750" stroke="none" fill="#040404" fill-rule="evenodd"/></svg>