<svg xmlns="http://www.w3.org/2000/svg" width="512" height="512" viewBox="0 0 512 512" version="1.1"><path d="" stroke="none" fill="#080404" fill-rule="evenodd"/><path d="M 200.688 65.502 C 185.586 69.653, 176.923 77.334, 161.590 100.167 L 150.251 117.052 149.149 112.776 C 147.574 106.663, 144.702 102.493, 139.862 99.290 L 135.646 96.500 112 96.500 L 88.354 96.500 84.232 99.228 C 77.727 103.533, 74.712 109.665, 74.187 119.658 L 73.749 128 70.125 128.012 C 54.855 128.062, 35.626 140.668, 27.642 155.862 C 20.743 168.991, 21.030 163.261, 21.030 288 C 21.030 384.766, 21.240 401.395, 22.537 406.897 C 26.979 425.741, 42.371 441.554, 61.131 446.547 C 69.183 448.690, 442.817 448.690, 450.869 446.547 C 469.629 441.554, 485.021 425.741, 489.463 406.897 C 491.702 397.398, 491.731 178.726, 489.494 169.240 C 485.406 151.900, 472.275 137.086, 455.348 130.717 C 449.781 128.623, 447.595 128.492, 409.902 128.008 C 377.076 127.587, 370.001 127.249, 368.535 126.030 C 367.562 125.222, 360.541 115.278, 352.932 103.933 C 334.713 76.768, 327.053 69.760, 310.869 65.453 C 303.356 63.453, 207.986 63.495, 200.688 65.502 M 203.500 88.012 C 200.750 89.082, 196.832 91.334, 194.793 93.016 C 192.755 94.698, 184.337 106.108, 176.087 118.371 C 153.922 151.318, 158.371 149.324, 105.500 149.994 L 65.500 150.500 60.437 153.172 C 54.385 156.366, 48.568 162.539, 45.637 168.878 L 43.500 173.500 43.500 288 L 43.500 402.500 46.280 408.161 C 49.333 414.377, 54.585 419.672, 61.205 423.207 L 65.500 425.500 256 425.500 L 446.500 425.500 450.795 423.207 C 457.415 419.672, 462.667 414.377, 465.720 408.161 L 468.500 402.500 468.500 288 L 468.500 173.500 466.363 168.878 C 463.432 162.539, 457.615 156.366, 451.563 153.172 L 446.500 150.500 406.500 150 C 368.317 149.523, 366.290 149.403, 361.878 147.363 C 354.052 143.744, 349.210 138.270, 334.957 116.931 C 321.093 96.174, 318.105 92.708, 310.616 88.702 C 306.552 86.528, 305.881 86.497, 257.500 86.283 C 211.050 86.078, 208.240 86.168, 203.500 88.012 M 96 123 L 96 128 112 128 L 128 128 128 123 L 128 118 112 118 L 96 118 96 123 M 240.845 139.069 C 210.666 142.805, 183.016 156.239, 161.601 177.569 C 133.767 205.291, 119.027 245.567, 122.864 283.414 C 126.187 316.188, 139.070 343.811, 161.569 366.399 C 213.615 418.654, 298.129 418.650, 350.389 366.389 C 369.310 347.469, 381.404 324.860, 387.137 297.688 C 390.163 283.351, 390.163 260.649, 387.137 246.312 C 381.333 218.807, 369.520 196.864, 350.134 177.578 C 330.724 158.267, 308.694 146.440, 282.008 141.002 C 270.338 138.623, 251.564 137.742, 240.845 139.069 M 243.500 161.087 C 218.544 164.002, 193.493 176.399, 176.235 194.375 C 158.098 213.267, 147.665 235.782, 145.084 261.601 C 139.013 322.330, 184.455 377.170, 245.653 382.969 C 267.076 384.999, 287.154 381.043, 307 370.881 C 360.543 343.467, 382.487 278.512, 356.528 224.280 C 350.680 212.062, 345.285 204.292, 335.765 194.375 C 312.215 169.845, 277.073 157.166, 243.500 161.087 M 241.660 182.048 C 206.650 187.924, 178.995 212.654, 168.379 247.579 C 165.968 255.510, 165.659 258.165, 165.598 271.500 C 165.539 284.292, 165.867 287.678, 167.826 294.500 C 177.248 327.323, 199.241 349.760, 231.704 359.666 C 239.629 362.085, 242.034 362.351, 256 362.351 C 270.015 362.351, 272.354 362.090, 280.421 359.630 C 297.629 354.382, 311.006 346.157, 322.595 333.696 C 356.578 297.158, 354.625 240.189, 318.213 205.839 C 301.159 189.752, 278.321 180.823, 255 181.125 C 250.325 181.186, 244.322 181.601, 241.660 182.048 M 242.500 204.416 C 217.088 210.301, 198.315 227.223, 190.288 251.479 C 187.984 258.439, 187.633 261.154, 187.633 272 C 187.633 282.858, 187.982 285.551, 190.291 292.500 C 193.992 303.640, 199.309 312.278, 207.515 320.485 C 215.736 328.706, 224.385 334.023, 235.500 337.691 C 242.427 339.976, 245.177 340.331, 256 340.331 C 266.823 340.331, 269.573 339.976, 276.500 337.691 C 287.615 334.023, 296.264 328.706, 304.485 320.485 C 312.688 312.282, 318.004 303.647, 321.714 292.500 C 324.038 285.516, 324.373 282.913, 324.349 272 C 324.324 261.234, 323.955 258.390, 321.686 251.500 C 318.028 240.392, 312.710 231.740, 304.485 223.515 C 291.696 210.726, 276.610 204.134, 258.500 203.420 C 252.134 203.169, 246.319 203.531, 242.500 204.416 M 211.400 264.400 C 208.290 267.510, 208 268.311, 208 273.795 C 208 284.223, 213.233 297.087, 220.851 305.386 C 228.276 313.475, 243.169 320, 254.205 320 C 259.689 320, 260.490 319.710, 263.600 316.600 C 270.968 309.232, 265.298 298, 254.210 298 C 249.248 298, 242.208 294.968, 238.249 291.125 C 233.471 286.489, 231.058 281.482, 230.002 274.016 C 228.984 266.813, 227.750 264.439, 224.020 262.510 C 219.141 259.987, 215.227 260.573, 211.400 264.400" stroke="none" fill="#040404" fill-rule="evenodd"/></svg>