<?xml version="1.0" standalone="no"?>
<!DOCTYPE svg PUBLIC "-//W3C//DTD SVG 20010904//EN"
 "http://www.w3.org/TR/2001/REC-SVG-20010904/DTD/svg10.dtd">
<svg version="1.0" xmlns="http://www.w3.org/2000/svg"
 width="512.000000pt" height="512.000000pt" viewBox="0 0 512.000000 512.000000"
 preserveAspectRatio="xMidYMid meet">

<g transform="translate(0.000000,512.000000) scale(0.100000,-0.100000)"
fill="#000000" stroke="none">
<path d="M2464 5102 c-105 -37 -224 -141 -346 -305 -65 -88 -72 -120 -35 -155
37 -35 80 -29 116 16 163 202 219 258 296 293 54 25 82 24 144 -7 174 -87 415
-452 599 -909 169 -421 263 -821 287 -1225 18 -293 -78 -560 -274 -763 -70
-74 -214 -176 -278 -198 -55 -20 -771 -20 -826 0 -111 39 -297 197 -384 326
-122 181 -168 342 -166 580 3 434 149 1013 379 1494 35 74 64 145 64 158 0 30
-42 73 -70 73 -44 0 -63 -23 -120 -143 -196 -415 -330 -864 -386 -1292 -23
-177 -23 -434 0 -540 50 -227 139 -395 296 -559 98 -102 252 -209 338 -236
l57 -18 3 -498 2 -499 -246 -54 c-135 -30 -267 -64 -293 -77 -63 -29 -118 -85
-150 -153 -22 -47 -26 -70 -26 -146 1 -73 5 -98 22 -131 28 -53 91 -107 142
-122 28 -9 288 -12 953 -12 1010 0 968 -3 1036 63 60 57 76 101 77 202 0 76
-4 99 -26 146 -32 68 -87 124 -150 153 -26 13 -158 47 -293 77 l-246 54 0 46
c0 87 -27 129 -82 129 -45 0 -63 -23 -68 -92 l-5 -63 -245 0 -245 0 -3 483 -2
482 250 0 250 0 0 -299 0 -300 26 -20 c35 -27 57 -26 91 3 l28 24 5 302 5 301
65 22 c95 33 202 107 316 221 169 169 257 333 310 575 23 100 22 360 0 534
-103 806 -518 1737 -889 1998 -111 78 -201 96 -303 61z m689 -4603 c149 -33
278 -64 287 -69 86 -47 119 -202 55 -257 l-26 -23 -909 0 -909 0 -26 23 c-55
46 -42 171 24 230 33 29 54 37 231 76 107 24 229 51 270 61 63 15 127 18 403
19 l328 1 272 -61z"/>
</g>
</svg>
