<?xml version="1.0" standalone="no"?>
<!DOCTYPE svg PUBLIC "-//W3C//DTD SVG 20010904//EN"
 "http://www.w3.org/TR/2001/REC-SVG-20010904/DTD/svg10.dtd">
<svg version="1.0" xmlns="http://www.w3.org/2000/svg"
 width="512.000000pt" height="512.000000pt" viewBox="0 0 512.000000 512.000000"
 preserveAspectRatio="xMidYMid meet">

<g transform="translate(0.000000,512.000000) scale(0.100000,-0.100000)"
fill="#000000" stroke="none">
<path d="M1421 4435 c-596 -200 -1094 -371 -1107 -380 -92 -60 -106 -115 -102
-383 3 -189 5 -210 25 -247 45 -84 104 -115 218 -115 l75 0 0 -113 c0 -143 16
-201 70 -253 l40 -39 0 -867 0 -868 -80 0 c-116 0 -187 -42 -224 -132 -23 -54
-23 -422 0 -476 19 -47 58 -88 106 -113 36 -19 90 -19 2115 -19 2001 0 2079 1
2118 19 49 23 89 64 109 113 23 54 23 422 0 476 -37 90 -108 132 -224 132
l-80 0 0 866 0 866 40 40 c54 54 70 112 70 254 l0 112 89 4 c80 3 94 6 133 33
23 17 54 51 68 75 24 43 25 53 28 252 4 253 -4 293 -72 356 -43 39 -74 50
-1137 403 -693 229 -1112 363 -1144 366 -44 3 -181 -41 -1134 -362z m2717
-376 l552 -184 0 -177 0 -178 -2130 0 -2130 0 0 179 0 178 933 312 c512 171
988 331 1056 355 l123 43 522 -172 c286 -94 770 -254 1074 -356z m-2968 -859
l0 -110 -210 0 -210 0 0 110 0 110 210 0 210 0 0 -110z m430 -11 c0 -149 12
-191 67 -247 l43 -43 -2 -862 -3 -862 -212 -3 -213 -2 0 866 0 866 40 40 c54
54 70 112 70 255 l0 113 105 0 105 0 0 -121z m640 11 l0 -110 -212 2 -213 3
-3 94 c-1 52 -1 100 2 108 4 10 50 13 216 13 l210 0 0 -110z m430 -35 c6 -153
14 -182 70 -228 l30 -26 0 -870 0 -871 -210 0 -210 0 0 868 0 868 31 30 c56
52 69 94 69 235 0 69 3 129 7 133 4 4 52 5 107 4 l101 -3 5 -140z m635 35 l0
-105 -212 -3 -213 -2 0 110 0 110 213 -2 212 -3 0 -105z m425 -3 c0 -143 16
-201 70 -253 l40 -39 0 -868 0 -867 -212 2 -213 3 -3 862 -2 862 43 43 c55 56
67 98 67 247 l0 121 105 0 105 0 0 -113z m640 3 l0 -110 -210 0 -210 0 0 110
0 110 210 0 210 0 0 -110z m-3302 -1172 l-3 -853 -105 0 -105 0 -3 853 -2 852
110 0 110 0 -2 -852z m1062 -3 l0 -855 -105 0 -105 0 0 855 0 855 105 0 105 0
0 -855z m1070 0 l0 -855 -105 0 -105 0 0 855 0 855 105 0 105 0 0 -855z m1068
3 l-3 -853 -105 0 -105 0 -3 853 -2 852 110 0 110 0 -2 -852z m322 -1228 l0
-160 -2030 0 -2030 0 0 160 0 160 2030 0 2030 0 0 -160z"/>
</g>
</svg>
