<svg xmlns="http://www.w3.org/2000/svg" width="512" height="512" viewBox="0 0 512 512" version="1.1"><path d="" stroke="none" fill="#080404" fill-rule="evenodd"/><path d="M 232.145 88.070 C 220.066 92.908, 215.367 106.451, 221.679 118.233 C 227.267 128.665, 250.210 148, 257 148 C 263.812 148, 286.655 128.640, 292.457 117.949 C 296.297 110.875, 296.462 104.371, 292.964 98.044 C 286.390 86.155, 270.523 83.334, 260.369 92.249 L 256.909 95.287 254.205 92.697 C 248.912 87.627, 238.633 85.471, 232.145 88.070 M 394.232 165.010 C 383.183 167.318, 372.100 176.255, 367.178 186.825 C 364.911 191.695, 364.534 193.850, 364.518 202.018 C 364.501 210.747, 364.768 212.080, 367.741 218.123 C 376.189 235.292, 394.905 243.637, 412.627 238.136 C 429.142 233.010, 439.237 219.281, 439.198 202 C 439.178 193.269, 437.415 187.647, 432.400 180.322 C 424.502 168.785, 407.950 162.145, 394.232 165.010 M 269.500 234.417 C 263.307 237.182, 259 243.818, 259 250.597 C 259 254.515, 261.404 261, 262.857 261 C 263.836 261, 295.018 246.316, 295.890 245.444 C 296.807 244.526, 288.537 236.954, 284.465 234.983 C 279.760 232.705, 273.837 232.482, 269.500 234.417 M 337 239.176 C 333.434 240.190, 193.143 307.523, 191.721 308.902 C 191.292 309.318, 206.254 319.704, 224.971 331.981 C 243.687 344.258, 259 354.454, 259 354.639 C 259 355.239, 249.123 350.524, 213.500 332.921 C 178.999 315.872, 178.407 315.625, 172 315.634 C 165.645 315.644, 163.969 316.326, 97 346.176 C 35.922 373.400, 28.010 377.184, 23.974 381.104 C 11.045 393.661, 17.159 414.720, 34.974 418.994 C 37.690 419.645, 41.394 419.865, 43.206 419.482 C 45.018 419.100, 74.387 406.385, 108.471 391.227 C 142.555 376.069, 170.905 363.669, 171.471 363.673 C 172.037 363.676, 194.281 374.140, 220.902 386.925 C 273.892 412.374, 277.349 413.643, 291 412.643 C 295.737 412.296, 320.049 406.732, 357 397.537 C 389.175 389.530, 416.070 382.770, 416.766 382.515 C 417.635 382.196, 416.878 380.392, 414.358 376.775 C 411.934 373.296, 419.503 380.250, 436.591 397.203 C 450.841 411.339, 463.767 423.377, 465.315 423.953 C 474.400 427.333, 485.137 422.485, 488.388 413.537 C 489.030 411.770, 501 337.252, 501 335.023 C 501 334.513, 498.863 335.202, 496.250 336.554 C 489.476 340.061, 477.850 342.312, 470.343 341.571 L 464.187 340.963 463.052 347.732 C 462.428 351.454, 461.374 358.017, 460.709 362.316 L 459.500 370.132 448.657 359.121 C 442.693 353.065, 438.084 347.672, 438.415 347.137 C 439.052 346.107, 437.366 332.401, 436.412 330.858 C 436.103 330.358, 433.696 331.873, 431.063 334.225 C 427.374 337.520, 417.283 342.742, 387.054 357 C 340.745 378.842, 339.403 379.370, 331.912 378.711 C 325.268 378.126, 320.863 376.073, 315.665 371.140 C 309.526 365.312, 307.569 360.702, 307.543 352 C 307.522 344.781, 307.968 343.348, 319.447 313.770 C 326.006 296.868, 331.542 283.209, 331.748 283.415 C 331.955 283.622, 329.396 297.506, 326.062 314.270 C 322.728 331.034, 320 346.126, 320 347.810 C 320 352.048, 321.646 355.992, 324.814 359.339 C 328.680 363.426, 332.244 365, 337.630 365 C 341.673 365, 348.020 362.350, 381.338 346.750 C 407.329 334.581, 421.375 327.462, 423.491 325.384 C 427.887 321.068, 429.663 314.441, 428.008 308.528 C 425.592 299.900, 416.559 293.922, 408.284 295.475 C 406.415 295.825, 395.395 300.595, 383.794 306.074 C 372.194 311.553, 362.586 315.915, 362.443 315.768 C 362.301 315.621, 363.447 309.425, 364.991 302 C 367.595 289.481, 367.806 288.918, 367.899 294.250 C 367.955 297.413, 368.212 300, 368.471 300 C 368.731 300, 371.399 298.914, 374.401 297.586 C 380.435 294.918, 381.961 292.779, 383.991 284.144 C 387.141 270.748, 380.594 254.011, 368.826 245.372 C 360.171 239.019, 346.744 236.405, 337 239.176 M 59.558 241.439 C 53.478 243.687, 50.746 246.127, 47.677 252.051 C 45.475 256.302, 44.944 258.489, 45.259 262 C 46.030 270.583, 47.905 272.774, 76.042 297.964 L 102.890 322 112.928 322 L 122.966 322 144.371 312.500 C 156.144 307.275, 166.614 302.964, 167.638 302.921 C 172.342 302.722, 163.559 301.087, 152 300.011 C 142.707 299.145, 138.987 298.395, 137.500 297.085 C 136.400 296.116, 122.583 283.798, 106.795 269.711 C 91.007 255.624, 76.727 243.393, 75.062 242.532 C 70.589 240.219, 64.097 239.762, 59.558 241.439 M 464.500 256.344 C 453.195 260.093, 444.625 267.300, 440.170 276.804 C 437.834 281.787, 437.500 283.752, 437.500 292.500 C 437.500 301.239, 437.836 303.216, 440.160 308.175 C 447.402 323.623, 464.558 332.858, 480.537 329.911 C 493.215 327.572, 503.416 319.749, 508.820 308.218 C 511.167 303.211, 511.500 301.257, 511.500 292.500 C 511.500 283.459, 511.218 281.926, 508.560 276.513 C 504.829 268.914, 498.114 262.181, 490.595 258.503 C 485.882 256.197, 483.109 255.566, 476.608 255.322 C 471.724 255.138, 466.910 255.545, 464.500 256.344 M 11.129 338.623 C 3.972 342.190, 0.709 347.209, 0.183 355.460 C -0.362 364.024, 3.315 371.013, 10.268 374.630 C 12.706 375.898, 13.106 375.888, 13.621 374.544 C 14.971 371.026, 25.223 365.504, 54.500 352.524 C 71.550 344.964, 86.625 338.172, 88 337.430 C 90.138 336.276, 85.132 336.074, 53.446 336.040 L 16.393 336 11.129 338.623" stroke="none" fill="#040404" fill-rule="evenodd"/></svg>