<svg xmlns="http://www.w3.org/2000/svg" width="512" height="512" viewBox="0 0 512 512" version="1.1"><path d="" stroke="none" fill="#080404" fill-rule="evenodd"/><path d="M 210 1.959 C 178.317 8.735, 152.572 28.657, 138.227 57.500 C 134.130 65.736, 132.309 70.749, 129.328 82 C 127.758 87.927, 127.557 99.437, 127.053 212.500 L 126.500 336.500 123.403 343 C 121.700 346.575, 118.662 351.455, 116.653 353.845 C 114.015 356.982, 113 359.135, 113 361.595 C 113 369.235, 121.611 371.744, 127.261 365.750 C 132.276 360.430, 137.880 351.084, 140.260 344.072 L 142.491 337.500 143.005 213 L 143.520 88.500 146.269 79.703 C 150.946 64.739, 157.046 54.097, 166.947 43.630 C 177.885 32.067, 188.898 24.983, 203.551 20.088 C 225.541 12.742, 248.091 14.211, 269.489 24.383 C 292.659 35.398, 310.579 57.459, 317.102 83 C 319.135 90.962, 319.302 94.425, 319.735 137.750 L 320.198 184 295.638 184 L 271.077 184 270.789 138.727 L 270.500 93.453 267.305 86.966 C 260.705 73.563, 248.254 65.031, 234.100 64.212 C 216.028 63.166, 200.609 72.941, 193.823 89.748 L 191.500 95.500 190.967 220 L 190.434 344.500 187.721 353.806 C 182.780 370.758, 175.187 384.582, 163.552 397.814 C 157.524 404.669, 156.599 408.091, 159.750 411.886 C 160.713 413.045, 162.921 414.268, 164.657 414.603 C 167.392 415.131, 168.450 414.631, 172.573 410.856 C 183.010 401.303, 195.051 381.827, 200.433 365.796 C 206.721 347.063, 206.315 356.093, 206.934 221 C 207.378 124.083, 207.774 96.880, 208.775 94.619 C 211.141 89.274, 214.157 85.951, 219.340 82.978 C 223.617 80.525, 225.613 80.021, 231 80.031 C 238.965 80.047, 244.274 82.270, 248.884 87.520 C 255.101 94.601, 255 93.704, 255 141.862 L 255 185.788 252.025 188.973 C 250.389 190.724, 248.592 193.809, 248.031 195.829 C 246.730 200.512, 246.710 215.415, 247.998 220.052 C 249.298 224.733, 254.275 229.702, 259.112 231.152 L 263 232.317 263 320.109 C 263 378.947, 263.355 409.555, 264.075 412.914 C 266.069 422.213, 274.047 430.285, 282.497 431.552 L 287 432.227 287.008 446.364 C 287.019 467.146, 288.264 475.917, 292.456 484.745 C 296.561 493.389, 305.034 502.464, 312.554 506.272 C 322.817 511.469, 326.523 512, 352.556 512 C 379.216 512, 382.012 511.535, 389.104 505.918 C 395.402 500.930, 398.270 495.054, 398.790 486.073 C 399.366 476.122, 396.866 469.863, 389.767 463.480 C 383.007 457.403, 377.792 456, 361.953 456 C 350.636 456, 348.986 456.223, 346.635 458.073 C 342.913 461, 342.913 467, 346.635 469.927 C 348.987 471.777, 350.635 472, 361.987 472 C 373.564 472, 375.009 472.204, 378.102 474.280 C 380.369 475.801, 381.946 477.959, 382.840 480.764 C 384.035 484.514, 383.981 485.368, 382.340 488.670 C 378.708 495.976, 377.167 496.459, 356.306 496.831 C 329.344 497.312, 321.518 495.518, 312.873 486.873 C 306.358 480.358, 300.973 466.493, 305.750 468.534 C 308.982 469.914, 317.414 472, 319.763 472 C 323.054 472, 327 467.723, 327 464.156 C 327 459.740, 324.152 456.957, 318.566 455.913 C 309.289 454.180, 304.187 448.159, 303.252 437.838 C 302.747 432.278, 302.830 432, 304.995 432 C 313.160 432, 323.433 424.281, 325.778 416.384 C 326.701 413.274, 327 390.265, 327 322.245 L 327 232.223 330.471 231.572 C 334.520 230.812, 339.452 226.960, 341.536 222.931 C 343.202 219.708, 343.635 197.800, 342.111 193.792 C 341.622 192.507, 339.849 190.112, 338.171 188.472 L 335.121 185.489 334.735 135.495 C 334.365 87.531, 334.259 85.175, 332.127 77.500 C 329.222 67.045, 320.471 49.186, 314.242 41 C 298.596 20.440, 275.700 6.293, 250.162 1.405 C 239.923 -0.555, 220.501 -0.287, 210 1.959 M 213.230 33.958 C 200.813 37.309, 190.621 43.322, 181 52.973 C 168.545 65.468, 162.375 77.425, 160.037 93.602 C 159.420 97.870, 159.032 145.220, 159.020 217.803 C 158.998 349.620, 159.399 342.135, 151.471 358.500 C 149.073 363.450, 144.348 370.850, 140.970 374.945 C 135.620 381.429, 134.904 382.783, 135.417 385.445 C 136.171 389.353, 139.369 392, 143.339 392 C 145.852 392, 147.525 390.857, 151.978 386.098 C 162.677 374.663, 171.247 356.672, 173.936 340 C 174.624 335.739, 174.993 293.034, 175.010 216 C 175.030 119.081, 175.280 97.341, 176.437 91.885 C 180.660 71.961, 197.059 54.647, 216.581 49.503 C 224.383 47.447, 238.959 47.477, 246 49.563 C 260.190 53.768, 273.662 64.259, 279.901 75.965 C 286.543 88.427, 286.373 87.208, 286.961 126.724 C 287.493 162.502, 287.527 162.975, 289.728 165.174 C 292.846 168.290, 298.600 168.213, 301.184 165.021 C 303.022 162.751, 303.096 160.951, 302.787 126.071 C 302.464 89.603, 302.456 89.478, 299.829 81.722 C 296.106 70.728, 289.770 60.632, 281.492 52.500 C 273.028 44.185, 264.420 38.905, 253.500 35.329 C 242.418 31.700, 223.932 31.070, 213.230 33.958 M 263 208 L 263 216 295.500 216 L 328 216 328 208 L 328 200 295.500 200 L 263 200 263 208 M 279 246.996 L 279 261.992 295.500 253.760 L 312 245.528 312 238.764 L 312 232 295.500 232 L 279 232 279 246.996 M 294.250 271.792 L 279 279.470 279 290.731 L 279 301.992 295.500 293.760 L 312 285.528 312 274.764 C 312 266.789, 311.676 264.015, 310.750 264.057 C 310.063 264.089, 302.637 267.570, 294.250 271.792 M 294.250 311.792 L 279 319.470 279 330.731 L 279 341.992 295.500 333.760 L 312 325.528 312 314.764 C 312 306.789, 311.676 304.015, 310.750 304.057 C 310.063 304.089, 302.637 307.570, 294.250 311.792 M 294.750 352.059 L 279 360.012 279 371.089 C 279 377.182, 279.391 382.017, 279.869 381.833 C 280.346 381.650, 287.771 377.923, 296.369 373.551 L 312 365.602 312 354.801 C 312 348.860, 311.663 344.024, 311.250 344.053 C 310.837 344.082, 303.413 347.685, 294.750 352.059 M 294.634 392.117 L 278.769 400.128 279.209 406.213 C 279.854 415.132, 281.270 416, 295.177 416 C 301.202 416, 306.955 415.559, 307.961 415.021 C 308.967 414.483, 310.287 412.616, 310.895 410.872 C 312.123 407.347, 312.433 383.970, 311.250 384.053 C 310.837 384.082, 303.360 387.711, 294.634 392.117" stroke="none" fill="#040404" fill-rule="evenodd"/></svg>