<svg xmlns="http://www.w3.org/2000/svg" width="512" height="512" viewBox="0 0 512 512" version="1.1"><path d="" stroke="none" fill="#080404" fill-rule="evenodd"/><path d="M 117.703 1.383 C 105.048 6.094, 96 18.659, 96 31.523 C 96 37.174, 93.702 44.391, 90.611 48.443 C 89.205 50.287, 84.554 54.252, 80.277 57.255 C 65.447 67.665, 53.364 82.764, 47.622 98.062 C 41.725 113.771, 42 104.328, 42 291.322 L 42 462.728 37.497 463.345 C 31.254 464.201, 25.852 467.187, 21.637 472.111 C 17.010 477.517, 15.686 481.733, 16.180 489.493 C 16.702 497.677, 20.595 504.236, 27.446 508.474 L 32.340 511.500 71.920 511.790 C 93.689 511.949, 112.541 511.821, 113.813 511.505 C 118.400 510.365, 119.715 500.888, 115.652 498.248 C 115.018 497.837, 97.072 497.275, 75.771 497 L 37.043 496.500 34.599 494 C 30.825 490.141, 30.768 485.141, 34.455 481.455 L 36.909 479 128.031 479 L 219.154 479 222.077 481.923 C 225.173 485.019, 225.621 487.237, 224.006 491.483 C 222.030 496.682, 219.450 497, 179.206 497 L 142.349 497 140.174 499.314 C 137.286 502.389, 137.348 507.039, 140.314 509.826 C 142.611 511.983, 142.944 512, 182.325 512 C 220.703 512, 222.172 511.929, 226.538 509.877 C 235.615 505.611, 242.003 494.077, 240.477 484.713 C 238.747 474.106, 230.961 465.935, 220.490 463.739 L 215 462.587 215.004 429.044 C 215.007 396.257, 215.048 395.568, 216.814 398.500 C 217.807 400.150, 223.543 410.032, 229.560 420.461 C 235.577 430.889, 241.974 440.899, 243.777 442.704 C 257.516 456.468, 281.299 453.056, 289.960 436.078 C 291.902 432.271, 291.907 432.269, 299.269 431.797 C 310.592 431.070, 318.960 425.875, 323.905 416.500 L 326.016 412.500 332.555 412.344 C 337.371 412.229, 340.523 411.489, 344.512 409.538 C 350.139 406.785, 357.638 399.291, 358.599 395.460 C 359.092 393.496, 359.953 393.202, 366.431 392.786 C 371.056 392.489, 375.356 391.522, 378.225 390.133 C 383.765 387.451, 390.620 380.693, 392.182 376.373 C 393.291 373.306, 393.572 373.167, 398.422 373.281 C 409.612 373.543, 420.214 367.651, 425.025 358.496 L 427.651 353.500 434.576 353.424 C 445.561 353.303, 455.047 347.260, 459.757 337.384 C 461.347 334.048, 461.464 334, 467.935 333.990 C 476.409 333.978, 483.122 330.940, 488.713 324.589 C 496.944 315.237, 498.348 303.242, 492.589 291.472 C 490.712 287.637, 457.484 229.600, 418.747 162.500 C 367.607 73.915, 347.091 39.238, 343.842 35.891 C 336.104 27.919, 324.149 25.026, 313.684 28.592 C 307.901 30.563, 299.953 37.561, 297.618 42.739 L 295.865 46.625 289.535 46.625 C 278.563 46.625, 268.823 52.652, 263.692 62.616 C 262.158 65.594, 261.763 65.752, 254.727 66.204 C 243.408 66.930, 235.039 72.127, 230.095 81.500 C 227.987 85.495, 227.976 85.500, 221.608 85.652 C 217.530 85.749, 213.477 86.582, 210.365 87.962 C 205.925 89.932, 205.413 89.977, 204.500 88.484 C 195.516 73.783, 188.012 65.583, 175.845 57.173 C 164.798 49.537, 161.584 44.355, 160.392 32.261 C 159.051 18.654, 153.281 9.192, 142.868 3.525 C 138.483 1.138, 136.088 0.559, 129.512 0.293 C 124.317 0.083, 120.165 0.467, 117.703 1.383 M 123.914 15.925 C 116.999 18.103, 112 24.565, 112 31.324 C 112 36.903, 110.142 45.010, 107.582 50.602 C 104.451 57.441, 98.541 63.754, 89.031 70.418 C 74.393 80.674, 64.180 95.155, 59.968 111.623 C 58.048 119.132, 58 123.510, 58 291.160 L 58 463 128.500 463 L 199 463 198.995 415.250 L 198.989 367.500 147.860 279 C 119.740 230.325, 95.644 188.159, 94.314 185.297 C 89.829 175.645, 91.598 162.334, 98.425 154.359 C 100.271 152.201, 104.194 149.108, 107.141 147.484 C 111.625 145.015, 113.643 144.530, 119.500 144.516 L 126.500 144.500 129.038 139.514 C 131.936 133.818, 139.053 127.900, 145.229 126.049 C 147.450 125.384, 151.826 124.852, 154.952 124.867 C 160.513 124.893, 160.663 124.820, 161.861 121.508 C 162.534 119.646, 165.566 115.855, 168.599 113.083 C 174.698 107.510, 181.088 105, 189.182 105 C 192.029 105, 194 104.549, 194 103.896 C 194 103.289, 192.363 99.677, 190.361 95.868 C 185.728 87.050, 176.086 76.628, 166.067 69.608 C 152.443 60.061, 146.669 50.699, 144.928 35.332 C 143.473 22.495, 139.358 17.080, 129.965 15.640 C 128.059 15.348, 125.336 15.476, 123.914 15.925 M 315.898 45.274 C 313.378 46.960, 312.040 48.962, 310.721 53.024 C 308.698 59.251, 304.245 64, 300.427 64 C 299.029 64, 295.918 63.505, 293.514 62.899 C 285.189 60.803, 279.302 64.581, 276.236 73.986 C 273.413 82.647, 270.216 84.128, 257.870 82.491 C 253.263 81.881, 251.670 82.082, 249.099 83.601 C 246.063 85.394, 242 92.016, 242 95.170 C 242 97.460, 237.558 101.822, 234.426 102.608 C 232.917 102.987, 229.489 102.735, 226.809 102.048 C 217.938 99.774, 212.221 102.946, 208.932 111.967 C 205.489 121.409, 201.720 123.675, 192.626 121.767 C 189.766 121.167, 186.147 120.997, 184.585 121.389 C 180.495 122.416, 176.343 127.012, 175 132 C 172.670 140.652, 167.080 143.538, 157.700 140.934 C 150.478 138.928, 143.222 143.550, 141.111 151.500 C 139.627 157.091, 137.563 159.659, 133.467 161.011 C 130.882 161.864, 129.107 161.885, 126.821 161.087 C 116.684 157.554, 107.719 163.068, 107.569 172.927 C 107.504 177.208, 112.119 185.507, 179.899 303 C 219.719 372.025, 253.450 429.748, 254.858 431.272 C 258.345 435.050, 263.707 436.582, 268.225 435.091 C 272.959 433.528, 275.700 430.345, 277.764 424.014 C 280.587 415.353, 283.784 413.872, 296.130 415.509 C 300.737 416.119, 302.330 415.918, 304.901 414.399 C 307.937 412.606, 312 405.984, 312 402.830 C 312 400.557, 316.432 396.181, 319.519 395.406 C 320.999 395.035, 324.572 395.298, 327.460 395.990 C 336.641 398.193, 342.690 394.634, 345.090 385.619 C 347.124 377.977, 353.286 373.949, 359.704 376.067 C 361.647 376.709, 365.307 377, 367.836 376.715 C 373.372 376.091, 377.309 372.282, 379.032 365.881 C 381.275 357.550, 387.824 354.082, 395.674 357.066 C 401.948 359.451, 411.315 354.167, 412.558 347.542 C 414.101 339.320, 420.578 334.611, 427.179 336.913 C 436.893 340.299, 444.216 336.341, 446.937 326.233 C 448.998 318.581, 455.783 315.285, 463.755 318.064 C 468.389 319.680, 474.354 317.714, 477.556 313.515 C 480.473 309.692, 481.104 302.956, 478.932 298.840 C 477.177 295.516, 340.461 58.650, 336.458 52 C 334.638 48.975, 331.808 45.712, 330.170 44.750 C 325.992 42.295, 320.022 42.514, 315.898 45.274 M 274.782 124.434 C 250.486 128.738, 228.938 139.976, 211.458 157.457 C 195.104 173.814, 183.412 196.230, 179.483 218.760 C 176.238 237.364, 178.308 262.145, 184.474 278.527 C 191.011 295.893, 198.751 307.910, 211.913 321.125 C 234.385 343.686, 261.896 355.204, 293.500 355.281 C 307.437 355.315, 317.066 353.873, 329.139 349.943 C 372.119 335.953, 402.500 299.865, 409.059 255.010 C 410.685 243.888, 409.730 222.930, 407.116 212.411 C 397.970 175.589, 371.846 145.278, 337.373 131.486 C 323.985 126.130, 312.645 123.875, 297 123.456 C 287.493 123.201, 279.843 123.538, 274.782 124.434 M 275 140.428 C 248.098 146.089, 225.176 161.405, 210.417 183.583 C 183.819 223.550, 189.022 276.174, 222.924 310.076 C 235.945 323.097, 251.258 331.828, 269.500 336.631 C 278.096 338.894, 281.536 339.264, 294 339.264 C 306.408 339.264, 309.943 338.888, 318.500 336.655 C 353.259 327.584, 379.968 301.618, 390.665 266.500 C 393.230 258.078, 393.406 256.312, 393.406 239 C 393.406 221.644, 393.236 219.947, 390.653 211.562 C 382.011 183.508, 362.405 160.561, 336.772 148.501 C 322.989 142.016, 313.281 139.827, 296.500 139.422 C 286.339 139.177, 279.403 139.501, 275 140.428 M 282.500 153.626 C 281.400 153.842, 278.025 154.510, 275 155.109 C 249.602 160.141, 224.634 181.093, 214.233 206.102 C 209.358 217.825, 207.688 228.116, 208.266 242.868 C 208.861 258.026, 210.435 264.314, 216.934 277.500 C 227.332 298.593, 244.400 313.529, 266.551 320.917 C 303.662 333.294, 343.606 319.628, 365.682 287 C 371.982 277.688, 378 262.738, 378 256.397 C 378 250.681, 370.353 246.896, 365.798 250.357 C 364.862 251.068, 362.525 256.046, 360.604 261.419 C 356.167 273.834, 350.679 282.234, 341.259 291.032 C 332.984 298.760, 321.972 304.821, 311 307.688 C 302.288 309.964, 285.644 309.954, 277 307.666 C 236.633 296.985, 214.089 255.774, 227.136 216.515 C 234.293 194.982, 254.134 176.720, 276.623 170.968 C 286.031 168.562, 300.738 168.381, 310 170.556 C 318.469 172.546, 331.025 178.725, 338.242 184.457 C 348.528 192.625, 357.892 206.718, 361.527 219.500 C 363.455 226.281, 365.066 228.549, 368.582 229.431 C 372.020 230.294, 376.825 227.544, 377.655 224.240 C 378.590 220.513, 375.805 210.443, 371.419 201.695 C 358.523 175.976, 335.854 159.061, 307.566 154.051 C 301.906 153.048, 286.739 152.791, 282.500 153.626" stroke="none" fill="#040404" fill-rule="evenodd"/></svg>