<svg xmlns="http://www.w3.org/2000/svg" width="512" height="512" viewBox="0 0 512 512" version="1.1"><path d="" stroke="none" fill="#080404" fill-rule="evenodd"/><path d="M 212.500 26.042 C 198.662 28.192, 185.790 33.294, 173.398 41.539 C 148.680 57.986, 131.125 85.377, 126.935 114.035 C 125.335 124.973, 126.276 142.284, 128.998 152 C 131.854 162.198, 138.846 176.334, 145.222 184.807 C 148.125 188.664, 180.359 222.798, 216.853 260.660 C 263.882 309.452, 284.675 330.353, 288.249 332.429 C 292.297 334.780, 294.497 335.364, 299.396 335.390 C 311.051 335.450, 311.883 334.852, 337.147 308.257 L 350.677 294.014 354.588 299.744 C 360.467 308.356, 375.502 323.064, 384.293 328.802 C 392.066 333.875, 401.351 338, 405 338 C 412.709 338, 430.391 326.512, 443.079 313.261 C 460.163 295.419, 470.792 275.945, 475.619 253.639 C 477.708 243.989, 478.726 209.731, 477.073 204.722 C 475.965 201.363, 474.851 200.548, 463.553 194.828 L 451.240 188.596 455.007 183.548 C 463.740 171.847, 469.926 157.151, 472.625 141.695 C 478.541 107.822, 461.440 67.972, 431.093 44.915 C 422.436 38.337, 406.614 30.644, 396 27.851 C 385.140 24.993, 366.843 24.748, 357 27.328 C 339.102 32.018, 327.267 38.941, 312.038 53.625 L 300.500 64.751 290.500 55.304 C 269.336 35.311, 251.042 26.597, 228.024 25.545 C 222.786 25.306, 215.800 25.529, 212.500 26.042 M 214.809 42.090 C 184.105 46.166, 155.414 72.399, 145.405 105.549 C 141.683 117.877, 141.440 135.573, 144.831 147.443 C 147.505 156.806, 153.645 169.015, 159.418 176.449 C 167.575 186.954, 294.266 317.897, 297.293 318.952 C 299.571 319.747, 300.951 319.619, 303.370 318.391 C 306.111 316.999, 321.552 301.095, 336.385 284.385 L 341.270 278.882 338.513 271.857 C 332.507 256.547, 331.801 252.214, 331.280 227.425 L 330.794 204.351 333.147 201.791 C 336.458 198.189, 400.195 166, 404.016 166 C 405.748 166, 413.014 168.999, 421.127 173.063 C 428.882 176.948, 435.830 179.895, 436.568 179.612 C 440.177 178.227, 449.601 162.318, 453.669 150.745 C 457.434 140.032, 458.101 120.804, 455.118 108.957 C 444.745 67.761, 404.736 37.287, 367.250 42.030 C 347.624 44.513, 335.497 51.586, 315.199 72.392 C 298.883 89.115, 300.250 89.115, 283.857 72.399 C 277.061 65.469, 268.752 57.825, 265.393 55.414 C 250.225 44.523, 232.216 39.779, 214.809 42.090 M 375.633 198.348 L 347.766 212.471 348.276 230.486 C 348.832 250.151, 349.895 255.801, 355.572 269.293 C 363.348 287.774, 383.599 311.426, 398.070 318.929 L 404.524 322.275 409.533 319.737 C 422.494 313.169, 437.861 297.821, 447.098 282.218 C 457.522 264.612, 460.570 253.379, 461.589 228.824 L 462.280 212.147 434.147 198.074 C 418.674 190.333, 405.448 184.050, 404.757 184.112 C 404.066 184.173, 390.960 190.579, 375.633 198.348 M 421.151 230.869 C 419.693 232.446, 414 239.170, 408.500 245.810 C 403 252.449, 398.211 257.909, 397.858 257.941 C 397.505 257.973, 394.961 255.972, 392.205 253.494 C 385.491 247.458, 382.043 246.803, 378.040 250.806 C 372.636 256.211, 373.777 258.943, 385.500 268.665 C 394.211 275.890, 396.088 277, 399.593 277 C 402.859 277, 404.119 275.674, 429.309 245.737 C 435.637 238.216, 436.397 235.045, 432.927 230.635 C 429.976 226.882, 424.739 226.986, 421.151 230.869 M 147.500 335.146 C 138.331 336.839, 130.087 340.111, 122.476 345.079 C 118.330 347.786, 114.785 350, 114.598 350 C 114.411 350, 113.962 347.773, 113.601 345.051 C 113.114 341.382, 112.270 339.571, 110.337 338.051 C 107.826 336.075, 106.495 336, 73.921 336 L 40.112 336 37.306 338.413 L 34.500 340.827 34.500 410.886 L 34.500 480.944 36.777 483.222 C 39.045 485.492, 39.176 485.501, 72.777 485.756 C 98.401 485.950, 107.100 485.708, 109 484.747 C 110.657 483.909, 112.006 481.886, 113 478.747 C 113.825 476.142, 114.984 474.008, 115.575 474.005 C 116.166 474.002, 129.666 476.047, 145.575 478.549 C 185.494 484.828, 195.557 486, 209.536 486 C 233.745 486, 257.454 479.443, 280.500 466.374 C 284.350 464.191, 310.900 451.479, 339.500 438.126 C 374.264 421.895, 392.619 412.795, 394.876 410.674 C 408.721 397.659, 402.569 373.253, 383.148 364.148 C 378.176 361.817, 376.304 361.508, 367.500 361.563 L 357.500 361.626 313.873 377.648 L 270.245 393.670 269.770 387.085 C 269.174 378.807, 265.803 371.917, 259.515 366.120 C 252.955 360.074, 246.586 357.530, 230.500 354.529 C 213.401 351.340, 208.520 349.822, 199.428 344.868 C 182.628 335.714, 163.662 332.164, 147.500 335.146 M 148.317 352.438 C 139.366 354.478, 133.981 357.129, 123.396 364.705 L 114 371.429 114.002 414.965 L 114.004 458.500 149.252 463.792 C 202.594 471.802, 208.296 472.225, 226.303 469.511 C 241.481 467.223, 260.775 460.057, 276.615 450.824 C 279.852 448.937, 305.225 436.693, 333 423.615 C 360.775 410.537, 384.063 399.112, 384.750 398.227 C 385.437 397.342, 386 394.609, 386 392.153 C 386 383.058, 376.873 376.250, 366.077 377.292 C 358.452 378.027, 262.012 414.673, 258.180 418.290 C 253.447 422.759, 246.991 425.435, 240 425.826 C 233.276 426.203, 188.408 419.824, 185.018 418.010 C 182.078 416.436, 180.555 411.488, 181.964 408.086 C 184.254 402.559, 186.269 402.458, 213.107 406.516 C 239.383 410.490, 241.622 410.445, 247.490 405.829 C 253.495 401.105, 255.792 389.838, 252.147 382.984 C 248.691 376.489, 244.119 374.318, 226.913 371.005 C 209.110 367.578, 203.709 365.890, 192.500 360.255 C 176.653 352.287, 161.075 349.531, 148.317 352.438 M 51 412 L 51 471 74 471 L 97 471 97 412 L 97 353 74 353 L 51 353 51 412" stroke="none" fill="#040404" fill-rule="evenodd"/></svg>