<svg xmlns="http://www.w3.org/2000/svg" width="512" height="512" viewBox="0 0 512 512" version="1.1"><path d="" stroke="none" fill="#080404" fill-rule="evenodd"/><path d="M 89.045 1.092 C 77.949 3.267, 66.505 11.823, 61.082 21.997 C 57.893 27.981, 57.748 28.101, 54.660 27.310 C 52.922 26.864, 47.225 26.500, 42 26.500 C 33.396 26.500, 31.866 26.800, 25.777 29.685 C 9.576 37.360, 0.049 53.185, 1.254 70.421 C 2.186 83.755, 8.826 95.560, 19.282 102.471 C 25.446 106.546, 94.486 132, 99.374 132 C 103.250 132, 108.836 129.116, 111.192 125.899 C 114.223 121.758, 138.829 52.635, 139.554 46.223 C 142.633 19.007, 116.550 -4.299, 89.045 1.092 M 248.510 31.141 C 225.914 35.604, 209.809 59.360, 214.923 80.680 C 216.803 88.517, 240.720 153.142, 242.783 155.960 C 245.187 159.245, 250.635 161.996, 254.735 161.998 C 259.025 162.001, 326.002 137.708, 332.862 133.662 C 346.932 125.364, 355.084 107.792, 352.327 91.700 C 349.354 74.346, 336.932 60.968, 320.109 57.003 C 315.011 55.802, 304.522 56.077, 297.881 57.587 C 295.697 58.084, 295.160 57.775, 294.644 55.719 C 293.592 51.524, 285.520 41.533, 280.495 38.204 C 270.870 31.829, 258.668 29.135, 248.510 31.141 M 147.500 143.421 C 134.349 146.711, 122.496 156.442, 116.712 168.695 C 113.650 175.182, 113.500 176.063, 113.500 187.552 C 113.500 199.444, 113.549 199.703, 117.218 207.127 C 123.162 219.154, 134.062 228.219, 146.460 231.448 C 169.460 237.437, 193.339 224.800, 200.960 202.606 C 206.545 186.340, 202.766 169.034, 190.884 156.471 C 179.548 144.484, 163.065 139.527, 147.500 143.421 M 321.616 188.025 C 265.330 194.479, 217.262 225.285, 189.274 272.841 C 180.184 288.286, 170.878 312.463, 168.524 326.750 L 167.824 331 323.954 331 C 497.028 331, 488.180 330.676, 502.854 337.553 C 506.898 339.449, 510.386 341, 510.604 341 C 512.322 341, 507.915 319.584, 503.420 306.098 C 482.924 244.594, 430.580 200.137, 366 189.382 C 355.127 187.572, 331.793 186.858, 321.616 188.025 M 2.174 197.314 L 0 199.629 0 353.204 C 0 502.922, 0.048 506.838, 1.912 509.139 C 3.712 511.363, 4.466 511.500, 14.884 511.500 C 31.461 511.500, 30.425 513.582, 30.809 479.474 L 31.118 452 256 452 L 480.882 452 481.191 479.474 C 481.575 513.584, 480.538 511.500, 497.123 511.500 L 508.190 511.500 510.590 508.500 L 512.990 505.500 512.750 351.500 C 512.570 235.731, 512.440 221.457, 512.229 294 L 511.947 390.500 509.521 384.593 C 505.305 374.327, 496.784 366.050, 486.634 362.365 C 481.690 360.569, 473.183 360.490, 256.250 360.237 L 31 359.974 31 281.636 C 31 200.770, 30.873 198.073, 26.961 195.979 C 25.955 195.441, 20.455 195, 14.740 195 C 5.171 195, 4.177 195.183, 2.174 197.314 M 0.487 353 C 0.487 437.975, 0.606 472.738, 0.750 430.250 C 0.894 387.763, 0.894 318.238, 0.750 275.750 C 0.606 233.263, 0.487 268.025, 0.487 353 M 90 233.101 C 81.301 234.603, 72.618 239.222, 65.940 245.900 C 37.321 274.519, 57.248 323.050, 97.633 323.092 C 123.427 323.118, 143 303.723, 143 278.137 C 143 267.393, 140.222 258.739, 134.212 250.758 C 123.998 237.193, 106.581 230.238, 90 233.101" stroke="none" fill="#040404" fill-rule="evenodd"/></svg>