<svg xmlns="http://www.w3.org/2000/svg" width="512" height="512" viewBox="0 0 512 512" version="1.1"><path d="" stroke="none" fill="#080404" fill-rule="evenodd"/><path d="M 243 0.625 C 226.380 3.787, 207.891 14.748, 198.642 26.922 C 196.521 29.715, 194.271 31.998, 193.642 31.995 C 189.592 31.979, 97.075 43.280, 95.303 44.007 C 94.094 44.503, 92.322 46.106, 91.363 47.568 C 89.691 50.121, 89.752 51.375, 92.897 78.864 C 94.699 94.614, 96.408 108.513, 96.695 109.750 C 97.146 111.694, 96.814 112, 94.258 112 C 86.475 112, 85.933 112.601, 70.524 138.352 L 56.075 162.500 47.537 329.115 C 42.842 420.753, 39 498.286, 39 501.410 C 39 506.108, 39.425 507.516, 41.455 509.545 L 43.909 512 256 512 L 468.091 512 470.545 509.545 C 472.575 507.516, 473 506.108, 473 501.410 C 473 498.286, 469.158 420.753, 464.463 329.115 L 455.925 162.500 441.476 138.352 C 425.237 111.215, 426.060 112, 413.851 112 C 410.083 112, 407 111.736, 407 111.412 C 407 111.089, 408.382 104.902, 410.071 97.662 C 413.414 83.332, 413.230 80.454, 408.795 77.659 C 407.533 76.863, 389.625 72.306, 369 67.531 C 348.375 62.757, 330.821 58.663, 329.990 58.434 C 329.128 58.196, 327.701 55.298, 326.664 51.676 C 322.230 36.193, 307.336 17.666, 292.871 9.641 C 280.565 2.814, 273.113 0.824, 258.500 0.467 C 251.350 0.293, 244.375 0.364, 243 0.625 M 242 19.518 C 236.206 21.107, 223.659 26.993, 224.428 27.761 C 224.676 28.009, 229.613 27.651, 235.400 26.965 C 244.811 25.850, 246.185 25.891, 248.425 27.359 C 249.803 28.262, 251.366 29.816, 251.900 30.813 C 252.611 32.141, 260 88.484, 260 92.575 C 260 93.521, 266.399 91.903, 267.616 90.650 C 268.229 90.017, 270.416 82.075, 272.474 73 C 277.047 52.846, 277.883 50.705, 281.825 49.073 C 284.486 47.970, 286.346 48.147, 295.768 50.400 C 301.748 51.830, 306.973 53, 307.379 53 C 308.701 53, 302.083 41.623, 297.961 36.808 C 293.087 31.116, 282.633 24.070, 274.500 20.996 C 266.680 18.040, 250.134 17.288, 242 19.518 M 171.521 52.676 C 137.433 56.773, 109.432 60.234, 109.298 60.368 C 109.164 60.502, 111.517 81.468, 114.527 106.958 C 117.537 132.448, 120 153.911, 120 154.652 C 120 155.740, 124.029 156, 140.853 156 L 161.707 156 158.387 142.250 C 153.763 123.096, 153.997 120.112, 160.330 117.547 C 162.074 116.842, 181.050 112.084, 202.500 106.976 C 223.950 101.867, 241.667 97.553, 241.871 97.389 C 242.248 97.087, 237.339 52.791, 236.370 47.750 C 236.079 46.237, 235.314 45.051, 234.671 45.114 C 234.027 45.176, 205.609 48.579, 171.521 52.676 M 290.183 76.679 C 289.069 81.526, 288.318 85.651, 288.513 85.847 C 288.709 86.042, 292.204 85.415, 296.281 84.454 C 304.668 82.477, 308.277 82.967, 310.520 86.390 C 311.766 88.292, 319.107 117.004, 326.975 150.750 L 328.199 156 352.988 156 L 377.776 156 380.893 142.750 C 382.607 135.463, 385.972 121.175, 388.369 111 C 390.767 100.825, 392.452 92.232, 392.114 91.906 C 391.776 91.579, 369.675 86.234, 343 80.028 C 316.325 73.822, 293.984 68.547, 293.353 68.305 C 292.627 68.027, 291.465 71.097, 290.183 76.679 M 235.539 117.609 C 202.561 125.573, 175.398 132.269, 175.177 132.490 C 174.956 132.710, 176.044 138.090, 177.594 144.445 L 180.412 156 244.706 156 C 295.467 156, 309.003 155.737, 309.014 154.750 C 309.043 152.232, 296.799 103.002, 296.160 103.065 C 295.797 103.101, 268.518 109.646, 235.539 117.609 M 88.598 143.500 L 81.064 156 91.532 156 C 99.257 156, 101.992 155.672, 101.968 154.750 C 101.951 154.063, 101.290 148.775, 100.500 143 C 99.710 137.225, 99.049 132.162, 99.032 131.750 C 99.014 131.338, 98.354 131, 97.566 131 C 96.777 131, 92.741 136.625, 88.598 143.500 M 399.642 142.209 C 398.179 148.419, 396.987 154.063, 396.991 154.750 C 396.998 155.701, 401.088 156, 414.082 156 L 431.163 156 429.183 152.750 C 428.093 150.963, 424.762 145.450, 421.781 140.500 L 416.360 131.500 409.330 131.209 L 402.301 130.918 399.642 142.209 M 73.590 178.250 C 73.297 180.588, 69.679 250, 65.552 332.500 C 61.424 415, 57.818 485.088, 57.539 488.250 L 57.031 494 256.024 494 L 455.017 494 454.495 488.750 C 454.208 485.863, 450.588 415.775, 446.452 333 C 442.315 250.225, 438.694 180.588, 438.404 178.250 L 437.877 174 256 174 L 74.123 174 73.590 178.250 M 179.220 193.578 C 160.829 202.743, 159.804 229.182, 177.439 239.517 L 181.811 242.079 182.233 264.790 C 182.702 289.987, 183.595 294.605, 190.593 308 C 209.130 343.485, 254.173 357.584, 289.787 339.049 C 308.001 329.569, 320.592 314.523, 327.066 294.500 C 329.045 288.381, 329.403 284.648, 329.915 264.839 L 330.500 242.177 335.471 238.839 C 342.825 233.899, 346.384 227.525, 346.841 218.474 C 347.122 212.903, 346.762 210.254, 345.261 206.877 C 340.676 196.559, 332.166 190.985, 321.054 191.022 C 310.265 191.058, 302.206 195.932, 297.578 205.220 C 291.583 217.250, 295.672 231.757, 307.157 239.199 L 312 242.337 311.983 260.418 C 311.962 281.536, 310.787 288.496, 305.448 299.115 C 298.485 312.965, 283.130 324.835, 268.201 327.909 C 261.421 329.305, 250.579 329.305, 243.799 327.909 C 228.939 324.850, 213.511 312.958, 206.621 299.254 C 201.058 288.187, 200.032 282.220, 200.015 260.845 L 200 242.190 204.344 239.645 C 215.927 232.856, 220.467 217.350, 214.422 205.220 C 209.794 195.932, 201.735 191.058, 190.946 191.022 C 185.877 191.005, 183.221 191.584, 179.220 193.578 M 185.174 211.314 C 183.865 212.708, 183 214.919, 183 216.871 C 183 220.022, 183.063 220.069, 185.223 218.557 C 188.101 216.540, 193.411 216.568, 196.535 218.615 C 198.976 220.214, 199 220.199, 199 217.070 C 199 210.064, 189.906 206.278, 185.174 211.314 M 315.455 211.455 C 313.871 213.038, 313 215.045, 313 217.110 C 313 220.147, 313.093 220.226, 314.829 218.655 C 317.150 216.554, 323.839 216.499, 326.777 218.557 C 328.943 220.073, 329 220.027, 329 216.731 C 329 209.693, 320.519 206.390, 315.455 211.455" stroke="none" fill="#040404" fill-rule="evenodd"/></svg>