<?xml version="1.0" standalone="no"?>
<!DOCTYPE svg PUBLIC "-//W3C//DTD SVG 20010904//EN"
 "http://www.w3.org/TR/2001/REC-SVG-20010904/DTD/svg10.dtd">
<svg version="1.0" xmlns="http://www.w3.org/2000/svg"
 width="512.000000pt" height="512.000000pt" viewBox="0 0 512.000000 512.000000"
 preserveAspectRatio="xMidYMid meet">

<g transform="translate(0.000000,512.000000) scale(0.100000,-0.100000)"
fill="#000000" stroke="none">
<path d="M2491 4623 c-20 -19 -131 -235 -337 -653 -169 -344 -308 -626 -309
-628 -1 -1 -315 -48 -696 -103 -382 -55 -709 -106 -727 -114 -19 -9 -39 -29
-49 -50 -33 -68 -28 -74 447 -535 239 -232 468 -454 507 -494 l73 -71 -120
-700 c-69 -400 -118 -712 -114 -727 8 -40 58 -78 101 -78 27 0 182 77 665 331
l629 331 57 -30 c1093 -575 1203 -632 1238 -632 28 0 44 8 70 34 20 20 34 44
34 58 0 12 -54 336 -119 718 l-120 695 77 76 c42 42 268 262 502 490 234 227
433 426 444 442 25 38 16 94 -21 127 -27 24 -64 31 -708 124 -374 54 -693 101
-709 104 -27 5 -48 43 -346 646 -342 690 -327 666 -405 666 -24 0 -44 -9 -64
-27z m354 -889 c172 -350 288 -572 301 -580 13 -9 269 -51 640 -104 341 -50
623 -92 627 -93 4 -1 -174 -179 -397 -395 -518 -503 -516 -502 -516 -544 0
-18 47 -305 105 -638 57 -333 103 -606 101 -607 -1 -1 -250 128 -554 288 -304
160 -567 292 -585 295 -27 4 -116 -39 -592 -290 -308 -162 -561 -294 -562
-292 -1 1 45 281 104 622 64 375 103 631 100 646 -5 17 -171 186 -462 469
-250 244 -453 444 -452 445 1 2 221 34 487 73 755 109 763 111 785 125 12 8
134 244 300 580 154 311 282 566 285 566 3 0 131 -255 285 -566z"/>
</g>
</svg>
