<svg xmlns="http://www.w3.org/2000/svg" width="512" height="512" viewBox="0 0 512 512" version="1.1"><path d="" stroke="none" fill="#080404" fill-rule="evenodd"/><path d="M 305.396 48.396 C 299.255 51.256, 303.951 45.719, 228.112 139.500 L 169.887 211.500 153.194 222.754 C 144.012 228.944, 134.925 234.507, 133 235.117 C 121.703 238.696, 106.960 248.120, 95.537 259.064 C 89.512 264.837, 78.206 272.915, 50.369 291.334 C 11.478 317.069, 8.267 319.699, 3.222 329.963 C 0.760 334.971, 0.500 336.550, 0.500 346.500 C 0.500 356.568, 0.741 357.992, 3.350 363.308 C 9.170 375.168, 21.772 384.502, 33.616 385.724 C 38.607 386.239, 39.001 386.470, 39.012 388.890 C 39.018 390.325, 39.625 393.750, 40.359 396.500 C 45.420 415.445, 63.175 428.346, 81.839 426.639 L 88.177 426.059 95.339 433.406 C 106.199 444.548, 118.657 452.067, 136.614 458.318 C 194.150 478.345, 268.994 463.898, 295.708 427.610 C 298.123 424.329, 300.444 421.030, 300.865 420.277 C 301.472 419.192, 302.237 419.141, 304.565 420.029 C 306.179 420.646, 310.982 421.152, 315.238 421.154 C 323.056 421.158, 328.472 419.405, 336.165 414.380 C 338.784 412.670, 338.964 412.708, 346.573 416.570 C 354.078 420.379, 354.629 420.500, 364.500 420.500 C 374.333 420.500, 374.945 420.367, 382.260 416.655 L 389.836 412.809 397.616 416.655 C 404.999 420.304, 405.884 420.500, 414.948 420.500 C 423.604 420.500, 425.129 420.202, 431.201 417.326 C 438.675 413.785, 445.361 407.685, 449.051 401.041 C 451.422 396.769, 451.737 396.579, 459 395.027 C 472.674 392.106, 481.848 385.142, 487.653 373.278 C 489.774 368.941, 490.447 365.806, 490.913 358.094 C 491.496 348.438, 491.524 348.355, 495.163 345.160 C 502.802 338.456, 508 326.819, 508 316.424 C 508 311.049, 504.687 298.543, 502.985 297.490 C 502.437 297.152, 503.338 294.292, 505.080 290.842 C 514.365 272.448, 514.283 248.507, 504.868 229.384 C 499.894 219.279, 491.786 210.433, 480.455 202.748 C 454.192 184.936, 420.536 172.755, 387.016 168.931 C 376.280 167.706, 340.906 168.166, 336 169.595 C 334.625 169.995, 342.725 163.216, 354 154.530 C 378.069 135.988, 381.271 133.083, 383.973 127.335 C 386.756 121.413, 386.728 111.528, 383.911 105.535 C 380.972 99.281, 374.313 93.468, 367.913 91.567 C 357.541 88.487, 352.536 89.933, 336.462 100.657 C 329.883 105.046, 323.923 108.979, 323.217 109.398 C 322.512 109.816, 325.760 104.729, 330.435 98.093 C 342.217 81.369, 342.461 80.838, 342.457 72 C 342.453 62.967, 340.313 58.206, 333.601 52.298 C 325.899 45.518, 314.857 43.991, 305.396 48.396 M 312.261 62.752 C 310.208 63.860, 295.409 81.347, 271.852 110.500 C 251.408 135.800, 229.916 162.348, 224.091 169.496 C 216.604 178.684, 214.420 181.908, 216.638 180.496 C 218.364 179.398, 234.565 168.641, 252.641 156.591 L 285.507 134.683 306.003 105.464 C 327.872 74.289, 329.091 71.840, 325.487 66.340 C 324.060 64.162, 318.602 60.997, 316.282 61.002 C 315.852 61.002, 314.042 61.790, 312.261 62.752 M 268.151 165.237 L 178.949 224.691 197.225 225.367 C 207.276 225.739, 217.750 226.300, 220.500 226.613 C 225.461 227.179, 225.516 227.154, 227.490 223.438 C 234.355 210.519, 260.052 193.029, 288.751 181.744 C 296.060 178.870, 301.065 175.365, 332.649 151 C 371.105 121.333, 372.217 120.218, 370.012 113.535 C 368.546 109.094, 365.929 106.934, 361.254 106.307 C 357.471 105.800, 354.638 107.593, 268.151 165.237 M 355.750 183.784 C 349.837 183.940, 345 184.418, 345 184.847 C 345 185.275, 346.163 188.036, 347.584 190.983 C 351.924 199.979, 354 210.098, 354 222.260 L 354 233.200 357.400 236.600 C 363.312 242.512, 371.384 240.425, 374.069 232.290 C 376.607 224.601, 373.230 198.288, 368.320 187.500 L 366.500 183.500 355.750 183.784 M 385.711 188.917 C 391.340 207.158, 392.224 232.865, 387.534 241.935 C 378.086 260.205, 348.755 260.265, 340.689 242.030 C 339.136 238.519, 338.649 234.873, 338.417 225.030 C 338.247 217.814, 337.464 210.059, 336.572 206.743 C 335.218 201.715, 330.943 192.257, 328.157 188.129 C 327.400 187.006, 324.941 187.521, 314.626 190.958 C 307.692 193.269, 301.762 195.576, 301.447 196.086 C 301.131 196.596, 301.746 198.248, 302.812 199.757 C 306.193 204.541, 312.646 218.213, 315.435 226.500 C 318.767 236.402, 319.740 246.285, 317.997 252.511 C 316.376 258.302, 309.389 266.227, 304.008 268.380 C 301.803 269.262, 300 270.158, 300 270.371 C 300 270.584, 301.225 273.400, 302.723 276.629 C 305.099 281.751, 305.513 284.127, 305.973 295.263 L 306.500 308.027 313.500 303.916 C 330.124 294.155, 339.035 290.910, 354.670 288.924 C 373.008 286.594, 393.137 291.172, 412 301.962 C 426.924 310.498, 430.314 311.516, 443.500 311.419 C 452.819 311.351, 455.512 310.945, 461.123 308.762 C 483.974 299.872, 496.060 283.434, 496.239 261 C 496.397 241.310, 487.459 225.901, 469.018 214.072 C 461.699 209.377, 445.518 200.870, 437.950 197.738 L 434.400 196.269 434.823 208.135 C 435.171 217.892, 434.853 221.702, 433.034 229.577 C 431.173 237.630, 431.016 239.624, 432.048 242.116 C 433.726 246.168, 436.681 248, 441.535 248 C 446.739 248, 450.376 244.448, 452.057 237.724 C 454.065 229.689, 459.953 226.815, 465.488 231.169 C 468.033 233.171, 468.203 233.742, 467.702 238.594 C 466.629 248.992, 460.574 258.354, 452.500 262.100 C 446.639 264.820, 436.867 264.618, 430.500 261.647 C 423.919 258.576, 418.511 252.460, 416.556 245.878 C 414.579 239.219, 414.589 238.889, 417.082 228.394 C 419.684 217.434, 419.848 204.652, 417.492 196.257 L 415.767 190.107 409.133 188.613 C 403.469 187.336, 394.408 185.748, 386.398 184.628 C 384.352 184.342, 384.334 184.456, 385.711 188.917 M 274.750 205.561 C 269.938 208.014, 266 210.261, 266 210.554 C 266 210.846, 267.751 213.429, 269.891 216.293 C 275.280 223.504, 279.597 232.492, 282.094 241.701 C 284.476 250.487, 286.835 253.691, 291.575 254.580 C 296.019 255.414, 300.131 253.254, 302.217 248.991 C 303.795 245.767, 303.813 244.952, 302.433 238.991 C 300.720 231.589, 297.959 223.820, 294.870 217.704 C 292.211 212.440, 284.759 200.983, 284.038 201.051 C 283.742 201.078, 279.563 203.108, 274.750 205.561 M 246.712 224.784 C 244.121 227.416, 242 230.034, 242 230.602 C 242 231.170, 244.588 232.449, 247.750 233.444 C 250.912 234.439, 255.932 236.327, 258.904 237.640 C 261.876 238.952, 264.507 239.827, 264.750 239.583 C 266.001 238.332, 254.197 220, 252.140 220 C 251.746 220, 249.304 222.153, 246.712 224.784 M 167.599 242.577 C 143.548 246.317, 122.700 255.110, 109.687 267.003 C 102.517 273.556, 98.378 280.149, 96.399 288.166 C 94.924 294.143, 94.927 295.166, 96.433 301.046 C 101.802 322, 126.346 338.330, 163.500 345.664 C 176.471 348.225, 208.681 348.211, 222.500 345.638 C 247.998 340.892, 268.606 331.017, 280.407 317.892 C 294.060 302.707, 293.853 285.241, 279.846 270.430 C 266.433 256.249, 244.941 246.656, 217.220 242.477 C 205.138 240.656, 179.628 240.707, 167.599 242.577 M 181.204 264.006 C 149.869 268.399, 133.118 288.563, 145.575 306.895 C 148.364 311, 154.634 316.192, 158.974 317.989 C 162.994 319.654, 167.393 317.880, 169.027 313.934 C 170.777 309.709, 169.504 306.343, 165.106 303.567 C 160.931 300.931, 157 296.506, 157 294.442 C 157 292.107, 162.179 286.943, 166.939 284.531 C 172.746 281.588, 184.942 279, 193 279 C 205.950 279, 220.257 283.530, 226.258 289.530 C 229.938 293.210, 229.714 295.525, 225.250 299.964 C 220.361 304.826, 212.553 307.654, 199.286 309.370 C 190.425 310.515, 188.316 311.126, 186.811 312.985 C 184.335 316.042, 184.539 319.353, 187.409 322.689 C 189.727 325.384, 190.120 325.478, 197.939 325.196 C 220.518 324.381, 239.614 314.017, 243.562 300.435 C 245.547 293.607, 244.835 288.708, 240.973 282.619 C 236.095 274.927, 225.369 268.447, 212.622 265.493 C 204.590 263.631, 189.106 262.899, 181.204 264.006 M 52.673 308.453 C 38.468 317.979, 25.473 327.062, 23.796 328.637 C 12.765 338.995, 13.813 358.007, 25.883 366.483 C 29.861 369.276, 30.823 369.500, 38.840 369.500 C 49.158 369.500, 49.441 369.361, 67.490 355.409 L 80 345.739 80 318.370 C 80 303.316, 79.662 291.030, 79.250 291.066 C 78.838 291.102, 66.878 298.926, 52.673 308.453 M 352.660 305.048 C 343.091 306.654, 334.327 310.022, 324.357 315.925 C 318.778 319.228, 312.365 322.670, 310.107 323.574 L 306 325.217 306 364.590 L 306 403.962 308.589 404.612 C 313.601 405.870, 321.799 404.262, 327.752 400.854 C 334.688 396.884, 342.319 396.328, 348 399.380 C 357.334 404.395, 359.111 405, 364.500 405 C 369.889 405, 371.666 404.395, 381 399.380 C 386.798 396.265, 394.188 396.938, 402.333 401.322 C 416.704 409.057, 428.495 405.014, 437.961 389.105 C 440.615 384.643, 448.261 380, 452.953 380 C 460.677 380, 468.533 375.112, 472.488 367.844 C 474.850 363.506, 475.237 361.674, 475.161 355.197 C 475.049 345.529, 477.061 340.828, 484.899 332.449 C 489.570 327.456, 491.014 325.127, 491.802 321.317 C 492.729 316.833, 492.411 310, 491.274 310 C 490.999 310, 488.013 312.090, 484.637 314.645 C 473.859 322.803, 463.051 326.643, 447.940 327.683 C 433.013 328.709, 422.202 325.892, 406.488 316.879 C 387.519 306, 369.969 302.142, 352.660 305.048 M 95.183 367.085 L 95.500 404.548 98.742 411.130 C 107.742 429.404, 132.694 443.771, 165.500 449.568 C 179.056 451.963, 206.826 452, 220 449.640 C 253.999 443.550, 278.082 429.760, 287.258 411.130 L 290.500 404.548 290.802 367.024 L 291.104 329.500 286.802 333.652 C 273.667 346.326, 249.860 356.788, 223 361.689 C 209.703 364.115, 176.297 364.115, 163 361.689 C 136.369 356.830, 113.520 346.816, 99.432 333.830 L 94.867 329.622 95.183 367.085 M 67.255 374.788 L 55.010 383.500 55.005 387.884 C 54.993 398.560, 60.654 406.632, 70.126 409.445 C 73.007 410.300, 76.519 411, 77.932 411.001 L 80.500 411.001 80.224 391.751 C 80.072 381.163, 79.847 371.055, 79.724 369.288 L 79.500 366.076 67.255 374.788 M 142.315 386.007 C 138.884 387.389, 138 390.204, 138 399.746 C 138 410.201, 139.592 413, 145.539 413 C 152.126 413, 154.767 407.392, 153.703 395.662 C 153.250 390.663, 152.658 389.103, 150.517 387.261 C 147.731 384.865, 145.860 384.579, 142.315 386.007 M 235.734 386.994 C 233.083 389.080, 233 389.448, 233 399.073 C 233 410.577, 234.305 413, 240.500 413 C 246.615 413, 248 410.527, 248 399.611 C 248 392.138, 247.643 389.791, 246.250 388.114 C 243.580 384.898, 239.017 384.412, 235.734 386.994 M 178.315 394.985 C 177.114 395.481, 175.651 396.783, 175.065 397.878 C 169.452 408.367, 187.977 420.086, 201.344 414.501 C 207.024 412.128, 212 406.559, 212 402.577 C 212 394.873, 203.956 391.794, 198.209 397.300 C 194.716 400.646, 191.383 400.736, 188.055 397.571 C 185.043 394.708, 181.357 393.730, 178.315 394.985" stroke="none" fill="#040404" fill-rule="evenodd"/></svg>