<?xml version="1.0" encoding="UTF-8"?>
<svg version="1.1" xmlns="http://www.w3.org/2000/svg" width="512" height="512">
<path d="M0 0 C1.47788767 -0.00461278 2.95577076 -0.01096822 4.43364429 -0.01890898 C8.48201365 -0.03557389 12.5300048 -0.027369 16.57837534 -0.0149641 C20.94927918 -0.00590426 25.32011854 -0.01988797 29.69100952 -0.03088379 C38.24854222 -0.04866362 46.80593452 -0.04483141 55.3634727 -0.03323323 C62.31879372 -0.02419708 69.27407542 -0.02297569 76.22940063 -0.02732849 C77.21958626 -0.02794142 78.20977188 -0.02855436 79.22996312 -0.02918586 C81.24155101 -0.03046477 83.25313889 -0.03176163 85.26472676 -0.03307623 C104.12424543 -0.04448046 122.98368631 -0.03137078 141.84319222 -0.00987476 C158.02302322 0.00799607 174.20273943 0.00489192 190.38256836 -0.0135498 C209.17492786 -0.03495928 227.9672192 -0.04338183 246.7595892 -0.03110075 C248.76374752 -0.02982656 250.76790586 -0.02856908 252.77206421 -0.02732849 C253.75813009 -0.02671139 254.74419596 -0.02609429 255.76014262 -0.02545848 C262.7065363 -0.02200582 269.65288671 -0.02783214 276.59927368 -0.0372467 C285.06544164 -0.04846891 293.53146126 -0.04542196 301.99761224 -0.02412373 C306.31661025 -0.0136163 310.635361 -0.0094862 314.95435715 -0.02272034 C318.90960015 -0.03465652 322.86436715 -0.0280618 326.81956708 -0.00681013 C328.24879658 -0.00234922 329.67806644 -0.0045989 331.10726988 -0.01431328 C340.11731063 -0.07084787 346.46593404 0.2848738 353.57053566 6.24403286 C359.07951657 13.81042617 358.30007651 22.31145832 358.18188477 31.23669434 C358.18019042 33.03110192 358.18114602 34.82551365 358.18453979 36.61991882 C358.18625562 41.47083907 358.15107286 46.32086235 358.10909605 51.17157483 C358.07149286 56.2484053 358.06805614 61.32525817 358.0609436 66.40220642 C358.04232291 76.00691454 357.99312345 85.61121106 357.93284667 95.21573824 C357.8656951 106.15401189 357.83277078 117.09230559 357.80267406 128.03073418 C357.74002197 150.52336217 357.63454093 173.01562527 357.50073242 195.50793457 C358.34740479 195.49905212 359.19407715 195.49016968 360.06640625 195.48101807 C368.06944039 195.40066578 376.07233784 195.33986567 384.07568359 195.30068588 C388.18971044 195.27986547 392.30340226 195.25165046 396.41723633 195.20617676 C400.39190943 195.16251934 404.36626152 195.1387558 408.34115601 195.1284256 C409.85294646 195.1210697 411.36472056 195.10670557 412.87637329 195.08501434 C422.12501806 194.95765429 429.01674318 195.15673848 436.52416992 201.11340332 C436.97018555 201.63547363 437.41620117 202.15754395 437.87573242 202.69543457 C438.3372168 203.20461426 438.79870117 203.71379395 439.27416992 204.23840332 C442.6253796 210.43920849 442.79350683 217.68513949 442.75469971 224.58473206 C442.75781969 225.45249045 442.76093967 226.32024885 442.7641542 227.21430296 C442.77207768 230.09748864 442.76583276 232.98046053 442.75952148 235.86364746 C442.76223384 237.94063947 442.76579614 240.01763052 442.7701416 242.09461975 C442.77923821 247.71843565 442.77573274 253.34217794 442.76938343 258.96599507 C442.76431 264.85859321 442.76901856 270.75118517 442.77215576 276.64378357 C442.7757912 286.53706999 442.77100707 296.43032652 442.76147461 306.3236084 C442.75058788 317.75427458 442.75411895 329.18486943 442.76512742 340.61553389 C442.77420872 350.43911984 442.77548153 360.26268434 442.77025008 370.08627313 C442.76713542 375.94940926 442.7667073 381.81251187 442.77332306 387.67564583 C442.77910822 393.18733364 442.77507812 398.69892962 442.76353455 404.21060753 C442.76089437 406.2310127 442.76164207 408.25142563 442.76605988 410.2718277 C442.77154201 413.03402906 442.76464888 415.79593789 442.75469971 418.55812073 C442.75916115 419.35355996 442.76362259 420.14899919 442.76821923 420.96854264 C442.71100981 429.18286135 441.28012045 436.39842085 435.50073242 442.50793457 C428.27986567 447.29770673 421.4497242 447.07329246 413.00146484 447.01586914 C411.52357717 447.02048192 410.04569409 447.02683736 408.56782055 447.03477812 C404.51945119 447.05144303 400.47146005 447.04323814 396.4230895 447.03083324 C392.05218566 447.0217734 387.68134631 447.03575711 383.31045532 447.04675293 C374.75292263 447.06453276 366.19553032 447.06070055 357.63799214 447.04910237 C350.68267112 447.04006622 343.72738942 447.03884483 336.77206421 447.04319763 C335.78187859 447.04381056 334.79169297 447.0444235 333.77150172 447.045055 C331.75991383 447.04633391 329.74832595 447.04763077 327.73673809 447.04894537 C308.87721942 447.0603496 290.01777854 447.04723992 271.15827262 447.0257439 C254.97844162 447.00787307 238.79872542 447.01097722 222.61889648 447.02941895 C203.82653698 447.05082842 185.03424564 447.05925098 166.24187565 447.04696989 C164.23771732 447.0456957 162.23355898 447.04443822 160.22940063 447.04319763 C159.24333476 447.04258053 158.25726888 447.04196343 157.24132222 447.04132763 C150.29492855 447.03787496 143.34857814 447.04370128 136.40219116 447.05311584 C127.93602321 447.06433805 119.47000358 447.0612911 111.00385261 447.03999287 C106.68485459 447.02948544 102.36610384 447.02535534 98.0471077 447.03858948 C94.0918647 447.05052566 90.13709769 447.04393094 86.18189776 447.02267927 C84.75266827 447.01821837 83.3233984 447.02046804 81.89419496 447.03018242 C72.88415422 447.08671701 66.5355308 446.73099534 59.43092918 440.77183628 C53.92194827 433.20544298 54.70138834 424.70441082 54.81958008 415.7791748 C54.82127442 413.98476722 54.82031882 412.19035549 54.81692505 410.39595032 C54.81520923 405.54503007 54.85039198 400.69500679 54.89236879 395.84429431 C54.92997198 390.76746384 54.93340871 385.69061097 54.94052124 380.61366272 C54.95914194 371.0089546 55.00834139 361.40465808 55.06861818 351.8001309 C55.13576975 340.86185725 55.16869407 329.92356355 55.19879079 318.98513496 C55.26144287 296.49250697 55.36692391 274.00024387 55.50073242 251.50793457 C54.65406006 251.51681702 53.8073877 251.52569946 52.93505859 251.53485107 C44.93202446 251.61520336 36.929127 251.67600347 28.92578125 251.71518326 C24.8117544 251.73600367 20.69806259 251.76421868 16.58422852 251.80969238 C12.60955541 251.8533498 8.63520332 251.87711334 4.66030884 251.88744354 C3.14851838 251.89479944 1.63674428 251.90916357 0.12509155 251.9308548 C-9.12355321 252.05821485 -16.01527834 251.85913066 -23.52270508 245.90246582 C-24.19172852 245.11936035 -24.19172852 245.11936035 -24.87426758 244.32043457 C-25.33575195 243.81125488 -25.79723633 243.3020752 -26.27270508 242.77746582 C-29.62391476 236.57666065 -29.79204199 229.33072965 -29.75323486 222.43113708 C-29.75635484 221.56337869 -29.75947483 220.69562029 -29.76268935 219.80156618 C-29.77061283 216.9183805 -29.76436791 214.03540861 -29.75805664 211.15222168 C-29.76076899 209.07522967 -29.7643313 206.99823862 -29.76867676 204.92124939 C-29.77777337 199.29743349 -29.77426789 193.6736912 -29.76791859 188.04987407 C-29.76284516 182.15727593 -29.76755371 176.26468397 -29.77069092 170.37208557 C-29.77432636 160.47879915 -29.76954223 150.58554262 -29.76000977 140.69226074 C-29.74912304 129.26159456 -29.7526541 117.83099971 -29.76366258 106.40033525 C-29.77274387 96.5767493 -29.77401669 86.7531848 -29.76878524 76.92959601 C-29.76567057 71.06645988 -29.76524246 65.20335727 -29.77185822 59.34022331 C-29.77764338 53.8285355 -29.77361327 48.31693952 -29.7620697 42.80526161 C-29.75942952 40.78485644 -29.76017722 38.76444351 -29.76459503 36.74404144 C-29.77007717 33.98184008 -29.76318404 31.21993125 -29.75323486 28.45774841 C-29.75992703 27.26458957 -29.75992703 27.26458957 -29.76675439 26.04732651 C-29.70954496 17.8330078 -28.2786556 10.61744829 -22.49926758 4.50793457 C-15.27840082 -0.28183759 -8.44825935 -0.05742332 0 0 Z " fill="#A54AF3" transform="translate(49.499267578125,32.4920654296875)"/>
<path d="M0 0 C1.47788767 -0.00461278 2.95577076 -0.01096822 4.43364429 -0.01890898 C8.48201365 -0.03557389 12.5300048 -0.027369 16.57837534 -0.0149641 C20.94927918 -0.00590426 25.32011854 -0.01988797 29.69100952 -0.03088379 C38.24854222 -0.04866362 46.80593452 -0.04483141 55.3634727 -0.03323323 C62.31879372 -0.02419708 69.27407542 -0.02297569 76.22940063 -0.02732849 C77.21958626 -0.02794142 78.20977188 -0.02855436 79.22996312 -0.02918586 C81.24155101 -0.03046477 83.25313889 -0.03176163 85.26472676 -0.03307623 C104.12424543 -0.04448046 122.98368631 -0.03137078 141.84319222 -0.00987476 C158.02302322 0.00799607 174.20273943 0.00489192 190.38256836 -0.0135498 C209.17492786 -0.03495928 227.9672192 -0.04338183 246.7595892 -0.03110075 C248.76374752 -0.02982656 250.76790586 -0.02856908 252.77206421 -0.02732849 C253.75813009 -0.02671139 254.74419596 -0.02609429 255.76014262 -0.02545848 C262.7065363 -0.02200582 269.65288671 -0.02783214 276.59927368 -0.0372467 C285.06544164 -0.04846891 293.53146126 -0.04542196 301.99761224 -0.02412373 C306.31661025 -0.0136163 310.635361 -0.0094862 314.95435715 -0.02272034 C318.90960015 -0.03465652 322.86436715 -0.0280618 326.81956708 -0.00681013 C328.24879658 -0.00234922 329.67806644 -0.0045989 331.10726988 -0.01431328 C340.11731063 -0.07084787 346.46593404 0.2848738 353.57053566 6.24403286 C359.07951657 13.81042617 358.30007651 22.31145832 358.18188477 31.23669434 C358.18019042 33.03110192 358.18114602 34.82551365 358.18453979 36.61991882 C358.18625562 41.47083907 358.15107286 46.32086235 358.10909605 51.17157483 C358.07149286 56.2484053 358.06805614 61.32525817 358.0609436 66.40220642 C358.04232291 76.00691454 357.99312345 85.61121106 357.93284667 95.21573824 C357.8656951 106.15401189 357.83277078 117.09230559 357.80267406 128.03073418 C357.74002197 150.52336217 357.63454093 173.01562527 357.50073242 195.50793457 C356.59753808 195.5088302 356.59753808 195.5088302 355.67609739 195.50974393 C319.98571664 195.54564109 284.2954275 195.60228498 248.60512576 195.68585552 C244.31935176 195.69587293 240.03357738 195.70571707 235.74780273 195.7154541 C234.46797672 195.71836616 234.46797672 195.71836616 233.16229564 195.72133705 C219.34873701 195.75235465 205.53519499 195.76933703 191.7216081 195.78112879 C177.54664653 195.7935416 163.37177211 195.82104592 149.19686556 195.86254764 C140.45079709 195.88767935 131.70487316 195.90105209 122.95876807 195.89936414 C116.96050491 195.89933438 110.96238895 195.91396912 104.96418315 195.94009885 C101.50394472 195.95474063 98.04400816 195.96295155 94.58374405 195.95373726 C90.82898426 195.94711527 87.07510564 195.96497717 83.32043457 195.98895264 C82.23092609 195.98119222 81.14141761 195.9734318 80.01889372 195.96543622 C73.03118461 196.0444661 67.19934323 196.98590285 61.98098516 201.95512605 C58.52435352 205.91563239 56.27968568 209.4444586 56.18188477 214.72570801 C56.16201508 215.54625671 56.14214539 216.36680542 56.12167358 217.21221924 C56.11012238 218.08839905 56.09857117 218.96457886 56.08666992 219.86730957 C56.06730377 220.77168762 56.04793762 221.67606567 56.02798462 222.60784912 C55.96829411 225.49111556 55.92184556 228.37442215 55.87573242 231.25793457 C55.83754295 233.21498305 55.79849065 235.1720149 55.75854492 237.12902832 C55.66260117 241.92186168 55.57853115 246.71477372 55.50073242 251.50793457 C46.64248631 251.6008665 37.78440959 251.67181649 28.92578125 251.71518326 C24.8117544 251.73600367 20.69806259 251.76421868 16.58422852 251.80969238 C12.60955541 251.8533498 8.63520332 251.87711334 4.66030884 251.88744354 C3.14851838 251.89479944 1.63674428 251.90916357 0.12509155 251.9308548 C-9.12355321 252.05821485 -16.01527834 251.85913066 -23.52270508 245.90246582 C-24.19172852 245.11936035 -24.19172852 245.11936035 -24.87426758 244.32043457 C-25.33575195 243.81125488 -25.79723633 243.3020752 -26.27270508 242.77746582 C-29.62391476 236.57666065 -29.79204199 229.33072965 -29.75323486 222.43113708 C-29.75635484 221.56337869 -29.75947483 220.69562029 -29.76268935 219.80156618 C-29.77061283 216.9183805 -29.76436791 214.03540861 -29.75805664 211.15222168 C-29.76076899 209.07522967 -29.7643313 206.99823862 -29.76867676 204.92124939 C-29.77777337 199.29743349 -29.77426789 193.6736912 -29.76791859 188.04987407 C-29.76284516 182.15727593 -29.76755371 176.26468397 -29.77069092 170.37208557 C-29.77432636 160.47879915 -29.76954223 150.58554262 -29.76000977 140.69226074 C-29.74912304 129.26159456 -29.7526541 117.83099971 -29.76366258 106.40033525 C-29.77274387 96.5767493 -29.77401669 86.7531848 -29.76878524 76.92959601 C-29.76567057 71.06645988 -29.76524246 65.20335727 -29.77185822 59.34022331 C-29.77764338 53.8285355 -29.77361327 48.31693952 -29.7620697 42.80526161 C-29.75942952 40.78485644 -29.76017722 38.76444351 -29.76459503 36.74404144 C-29.77007717 33.98184008 -29.76318404 31.21993125 -29.75323486 28.45774841 C-29.75992703 27.26458957 -29.75992703 27.26458957 -29.76675439 26.04732651 C-29.70954496 17.8330078 -28.2786556 10.61744829 -22.49926758 4.50793457 C-15.27840082 -0.28183759 -8.44825935 -0.05742332 0 0 Z " fill="#FEC81D" transform="translate(49.499267578125,32.4920654296875)"/>
<path d="M0 0 C127.38 0 254.76 0 386 0 C386 17.16 386 34.32 386 52 C258.62 52 131.24 52 0 52 C0 34.84 0 17.68 0 0 Z " fill="#58595B" transform="translate(21,81)"/>
<path d="M0 0 C7.47772274 0.7762076 11.2040284 2.26757321 16.75 7.6875 C21.41201889 13.63765006 21.29469957 21.83492734 21.25396729 29.07679749 C21.25708727 29.94455588 21.26020725 30.81231428 21.26342177 31.70636839 C21.27134526 34.58955407 21.26510033 37.47252596 21.25878906 40.35571289 C21.26150141 42.4327049 21.26506372 44.50969595 21.26940918 46.58668518 C21.27850579 52.21050108 21.27500031 57.83424337 21.26865101 63.4580605 C21.26357758 69.35065864 21.26828613 75.2432506 21.27142334 81.135849 C21.27505878 91.02913542 21.27027465 100.92239195 21.26074219 110.81567383 C21.24985546 122.24634001 21.25338653 133.67693486 21.264395 145.10759932 C21.2734763 154.93118527 21.27474911 164.75474977 21.26951766 174.57833856 C21.266403 180.44147469 21.26597488 186.3045773 21.27259064 192.16771126 C21.2783758 197.67939907 21.27434569 203.19099505 21.26280212 208.70267296 C21.26016195 210.72307813 21.26090965 212.74349106 21.26532745 214.76389313 C21.27080959 217.52609449 21.26391646 220.28800332 21.25396729 223.05018616 C21.25842873 223.84562539 21.26289017 224.64106462 21.26748681 225.46060807 C21.21027738 233.67492678 19.77938803 240.89048628 14 247 C6.77913325 251.78977216 -0.05100822 251.56535789 -8.49926758 251.50793457 C-9.97715525 251.51254735 -11.45503833 251.51890279 -12.93291187 251.52684355 C-16.98128123 251.54350846 -21.02927238 251.53530357 -25.07764292 251.52289867 C-29.44854676 251.51383883 -33.81938612 251.52782254 -38.1902771 251.53881836 C-46.74780979 251.55659819 -55.3052021 251.55276598 -63.86274028 251.5411678 C-70.8180613 251.53213165 -77.773343 251.53091026 -84.72866821 251.53526306 C-85.71885383 251.53587599 -86.70903946 251.53648893 -87.7292307 251.53712043 C-89.74081859 251.53839934 -91.75240647 251.5396962 -93.76399434 251.5410108 C-112.62351301 251.55241503 -131.48295389 251.53930535 -150.3424598 251.51780933 C-166.5222908 251.4999385 -182.70200701 251.50304265 -198.88183594 251.52148438 C-217.67419544 251.54289385 -236.46648678 251.5513164 -255.25885677 251.53903532 C-257.2630151 251.53776113 -259.26717344 251.53650365 -261.27133179 251.53526306 C-262.25739766 251.53464596 -263.24346354 251.53402886 -264.2594102 251.53339306 C-271.20580388 251.52994039 -278.15215429 251.53576671 -285.09854126 251.54518127 C-293.56470922 251.55640348 -302.03072884 251.55335653 -310.49687982 251.5320583 C-314.81587783 251.52155087 -319.13462858 251.51742077 -323.45362473 251.53065491 C-327.40886772 251.54259109 -331.36363473 251.53599637 -335.31883466 251.5147447 C-336.74806416 251.51028379 -338.17733402 251.51253347 -339.60653746 251.52224785 C-347.4939389 251.57173831 -353.30035065 251.36372318 -360 247 C-362.09375 244.88671875 -362.09375 244.88671875 -363.5 242.6875 C-363.9846875 241.96949219 -364.469375 241.25148438 -364.96875 240.51171875 C-366.30301769 237.26196829 -366.06715392 234.48310109 -366 231 C-365.26033241 230.99940291 -364.52066483 230.99880582 -363.75858307 230.99819064 C-319.92652643 230.96230205 -276.09453871 230.90567132 -232.26254576 230.82207905 C-227.00038886 230.81206151 -221.73823165 230.80221739 -216.47607422 230.79248047 C-215.42846692 230.7905391 -214.38085962 230.78859772 -213.30150664 230.78659752 C-196.33551565 230.75557064 -179.36953818 230.73859494 -162.40352416 230.72680578 C-144.99673589 230.71439779 -127.59001865 230.68690434 -110.18327522 230.64538693 C-99.44109816 230.62024148 -88.6990389 230.60688349 -77.95683199 230.60857043 C-70.59197048 230.60860017 -63.22722903 230.59398583 -55.8624143 230.56783572 C-51.61233893 230.55317813 -47.36250978 230.54499676 -43.11241341 230.55419731 C-39.21974919 230.56248153 -35.32757979 230.55233724 -31.43498898 230.52766338 C-30.02840657 230.52197751 -28.62177729 230.52299876 -27.21520901 230.53148755 C-18.6940787 230.5784986 -11.55547864 230.49744706 -5.16015625 224.18359375 C-4.79792969 223.60738281 -4.43570312 223.03117188 -4.0625 222.4375 C-3.68222656 221.85871094 -3.30195313 221.27992188 -2.91015625 220.68359375 C-0.59041797 216.39257573 -0.84734818 212.17241197 -0.84178162 207.43904114 C-0.83437465 206.11212526 -0.83437465 206.11212526 -0.82681805 204.758403 C-0.8114124 201.78270355 -0.80307412 198.80702572 -0.79467773 195.83129883 C-0.78510162 193.70280262 -0.7750917 191.57430832 -0.76467896 189.44581604 C-0.73759492 183.65693432 -0.7166043 177.86804441 -0.69667697 172.07913423 C-0.67483899 166.03326561 -0.64743961 159.9874223 -0.62062073 153.9415741 C-0.57066422 142.48816402 -0.52573637 131.03473991 -0.48259836 119.58130234 C-0.43325125 106.54397921 -0.37832377 93.50668147 -0.32291877 80.46938288 C-0.20905332 53.64627894 -0.10222422 26.82315065 0 0 Z " fill="#6D2BC2" transform="translate(471,228)"/>
<path d="M0 0 C0.7319458 -0.00241196 1.4638916 -0.00482391 2.21801758 -0.00730896 C3.75770514 -0.00633424 5.29742938 0.00696983 6.83691406 0.03198242 C9.18156046 0.06631927 11.52243681 0.05261982 13.8671875 0.03320312 C15.36980756 0.04010222 16.87241798 0.04977519 18.375 0.0625 C19.06891846 0.05754013 19.76283691 0.05258026 20.4777832 0.04747009 C25.47490757 0.16721254 28.33747281 1.49749839 32.1875 4.62890625 C34.0859375 7.42578125 34.0859375 7.42578125 35.5625 10.37890625 C36.06523437 11.36375 36.56796875 12.34859375 37.0859375 13.36328125 C37.44945312 14.1109375 37.81296875 14.85859375 38.1875 15.62890625 C40.89600587 12.10865233 43.24305683 8.41971902 45.58984375 4.65234375 C47.43124096 2.32020743 48.41555185 1.67489742 51.1875 0.62890625 C53.70352298 0.4258993 56.10573953 0.32478073 58.62109375 0.328125 C59.69352074 0.32169731 59.69352074 0.32169731 60.78761292 0.31513977 C62.29630476 0.30940971 63.80502423 0.30888645 65.3137207 0.31323242 C67.61392661 0.31639104 69.91284371 0.29292367 72.21289062 0.26757812 C73.68229005 0.26530474 75.15169292 0.26460182 76.62109375 0.265625 C77.30457382 0.25641525 77.98805389 0.24720551 78.69224548 0.23771667 C83.04229683 0.27956979 85.75310798 0.93774139 89.1875 3.62890625 C90.78173828 5.55224609 90.78173828 5.55224609 92.1328125 7.71484375 C92.63586914 8.51116211 93.13892578 9.30748047 93.65722656 10.12792969 C94.1622168 10.95325195 94.66720703 11.77857422 95.1875 12.62890625 C95.68475586 13.42071289 96.18201172 14.21251953 96.69433594 15.02832031 C98.18081836 17.41978808 99.62530863 19.83255123 101.0625 22.25390625 C101.56007813 23.06085938 102.05765625 23.8678125 102.5703125 24.69921875 C103.03953125 25.49328125 103.50875 26.28734375 103.9921875 27.10546875 C104.41483887 27.80752441 104.83749023 28.50958008 105.27294922 29.23291016 C107.02373696 33.81973101 106.67605842 37.46240971 104.7980957 41.94628906 C104.15960693 43.06358398 103.52111816 44.18087891 102.86328125 45.33203125 C102.5200029 45.93650085 102.17672455 46.54097046 101.82304382 47.16375732 C101.09807794 48.43173759 100.36566553 49.69548659 99.6262207 50.95507812 C98.50126764 52.87674085 97.40667297 54.8134914 96.31445312 56.75390625 C95.6033102 57.98928895 94.89047544 59.22369963 94.17578125 60.45703125 C93.53165283 61.56981445 92.88752441 62.68259766 92.22387695 63.82910156 C90.0075689 66.87629263 88.65531116 68.18898999 85.1875 69.62890625 C82.45200734 69.92753688 79.95104017 70.07357737 77.21875 70.0625 C76.46082153 70.06774185 75.70289307 70.0729837 74.92199707 70.0783844 C73.32512635 70.08478627 71.72820837 70.0834914 70.13134766 70.07495117 C67.69478133 70.06643171 65.26055433 70.09523897 62.82421875 70.12695312 C61.26822987 70.12856519 59.71223685 70.12798751 58.15625 70.125 C57.43215942 70.13623398 56.70806885 70.14746796 55.96203613 70.15904236 C51.07789091 70.09207766 48.6194023 69.08616841 45.1875 65.62890625 C43.38671875 63.05078125 43.38671875 63.05078125 41.875 60.37890625 C41.36324219 59.486875 40.85148437 58.59484375 40.32421875 57.67578125 C39.94910156 57.0003125 39.57398438 56.32484375 39.1875 55.62890625 C36.03088088 58.55065787 33.96825679 61.95317478 31.6875 65.5703125 C30.1875 67.62890625 30.1875 67.62890625 27.1875 69.62890625 C24.48907 69.86076505 21.89622295 69.98084831 19.1953125 70 C18.41235809 70.00902847 17.62940369 70.01805695 16.82272339 70.02735901 C15.16684796 70.04185964 13.51091526 70.05074779 11.85498047 70.05444336 C9.32811335 70.06633279 6.80369489 70.11550831 4.27734375 70.16601562 C2.66667856 70.17548117 1.0559984 70.18271558 -0.5546875 70.1875 C-1.30692596 70.20703232 -2.05916443 70.22656464 -2.834198 70.24668884 C-6.65143246 70.21404418 -8.55163813 69.8319566 -11.59301758 67.46459961 C-15.04052614 63.05993434 -17.8101104 58.36890049 -20.59838867 53.52783203 C-21.6239714 51.75568362 -22.6733853 49.99921593 -23.72460938 48.2421875 C-24.37880859 47.11425781 -25.03300781 45.98632812 -25.70703125 44.82421875 C-26.60192261 43.2930542 -26.60192261 43.2930542 -27.51489258 41.73095703 C-29.06526803 38.02464085 -29.2522521 35.61643703 -28.8125 31.62890625 C-27.53076172 28.52685547 -27.53076172 28.52685547 -25.7421875 25.43359375 C-25.0925 24.30566406 -24.4428125 23.17773438 -23.7734375 22.015625 C-23.43022461 21.4386084 -23.08701172 20.8615918 -22.73339844 20.26708984 C-21.69234265 18.51207003 -20.68086801 16.74235516 -19.671875 14.96875 C-14.65376858 6.37893254 -10.78436821 -0.2060493 0 0 Z " fill="#E53950" transform="translate(332.8125,279.37109375)"/>
<path d="M0 0 C7.75 0.75 7.75 0.75 10 3 C10.2023461 5.91516074 10.27797403 8.73588425 10.26742554 11.65261841 C10.27195665 12.55931491 10.27648776 13.46601141 10.28115618 14.40018356 C10.29387848 17.45710688 10.29217477 20.51385382 10.29052734 23.57080078 C10.29650789 25.75513439 10.30331233 27.93946588 10.31088257 30.12379456 C10.32860237 36.0723819 10.33324058 42.02091177 10.33451414 47.96952295 C10.33640998 52.93207596 10.34376424 57.89461548 10.35085833 62.85716331 C10.3662318 73.89765304 10.37219422 84.93811586 10.37084763 95.97861554 C10.37076772 96.64148296 10.3706878 97.30435038 10.37060547 97.98730469 C10.37052371 98.6509823 10.37044195 99.3146599 10.37035771 99.99844895 C10.36954559 110.74357786 10.38866162 121.48856632 10.4168822 132.23365463 C10.44563143 143.26720897 10.45905525 154.30069149 10.45769465 165.33428371 C10.45718458 171.52845274 10.46289202 177.72246307 10.48405075 183.91659927 C10.50341766 189.74590043 10.50356791 195.57489131 10.48901749 201.40420341 C10.48692608 203.5423255 10.49164995 205.6804669 10.5037384 207.81855583 C10.5191903 210.74122798 10.50988255 213.66283038 10.49447632 216.58547974 C10.50476344 217.42849424 10.51505057 218.27150873 10.52564943 219.14006913 C10.45243338 225.44062421 8.94793269 230.80724466 4.58811319 235.5291425 C-0.32738995 239.86547547 -4.67896764 241.25019842 -11.13261509 241.24888897 C-12.37322557 241.25348777 -13.61383605 241.25808656 -14.89204079 241.26282471 C-16.26588289 241.25780986 -17.63972431 241.25260762 -19.01356506 241.24723816 C-20.47521007 241.24882644 -21.93685434 241.25129024 -23.39849657 241.25455457 C-27.41567024 241.26097199 -31.43274323 241.25489688 -35.44991028 241.24679029 C-39.78191268 241.24021607 -44.11390377 241.24516115 -48.44590759 241.24867249 C-56.93229373 241.25371638 -65.41864092 241.24807055 -73.90502221 241.23882218 C-83.78294878 241.22844378 -93.66086691 241.22850822 -103.53879791 241.22899476 C-121.16006947 241.22949551 -138.78132288 241.22033019 -156.40258789 241.20581055 C-173.51098969 241.19172074 -190.61937552 241.18463986 -207.7277832 241.18530273 C-209.30851501 241.18536267 -209.30851501 241.18536267 -210.92118079 241.18542381 C-211.97315996 241.18546417 -213.02513913 241.18550452 -214.10899645 241.1855461 C-233.57323883 241.18623557 -253.0374744 241.18034829 -272.50171458 241.17139288 C-279.3913264 241.16837384 -286.28093698 241.16731301 -293.17054939 241.16686058 C-301.56292723 241.16617912 -309.9552936 241.16172389 -318.34766657 241.15252777 C-322.63163956 241.14790426 -326.91559787 241.14486632 -331.19957352 241.14612198 C-335.1181753 241.14721487 -339.0367446 241.14371175 -342.9553396 241.13647345 C-344.37584296 241.1346563 -345.79634966 241.13453354 -347.21685315 241.13624074 C-349.14231135 241.13829924 -351.06777328 241.1336494 -352.99322605 241.12863445 C-354.06436478 241.12793003 -355.13550351 241.1272256 -356.23910099 241.12649983 C-358.6629868 241.01544139 -360.68758688 240.70025356 -363 240 C-363.495 240.99 -363.495 240.99 -364 242 C-366.3349917 238.35157547 -366.07914039 235.23895694 -366 231 C-365.26033241 230.99940291 -364.52066483 230.99880582 -363.75858307 230.99819064 C-319.92652643 230.96230205 -276.09453871 230.90567132 -232.26254576 230.82207905 C-227.00038886 230.81206151 -221.73823165 230.80221739 -216.47607422 230.79248047 C-215.42846692 230.7905391 -214.38085962 230.78859772 -213.30150664 230.78659752 C-196.33551565 230.75557064 -179.36953818 230.73859494 -162.40352416 230.72680578 C-144.99673589 230.71439779 -127.59001865 230.68690434 -110.18327522 230.64538693 C-99.44109816 230.62024148 -88.6990389 230.60688349 -77.95683199 230.60857043 C-70.59197048 230.60860017 -63.22722903 230.59398583 -55.8624143 230.56783572 C-51.61233893 230.55317813 -47.36250978 230.54499676 -43.11241341 230.55419731 C-39.21974919 230.56248153 -35.32757979 230.55233724 -31.43498898 230.52766338 C-30.02840657 230.52197751 -28.62177729 230.52299876 -27.21520901 230.53148755 C-18.6940787 230.5784986 -11.55547864 230.49744706 -5.16015625 224.18359375 C-4.79792969 223.60738281 -4.43570312 223.03117188 -4.0625 222.4375 C-3.68222656 221.85871094 -3.30195313 221.27992188 -2.91015625 220.68359375 C-0.59041797 216.39257573 -0.84734818 212.17241197 -0.84178162 207.43904114 C-0.83437465 206.11212526 -0.83437465 206.11212526 -0.82681805 204.758403 C-0.8114124 201.78270355 -0.80307412 198.80702572 -0.79467773 195.83129883 C-0.78510162 193.70280262 -0.7750917 191.57430832 -0.76467896 189.44581604 C-0.73759492 183.65693432 -0.7166043 177.86804441 -0.69667697 172.07913423 C-0.67483899 166.03326561 -0.64743961 159.9874223 -0.62062073 153.9415741 C-0.57066422 142.48816402 -0.52573637 131.03473991 -0.48259836 119.58130234 C-0.43325125 106.54397921 -0.37832377 93.50668147 -0.32291877 80.46938288 C-0.20905332 53.64627894 -0.10222422 26.82315065 0 0 Z " fill="#8839DC" transform="translate(471,228)"/>
<path d="M0 0 C1.12955864 -0.0098568 1.12955864 -0.0098568 2.28193665 -0.01991272 C4.77934871 -0.03965787 7.2767006 -0.05131104 9.77416992 -0.0612793 C10.62663488 -0.06535482 11.47909985 -0.06943035 12.35739708 -0.07362938 C16.86944716 -0.09449542 21.38146678 -0.10879475 25.89355469 -0.11816406 C30.55435007 -0.12922905 35.21466808 -0.16362819 39.87529469 -0.20333576 C43.45868315 -0.22948012 47.04195751 -0.23785395 50.62543297 -0.24144554 C52.34343375 -0.24631725 54.06142924 -0.25794791 55.77933693 -0.27648354 C58.1853073 -0.30082916 60.59003794 -0.29991884 62.99609375 -0.29296875 C64.05845245 -0.31218384 64.05845245 -0.31218384 65.14227295 -0.33178711 C69.92408251 -0.28149987 72.33355872 0.79562325 75.69213867 4.17700195 C77.36239556 7.51751573 76.87687007 11.2722796 76.89526367 14.9465332 C76.90096375 15.81968674 76.90666382 16.69284027 76.91253662 17.592453 C76.92199212 19.44264512 76.92852278 21.29285413 76.93237305 23.14306641 C76.94206432 25.96783039 76.97307622 28.79186239 77.00463867 31.61645508 C77.0111702 33.4139768 77.01642008 35.21150373 77.02026367 37.0090332 C77.03261047 37.85190384 77.04495728 38.69477448 77.05767822 39.56318665 C77.04001445 44.23647089 76.84025297 47.46231286 73.69213867 51.17700195 C69.55503014 54.26403083 66.44064674 54.56393823 61.33496094 54.59692383 C60.25104568 54.60962814 60.25104568 54.60962814 59.14523315 54.62258911 C56.76615606 54.64591077 54.38772749 54.64698251 52.00854492 54.64575195 C50.34854373 54.65285627 48.688545 54.66055566 47.02854919 54.66882324 C43.55265473 54.68225676 40.07698735 54.68384186 36.60107422 54.67797852 C32.15435628 54.67208209 27.70873005 54.70267585 23.26222324 54.7430954 C19.83487615 54.76898789 16.40779144 54.77184847 12.98036003 54.76820374 C11.34134107 54.76989342 9.7023098 54.7795214 8.06338692 54.79734802 C5.7677587 54.81957148 3.47433384 54.80982205 1.17871094 54.79223633 C-0.77723244 54.79531799 -0.77723244 54.79531799 -2.77268982 54.79846191 C-7.40328766 53.98443319 -9.00894646 52.46569253 -12.30786133 49.17700195 C-14.00450315 45.78371832 -13.51446217 41.92340301 -13.54614258 38.1887207 C-13.55421432 37.29337112 -13.56228607 36.39802155 -13.57060242 35.47554016 C-13.58444563 33.57827696 -13.59516672 31.68098883 -13.60302734 29.78369141 C-13.62023179 26.88631802 -13.6641141 23.99008816 -13.70825195 21.09301758 C-13.71837965 19.24992701 -13.72689551 17.40682674 -13.73364258 15.5637207 C-13.75115067 14.69897629 -13.76865875 13.83423187 -13.78669739 12.94328308 C-13.77188428 8.82164543 -13.649387 6.72013695 -11.40625 3.15283203 C-7.7813597 -0.26034274 -4.75066357 0.01788305 0 0 Z " fill="#FEB51D" transform="translate(174.307861328125,287.822998046875)"/>
<path d="M0 0 C0.7319458 -0.00241196 1.4638916 -0.00482391 2.21801758 -0.00730896 C3.75770514 -0.00633424 5.29742938 0.00696983 6.83691406 0.03198242 C9.18156046 0.06631927 11.52243681 0.05261982 13.8671875 0.03320312 C15.36980756 0.04010222 16.87241798 0.04977519 18.375 0.0625 C19.06891846 0.05754013 19.76283691 0.05258026 20.4777832 0.04747009 C25.47635249 0.16724716 28.32902086 1.50934572 32.1875 4.62890625 C34.12109375 7.25 34.12109375 7.25 35.625 10.06640625 C36.13933594 10.99324219 36.65367187 11.92007812 37.18359375 12.875 C38.35421451 16.08623593 38.3008301 17.42680545 37.1875 20.62890625 C36.22100353 22.24598068 35.19614412 23.82916582 34.125 25.37890625 C31.66770041 29.42271479 30.21944133 32.43261296 30.5078125 37.19921875 C31.72163962 41.5383019 34.24247512 45.13097485 36.75390625 48.83203125 C38.1875 51.62890625 38.1875 51.62890625 38.078125 54.16796875 C37.08621716 56.90876672 35.88233125 59.25822363 34.375 61.75390625 C33.87355469 62.60210937 33.37210937 63.4503125 32.85546875 64.32421875 C31.03981916 66.83296175 29.87258416 68.07998722 27.1875 69.62890625 C24.41455978 69.94537212 21.87106971 70.09691255 19.09765625 70.09765625 C17.92534706 70.10907654 17.92534706 70.10907654 16.72935486 70.12072754 C15.07944934 70.13151346 13.42947564 70.13438775 11.77954102 70.12988281 C9.26136904 70.12891064 6.74624763 70.17053915 4.22851562 70.21484375 C2.62240216 70.22005135 1.01627815 70.22273893 -0.58984375 70.22265625 C-1.33894516 70.23905151 -2.08804657 70.25544678 -2.85984802 70.27233887 C-6.66490171 70.22228983 -8.56171553 69.82446525 -11.59082031 67.46240234 C-15.04225367 63.06049734 -17.81004934 58.36900651 -20.59838867 53.52783203 C-21.6239714 51.75568362 -22.6733853 49.99921593 -23.72460938 48.2421875 C-24.37880859 47.11425781 -25.03300781 45.98632812 -25.70703125 44.82421875 C-26.60192261 43.2930542 -26.60192261 43.2930542 -27.51489258 41.73095703 C-29.06526803 38.02464085 -29.2522521 35.61643703 -28.8125 31.62890625 C-27.53076172 28.52685547 -27.53076172 28.52685547 -25.7421875 25.43359375 C-25.0925 24.30566406 -24.4428125 23.17773438 -23.7734375 22.015625 C-23.43022461 21.4386084 -23.08701172 20.8615918 -22.73339844 20.26708984 C-21.69234265 18.51207003 -20.68086801 16.74235516 -19.671875 14.96875 C-14.65376858 6.37893254 -10.78436821 -0.2060493 0 0 Z " fill="#D00029" transform="translate(332.8125,279.37109375)"/>
<path d="M0 0 C0.33 0 0.66 0 1 0 C1 17.16 1 34.32 1 52 C128.38 52 255.76 52 387 52 C387 83.35 387 114.7 387 147 C383.7 147 380.4 147 377 147 C377 115.98 377 84.96 377 53 C252.59 53 128.18 53 0 53 C0 35.51 0 18.02 0 0 Z " fill="#F1A91F" transform="translate(20,81)"/>
<path d="M0 0 C5.89067584 -0.09192212 11.77885562 -0.17153199 17.66967773 -0.21972656 C19.67269328 -0.23981991 21.67565032 -0.26709965 23.6784668 -0.30175781 C26.56053108 -0.35037611 29.44181866 -0.37299152 32.32421875 -0.390625 C33.21711105 -0.41127014 34.11000336 -0.43191528 35.029953 -0.45318604 C39.2218356 -0.45469285 41.41097475 -0.36775671 45.04223633 1.89941406 C50.45980644 7.71220534 48 9.23185035 48 20 C32.16 20 16.32 20 0 20 C0 13.4 0 6.8 0 0 Z " fill="#FEC81D" transform="translate(203,288)"/>
<path d="M0 0 C4.55555556 0.55555556 4.55555556 0.55555556 6 2 C6.09961401 3.34874054 6.13074395 4.70262757 6.13371277 6.05503845 C6.13797775 6.92859482 6.14224274 7.80215118 6.14663696 8.70217896 C6.14618378 9.6679184 6.14573059 10.63365784 6.14526367 11.62866211 C6.15030159 13.14561928 6.15030159 13.14561928 6.15544128 14.69322205 C6.16498309 18.05460825 6.166896 21.41594482 6.16796875 24.77734375 C6.17117903 27.10282919 6.17454292 29.42831443 6.17805481 31.75379944 C6.18405413 36.63559437 6.18589388 41.51737157 6.18530273 46.39916992 C6.18520105 52.66876021 6.19885594 58.9382374 6.21607494 65.20780087 C6.22716827 70.01262438 6.22922277 74.81742031 6.22869301 79.62225533 C6.22987706 81.93441724 6.23432243 84.24657978 6.24202538 86.55872917 C6.25177181 89.78654888 6.24896847 93.01412004 6.24291992 96.24194336 C6.24853943 97.20565857 6.25415894 98.16937378 6.25994873 99.16229248 C6.253657 100.47685677 6.253657 100.47685677 6.24723816 101.81797791 C6.24778293 102.58176726 6.24832769 103.34555662 6.24888897 104.13249111 C6 106 6 106 4 108 C-0.55555556 107.44444444 -0.55555556 107.44444444 -2 106 C-2.09961401 104.65125946 -2.13074395 103.29737243 -2.13371277 101.94496155 C-2.13797775 101.07140518 -2.14224274 100.19784882 -2.14663696 99.29782104 C-2.14618378 98.3320816 -2.14573059 97.36634216 -2.14526367 96.37133789 C-2.14862228 95.36003311 -2.1519809 94.34872833 -2.15544128 93.30677795 C-2.16498309 89.94539175 -2.166896 86.58405518 -2.16796875 83.22265625 C-2.17117903 80.89717081 -2.17454292 78.57168557 -2.17805481 76.24620056 C-2.18405413 71.36440563 -2.18589388 66.48262843 -2.18530273 61.60083008 C-2.18520105 55.33123979 -2.19885594 49.0617626 -2.21607494 42.79219913 C-2.22716827 37.98737562 -2.22922277 33.18257969 -2.22869301 28.37774467 C-2.22987706 26.06558276 -2.23432243 23.75342022 -2.24202538 21.44127083 C-2.25177181 18.21345112 -2.24896847 14.98587996 -2.24291992 11.75805664 C-2.24853943 10.79434143 -2.25415894 9.83062622 -2.25994873 8.83770752 C-2.25575424 7.96133133 -2.25155975 7.08495514 -2.24723816 6.18202209 C-2.24778293 5.41823274 -2.24832769 4.65444338 -2.24888897 3.86750889 C-2 2 -2 2 0 0 Z " fill="#B070F4" transform="translate(115,272)"/>
<path d="M0 0 C26.73 0 53.46 0 81 0 C81 3.63 81 7.26 81 11 C72.14175388 11.09293193 63.28367717 11.16388192 54.42504883 11.20724869 C50.31102198 11.2280691 46.19733017 11.25628411 42.08349609 11.30175781 C38.10882299 11.34541523 34.1344709 11.36917877 30.15957642 11.37950897 C28.64778596 11.38686487 27.13601186 11.401229 25.62435913 11.42292023 C16.03274054 11.55500326 9.16559804 11.26161838 1.5 4.9375 C0 3 0 3 0 0 Z " fill="#FFAB1A" transform="translate(24,273)"/>
<path d="M0 0 C8.91 0 17.82 0 27 0 C27 7.26 27 14.52 27 22 C23.473125 22.12375 19.94625 22.2475 16.3125 22.375 C15.20946533 22.42962402 14.10643066 22.48424805 12.9699707 22.54052734 C6.11493172 22.65715016 6.11493172 22.65715016 3.18823242 20.93212891 C0.02248053 17.63660085 -0.53587608 14.33310828 -0.45043945 9.99072266 C-0.40491943 9.21003418 -0.35939941 8.4293457 -0.3125 7.625 C-0.209375 5.10875 -0.10625 2.5925 0 0 Z " fill="#FEC81D" transform="translate(161,319)"/>
<path d="M0 0 C0.65042267 -0.00335861 1.30084534 -0.00671722 1.97097778 -0.01017761 C4.13114304 -0.01971301 6.291231 -0.02163202 8.45141602 -0.02270508 C9.94735242 -0.0259159 11.44328851 -0.02927984 12.93922424 -0.03279114 C16.07911914 -0.03878892 19.21898649 -0.04063038 22.35888672 -0.04003906 C26.38873909 -0.03993741 30.41841537 -0.05358965 34.44822598 -0.07081127 C37.53909624 -0.08191236 40.62992368 -0.08395886 43.72081184 -0.08342934 C45.20681426 -0.08461231 46.69281769 -0.08905179 48.17880058 -0.0967617 C50.25474362 -0.10652359 52.33030119 -0.10369891 54.40625 -0.09765625 C55.58904037 -0.09908127 56.77183075 -0.10050629 57.99046326 -0.10197449 C60.76782227 0.14526367 60.76782227 0.14526367 62.76782227 2.14526367 C62.21226671 6.70081923 62.21226671 6.70081923 60.76782227 8.14526367 C58.72857182 8.25517584 56.68548558 8.29438838 54.64331055 8.30639648 C53.33169952 8.31600403 52.0200885 8.32561157 50.66873169 8.33551025 C49.22520114 8.34035782 47.78166858 8.34463675 46.33813477 8.34838867 C44.86701453 8.35413778 43.39589434 8.35989554 41.92477417 8.36566162 C38.83615773 8.37618118 35.74756739 8.38201746 32.65893555 8.38549805 C28.69860595 8.39098242 24.73862024 8.41500484 20.77839851 8.44347 C17.73809804 8.46208279 14.69788057 8.46730126 11.65752792 8.46883392 C10.19745887 8.47186449 8.7373914 8.47990662 7.27737808 8.4930191 C5.23536202 8.51004805 3.19320482 8.50635912 1.15112305 8.50170898 C-0.59308426 8.50717743 -0.59308426 8.50717743 -2.37252808 8.51275635 C-5.23217773 8.14526367 -5.23217773 8.14526367 -7.14675903 6.75579834 C-8.23217773 5.14526367 -8.23217773 5.14526367 -7.98217773 3.02026367 C-6.39928021 -0.93698013 -3.99066808 0.01286945 0 0 Z " fill="#FAF6FE" transform="translate(144.232177734375,412.854736328125)"/>
<path d="M0 0 C0.65042267 -0.00335861 1.30084534 -0.00671722 1.97097778 -0.01017761 C4.13114304 -0.01971301 6.291231 -0.02163202 8.45141602 -0.02270508 C9.94735242 -0.0259159 11.44328851 -0.02927984 12.93922424 -0.03279114 C16.07911914 -0.03878892 19.21898649 -0.04063038 22.35888672 -0.04003906 C26.38873909 -0.03993741 30.41841537 -0.05358965 34.44822598 -0.07081127 C37.53909624 -0.08191236 40.62992368 -0.08395886 43.72081184 -0.08342934 C45.20681426 -0.08461231 46.69281769 -0.08905179 48.17880058 -0.0967617 C50.25474362 -0.10652359 52.33030119 -0.10369891 54.40625 -0.09765625 C55.58904037 -0.09908127 56.77183075 -0.10050629 57.99046326 -0.10197449 C60.76782227 0.14526367 60.76782227 0.14526367 62.76782227 2.14526367 C62.51782227 4.70776367 62.51782227 4.70776367 61.76782227 7.14526367 C58.99494902 8.5317003 56.72440909 8.28783218 53.62158203 8.30639648 C51.68430992 8.3208078 51.68430992 8.3208078 49.707901 8.33551025 C48.29167863 8.34035748 46.87545421 8.34463649 45.45922852 8.34838867 C44.01195778 8.35413957 42.56468707 8.35989731 41.11741638 8.36566162 C38.0818547 8.37617093 35.04631951 8.38201425 32.01074219 8.38549805 C28.11882019 8.39098707 24.22724731 8.41502369 20.33543491 8.44347 C17.34574862 8.46208115 14.35614673 8.46730112 11.36640739 8.46883392 C9.93145778 8.47186373 8.49650977 8.47990334 7.0616169 8.4930191 C5.0556338 8.51004817 3.04950702 8.5063591 1.04345703 8.50170898 C-0.09856674 8.50535461 -1.24059052 8.50900024 -2.41722107 8.51275635 C-5.23217773 8.14526367 -5.23217773 8.14526367 -7.14002991 6.75579834 C-8.23217773 5.14526367 -8.23217773 5.14526367 -7.98217773 3.02026367 C-6.39928021 -0.93698013 -3.99066808 0.01286945 0 0 Z " fill="#EF7B16" transform="translate(60.232177734375,164.854736328125)"/>
<path d="M0 0 C0.65202896 -0.00175232 1.30405792 -0.00350464 1.97584534 -0.00531006 C4.14082465 -0.00972751 6.30572291 -0.00679098 8.47070312 -0.00341797 C9.96903499 -0.00409104 11.46736675 -0.00506109 12.96569824 -0.00631714 C16.10979245 -0.00779397 19.2538583 -0.00564005 22.39794922 -0.00097656 C26.43681851 0.00472073 30.47562137 0.00144164 34.51448822 -0.00454903 C37.60960393 -0.00815505 40.70470377 -0.00701586 43.79981995 -0.00442123 C45.28943388 -0.00375208 46.77904923 -0.00457999 48.2686615 -0.00690079 C50.34711548 -0.009428 52.42546044 -0.0055858 54.50390625 0 C56.28142273 0.00119339 56.28142273 0.00119339 58.09484863 0.00241089 C60.75195312 0.12939453 60.75195312 0.12939453 61.75195312 1.12939453 C61.93945312 3.56689453 61.93945312 3.56689453 61.75195312 6.12939453 C58.98640382 8.89494383 57.37075526 8.38288054 53.49804688 8.38818359 C52.18328369 8.39448792 50.86852051 8.40079224 49.51391602 8.4072876 C48.07242703 8.40370793 46.63093926 8.399606 45.18945312 8.39501953 C43.71736588 8.39636621 42.24527907 8.39830676 40.77319336 8.40081787 C37.68631765 8.40376902 34.59955759 8.39947185 31.51269531 8.39013672 C27.55123184 8.37874209 23.59003934 8.38530163 19.62858582 8.39728165 C16.58831736 8.40450054 13.54811339 8.40221221 10.50784302 8.39702606 C9.04696623 8.39568964 7.58608363 8.39733703 6.12521362 8.40198517 C4.08542998 8.40705059 2.04562586 8.39796432 0.00585938 8.38818359 C-1.73715454 8.38579681 -1.73715454 8.38579681 -3.51538086 8.38336182 C-6.24804688 8.12939453 -6.24804688 8.12939453 -8.24804688 6.12939453 C-7.47260055 -0.22926531 -6.13701739 0.00412027 0 0 Z " fill="#FBF7FE" transform="translate(313.248046875,412.87060546875)"/>
<path d="M0 0 C0.65042267 -0.00335861 1.30084534 -0.00671722 1.97097778 -0.01017761 C4.13114304 -0.01971301 6.291231 -0.02163202 8.45141602 -0.02270508 C9.94735242 -0.0259159 11.44328851 -0.02927984 12.93922424 -0.03279114 C16.07911914 -0.03878892 19.21898649 -0.04063038 22.35888672 -0.04003906 C26.38873909 -0.03993741 30.41841537 -0.05358965 34.44822598 -0.07081127 C37.53909624 -0.08191236 40.62992368 -0.08395886 43.72081184 -0.08342934 C45.20681426 -0.08461231 46.69281769 -0.08905179 48.17880058 -0.0967617 C50.25474362 -0.10652359 52.33030119 -0.10369891 54.40625 -0.09765625 C55.58904037 -0.09908127 56.77183075 -0.10050629 57.99046326 -0.10197449 C60.76782227 0.14526367 60.76782227 0.14526367 62.76782227 2.14526367 C62.21226671 6.70081923 62.21226671 6.70081923 60.76782227 8.14526367 C58.72313253 8.24991837 56.67479673 8.28382411 54.62744141 8.29052734 C53.31260269 8.2969072 51.99776398 8.30328705 50.64308167 8.30986023 C49.19638099 8.31138878 47.74967982 8.31250281 46.30297852 8.31323242 C44.82946235 8.31644327 43.35594651 8.31980721 41.88243103 8.32331848 C38.78961447 8.3293162 35.69682588 8.33115773 32.60400391 8.33056641 C28.63468459 8.33046476 24.66554405 8.34411688 20.69626713 8.36133862 C17.65171988 8.37244004 14.6072161 8.37448619 11.56265068 8.37395668 C10.09897686 8.37513961 8.63530202 8.37957883 7.17164803 8.38728905 C5.12698785 8.39705087 3.08227556 8.39295655 1.03759766 8.38818359 C-0.12742783 8.38960861 -1.29245331 8.39103363 -2.49278259 8.39250183 C-5.23217773 8.14526367 -5.23217773 8.14526367 -7.23217773 6.14526367 C-7.41967773 3.58276367 -7.41967773 3.58276367 -7.23217773 1.14526367 C-5.39735756 -0.6895565 -2.46043892 0.00793463 0 0 Z " fill="#FBF7FE" transform="translate(228.232177734375,412.854736328125)"/>
<path d="M0 0 C0.65202896 -0.00175232 1.30405792 -0.00350464 1.97584534 -0.00531006 C4.14082465 -0.00972751 6.30572291 -0.00679098 8.47070312 -0.00341797 C9.96903499 -0.00409104 11.46736675 -0.00506109 12.96569824 -0.00631714 C16.10979245 -0.00779397 19.2538583 -0.00564005 22.39794922 -0.00097656 C26.43681851 0.00472073 30.47562137 0.00144164 34.51448822 -0.00454903 C37.60960393 -0.00815505 40.70470377 -0.00701586 43.79981995 -0.00442123 C45.28943388 -0.00375208 46.77904923 -0.00457999 48.2686615 -0.00690079 C50.34711548 -0.009428 52.42546044 -0.0055858 54.50390625 0 C56.28142273 0.00119339 56.28142273 0.00119339 58.09484863 0.00241089 C60.75195312 0.12939453 60.75195312 0.12939453 61.75195312 1.12939453 C61.93945312 3.56689453 61.93945312 3.56689453 61.75195312 6.12939453 C58.98640382 8.89494383 57.37075526 8.38288054 53.49804688 8.38818359 C52.18328369 8.39448792 50.86852051 8.40079224 49.51391602 8.4072876 C48.07242703 8.40370793 46.63093926 8.399606 45.18945312 8.39501953 C43.71736588 8.39636621 42.24527907 8.39830676 40.77319336 8.40081787 C37.68631765 8.40376902 34.59955759 8.39947185 31.51269531 8.39013672 C27.55123184 8.37874209 23.59003934 8.38530163 19.62858582 8.39728165 C16.58831736 8.40450054 13.54811339 8.40221221 10.50784302 8.39702606 C9.04696623 8.39568964 7.58608363 8.39733703 6.12521362 8.40198517 C4.08542998 8.40705059 2.04562586 8.39796432 0.00585938 8.38818359 C-1.73715454 8.38579681 -1.73715454 8.38579681 -3.51538086 8.38336182 C-6.24804688 8.12939453 -6.24804688 8.12939453 -8.24804688 6.12939453 C-7.47260055 -0.22926531 -6.13701739 0.00412027 0 0 Z " fill="#EF7B16" transform="translate(229.248046875,164.87060546875)"/>
<path d="M0 0 C0.65042267 -0.00335861 1.30084534 -0.00671722 1.97097778 -0.01017761 C4.13114304 -0.01971301 6.291231 -0.02163202 8.45141602 -0.02270508 C9.94735242 -0.0259159 11.44328851 -0.02927984 12.93922424 -0.03279114 C16.07911914 -0.03878892 19.21898649 -0.04063038 22.35888672 -0.04003906 C26.38873909 -0.03993741 30.41841537 -0.05358965 34.44822598 -0.07081127 C37.53909624 -0.08191236 40.62992368 -0.08395886 43.72081184 -0.08342934 C45.20681426 -0.08461231 46.69281769 -0.08905179 48.17880058 -0.0967617 C50.25474362 -0.10652359 52.33030119 -0.10369891 54.40625 -0.09765625 C55.58904037 -0.09908127 56.77183075 -0.10050629 57.99046326 -0.10197449 C60.76782227 0.14526367 60.76782227 0.14526367 62.76782227 2.14526367 C62.21226671 6.70081923 62.21226671 6.70081923 60.76782227 8.14526367 C58.72313253 8.24991837 56.67479673 8.28382411 54.62744141 8.29052734 C53.31260269 8.2969072 51.99776398 8.30328705 50.64308167 8.30986023 C49.19638099 8.31138878 47.74967982 8.31250281 46.30297852 8.31323242 C44.82946235 8.31644327 43.35594651 8.31980721 41.88243103 8.32331848 C38.78961447 8.3293162 35.69682588 8.33115773 32.60400391 8.33056641 C28.63468459 8.33046476 24.66554405 8.34411688 20.69626713 8.36133862 C17.65171988 8.37244004 14.6072161 8.37448619 11.56265068 8.37395668 C10.09897686 8.37513961 8.63530202 8.37957883 7.17164803 8.38728905 C5.12698785 8.39705087 3.08227556 8.39295655 1.03759766 8.38818359 C-0.12742783 8.38960861 -1.29245331 8.39103363 -2.49278259 8.39250183 C-5.23217773 8.14526367 -5.23217773 8.14526367 -7.23217773 6.14526367 C-7.41967773 3.58276367 -7.41967773 3.58276367 -7.23217773 1.14526367 C-5.39735756 -0.6895565 -2.46043892 0.00793463 0 0 Z " fill="#EF7B16" transform="translate(144.232177734375,164.854736328125)"/>
<path d="M0 0 C0.65202896 -0.00175232 1.30405792 -0.00350464 1.97584534 -0.00531006 C4.14082465 -0.00972751 6.30572291 -0.00679098 8.47070312 -0.00341797 C9.96903499 -0.00409104 11.46736675 -0.00506109 12.96569824 -0.00631714 C16.10979245 -0.00779397 19.2538583 -0.00564005 22.39794922 -0.00097656 C26.43681851 0.00472073 30.47562137 0.00144164 34.51448822 -0.00454903 C37.60960393 -0.00815505 40.70470377 -0.00701586 43.79981995 -0.00442123 C45.28943388 -0.00375208 46.77904923 -0.00457999 48.2686615 -0.00690079 C50.34711548 -0.009428 52.42546044 -0.0055858 54.50390625 0 C56.28142273 0.00119339 56.28142273 0.00119339 58.09484863 0.00241089 C60.75195312 0.12939453 60.75195312 0.12939453 61.75195312 1.12939453 C61.93945312 3.56689453 61.93945312 3.56689453 61.75195312 6.12939453 C59.00448634 8.87686132 57.45211603 8.38282065 53.60571289 8.38818359 C52.31419815 8.39448792 51.02268341 8.40079224 49.69203186 8.4072876 C48.27580632 8.40370755 46.85958202 8.39960552 45.44335938 8.39501953 C43.996088 8.39636636 42.54881707 8.39830704 41.10154724 8.40081787 C38.06594543 8.40376926 35.03046121 8.39947173 31.99487305 8.39013672 C28.10300852 8.37875224 24.21142013 8.38529503 20.31956577 8.39728165 C17.32986877 8.40450858 14.34023723 8.40220832 11.35053825 8.39702606 C9.91560776 8.39569134 8.48067133 8.39733109 7.04574776 8.40198517 C5.03969562 8.40706265 3.03362267 8.39795189 1.02758789 8.38818359 C-0.11443588 8.38659241 -1.25645966 8.38500122 -2.43309021 8.38336182 C-5.24804688 8.12939453 -5.24804688 8.12939453 -8.24804688 6.12939453 C-7.11484585 -0.18415406 -6.40230635 0.00429838 0 0 Z " fill="#FBF7FE" transform="translate(397.248046875,412.87060546875)"/>
<path d="M0 0 C0.65202896 -0.00175232 1.30405792 -0.00350464 1.97584534 -0.00531006 C4.14082465 -0.00972751 6.30572291 -0.00679098 8.47070312 -0.00341797 C9.96903499 -0.00409104 11.46736675 -0.00506109 12.96569824 -0.00631714 C16.10979245 -0.00779397 19.2538583 -0.00564005 22.39794922 -0.00097656 C26.43681851 0.00472073 30.47562137 0.00144164 34.51448822 -0.00454903 C37.60960393 -0.00815505 40.70470377 -0.00701586 43.79981995 -0.00442123 C45.28943388 -0.00375208 46.77904923 -0.00457999 48.2686615 -0.00690079 C50.34711548 -0.009428 52.42546044 -0.0055858 54.50390625 0 C56.28142273 0.00119339 56.28142273 0.00119339 58.09484863 0.00241089 C60.75195312 0.12939453 60.75195312 0.12939453 61.75195312 1.12939453 C61.93945312 3.56689453 61.93945312 3.56689453 61.75195312 6.12939453 C59.00448634 8.87686132 57.45211603 8.38282065 53.60571289 8.38818359 C52.31419815 8.39448792 51.02268341 8.40079224 49.69203186 8.4072876 C48.27580632 8.40370755 46.85958202 8.39960552 45.44335938 8.39501953 C43.996088 8.39636636 42.54881707 8.39830704 41.10154724 8.40081787 C38.06594543 8.40376926 35.03046121 8.39947173 31.99487305 8.39013672 C28.10300852 8.37875224 24.21142013 8.38529503 20.31956577 8.39728165 C17.32986877 8.40450858 14.34023723 8.40220832 11.35053825 8.39702606 C9.91560776 8.39569134 8.48067133 8.39733109 7.04574776 8.40198517 C5.03969562 8.40706265 3.03362267 8.39795189 1.02758789 8.38818359 C-0.11443588 8.38659241 -1.25645966 8.38500122 -2.43309021 8.38336182 C-5.24804688 8.12939453 -5.24804688 8.12939453 -8.24804688 6.12939453 C-7.11484585 -0.18415406 -6.40230635 0.00429838 0 0 Z " fill="#EF7B16" transform="translate(313.248046875,164.87060546875)"/>
<path d="M0 0 C0.94101563 0.00322266 1.88203125 0.00644531 2.8515625 0.00976562 C3.83640625 0.01814453 4.82125 0.02652344 5.8359375 0.03515625 C6.82851562 0.03966797 7.82109375 0.04417969 8.84375 0.04882812 C11.29950472 0.06063464 13.75522856 0.07857043 16.2109375 0.09765625 C16.2109375 6.69765625 16.2109375 13.29765625 16.2109375 20.09765625 C7.3009375 20.09765625 -1.6090625 20.09765625 -10.7890625 20.09765625 C-11.28409464 6.85554637 -11.28409464 6.85554637 -8.8984375 3.203125 C-5.83010318 0.14047278 -4.21388602 -0.02538486 0 0 Z " fill="#FEC81D" transform="translate(171.7890625,287.90234375)"/>
<path d="M0 0 C3.3 0 6.6 0 10 0 C10 17.16 10 34.32 10 52 C6.7 52 3.4 52 0 52 C0 34.84 0 17.68 0 0 Z " fill="#414042" transform="translate(397,81)"/>
<path d="M0 0 C4.27638694 0.4751541 6.23351492 2.87883735 9 6 C12.16319054 10.21333389 12.40303348 13.82267944 12.29296875 18.92578125 C12.28872391 19.67337204 12.28447906 20.42096283 12.28010559 21.19120789 C12.26339056 23.56534732 12.22575347 25.93861967 12.1875 28.3125 C12.17244381 29.92772206 12.15875703 31.54295751 12.14648438 33.15820312 C12.1135108 37.10579988 12.06177969 41.05275322 12 45 C8.7 45 5.4 45 2 45 C1.96241577 43.11510864 1.96241577 43.11510864 1.92407227 41.19213867 C1.82997705 36.53480643 1.72976141 31.87762259 1.62768555 27.22045898 C1.58434471 25.20389271 1.54266902 23.18728993 1.50268555 21.1706543 C1.44496253 18.27381383 1.38127378 15.37715694 1.31640625 12.48046875 C1.29969376 11.57725388 1.28298126 10.674039 1.26576233 9.74345398 C1.24581711 8.90280899 1.22587189 8.062164 1.20532227 7.19604492 C1.18977798 6.45658127 1.1742337 5.71711761 1.15821838 4.95524597 C1.06087775 2.7848329 1.06087775 2.7848329 0 0 Z " fill="#FFAA19" transform="translate(395,35)"/>
<path d="M0 0 C4.55555556 0.55555556 4.55555556 0.55555556 6 2 C6.1875 4.4375 6.1875 4.4375 6 7 C5.34 7.66 4.68 8.32 4 9 C-0.55555556 8.44444444 -0.55555556 8.44444444 -2 7 C-2.1875 4.5625 -2.1875 4.5625 -2 2 C-1.34 1.34 -0.68 0.68 0 0 Z " fill="#B06FF4" transform="translate(115,255)"/>
</svg>
