<svg xmlns="http://www.w3.org/2000/svg" width="512" height="512" viewBox="0 0 512 512" version="1.1"><path d="" stroke="none" fill="#080404" fill-rule="evenodd"/><path d="M 283.715 5.755 C 281.725 7.002, 270.705 25.210, 245.132 69.500 C 215.574 120.693, 209 131.443, 207.417 131.174 C 197.626 129.508, 192.903 129.813, 187.490 132.461 C 181.266 135.506, 179.316 137.776, 171.994 150.500 C 169.145 155.450, 166.665 159.654, 166.483 159.841 C 166.300 160.029, 163.261 158.566, 159.729 156.591 C 148.982 150.581, 144.441 151.908, 138.519 162.787 C 136.959 165.654, 135.280 168, 134.788 168 C 134.022 168, 115.164 157.462, 114.135 156.459 C 113.934 156.263, 115.397 153.195, 117.385 149.639 C 119.373 146.084, 121 141.988, 121 140.538 C 121 131.886, 110.823 126.766, 104.529 132.250 C 103.109 133.488, 96.559 143.918, 89.974 155.430 C 76.396 179.163, 75.643 181.797, 80.923 187.077 C 83.143 189.297, 84.774 190, 87.701 190 C 92.899 190, 95.296 188.085, 99.496 180.573 L 103.049 174.220 113.525 180.246 C 119.286 183.560, 124 186.645, 124 187.102 C 124 187.558, 122.377 190.884, 120.394 194.492 C 114.940 204.414, 116.242 208.166, 127.393 214.663 C 130.084 216.231, 132.245 217.961, 132.196 218.507 C 132.147 219.053, 129.495 224.119, 126.303 229.764 C 120.576 239.893, 120.461 240.017, 117.500 239.264 C 115.850 238.844, 111.050 238.532, 106.834 238.572 C 100.351 238.632, 98.189 239.126, 92.834 241.768 C 89.350 243.487, 84.631 246.829, 82.347 249.196 C 76.964 254.774, 7.891 374.261, 5.611 381.939 C 2.354 392.905, 4.759 405.293, 11.983 414.770 C 14.192 417.669, 16 420.210, 16 420.418 C 16 420.625, 12.400 427.018, 8 434.624 L 0 448.453 -0 475.272 L -0 502.091 2.414 504.505 C 5.484 507.575, 9.562 508.604, 13.208 507.227 C 20.003 504.663, 56.272 482.507, 58.450 479.590 C 59.719 477.891, 63.790 471.185, 67.497 464.689 C 72.790 455.414, 74.588 453.020, 75.869 453.541 C 76.766 453.906, 80.266 454.441, 83.647 454.731 C 96.026 455.791, 109.606 449.165, 116.411 438.746 C 123.337 428.140, 187.226 316.613, 188.661 312.623 C 190.641 307.117, 190.543 295.668, 188.462 289.541 C 186.484 283.714, 184.669 280.612, 180.783 276.414 L 177.926 273.328 184.045 262.664 C 187.410 256.799, 190.598 252, 191.128 252 C 191.659 252, 232.910 275.564, 282.797 304.364 C 332.683 333.165, 375.525 357.767, 378 359.037 C 384.647 362.446, 396.588 362.915, 404.147 360.064 C 426.109 351.779, 432.457 323.077, 416.064 306.185 C 413.967 304.025, 410.016 301, 407.284 299.464 L 402.317 296.672 408.409 290.586 C 413.486 285.514, 417.606 279.088, 433.150 252 C 450.794 221.255, 455 212.367, 455 205.828 L 455 203.018 459.750 205.923 C 474.107 214.702, 489.941 213.548, 501.515 202.879 C 508.353 196.576, 511.248 190.258, 511.768 180.500 C 512.113 174.017, 511.785 171.416, 510.036 166.780 C 506.157 156.495, 502.741 153.857, 465.570 132.433 C 446.908 121.678, 430.373 112.625, 428.826 112.315 C 420.166 110.583, 413.536 121.326, 418.986 128.256 C 420.079 129.645, 436.060 139.477, 454.501 150.105 C 486.449 168.518, 488.127 169.631, 490.107 173.721 C 491.996 177.624, 492.063 178.398, 490.843 182.227 C 489.206 187.363, 484.337 191, 479.098 191 C 476.150 191, 456.538 180.060, 371.843 131.169 L 268.196 71.339 274.186 60.919 C 277.481 55.189, 280.327 50.348, 280.510 50.162 C 280.693 49.975, 295.391 58.265, 313.172 68.582 C 347.468 88.483, 349.698 89.394, 355.239 85.763 C 356.660 84.832, 358.347 82.477, 358.990 80.529 C 359.978 77.536, 359.876 76.409, 358.330 73.244 C 356.685 69.878, 353.222 67.605, 324 50.712 C 306.125 40.378, 291.641 31.405, 291.813 30.772 C 291.985 30.139, 293.673 26.982, 295.563 23.757 C 300.670 15.044, 300.131 8.670, 294.020 5.510 C 290.202 3.536, 287.142 3.609, 283.715 5.755 M 385.313 90.199 C 374.289 93.055, 376.602 109.906, 388.027 109.978 C 397.171 110.035, 401.806 99.079, 395.364 92.636 C 392.496 89.769, 389.643 89.077, 385.313 90.199 M 242.254 116.185 L 227.147 142.370 231.473 147.181 C 234.476 150.521, 236.171 153.544, 237.016 157.066 C 239.084 165.686, 237.900 169.338, 226.640 189.068 L 224.033 193.636 236.458 200.818 C 243.292 204.768, 249.083 208, 249.328 208 C 249.573 208, 250.082 205.863, 250.459 203.250 C 251.455 196.355, 253.757 191.787, 273.543 157.467 C 288.173 132.089, 292.429 125.495, 297.125 120.929 L 302.856 115.358 280.920 102.679 C 268.855 95.706, 258.619 90, 258.173 90 C 257.727 90, 250.563 101.783, 242.254 116.185 M 316.500 132.366 C 311.105 134.880, 307.493 140.095, 289.429 171.453 C 273.083 199.828, 271.564 202.874, 271.191 208.031 C 270.743 214.234, 272.837 219.715, 277.153 223.629 C 282.123 228.138, 303.105 239.257, 307.597 239.764 C 313.031 240.376, 319.632 238.045, 323.260 234.232 C 325.629 231.743, 354.927 181.965, 360.605 170.783 C 363.489 165.103, 363.669 159.069, 361.120 153.459 C 358.724 148.183, 355.530 145.605, 341.902 137.945 C 332.432 132.622, 329.718 131.549, 325.056 131.284 C 321.745 131.096, 318.288 131.533, 316.500 132.366 M 194.614 153.250 C 193.826 154.488, 191.174 158.927, 188.720 163.115 L 184.257 170.730 194.853 176.786 C 200.680 180.116, 205.743 182.659, 206.102 182.437 C 207.670 181.468, 217.082 163.663, 216.800 162.200 C 216.412 160.186, 201.309 151.085, 198.273 151.036 C 197.026 151.016, 195.416 151.990, 194.614 153.250 M 387.500 173.890 C 385.300 174.905, 382.541 176.808, 381.369 178.118 C 378.970 180.800, 345.576 238.377, 343.403 243.579 C 340.711 250.020, 342.343 258.543, 347.272 263.790 C 348.470 265.064, 355.041 269.306, 361.876 273.215 C 375.255 280.868, 380.543 282.296, 387.272 280.075 C 392.758 278.265, 396.896 273.363, 405.146 258.902 C 409.351 251.531, 417.564 237.214, 423.396 227.087 C 433.199 210.066, 434 208.276, 434 203.402 C 434 193.289, 431.183 189.601, 417.135 181.320 C 400.282 171.385, 395.517 170.190, 387.500 173.890 M 147.790 188.229 C 143.412 196.104, 142.363 198.755, 143.290 199.593 C 145.980 202.021, 387.708 340.778, 390.345 341.407 C 392.310 341.876, 394.536 341.435, 397.536 339.983 C 405.359 336.196, 407.011 325.978, 400.721 320.283 C 398.247 318.043, 157.436 178.909, 155.025 178.326 C 153.972 178.072, 151.731 181.140, 147.790 188.229 M 144.750 239.127 C 141.588 244.662, 139.221 249.548, 139.490 249.984 C 140.159 251.066, 159.997 262.351, 160.398 261.878 C 161.618 260.438, 172 242.016, 172 241.291 C 172 240.324, 152.947 228.979, 151.411 229.031 C 150.910 229.048, 147.913 233.591, 144.750 239.127 M 101.325 260.612 C 99.578 261.473, 97.497 262.925, 96.700 263.839 C 95.903 264.752, 79.444 292.918, 60.125 326.428 C 28.607 381.099, 25 387.806, 25 391.728 C 25 396.613, 26.658 400.445, 30.155 403.646 C 31.445 404.826, 43.516 412.139, 56.980 419.896 C 78.128 432.081, 82.047 434, 85.779 434 C 90.610 434, 94.440 432.339, 97.664 428.845 C 100.265 426.026, 166.732 311.076, 168.800 305.820 C 169.670 303.609, 169.998 300.813, 169.621 298.820 C 168.242 291.517, 166.288 289.918, 140.855 275.272 C 127.460 267.559, 115.517 260.742, 114.316 260.124 C 111.231 258.537, 105.062 258.769, 101.325 260.612 M 29.930 438.193 C 19.981 455.402, 20.908 452.401, 21.219 466.386 L 21.500 478.992 31.968 472.710 C 42.307 466.504, 42.495 466.323, 47.302 457.964 C 49.979 453.309, 53.036 448.088, 54.096 446.362 L 56.024 443.225 45.770 437.362 C 40.130 434.138, 35.210 431.362, 34.836 431.193 C 34.461 431.023, 32.254 434.173, 29.930 438.193" stroke="none" fill="#040404" fill-rule="evenodd"/></svg>