<svg xmlns="http://www.w3.org/2000/svg" width="512" height="512" viewBox="0 0 512 512" version="1.1"><path d="" stroke="none" fill="#080404" fill-rule="evenodd"/><path d="M 278.500 0.601 C 277.400 0.866, 272.915 1.772, 268.534 2.615 C 225.556 10.887, 188.091 44.816, 174.660 87.626 C 169.995 102.495, 169.007 111.409, 169.003 138.625 L 169 163.750 115.250 197.986 C 85.688 216.816, 60.257 233.535, 58.738 235.140 L 55.977 238.057 56.238 362.279 L 56.500 486.500 59.094 492 C 62.403 499.014, 68.986 505.597, 76 508.906 L 81.500 511.500 179 511.500 L 276.500 511.500 282.196 508.830 C 292.621 503.943, 299.800 494.602, 301.985 483.079 C 302.636 479.648, 303 435.239, 303 359.331 C 303 260.940, 302.767 240.392, 301.621 237.718 C 300.466 235.022, 292.632 229.635, 253.371 204.537 C 227.592 188.058, 202.743 172.164, 198.152 169.218 L 189.804 163.862 190.274 134.181 C 190.686 108.134, 191 103.553, 192.836 96.766 C 198.011 77.641, 206.975 61.941, 220.447 48.405 C 234.859 33.925, 248.996 25.695, 268.535 20.409 C 277.353 18.024, 280.342 17.709, 294.500 17.668 C 311.838 17.618, 319.507 18.973, 333.734 24.600 C 362.182 35.850, 385.117 60.428, 394.379 89.589 C 399.686 106.298, 399.500 100.458, 399.500 250.411 L 399.500 390.322 383.504 400.606 C 374.706 406.262, 366.718 411.865, 365.754 413.056 C 364.145 415.042, 364 418.646, 364 456.546 C 364 483.312, 364.375 498.862, 365.064 500.685 C 366.511 504.516, 370.826 508.958, 374.718 510.623 C 378.784 512.363, 440.181 512.638, 444.685 510.936 C 448.134 509.633, 452.695 505.425, 454.589 501.800 C 455.738 499.600, 456 491.317, 456 457.160 C 456 418.565, 455.859 415.048, 454.234 413.041 C 453.263 411.841, 445.275 406.256, 436.484 400.629 L 420.500 390.398 419.966 248.449 C 419.383 93.837, 419.766 104.047, 413.879 86.013 C 400.353 44.575, 364.429 12.271, 321 2.493 C 313.733 0.856, 283.109 -0.507, 278.500 0.601 M 122.750 218.143 L 77 247.339 77 306.030 L 77 364.722 84.750 368.229 C 99.931 375.101, 110.295 377.422, 125.500 377.355 C 132.201 377.325, 139.194 376.653, 143.392 375.635 C 152.146 373.511, 164.568 367.702, 174.083 361.281 C 204.872 340.506, 237.898 336.714, 273.750 349.840 L 282 352.860 282 300.100 L 282 247.341 236.250 218.209 L 190.500 189.077 190.207 198.288 L 189.914 207.500 193.506 210.387 C 198.670 214.536, 201 219.701, 201 227 C 201 239.534, 191.749 249, 179.500 249 C 159.111 249, 149.798 223.204, 165.511 210.252 L 169.079 207.310 168.790 198.129 L 168.500 188.947 122.750 218.143 M 226.500 363.656 C 210.759 365.525, 200.174 369.592, 184.177 379.919 C 171.034 388.403, 161.538 392.829, 149.175 396.233 C 142.826 397.982, 138.735 398.344, 125.500 398.330 C 107.653 398.311, 101.404 397.260, 85.646 391.628 L 75.907 388.147 76.204 434.323 C 76.499 480.319, 76.509 480.514, 78.766 484.144 C 83.279 491.402, 77.399 491, 179.151 490.998 C 264.143 490.997, 270.739 490.875, 273.929 489.248 C 275.815 488.287, 278.290 486.230, 279.429 484.677 C 281.453 481.920, 281.506 480.657, 281.776 429.453 L 282.052 377.051 275.276 373.666 C 265.775 368.920, 257.114 366.258, 245.500 364.514 C 235.778 363.054, 232.731 362.916, 226.500 363.656 M 396.798 416.396 L 384.095 424.500 384.048 457.750 L 384 491 409.500 491 L 435 491 435 457.600 L 435 424.199 423.250 416.777 C 416.788 412.695, 411.050 409.116, 410.500 408.823 C 409.950 408.531, 403.784 411.939, 396.798 416.396" stroke="none" fill="#040404" fill-rule="evenodd"/></svg>