<svg xmlns="http://www.w3.org/2000/svg" width="512" height="512" viewBox="0 0 512 512" version="1.1"><path d="" stroke="none" fill="#080404" fill-rule="evenodd"/><path d="M 9.924 23.580 L 7.500 26.161 7.233 136.248 C 6.969 244.834, 6.938 246.355, 4.977 247.729 C 1.007 250.510, 0 254.283, 0 266.385 C 0 279.019, 0.523 281.260, 4.363 285.095 L 6.962 287.689 7.231 386.764 L 7.500 485.839 9.924 488.420 L 12.349 491 256 491 L 499.651 491 502.076 488.420 L 504.500 485.839 504.769 386.764 L 505.038 287.689 507.509 285.219 C 512.193 280.535, 513 277.531, 513 264.787 C 513 257.721, 512.623 253.115, 512.072 253.456 C 511.562 253.771, 510.860 253.134, 510.513 252.041 C 510.166 250.947, 508.791 249.194, 507.458 248.146 L 505.035 246.239 504.767 136.200 L 504.500 26.161 502.076 23.580 L 499.651 21 256 21 L 12.349 21 9.924 23.580 M 30.547 41.072 C 46.961 57.982, 92.256 75.375, 146 85.405 C 160.956 88.196, 183.650 91.274, 203.500 93.203 C 221.184 94.922, 290.093 94.913, 308.500 93.189 C 328.218 91.342, 355.908 87.386, 373.385 83.919 C 423.657 73.947, 465.737 57.263, 481.453 41.072 L 485.406 37 256 37 L 26.594 37 30.547 41.072 M 23 149.992 L 23 243.897 46.429 244.199 C 68.275 244.480, 70.045 244.639, 72.618 246.562 C 78.817 251.195, 79.500 253.109, 79.500 265.843 C 79.500 275.060, 79.109 278.410, 77.656 281.641 L 75.813 285.741 80.287 300.121 C 82.748 308.029, 86.024 318.887, 87.567 324.250 L 90.373 334 256 334 L 421.627 334 424.433 324.250 C 425.976 318.887, 429.252 308.029, 431.713 300.121 L 436.187 285.741 434.344 281.641 C 432.891 278.410, 432.500 275.060, 432.500 265.843 C 432.500 253.109, 433.183 251.195, 439.382 246.562 C 441.955 244.639, 443.725 244.480, 465.571 244.199 L 489 243.897 489 149.992 L 489 56.087 481.464 61.494 C 474.139 66.750, 452.711 78, 450.026 78 C 448.950 78, 448.810 80.564, 449.305 91.250 C 450.751 122.478, 458.207 160.872, 471.444 205.251 C 475.060 217.373, 475.094 220.017, 471.673 222.856 C 470.829 223.557, 468.725 224.170, 466.996 224.219 C 461.688 224.370, 459.706 221.122, 454.659 204 C 442.896 164.094, 436.385 131.177, 433.998 99.556 C 433.419 91.887, 432.778 85.445, 432.574 85.240 C 432.369 85.036, 427.094 86.448, 420.851 88.380 C 414.608 90.311, 405.675 92.833, 401 93.985 C 396.325 95.136, 391.950 96.266, 391.278 96.497 C 390.405 96.796, 391.019 99.572, 393.424 106.208 C 405.164 138.593, 421.480 169.774, 442.128 199.283 C 447.048 206.314, 451.556 213.125, 452.145 214.420 C 453.516 217.427, 451.556 221.835, 447.951 223.856 C 443.105 226.572, 439.665 223.648, 428.385 207.226 C 406.420 175.247, 390.568 144.868, 378.955 112.500 C 376.587 105.900, 374.592 100.401, 374.522 100.280 C 374.314 99.924, 344.591 105.075, 344.117 105.550 C 343.372 106.295, 354.858 129.036, 361.265 139.500 C 373.341 159.221, 388.941 180.249, 406.891 201 C 411.410 206.225, 415.769 211.734, 416.575 213.241 C 420.764 221.068, 410.974 228.027, 404.373 221.917 C 400.216 218.069, 377.721 190.955, 369.891 180.352 C 353.544 158.218, 338.151 132.660, 330.921 115.645 C 329.251 111.715, 327.573 108.213, 327.193 107.863 C 326.812 107.513, 319.300 107.902, 310.500 108.728 C 288.513 110.792, 223.487 110.792, 201.500 108.728 C 192.700 107.902, 185.218 107.513, 184.872 107.863 C 184.527 108.213, 182.393 112.654, 180.131 117.732 C 167.273 146.589, 138.340 188.728, 111.348 217.908 C 106.267 223.401, 104.948 224.303, 102.110 224.222 C 96.064 224.050, 92.643 218.421, 95.436 213.241 C 96.249 211.734, 101.930 204.650, 108.061 197.500 C 124.752 178.034, 141.830 154.602, 153.249 135.500 C 157.858 127.790, 168.449 106.115, 167.883 105.550 C 167.409 105.075, 137.686 99.924, 137.478 100.280 C 137.408 100.401, 135.413 105.900, 133.045 112.500 C 121.432 144.868, 105.580 175.247, 83.615 207.226 C 72.416 223.530, 69.291 226.208, 64.271 223.801 C 60.714 222.095, 58.983 218.545, 59.993 215.024 C 60.427 213.511, 64.840 206.474, 69.799 199.387 C 90.523 169.769, 106.820 138.637, 118.576 106.208 C 120.981 99.572, 121.595 96.796, 120.722 96.497 C 120.050 96.266, 115.675 95.136, 111 93.985 C 106.325 92.833, 97.392 90.311, 91.149 88.380 C 84.906 86.448, 79.631 85.036, 79.426 85.240 C 79.222 85.445, 78.581 91.887, 78.002 99.556 C 76.761 115.993, 74.879 129.646, 71.392 147.500 C 65.505 177.645, 54.130 217.990, 50.411 221.917 C 47.828 224.642, 43.077 225.139, 40.449 222.958 C 36.896 220.009, 36.911 217.470, 40.556 205.251 C 53.793 160.872, 61.249 122.478, 62.695 91.250 C 63.190 80.564, 63.050 78, 61.974 78 C 59.289 78, 37.861 66.750, 30.536 61.494 L 23 56.087 23 149.992 M 0.389 266.500 C 0.390 273.650, 0.550 276.444, 0.742 272.708 C 0.935 268.973, 0.934 263.123, 0.739 259.708 C 0.545 256.294, 0.387 259.350, 0.389 266.500 M 15 267 L 15 274 39.500 274 L 64 274 64 267 L 64 260 39.500 260 L 15 260 15 267 M 448 267 L 448 274 472.500 274 L 497 274 497 267 L 497 260 472.500 260 L 448 260 448 267 M 23 382.527 L 23 475.053 37.738 474.777 L 52.476 474.500 53.920 471.500 C 64.521 449.486, 57.299 388.328, 34.376 306 C 32.462 299.125, 30.664 292.712, 30.381 291.750 C 30.019 290.523, 28.839 290, 26.433 290 L 23 290 23 382.527 M 48.647 298.250 C 61.740 342.993, 73.776 404.981, 74.094 429.312 L 74.188 436.500 75.510 429.862 C 76.237 426.212, 77.571 421.797, 78.473 420.053 C 81.154 414.868, 87.033 409.024, 92.437 406.172 L 97.500 403.500 124.311 403.190 C 154.498 402.841, 157.502 403.314, 164.809 409.568 L 168.899 413.069 173.814 409.538 C 182.453 403.332, 184.423 403, 212.615 403 C 240.834 403, 244.184 403.598, 252.248 410.079 L 256.159 413.222 258.829 410.668 C 260.298 409.263, 264.060 406.942, 267.189 405.511 L 272.879 402.909 300.189 403.204 C 326.580 403.490, 327.652 403.579, 332 405.840 C 334.475 407.126, 337.702 409.314, 339.171 410.701 L 341.841 413.222 345.752 410.079 C 353.821 403.594, 357.157 403, 385.473 403 C 408.728 403, 411.401 403.178, 416.433 405.061 C 426.279 408.745, 434.349 418.690, 435.654 428.747 C 436.698 436.797, 437.937 437.099, 437.970 429.312 C 438.069 405.795, 450.179 343.270, 463.353 298.250 L 465.767 290 458.600 290 L 451.433 290 444.742 311.750 C 441.062 323.712, 435.749 342.500, 432.935 353.500 C 429.444 367.148, 427.157 374.215, 425.735 375.750 C 421.318 380.520, 412.991 377.044, 413.007 370.436 C 413.011 368.821, 413.911 363.759, 415.007 359.187 C 416.103 354.614, 417 350.677, 417 350.437 C 417 350.196, 344.550 350, 256 350 C 167.450 350, 95 350.208, 95 350.461 C 95 350.715, 95.900 354.782, 97 359.500 C 99.685 371.015, 99.593 373.388, 96.365 375.927 C 92.951 378.613, 89.727 378.554, 86.611 375.750 C 84.566 373.909, 83.187 369.861, 79.036 353.500 C 76.245 342.500, 70.952 323.712, 67.275 311.750 L 60.588 290 53.411 290 L 46.233 290 48.647 298.250 M 481.619 291.750 C 481.336 292.712, 479.538 299.125, 477.624 306 C 454.701 388.328, 447.479 449.486, 458.080 471.500 L 459.524 474.500 474.262 474.777 L 489 475.053 489 382.527 L 489 290 485.567 290 C 483.161 290, 481.981 290.523, 481.619 291.750 M 103.123 418.961 C 98.601 420.084, 95.095 422.833, 92.851 427.017 C 91.208 430.080, 91 432.974, 91 452.734 L 91 475 126 475 L 161 475 161 452.148 C 161 430.095, 160.921 429.179, 158.747 425.952 C 154.085 419.035, 152.022 418.522, 128 418.311 C 116.175 418.207, 104.980 418.499, 103.123 418.961 M 189.513 419.086 C 184.560 420.305, 179.297 425.272, 177.996 429.956 C 177.454 431.905, 177.009 442.837, 177.006 454.250 L 177 475 212.500 475 L 248 475 248 453.316 C 248 433.428, 247.828 431.277, 245.929 427.353 C 244.713 424.842, 242.339 422.131, 240.179 420.788 C 236.674 418.608, 235.484 418.491, 215 418.302 C 203.175 418.194, 191.706 418.546, 189.513 419.086 M 276.123 418.961 C 271.511 420.106, 267.839 422.977, 265.752 427.071 C 264.242 430.031, 264.003 433.543, 264.002 452.750 L 264 475 299 475 L 334 475 334 452.148 C 334 430.095, 333.921 429.179, 331.747 425.952 C 327.085 419.035, 325.022 418.522, 301 418.311 C 289.175 418.207, 277.980 418.499, 276.123 418.961 M 363 418.922 C 357.836 419.942, 354.354 422.637, 352.049 427.399 C 350.177 431.266, 350 433.502, 350 453.316 L 350 475 385.500 475 L 421 475 420.994 454.250 C 420.991 442.837, 420.546 431.905, 420.004 429.956 C 418.607 424.925, 413.110 419.944, 407.829 418.924 C 402.690 417.931, 368.023 417.929, 363 418.922 M 73.983 450.750 C 73.967 456.647, 72.535 465.499, 70.422 472.750 C 69.861 474.677, 70.142 475, 72.383 475 L 75 475 75 459.500 C 75 450.975, 74.775 444, 74.500 444 C 74.225 444, 73.992 447.038, 73.983 450.750 M 437.145 459.250 L 437 475 439.500 475 C 442.462 475, 442.426 475.274, 440.375 468.217 C 439.481 465.143, 438.421 458.323, 438.020 453.064 C 437.314 443.808, 437.286 444.007, 437.145 459.250" stroke="none" fill="#040404" fill-rule="evenodd"/></svg>