<svg xmlns="http://www.w3.org/2000/svg" width="512" height="512" viewBox="0 0 512 512" version="1.1"><path d="" stroke="none" fill="#080404" fill-rule="evenodd"/><path d="M 104.500 14.338 C 97.879 16.532, 94.663 18.585, 89.891 23.663 L 85.345 28.500 77.922 28.579 C 72.263 28.639, 69.312 29.227, 65.500 31.055 C 45.961 40.423, 40.949 65.673, 55.448 81.702 C 57.835 84.341, 61.298 87.274, 63.144 88.220 C 70.171 91.822, 114.630 108.328, 117.311 108.331 C 118.985 108.332, 121.050 107.356, 122.418 105.917 C 123.682 104.588, 129.364 92.025, 135.046 78 C 144.906 53.665, 145.380 52.157, 145.426 44.994 C 145.465 38.769, 145.003 36.527, 142.716 31.853 C 139.473 25.223, 132.723 18.650, 126.192 15.761 C 120.453 13.222, 109.948 12.533, 104.500 14.338 M 391.383 13.888 C 381.378 16.472, 373.729 23.015, 369.177 32.880 C 367.133 37.311, 366.598 39.981, 366.651 45.500 C 366.713 52.007, 367.447 54.293, 377.067 77.937 C 382.760 91.927, 388.377 104.489, 389.550 105.853 C 390.913 107.438, 392.734 108.332, 394.592 108.331 C 397.426 108.328, 441.168 91.996, 448.885 88.058 C 451.014 86.972, 454.596 83.993, 456.845 81.439 C 471.005 65.352, 465.885 40.404, 446.500 31.036 C 442.795 29.245, 439.511 28.553, 433.820 28.364 L 426.141 28.108 421.962 23.575 C 416.419 17.561, 409.145 14.081, 400.951 13.522 C 397.403 13.280, 393.097 13.445, 391.383 13.888 M 106.179 31.682 C 104.303 32.607, 101.170 35.805, 98.977 39.034 C 96.842 42.177, 94.333 45.042, 93.401 45.400 C 92.469 45.757, 87.835 45.783, 83.103 45.457 C 75.523 44.934, 74.112 45.109, 71.241 46.923 C 62.416 52.498, 61.451 66.413, 69.485 72.260 C 73.166 74.939, 111.160 89.240, 112.100 88.300 C 112.553 87.847, 116.584 78.482, 121.057 67.488 C 127.861 50.769, 129.106 46.860, 128.669 43.587 C 127.273 33.130, 115.686 26.997, 106.179 31.682 M 392.500 31.412 C 387.042 33.837, 383 39.876, 383 45.603 C 383 48.041, 398.298 86.698, 399.895 88.295 C 400.624 89.024, 434.367 76.838, 441.153 73.395 C 447.802 70.022, 450.256 58.600, 445.750 51.999 C 441.859 46.299, 437.782 44.783, 428.338 45.524 C 418.641 46.285, 417.325 45.740, 413.146 39.228 C 407.989 31.192, 399.892 28.126, 392.500 31.412 M 275.135 53.045 C 272.184 53.466, 266.494 55.428, 262.491 57.407 L 255.212 61.005 249.709 58.110 C 222.103 43.588, 188.319 65.122, 190.262 96 C 191.106 109.405, 193.476 113.716, 207.884 128.053 C 214.823 134.957, 228.039 147.670, 237.253 156.303 C 251.702 169.840, 254.449 172, 257.223 172 C 260.062 172, 262.591 169.849, 278.720 153.720 C 296.550 135.890, 297 135.338, 297 131.293 C 297 128.003, 296.455 126.716, 294.365 125.073 C 288.847 120.732, 286.935 121.730, 271.535 137 C 263.768 144.700, 257.136 151, 256.797 151 C 256.457 151, 246.127 141.546, 233.840 129.992 C 209.118 106.743, 207.018 103.924, 207.035 94 C 207.047 86.788, 209.584 81.416, 215.394 76.302 C 224.316 68.449, 233.945 68.205, 246.114 75.524 C 250.176 77.968, 254.537 79.974, 255.805 79.983 C 257.073 79.992, 260.857 78.134, 264.215 75.854 C 267.573 73.574, 272.386 71.075, 274.910 70.301 C 283.087 67.796, 292.256 70.440, 298.699 77.162 C 306.085 84.867, 307.072 94.879, 301.500 105.569 C 299.575 109.263, 298 113.155, 298 114.219 C 298 117.128, 303.371 122, 306.578 122 C 310.361 122, 316.220 115.605, 319.126 108.305 C 320.961 103.695, 321.441 100.544, 321.461 93 C 321.483 84.376, 321.192 82.880, 318.308 76.777 C 310.188 59.597, 293.507 50.427, 275.135 53.045 M 59.882 192.381 C 51.208 195.481, 46.017 200.332, 42.072 209.028 C 40.131 213.307, 40.043 215.451, 40.022 258.750 L 40 304 30.556 304 C 22.017 304, 20.843 304.231, 18.306 306.412 L 15.500 308.823 15.195 330.412 L 14.890 352 10.080 352 C 6.728 352, 4.471 352.628, 2.635 354.073 L -0 356.145 -0 403.991 C -0 430.306, 0.280 452.565, 0.621 453.455 C 1.701 456.269, 6.586 458, 13.450 458 L 20 458 20.032 475.750 C 20.054 488.124, 20.433 493.981, 21.282 495.087 C 23.924 498.528, 26.724 499, 44.480 499 C 68.359 499, 67 500.385, 67 476.045 L 67 458 259.500 458 L 452 458 452 476.045 C 452 500.373, 450.659 499, 474.407 499 C 485.102 499, 492.853 498.568, 494.343 497.890 C 498.391 496.045, 499 493.048, 499 474.953 L 499 458 502.066 458 C 505.764 458, 508.902 456.505, 511.228 453.633 C 512.811 451.679, 512.957 447.447, 512.978 403.083 C 512.990 376.454, 512.715 354.952, 512.366 355.301 C 512.017 355.649, 510.607 355.049, 509.231 353.967 C 507.856 352.885, 505.916 352, 504.920 352 C 503.239 352, 503.089 350.466, 502.805 330.412 L 502.500 308.823 499.694 306.412 C 497.031 304.122, 496.209 304, 483.473 304 L 470.058 304 469.779 258.250 L 469.500 212.500 466.668 206.733 C 464.802 202.932, 462.279 199.778, 459.266 197.477 C 450.175 190.535, 464.853 190.995, 254.068 191.044 C 100.869 191.079, 62.791 191.341, 59.882 192.381 M 63.388 208.980 C 62.227 209.449, 60.314 211.057, 59.138 212.552 C 57.027 215.235, 57 215.829, 57 259.635 L 57 304 255 304 L 453 304 453 260.450 C 453 212.672, 452.991 212.598, 447.033 209.517 C 444.440 208.176, 422.132 208.007, 254.800 208.063 C 150.685 208.098, 64.550 208.511, 63.388 208.980 M 106 247.603 C 89.862 251.921, 77.361 265.991, 74.765 282.760 C 73.085 293.616, 75.613 299, 82.389 299 C 87.997 299, 89.997 296.514, 91.034 288.258 C 92.119 279.615, 94.504 274.584, 99.774 269.823 C 107.456 262.883, 107.345 262.896, 156.500 263.215 C 205.522 263.533, 204.300 263.367, 211.636 270.703 C 216.333 275.400, 217.926 278.972, 218.947 287.104 C 219.593 292.250, 220.457 294.858, 222.093 296.599 C 225.211 299.918, 230.256 299.835, 233.682 296.409 C 236.147 293.944, 236.247 293.432, 235.731 285.910 C 234.476 267.594, 221.575 252.250, 203.465 247.533 C 195.011 245.331, 114.276 245.389, 106 247.603 M 304.105 247.583 C 285.404 252.611, 272 269.492, 272 288.014 C 272 293.133, 272.387 294.478, 274.455 296.545 C 277.705 299.796, 282.847 299.857, 285.830 296.680 C 287.388 295.023, 288.267 292.312, 288.912 287.177 C 290.418 275.176, 296.943 266.942, 307.202 264.093 C 310.310 263.230, 323.542 262.983, 355 263.200 C 397.710 263.495, 398.575 263.540, 402.643 265.716 C 411.034 270.203, 417 280.389, 417 290.227 C 417 301.128, 431.421 302.144, 433.571 291.395 C 434.446 287.019, 432.417 277.478, 429.134 270.537 C 423.688 259.020, 413.687 250.686, 401.540 247.542 C 393.057 245.347, 312.293 245.381, 304.105 247.583 M 32 336.500 L 32 352 236 352 C 437.791 352, 440.021 352.021, 441.975 353.975 C 446.467 358.467, 445.267 365.155, 439.538 367.548 C 436.539 368.802, 407.355 369, 226.032 369 L 16 369 16 405 L 16 441 256 441 L 496 441 496 405 L 496 369 479.149 369 C 460.301 369, 456.692 368.240, 454.388 363.784 C 452.552 360.233, 453.183 356.839, 456.201 354.028 C 458.169 352.194, 459.697 352, 472.189 352 L 486 352 486 336.500 L 486 321 259 321 L 32 321 32 336.500 M 0.463 404.500 C 0.463 431.450, 0.592 442.331, 0.749 428.681 C 0.907 415.030, 0.906 392.980, 0.749 379.681 C 0.592 366.381, 0.463 377.550, 0.463 404.500 M 37 470 L 37 482 44 482 L 51 482 51 470 L 51 458 44 458 L 37 458 37 470 M 468 470 L 468 482 475 482 L 482 482 482 470 L 482 458 475 458 L 468 458 468 470" stroke="none" fill="#040404" fill-rule="evenodd"/></svg>