<?xml version="1.0" standalone="no"?>
<!DOCTYPE svg PUBLIC "-//W3C//DTD SVG 20010904//EN"
 "http://www.w3.org/TR/2001/REC-SVG-20010904/DTD/svg10.dtd">
<svg version="1.0" xmlns="http://www.w3.org/2000/svg"
 width="512.000000pt" height="512.000000pt" viewBox="0 0 512.000000 512.000000"
 preserveAspectRatio="xMidYMid meet">

<g transform="translate(0.000000,512.000000) scale(0.100000,-0.100000)"
fill="#000000" stroke="none">
<path d="M2500 5109 c-14 -6 -38 -22 -54 -37 -15 -15 -174 -272 -353 -570
-179 -299 -328 -540 -333 -535 -4 4 -107 141 -228 303 -141 188 -233 302 -254
315 -42 24 -121 25 -166 2 -26 -14 -144 -185 -564 -815 -293 -438 -536 -813
-541 -832 -14 -51 -1 -105 35 -146 46 -52 63 -58 184 -64 l111 -5 -163 -218
c-89 -121 -165 -229 -168 -240 -18 -69 14 -153 72 -189 31 -19 55 -24 149 -28
l111 -5 -159 -214 c-87 -118 -164 -231 -170 -251 -22 -72 14 -156 81 -191 32
-18 64 -19 397 -19 l363 0 0 -514 0 -514 -114 -4 c-97 -2 -119 -6 -142 -24
-47 -35 -67 -70 -72 -128 -5 -66 23 -125 78 -159 l35 -22 1926 -3 1925 -2 45
23 c108 57 121 209 23 283 -36 28 -43 29 -161 32 l-123 4 0 514 0 514 363 0
c333 0 365 1 397 19 67 35 103 119 81 190 -6 20 -82 134 -170 252 l-159 214
112 5 c93 4 117 9 148 28 58 36 90 120 72 189 -3 11 -79 119 -168 240 l-163
218 111 5 c121 6 138 12 184 64 36 41 49 95 35 146 -5 19 -248 393 -540 830
-412 617 -538 799 -564 815 -21 12 -53 19 -84 19 -32 0 -62 -7 -83 -19 -21
-13 -109 -121 -239 -295 -114 -151 -217 -287 -229 -303 l-23 -27 -324 542
c-179 299 -338 555 -353 570 -49 46 -116 60 -174 37z m420 -1090 c195 -325
357 -595 358 -600 2 -5 -53 -9 -123 -9 -105 0 -132 -3 -164 -20 -62 -31 -99
-107 -87 -174 4 -19 90 -173 191 -343 l185 -308 -133 -5 c-143 -5 -157 -10
-205 -64 -34 -39 -48 -89 -38 -138 4 -18 89 -170 190 -338 l184 -305 -211 -5
c-222 -5 -247 -10 -289 -57 -48 -53 -48 -53 -48 -703 l0 -610 -170 0 -170 0 0
610 c0 650 0 650 -48 703 -42 47 -67 52 -289 57 l-211 5 184 305 c101 168 186
320 190 338 10 49 -4 99 -38 138 -48 54 -62 59 -205 64 l-133 5 185 308 c101
170 187 324 191 343 12 67 -25 143 -87 174 -32 17 -59 20 -164 20 -72 0 -125
4 -123 9 7 19 713 1190 718 1191 3 0 165 -266 360 -591z m-1522 -135 l180
-241 -104 -174 c-94 -157 -104 -179 -104 -223 0 -60 31 -119 80 -149 30 -19
52 -22 163 -26 70 -1 127 -4 127 -6 0 -2 -82 -140 -182 -307 l-182 -303 -1
-65 c0 -53 4 -71 24 -99 40 -55 88 -71 224 -71 64 0 117 -2 117 -5 0 -3 -78
-137 -174 -298 -212 -357 -196 -326 -196 -385 0 -54 25 -100 73 -136 27 -20
44 -21 315 -26 l287 -5 3 -512 2 -513 -425 0 -424 0 -3 617 c-3 697 0 668 -81
721 l-40 27 -279 5 -279 5 161 215 c88 118 163 225 167 238 10 42 -3 118 -27
152 -37 51 -89 70 -202 70 -54 0 -98 2 -98 5 0 3 62 87 138 187 197 262 192
253 192 319 0 62 -22 105 -73 143 -25 18 -45 21 -157 24 l-129 4 356 534 c196
294 360 531 363 527 4 -5 89 -117 188 -249z m2871 -272 c189 -283 345 -520
347 -527 4 -11 -21 -14 -120 -17 -138 -3 -158 -11 -204 -79 -20 -29 -23 -44
-20 -95 l4 -62 162 -216 c89 -119 162 -218 162 -221 0 -3 -44 -5 -97 -5 -114
0 -166 -19 -203 -70 -24 -34 -37 -110 -27 -152 4 -13 79 -120 167 -238 l161
-215 -279 -5 -279 -5 -40 -27 c-81 -53 -78 -24 -81 -721 l-3 -617 -424 0 -425
0 2 512 3 513 287 5 c271 5 288 6 315 26 49 37 73 82 73 139 0 49 -9 66 -185
363 -102 171 -185 314 -185 317 0 3 53 5 118 5 135 0 183 16 223 71 20 28 24
46 24 99 l-1 65 -182 303 c-100 167 -182 305 -182 307 0 2 57 5 128 6 110 4
132 7 162 26 54 33 83 93 78 157 -4 44 -19 76 -105 220 l-101 168 186 249
c103 137 189 245 193 241 4 -4 160 -238 348 -520z"/>
</g>
</svg>
