<svg xmlns="http://www.w3.org/2000/svg" width="512" height="512" viewBox="0 0 512 512" version="1.1"><path d="" stroke="none" fill="#080404" fill-rule="evenodd"/><path d="M 121.613 0.887 C 111.397 2.424, 109.479 8.156, 109.695 36.500 C 109.895 62.839, 114.057 82.428, 123.505 101.500 C 135.345 125.402, 153.495 140.363, 182.304 149.970 L 193.108 153.572 188.434 156.630 L 183.759 159.687 176.130 156.363 C 164.294 151.206, 155.656 149.638, 142.603 150.279 C 126.680 151.060, 114.465 155.537, 101.340 165.404 C 70.085 188.899, 53.741 235.587, 60.568 281.872 C 62.625 295.817, 67.914 320.864, 73.442 342.837 C 90.477 410.541, 110.793 455.829, 134.959 479.967 C 147.524 492.519, 157.190 497.614, 173.135 500.090 C 183.668 501.726, 200.025 500.793, 207.806 498.113 L 214.113 495.941 218.103 499.356 C 227.368 507.287, 241.495 512, 256 512 C 270.526 512, 282.756 508.003, 292.994 499.911 L 297.978 495.971 304.239 498.128 C 311.974 500.793, 328.362 501.721, 338.865 500.090 C 354.806 497.614, 364.489 492.512, 376.999 479.995 C 406.709 450.271, 432.315 383.953, 450.164 290.500 C 453.466 273.212, 453.460 246.973, 450.151 232.081 C 445.882 212.871, 439.205 197.774, 428.904 184.036 C 412.791 162.550, 393.220 151.447, 369.397 150.279 C 356.421 149.642, 347.778 151.198, 336.014 156.286 L 328.528 159.524 320.656 154.793 C 308.217 147.317, 289.940 141.056, 276 139.495 C 272.975 139.156, 269.488 138.673, 268.250 138.421 L 266 137.962 266 99.904 L 266 61.846 263.077 58.923 C 260.995 56.841, 259.178 56, 256.762 56 C 253.836 56, 253.128 55.493, 251.606 52.301 C 242.130 32.429, 222.641 16.155, 198.478 7.937 C 181.556 2.181, 172.522 0.833, 148.500 0.477 C 136.400 0.298, 124.301 0.483, 121.613 0.887 M 136.804 20.722 L 131.108 21.097 130.420 25.683 C 130.042 28.206, 130.049 35.722, 130.437 42.385 C 133.558 96.064, 154.413 123.064, 200.862 133.559 C 206.612 134.858, 215.183 136.191, 219.908 136.520 C 224.634 136.849, 229.625 137.344, 231 137.621 C 232.759 137.974, 225.272 129.865, 205.750 110.271 L 178 82.418 178 77.896 C 178 74.248, 178.532 72.881, 180.750 70.823 C 184.123 67.693, 187.378 66.820, 190.857 68.113 C 192.311 68.653, 205.087 80.658, 219.250 94.790 L 245 120.486 244.996 112.993 C 244.994 108.872, 244.308 101.225, 243.472 96 C 235.373 45.373, 208.195 23.249, 151 20.723 C 146.325 20.517, 139.937 20.516, 136.804 20.722 M 239.500 159.634 C 225.220 161.807, 209.332 167.631, 199.067 174.456 C 183.860 184.565, 175.668 197.793, 173.066 216.441 C 171.295 229.127, 178.004 309.551, 184.583 354.500 C 197.863 445.230, 217.704 486.427, 250.348 491.050 C 271.662 494.068, 289.933 480.906, 302.657 453.366 C 310.653 436.060, 319.181 404.869, 324.417 373.782 C 325.780 365.686, 327.373 358.172, 327.956 357.083 C 331.057 351.289, 339.334 350.180, 344.077 354.923 C 347.913 358.759, 347.870 361.158, 343.554 384.703 C 337.021 420.336, 329.414 445.878, 319.344 465.995 C 315.904 472.867, 313.470 478.870, 313.936 479.336 C 315.128 480.528, 332.408 480.326, 339 479.043 C 355.423 475.845, 369.780 461.572, 384.370 433.939 C 401.781 400.963, 420.371 339.956, 430.060 284 C 432.807 268.132, 432.418 245.052, 429.200 232.969 C 420.989 202.143, 403.785 180.644, 381.282 173.088 C 372.839 170.253, 359.688 170.235, 350.589 173.045 L 343.967 175.090 346.373 178.295 C 349.894 182.985, 354.453 192.505, 357.005 200.500 C 360.112 210.230, 360.646 228.732, 358.577 254.953 C 356.818 277.253, 356.242 279.165, 350.580 281.531 C 346.561 283.210, 343.343 282.511, 339.750 279.177 C 336.425 276.093, 336.330 273.533, 338.441 243.851 C 339.919 223.060, 339.443 213.982, 336.376 204.500 C 329.711 183.896, 311.730 169.345, 283.841 161.988 C 277.223 160.242, 272.091 159.724, 259 159.483 C 249.925 159.315, 241.150 159.383, 239.500 159.634 M 139.500 171.153 C 118.710 173.490, 97.505 192.509, 87.889 217.445 C 82.266 232.024, 80.834 239.287, 80.285 256 C 79.714 273.397, 80.779 281.403, 88.070 314.500 C 104.447 388.852, 126.459 442.580, 150.199 466.152 C 157.543 473.443, 164.546 477.401, 173 479.036 C 179.626 480.318, 196.936 480.464, 198.152 479.248 C 198.643 478.757, 196.669 473.844, 193.609 467.940 C 175.827 433.633, 164.399 379.624, 156.594 293 C 149.975 219.543, 150.400 207.179, 160.225 187.500 C 161.873 184.200, 164.292 180.072, 165.602 178.328 L 167.983 175.155 162.778 173.426 C 156.034 171.186, 147.030 170.307, 139.500 171.153 M 336.707 309.016 C 330.431 313.952, 331.454 323.621, 338.568 326.593 C 347.713 330.414, 355.968 321.608, 351.805 312.472 C 349.404 307.202, 341.355 305.360, 336.707 309.016" stroke="none" fill="#040404" fill-rule="evenodd"/></svg>