<svg xmlns="http://www.w3.org/2000/svg" width="512" height="512" viewBox="0 0 512 512" version="1.1"><path d="" stroke="none" fill="#080404" fill-rule="evenodd"/><path d="M 370 88.203 C 359.147 89.007, 347.102 91.445, 314.500 99.438 C 287.613 106.031, 265.627 110, 256 110 C 246.440 110, 224.528 106.059, 197.500 99.477 C 156.558 89.508, 151.665 88.690, 132.500 88.614 C 113.922 88.540, 108.456 89.506, 96.320 95.009 C 50.372 115.843, 15.930 187.576, 2.458 290.500 C 0.271 307.209, -0.559 343.585, 0.908 358.500 C 4.084 390.807, 14.369 410.637, 32.632 419.663 C 39.379 422.997, 40.987 423.372, 50.325 423.787 C 58.571 424.154, 62.241 423.829, 68.927 422.138 C 90.239 416.748, 118.811 398.703, 151.500 369.987 C 168.663 354.910, 171.611 352.654, 180 348.174 C 190.051 342.807, 202.656 338.514, 217.898 335.267 C 229.695 332.754, 232.129 332.583, 256 332.583 C 279.871 332.583, 282.305 332.754, 294.102 335.267 C 309.344 338.514, 321.949 342.807, 332 348.174 C 340.389 352.654, 343.337 354.910, 360.500 369.987 C 391.174 396.933, 416.440 413.428, 438 420.582 C 445.452 423.055, 448.042 423.409, 459 423.451 C 471.025 423.498, 471.756 423.379, 478.223 420.315 C 490.198 414.642, 498.456 405.104, 504.201 390.307 C 507.480 381.863, 511 365.408, 511 358.524 C 511 356.101, 511.450 353.840, 512 353.500 C 512.614 353.121, 513 344.990, 513 332.441 C 513 319.480, 512.634 312, 512 312 C 511.450 312, 511 309.586, 511 306.635 C 511 294.146, 505.025 257.350, 498.939 232.359 C 486.123 179.731, 468.287 141.226, 445.642 117.304 C 431.481 102.344, 418.408 94.142, 402.041 89.952 C 395.270 88.218, 380.607 87.418, 370 88.203 M 127 112.578 C 107.591 115.872, 94.853 122.634, 82.578 136.158 C 56.132 165.294, 34.619 226.442, 26.341 296 C 24.182 314.140, 23.887 352.962, 25.824 364 C 29.128 382.826, 35.597 394.614, 44.500 398.028 C 52.171 400.970, 66.908 398.100, 81.293 390.862 C 94.882 384.026, 117.715 367.249, 137.500 349.564 C 152.611 336.058, 158.627 331.731, 170.876 325.563 C 213.253 304.222, 277.567 301.511, 325.163 319.060 C 342.682 325.520, 353.594 332.549, 372.500 349.556 C 410.112 383.390, 437.885 399.838, 458.064 400.228 C 473.015 400.517, 481.223 389.929, 486.150 364 C 488.085 353.817, 487.791 314.447, 485.651 297.010 C 475.489 214.239, 450.711 150.901, 418.924 126.441 C 405.499 116.111, 392.705 112.471, 372.633 113.270 C 358.366 113.838, 350.241 115.347, 312.821 124.380 C 282.095 131.797, 271.402 133.459, 255 133.368 C 238.563 133.277, 228.878 131.614, 189.500 122.118 C 173.550 118.272, 157.800 114.666, 154.500 114.103 C 147.459 112.904, 130.593 111.968, 127 112.578 M 128.251 152.545 C 120.590 154.608, 116.086 157.229, 110.853 162.669 C 105.713 168.013, 102.683 173.400, 100.953 180.272 C 99.910 184.415, 99.489 184.871, 96.155 185.475 C 85.327 187.437, 74.843 195.511, 69.787 205.782 C 66.769 211.912, 66.500 213.236, 66.500 221.979 C 66.500 230.571, 66.803 232.134, 69.608 238 C 74.779 248.811, 85.590 257.330, 95.893 258.712 C 99.825 259.240, 99.933 259.362, 100.998 264.492 C 104.313 280.458, 120.084 293.016, 136.788 292.989 C 155.595 292.959, 170.223 280.860, 174.396 261.884 C 174.871 259.723, 175.667 259.174, 178.969 258.731 C 188.596 257.440, 200.163 248.254, 204.734 238.270 C 214.544 216.841, 203.321 192.937, 180.232 186.082 C 174.940 184.512, 174.472 184.130, 173.937 180.943 C 171.730 167.805, 159.849 155.586, 146.147 152.360 C 139.099 150.701, 134.938 150.744, 128.251 152.545 M 359.873 155.564 C 357.042 156.436, 353.644 158.592, 351.115 161.121 C 338.541 173.694, 344.849 195.044, 362.291 198.953 C 377.766 202.421, 392.432 187.814, 388.973 172.378 C 387.087 163.964, 381.432 157.837, 373.289 155.386 C 367.695 153.703, 365.837 153.728, 359.873 155.564 M 130.314 176.950 C 125.855 179.669, 124.858 182.079, 124.347 191.377 C 123.594 205.105, 119.970 208.980, 107.849 209.022 C 93.487 209.072, 85.806 218.478, 91.975 228.460 C 94.702 232.872, 98.112 234.216, 108 234.774 C 121.098 235.514, 123.506 238.063, 124.267 252 C 124.763 261.072, 126.696 265.153, 131.595 267.478 C 137.111 270.095, 142.666 269.032, 146.749 264.576 C 149.793 261.256, 150 260.566, 150.002 253.765 C 150.004 240.276, 154.174 235.893, 167.809 235.046 C 177.871 234.421, 181.378 232.733, 183.584 227.454 C 185.469 222.941, 185.369 220.157, 183.173 216.062 C 180.462 211.007, 175.927 209, 167.216 209 C 154.574 209, 151.078 205.613, 150.319 192.628 C 150.058 188.158, 149.376 183.266, 148.804 181.759 C 146.487 175.650, 136.644 173.090, 130.314 176.950 M 312.157 201.693 C 304.518 205.456, 299.044 213.934, 299.044 222 C 299.044 226.937, 301.895 234.162, 305.312 237.882 C 308.349 241.189, 316.779 244.979, 321.124 244.990 C 333.564 245.024, 343.926 234.699, 343.978 222.218 C 344.015 213.274, 339.166 205.343, 331.541 201.880 C 326.397 199.543, 316.710 199.449, 312.157 201.693 M 402.500 201.896 C 384.770 210.105, 386.280 237.137, 404.822 243.455 C 411.120 245.601, 415.665 245.374, 421.500 242.623 C 427.458 239.813, 430.174 237.048, 432.916 231 C 439.538 216.394, 428.635 199.961, 412.365 200.022 C 408.805 200.035, 404.928 200.772, 402.500 201.896 M 359.500 246.061 C 351.095 248.528, 344.671 257.818, 344.643 267.546 C 344.575 290.999, 376.478 298.641, 386.893 277.666 C 391.484 268.420, 389.299 256.979, 381.698 250.473 C 375.712 245.350, 367.490 243.716, 359.500 246.061 M 0.423 333.500 C 0.424 345.050, 0.570 349.638, 0.747 343.696 C 0.924 337.753, 0.923 328.303, 0.745 322.696 C 0.567 317.088, 0.422 321.950, 0.423 333.500" stroke="none" fill="#040404" fill-rule="evenodd"/></svg>