<?xml version="1.0" encoding="UTF-8"?>
<svg version="1.1" xmlns="http://www.w3.org/2000/svg" width="512" height="512">
<path d="M0 0 C0.58797363 0.48645996 1.17594727 0.97291992 1.78173828 1.47412109 C12.64508362 10.5168582 22.21421857 19.88299962 31 31 C31.41040527 31.51224121 31.82081055 32.02448242 32.24365234 32.55224609 C38.47285265 40.33574821 44.08681788 48.30412158 49 57 C49.4242627 57.74749512 49.84852539 58.49499023 50.28564453 59.26513672 C73.73712057 101.06124872 82.51452096 150.76626857 73 198 C72.81195801 198.94037109 72.62391602 199.88074219 72.43017578 200.84960938 C65.60133981 233.64106041 51.02459169 263.11860249 29.69140625 288.81640625 C27.91367348 291.11144694 26.4453673 293.48497251 25 296 C26.06476563 296.60585938 27.12953125 297.21171875 28.2265625 297.8359375 C60.69468321 316.49504175 89.29180236 341.4556629 100.3125 378.375 C101.60857181 383.23661377 102.79428951 387.96009309 103 393 C103.07734375 394.75570312 103.07734375 394.75570312 103.15625 396.546875 C103.57423434 410.68234537 101.99042972 424.06333518 92.21875 434.9921875 C81.2749295 445.44263905 67.26092542 447.40190552 52.75732422 447.29394531 C34.07391814 446.85953031 15.93701248 442.86663533 -2.3079834 439.15301514 C-29.06126467 433.70978583 -55.86250333 428.72301846 -83 425.625 C-83.69595276 425.5451889 -84.39190552 425.46537781 -85.10894775 425.38314819 C-118.56610982 421.60979534 -151.70091295 422.6473876 -185.03125 427.13671875 C-185.82074224 427.24262707 -186.61023449 427.34853539 -187.42365074 427.45765305 C-206.18323393 429.99871578 -224.73408953 433.51800882 -243.3125 437.125 C-323.08388943 452.5789779 -323.08388943 452.5789779 -345 438 C-353.96484499 430.19617592 -357.82425736 420.64130366 -359 409 C-360.68063602 381.10733905 -350.37299438 355.75122461 -332 335 C-319.59243498 321.21721225 -305.27428187 310.05488571 -289.171875 300.90234375 C-286.21868368 299.13115634 -283.6279121 297.2179183 -281 295 C-281.67804688 294.15179688 -282.35609375 293.30359375 -283.0546875 292.4296875 C-286.06710924 288.64342264 -289.04320129 284.82983143 -292 281 C-292.43731445 280.43410156 -292.87462891 279.86820312 -293.32519531 279.28515625 C-325.30310141 237.45053086 -337.5407877 182.74187382 -330.875 130.875 C-325.90502388 96.42159632 -312.24609724 63.56415636 -291 36 C-290.23042969 34.9996875 -289.46085937 33.999375 -288.66796875 32.96875 C-254.61816038 -9.73155023 -205.92406149 -37.43829053 -151.60083008 -43.98461914 C-97.53407077 -49.77996155 -42.07755874 -34.87153809 0 0 Z M-177 -16 C-177.76683105 -15.78891602 -178.53366211 -15.57783203 -179.32373047 -15.36035156 C-204.34734915 -8.26385669 -227.52859011 4.82975673 -247 22 C-247.48662109 22.42635742 -247.97324219 22.85271484 -248.47460938 23.29199219 C-282.99679956 53.67939534 -306.14930247 97.26553724 -309.75390625 143.43359375 C-312.72470579 192.78368866 -298.24165271 241.14477889 -265.55175781 278.66210938 C-262.43642901 282.17393457 -259.25090359 285.61285912 -256 289 C-255.47229004 289.55324951 -254.94458008 290.10649902 -254.40087891 290.67651367 C-250.1798274 295.01431767 -245.70181825 298.79218317 -240.875 302.4375 C-240.12782715 303.00315674 -239.3806543 303.56881348 -238.61083984 304.15161133 C-232.30490138 308.86926262 -225.8818053 313.15638973 -219 317 C-218.29117676 317.39815918 -217.58235352 317.79631836 -216.85205078 318.20654297 C-199.4505947 327.89194771 -182.50189432 333.99381104 -163 338 C-162.21737793 338.16661133 -161.43475586 338.33322266 -160.62841797 338.50488281 C-116.72725162 347.55300031 -68.47793701 337.6207453 -30.81054688 313.60400391 C-4.71156298 296.29924284 16.90753379 274.58899938 32 247 C32.51554443 246.06752441 32.51554443 246.06752441 33.04150391 245.11621094 C55.84298549 203.36521087 59.84078174 153.31545237 46.86328125 107.8515625 C32.71244413 61.60934602 0.54595781 21.99561112 -42 -1 C-83.7449807 -23.08371449 -131.37886862 -28.71276677 -177 -16 Z M2.32421875 315.74609375 C1.58510254 316.33189209 0.84598633 316.91769043 0.08447266 317.52124023 C-0.70652832 318.15360596 -1.4975293 318.78597168 -2.3125 319.4375 C-23.98574475 336.51319422 -45.70912653 348.99102216 -72.64257812 355.41455078 C-74.98202671 355.99553646 -77.29380015 356.63920179 -79.609375 357.30859375 C-106.20461134 364.93130697 -132.84543483 365.93921082 -160 361 C-161.12390137 360.80132324 -162.24780273 360.60264648 -163.40576172 360.39794922 C-179.63405345 357.47698799 -194.92586367 353.74970941 -210 347 C-210.72461426 346.67773438 -211.44922852 346.35546875 -212.19580078 346.0234375 C-221.87127674 341.63906341 -230.58528978 336.18435664 -239.30419922 330.14892578 C-241.77662301 328.47382841 -244.3264911 326.93104368 -246.875 325.375 C-251.43692583 322.53737351 -255.17146001 319.23592668 -258.9296875 315.40625 C-260.89644386 313.7791786 -260.89644386 313.7791786 -263.2734375 314.04296875 C-290.17851747 323.48672891 -317.51769705 346.54547699 -330.14355469 372.11865234 C-336.09280845 385.18733807 -339.28621382 399.96610635 -335 414 C-332.69727069 418.44664969 -330.52596827 420.85016507 -326 423 C-302.37426723 429.99038535 -272.34870568 419.96639758 -248.85919189 415.32821655 C-225.83597841 410.78391586 -202.82250081 406.33441112 -179.5 403.625 C-178.81669617 403.54537018 -178.13339233 403.46574036 -177.42938232 403.38369751 C-161.6840399 401.5773929 -146.02444928 400.76126397 -130.1875 400.75 C-129.32172333 400.74932526 -128.45594666 400.74865051 -127.56393433 400.74795532 C-104.74961239 400.77584028 -82.30791461 402.75317586 -59.75390625 406.1640625 C-59.06153996 406.26860056 -58.36917366 406.37313862 -57.65582657 406.4808445 C-40.89906967 409.03031654 -24.30276732 412.3451929 -7.69549561 415.71661377 C-1.4797817 416.9779366 4.73775712 418.2300412 10.95689011 419.47439003 C13.07947654 419.90096938 15.2007358 420.33369506 17.32192993 420.76713562 C29.40054836 423.20947852 41.57784606 425.366005 53.9375 425.3125 C54.70900391 425.32861328 55.48050781 425.34472656 56.27539062 425.36132812 C63.04157601 425.36703799 68.87484375 423.82894978 74.375 419.6875 C80.0708692 413.85601487 79.40034282 406.53105082 79.36132812 398.88208008 C78.97396179 380.40036475 71.06701781 364.67595352 59 351 C58.31292969 350.18144531 57.62585938 349.36289062 56.91796875 348.51953125 C43.725696 333.18797103 26.19504067 321.6275822 8 313 C5.27885471 313 4.43761824 314.05367375 2.32421875 315.74609375 Z " fill="#000000" transform="translate(384,55)"/>
<path d="M0 0 C21.98472784 16.59977813 36.09248043 40.25535615 39.91748047 67.53393555 C43.23132743 94.46662601 36.04814094 120.84055446 19.453125 142.36376953 C3.18477837 162.62828952 -20.03308549 176.85225836 -46.07519531 180.02783203 C-74.24394655 182.62913612 -100.50157368 176.04000051 -122.62329102 158.14257812 C-144.18684041 140.05499111 -156.7603199 115.2828949 -159.359375 87.23876953 C-161.28624937 60.39774766 -151.83258455 35.01788415 -134.55859375 14.72314453 C-133.83285156 13.90330078 -133.10710937 13.08345703 -132.359375 12.23876953 C-131.74707031 11.54267578 -131.13476562 10.84658203 -130.50390625 10.12939453 C-96.76903854 -25.8352832 -39.05367642 -28.09264165 0 0 Z M-117.26953125 28.70361328 C-124.33084598 37.26958199 -129.7352693 46.73596908 -133.359375 57.23876953 C-133.67777344 58.09857422 -133.99617188 58.95837891 -134.32421875 59.84423828 C-140.29015278 78.89673729 -136.62404641 99.97336837 -127.76879883 117.38525391 C-118.40782142 134.61503215 -102.11299315 148.68911649 -83.3125 154.59033203 C-61.64970326 160.77556122 -41.15288339 158.81231969 -21.359375 148.23876953 C-17.7991113 146.1393749 -14.56477172 143.84451721 -11.359375 141.23876953 C-10.51890625 140.56072266 -9.6784375 139.88267578 -8.8125 139.18408203 C5.59311195 126.91748519 16.26752637 108.6348291 17.86376953 89.57421875 C19.05562228 67.60900771 14.17172988 47.29952335 -0.43359375 30.34033203 C-1.06910156 29.64681641 -1.70460938 28.95330078 -2.359375 28.23876953 C-3.20435547 27.29130859 -3.20435547 27.29130859 -4.06640625 26.32470703 C-17.08023091 12.48799416 -36.1975175 4.0730728 -55.05078125 3.03564453 C-79.13989885 2.74394987 -100.62067352 11.12465177 -117.26953125 28.70361328 Z " fill="#000000" transform="translate(315.359375,133.76123046875)"/>
<path d="M0 0 C0 7.26 0 14.52 0 22 C-1.93875 22.350625 -3.8775 22.70125 -5.875 23.0625 C-14.80612837 25.16165531 -21.34536209 28.92448583 -26.4375 36.6875 C-29.03671177 41.46006399 -30.34350023 46.33119806 -31.45703125 51.62890625 C-32 54 -32 54 -33 55 C-34.63472882 55.08700342 -36.27314055 55.10701063 -37.91015625 55.09765625 C-38.89951172 55.09443359 -39.88886719 55.09121094 -40.90820312 55.08789062 C-41.94912109 55.07951172 -42.99003906 55.07113281 -44.0625 55.0625 C-45.10728516 55.05798828 -46.15207031 55.05347656 -47.22851562 55.04882812 C-49.8190666 55.03699913 -52.40950559 55.02051689 -55 55 C-54.47977635 38.63896618 -48.99252708 24.46695816 -37 13 C-26.15452908 3.80242749 -14.07656588 0 0 0 Z " fill="#000000" transform="translate(256,161)"/>
</svg>
