<svg xmlns="http://www.w3.org/2000/svg" width="512" height="512" viewBox="0 0 512 512" version="1.1"><path d="" stroke="none" fill="#080404" fill-rule="evenodd"/><path d="M 250.174 2.314 C 248.099 4.523, 248 5.497, 248 23.640 C 248 42.219, 248.053 42.701, 250.314 44.826 C 253.486 47.805, 258.957 47.739, 261.826 44.686 C 263.901 42.477, 264 41.503, 264 23.360 C 264 4.781, 263.947 4.299, 261.686 2.174 C 258.514 -0.805, 253.043 -0.739, 250.174 2.314 M 188.159 25.601 C 185.276 27.621, 183.810 31.394, 184.634 34.676 C 185.359 37.565, 213.009 61.713, 216.633 62.623 C 221.706 63.896, 227.967 57.847, 226.663 52.931 C 225.715 49.360, 225.726 49.371, 210.114 36.167 C 194.976 23.364, 192.828 22.331, 188.159 25.601 M 301.886 36.167 C 286.274 49.371, 286.285 49.360, 285.337 52.931 C 284.033 57.847, 290.294 63.896, 295.367 62.623 C 298.991 61.713, 326.641 37.565, 327.366 34.676 C 328.190 31.394, 326.724 27.621, 323.841 25.601 C 319.172 22.331, 317.024 23.364, 301.886 36.167 M 113.690 72.158 C 110.592 74.909, 53.535 203.165, 49.254 217 C 46.879 224.674, 46.617 227.104, 46.562 242 C 46.508 256.278, 46.804 259.549, 48.758 266.289 C 56.283 292.252, 72.877 312.713, 96 324.540 C 99.025 326.087, 101.611 327.421, 101.746 327.506 C 101.965 327.642, 58.763 452.916, 52.422 470.533 L 49.890 477.566 31.285 471.283 C 13.022 465.115, 9.790 464.376, 6.545 465.621 C 4.607 466.365, 2 471.110, 2 473.895 C 2 479.069, 4.842 480.342, 52.383 496.452 C 77.619 505.003, 99.577 512, 101.179 512 C 105.054 512, 109 508.014, 109 504.101 C 109 498.526, 105.895 496.619, 85.500 489.670 C 71.280 484.825, 66.569 482.816, 66.773 481.687 C 67.138 479.677, 117.656 333.996, 118.130 333.588 C 118.334 333.413, 122.550 333.907, 127.500 334.685 C 161.389 340.016, 198.126 323.681, 217.289 294.762 C 225.816 281.893, 227.721 276.149, 240.026 226.189 C 246.486 199.960, 252.581 175.012, 253.569 170.750 C 254.557 166.488, 255.645 163, 255.986 163 C 256.327 163, 257.648 167.387, 258.921 172.750 C 260.194 178.113, 266.299 203.083, 272.488 228.240 C 284.774 278.178, 286.997 284.506, 296.981 297.974 C 317.225 325.282, 351.876 339.817, 384.500 334.685 C 389.450 333.907, 393.675 333.422, 393.889 333.608 C 394.370 334.025, 444.876 479.720, 445.239 481.736 C 445.428 482.789, 440.176 485.030, 426.126 489.888 C 405.540 497.007, 403 498.574, 403 504.156 C 403 508.027, 406.975 512, 410.847 512 C 412.463 512, 434.420 505.004, 459.642 496.453 C 507.159 480.344, 510 479.071, 510 473.895 C 510 471.110, 507.393 466.365, 505.455 465.621 C 502.210 464.376, 498.978 465.115, 480.715 471.283 L 462.110 477.566 459.580 470.533 C 458.188 466.665, 446.464 432.926, 433.526 395.558 C 410.127 327.977, 409.580 326.074, 413.529 326.015 C 414.095 326.007, 418.595 323.384, 423.529 320.187 C 443.099 307.507, 456.610 289.170, 463.242 266.289 C 465.196 259.549, 465.492 256.278, 465.438 242 C 465.383 227.104, 465.121 224.674, 462.746 217 C 459.407 206.211, 401.547 75.165, 398.968 72.550 C 397.811 71.377, 395.740 70.618, 393.772 70.645 C 391.973 70.670, 360.623 80.885, 324.107 93.345 C 287.591 105.805, 256.950 116, 256.016 116 C 255.082 116, 224.582 105.871, 188.239 93.491 C 151.896 81.111, 120.848 70.720, 119.243 70.399 C 117.053 69.961, 115.670 70.399, 113.690 72.158 M 99.465 142.869 C 86.426 172.366, 75.540 197.063, 75.272 197.750 C 74.899 198.710, 77.724 199, 87.438 199 C 99.539 199, 100.198 199.107, 102.545 201.455 C 105.723 204.632, 105.740 209.027, 102.589 212.694 L 100.178 215.500 83.640 215.817 L 67.103 216.133 65.393 221.817 C 64.370 225.216, 63.499 232.354, 63.226 239.577 C 62.848 249.596, 63.130 253.089, 64.880 260.077 C 71.872 287.990, 92.500 308.603, 120.881 316.037 C 148.913 323.379, 177.096 314.981, 196.880 293.390 C 206.765 282.602, 210.934 273.015, 217.926 245 C 221.152 232.075, 224.072 220.263, 224.415 218.750 L 225.038 216 176.469 216 C 123.065 216, 123.248 216.020, 121.147 209.993 C 119.932 206.507, 120.800 203.374, 123.704 200.759 C 125.481 199.159, 129.837 198.997, 177.522 198.759 L 229.406 198.500 237.609 165 C 242.121 146.575, 245.638 131.321, 245.425 131.102 C 245.211 130.883, 232.766 126.537, 217.768 121.444 C 202.771 116.351, 175.351 107.021, 156.835 100.711 L 123.171 89.239 99.465 142.869 M 327.675 110.065 C 294.221 121.478, 266.701 130.970, 266.519 131.158 C 266.337 131.346, 269.879 146.575, 274.391 165 L 282.594 198.500 330.632 198.760 L 378.669 199.019 381.035 201.537 C 384.152 204.856, 384.216 210.229, 381.173 213.272 L 378.946 215.500 332.961 215.779 L 286.976 216.058 287.593 218.779 C 287.932 220.276, 290.844 232.075, 294.065 245 C 298.758 263.834, 300.821 270.288, 304.453 277.506 C 315.059 298.580, 335.081 313.388, 358.490 317.470 C 369.442 319.380, 373.532 319.385, 384.346 317.499 C 415.705 312.030, 439.576 290.195, 447.120 260.077 C 448.870 253.089, 449.152 249.596, 448.774 239.577 C 448.499 232.293, 447.631 225.218, 446.588 221.750 L 444.858 216 425.679 215.985 C 405.089 215.969, 402.696 215.495, 400.126 210.916 C 398.417 207.870, 399.192 203.808, 402.025 200.975 C 403.832 199.168, 405.404 199, 420.500 199 C 429.575 199, 437 198.829, 437 198.619 C 437 198.103, 390.039 91.870, 389.181 90.444 C 388.717 89.674, 369.088 95.936, 327.675 110.065" stroke="none" fill="#040404" fill-rule="evenodd"/></svg>